<svg width="637" height="84" viewBox="0 0 637 84" fill="none" xmlns="http://www.w3.org/2000/svg">
<g filter="url(#filter0_d_126_177)">
<path d="M35.0725 55.752C42.4325 55.752 48.4485 52.84 53.1205 47.016L62.7205 56.904C55.1045 65.48 46.1125 69.768 35.7445 69.768C25.4405 69.768 16.9285 66.504 10.2085 59.976C3.55249 53.448 0.224489 45.224 0.224489 35.304C0.224489 25.32 3.61649 17 10.4005 10.344C17.2485 3.688 25.6005 0.359997 35.4565 0.359997C46.4645 0.359997 55.6805 4.552 63.1045 12.936L53.7925 23.496C49.0565 17.608 43.1685 14.664 36.1285 14.664C30.4965 14.664 25.6645 16.52 21.6325 20.232C17.6645 23.88 15.6805 28.84 15.6805 35.112C15.6805 41.32 17.5685 46.312 21.3445 50.088C25.1205 53.864 29.6965 55.752 35.0725 55.752ZM124.523 35.112C124.523 29.096 122.603 23.976 118.763 19.752C114.923 15.528 110.187 13.416 104.555 13.416C98.9867 13.416 94.2827 15.528 90.4427 19.752C86.6027 23.976 84.6827 29.096 84.6827 35.112C84.6827 41.064 86.6027 46.152 90.4427 50.376C94.2827 54.536 98.9867 56.616 104.555 56.616C110.187 56.616 114.923 54.536 118.763 50.376C122.603 46.152 124.523 41.064 124.523 35.112ZM129.611 59.784C122.827 66.376 114.475 69.672 104.555 69.672C94.6347 69.672 86.2827 66.376 79.4987 59.784C72.7147 53.128 69.3227 44.872 69.3227 35.016C69.3227 25.16 72.7147 16.936 79.4987 10.344C86.2827 3.688 94.6347 0.359997 104.555 0.359997C114.475 0.359997 122.827 3.688 129.611 10.344C136.395 16.936 139.787 25.16 139.787 35.016C139.787 44.872 136.395 53.128 129.611 59.784ZM212.571 26.76L194.427 63.432H185.499L167.451 26.76V69H152.475V1.89599H172.731L190.011 38.76L207.387 1.89599H227.547V69H212.571V26.76ZM304.165 26.76L286.021 63.432H277.093L259.045 26.76V69H244.069V1.89599H264.325L281.605 38.76L298.981 1.89599H319.141V69H304.165V26.76ZM353.423 51.72C355.919 54.792 359.279 56.328 363.503 56.328C367.727 56.328 371.055 54.792 373.487 51.72C375.983 48.584 377.231 44.328 377.231 38.952V1.89599H392.207V39.432C392.207 49.16 389.519 56.648 384.143 61.896C378.767 67.08 371.887 69.672 363.503 69.672C355.119 69.672 348.207 67.048 342.767 61.8C337.391 56.552 334.703 49.096 334.703 39.432V1.89599H349.679V38.952C349.679 44.328 350.927 48.584 353.423 51.72ZM454.7 1.89599H469.676V69H454.7L422.732 26.952V69H407.756V1.89599H421.772L454.7 45.096V1.89599ZM486.225 1.89599H501.201V69H486.225V1.89599ZM546.141 14.856V69H531.165V14.856H512.157V1.89599H565.149V14.856H546.141ZM605.027 69H590.051V42.504L566.819 1.89599H583.043L597.539 26.856L612.035 1.89599H628.259L605.027 42.504V69Z" fill="white"/>
</g>
<defs>
<filter id="filter0_d_126_177" x="0.224609" y="0.359863" width="636.035" height="83.4082" filterUnits="userSpaceOnUse" color-interpolation-filters="sRGB">
<feFlood flood-opacity="0" result="BackgroundImageFix"/>
<feColorMatrix in="SourceAlpha" type="matrix" values="0 0 0 0 0 0 0 0 0 0 0 0 0 0 0 0 0 0 127 0" result="hardAlpha"/>
<feOffset dx="4" dy="10"/>
<feGaussianBlur stdDeviation="2"/>
<feComposite in2="hardAlpha" operator="out"/>
<feColorMatrix type="matrix" values="0 0 0 0 0 0 0 0 0 0 0 0 0 0 0 0 0 0 0.25 0"/>
<feBlend mode="normal" in2="BackgroundImageFix" result="effect1_dropShadow_126_177"/>
<feBlend mode="normal" in="SourceGraphic" in2="effect1_dropShadow_126_177" result="shape"/>
</filter>
</defs>
</svg>
