<svg width="63" height="64" viewBox="0 0 63 64" fill="none" xmlns="http://www.w3.org/2000/svg">
<path d="M31.5 5.75C28.0528 5.75 24.6394 6.42898 21.4546 7.74816C18.2698 9.06735 15.376 11.0009 12.9384 13.4384C8.01562 18.3613 5.25 25.0381 5.25 32C5.25 43.6025 12.7838 53.4462 23.205 56.9375C24.5175 57.1475 24.9375 56.3338 24.9375 55.625V51.1887C17.6663 52.7637 16.1175 47.6712 16.1175 47.6712C14.91 44.6262 13.2038 43.8125 13.2038 43.8125C10.815 42.185 13.3875 42.2375 13.3875 42.2375C16.0125 42.4212 17.4038 44.9413 17.4038 44.9413C19.6875 48.9313 23.5462 47.75 25.0425 47.12C25.2787 45.4138 25.9613 44.2588 26.6963 43.6025C20.8688 42.9463 14.7525 40.6887 14.7525 30.6875C14.7525 27.7737 15.75 25.4375 17.4563 23.5737C17.1938 22.9175 16.275 20.1875 17.7188 16.6438C17.7188 16.6438 19.9238 15.935 24.9375 19.3213C27.0113 18.7438 29.2687 18.455 31.5 18.455C33.7313 18.455 35.9887 18.7438 38.0625 19.3213C43.0762 15.935 45.2812 16.6438 45.2812 16.6438C46.725 20.1875 45.8063 22.9175 45.5438 23.5737C47.25 25.4375 48.2475 27.7737 48.2475 30.6875C48.2475 40.715 42.105 42.92 36.2513 43.5762C37.1963 44.39 38.0625 45.9913 38.0625 48.4325V55.625C38.0625 56.3338 38.4825 57.1738 39.8213 56.9375C50.2425 53.42 57.75 43.6025 57.75 32C57.75 28.5528 57.071 25.1394 55.7518 21.9546C54.4327 18.7698 52.4991 15.876 50.0616 13.4384C47.624 11.0009 44.7302 9.06735 41.5454 7.74816C38.3606 6.42898 34.9472 5.75 31.5 5.75Z" fill="white"/>
</svg>
