<svg width="47" height="48" viewBox="0 0 47 48" fill="none" xmlns="http://www.w3.org/2000/svg">
<path d="M41.7778 0.5C43.1628 0.5 44.4911 1.0502 45.4704 2.02955C46.4498 3.00891 47 4.3372 47 5.72222V42.2778C47 43.6628 46.4498 44.9911 45.4704 45.9704C44.4911 46.9498 43.1628 47.5 41.7778 47.5H5.22222C3.8372 47.5 2.50891 46.9498 1.52955 45.9704C0.550197 44.9911 0 43.6628 0 42.2778V5.72222C0 4.3372 0.550197 3.00891 1.52955 2.02955C2.50891 1.0502 3.8372 0.5 5.22222 0.5H41.7778ZM40.4722 40.9722V27.1333C40.4722 24.8758 39.5754 22.7106 37.9791 21.1143C36.3827 19.5179 34.2176 18.6211 31.96 18.6211C29.7406 18.6211 27.1556 19.9789 25.9022 22.0156V19.1172H18.6172V40.9722H25.9022V28.0994C25.9022 26.0889 27.5211 24.4439 29.5317 24.4439C30.5012 24.4439 31.431 24.829 32.1165 25.5146C32.8021 26.2001 33.1872 27.1299 33.1872 28.0994V40.9722H40.4722ZM10.1311 15.0178C11.2945 15.0178 12.4103 14.5556 13.233 13.733C14.0556 12.9103 14.5178 11.7945 14.5178 10.6311C14.5178 8.20278 12.5594 6.21833 10.1311 6.21833C8.96077 6.21833 7.83836 6.68325 7.01081 7.51081C6.18325 8.33836 5.71833 9.46077 5.71833 10.6311C5.71833 13.0594 7.70278 15.0178 10.1311 15.0178ZM13.7606 40.9722V19.1172H6.52778V40.9722H13.7606Z" fill="white"/>
</svg>
