<svg width="53" height="42" viewBox="0 0 53 42" fill="none" xmlns="http://www.w3.org/2000/svg">
<path d="M5.3 42C3.8425 42 2.59435 41.4855 1.55555 40.4565C0.516754 39.4275 -0.00176217 38.192 4.49915e-06 36.75V5.25C4.49915e-06 3.80625 0.519404 2.56988 1.5582 1.54088C2.597 0.511879 3.84427 -0.00174554 5.3 4.45671e-06H47.7C49.1575 4.45671e-06 50.4056 0.514504 51.4444 1.5435C52.4832 2.5725 53.0018 3.808 53 5.25V36.75C53 38.1937 52.4806 39.4301 51.4418 40.4591C50.403 41.4881 49.1557 42.0017 47.7 42H5.3ZM26.5 23.625L47.7 10.5V5.25L26.5 18.375L5.3 5.25V10.5L26.5 23.625Z" fill="white"/>
</svg>
