<svg width="1366" height="2047" viewBox="0 0 1366 2047" fill="none" xmlns="http://www.w3.org/2000/svg">
<path d="M725.742 593.588C734.984 577.091 729.102 556.226 712.605 546.984C696.108 537.742 675.243 543.624 666.002 560.121C656.76 576.618 662.642 597.483 679.138 606.725C695.635 615.966 716.501 610.085 725.742 593.588Z" fill="#FF4B35"/>
<path d="M716.258 559.872C706.876 548.604 690.136 547.076 678.869 556.458C667.602 565.841 666.073 582.58 675.456 593.848C684.838 605.115 701.578 606.643 712.845 597.261C724.113 587.879 725.641 571.139 716.258 559.872Z" fill="white"/>
<path d="M712.751 577.725C713.223 568.408 706.053 560.473 696.736 560.001C687.419 559.53 679.484 566.7 679.012 576.017C678.541 585.333 685.711 593.268 695.028 593.74C704.344 594.212 712.28 587.042 712.751 577.725Z" fill="#FF4B35"/>
<path d="M702.622 583.653C706.376 579.926 706.398 573.862 702.671 570.108C698.944 566.355 692.88 566.333 689.126 570.059C685.373 573.786 685.351 579.85 689.077 583.604C692.804 587.358 698.868 587.38 702.622 583.653Z" fill="white"/>
<path d="M699.912 577.265C699.687 579.495 697.697 581.119 695.467 580.894C693.236 580.669 691.612 578.679 691.837 576.448C692.062 574.218 694.053 572.594 696.283 572.819C698.513 573.044 700.138 575.035 699.912 577.265Z" fill="#FF4B35"/>
<path d="M666.445 1032.11L683.405 930.203L699.305 896.232C701.425 899.23 707.997 930.602 717.325 1032.11C726.866 1010.13 744.886 1040.11 754.426 1032.11C763.966 1024.12 784.106 1011.13 810.607 1024.12C827.567 989.151 842.407 992.149 869.967 1017.13C882.687 994.147 914.488 992.149 962.188 1017.13C1005.65 987.153 1009.89 1011.13 1028.97 1024.12C1037.45 1000.14 1078.79 1005.14 1105.29 1011.13C1105.29 967.17 1143.45 961.509 1162.53 964.173C1168.18 949.186 1185.21 913.417 1208.11 890.237C1236.73 861.263 1292.91 887.24 1311.99 905.224C1360.75 861.263 1383.01 898.23 1401.03 913.217C1646.11 674.226 1523.64 960.843 1431.77 1134.02L-19.3832 1163C-67.0837 1124.7 -143.193 1021.12 -66.0237 913.217C30.4374 778.335 105.698 915.216 133.259 939.195C185.199 886.241 196.859 966.171 239.26 984.156C275.3 952.183 283.78 979.16 304.98 966.171C326.181 953.183 360.101 1012.13 392.961 992.149C425.821 972.166 448.082 1001.14 469.282 1024.12C500.023 991.15 537.123 1018.13 548.783 1032.11C567.863 1012.13 599.663 1031.11 612.383 1040.11C642.064 1000.14 655.138 1015.46 666.445 1032.11Z" fill="#D9D9D9"/>
<path d="M661.184 1090.13L678.138 988.24L694.033 954.275C696.152 957.272 702.722 988.639 712.047 1090.13C721.584 1068.16 739.598 1098.13 749.135 1090.13C758.672 1082.14 778.805 1069.16 805.296 1082.14C822.251 1047.18 837.086 1050.18 864.637 1075.15C877.352 1052.17 909.142 1050.18 956.826 1075.15C1000.27 1045.18 1004.51 1069.16 1023.58 1082.14C1032.06 1058.17 1073.39 1063.16 1099.88 1069.16C1099.88 1025.2 1138.03 1019.54 1157.1 1022.2C1162.75 1007.22 1179.78 971.457 1202.67 948.281C1231.28 919.311 1287.44 945.284 1306.51 963.265C1355.26 919.311 1377.51 956.273 1395.52 971.257C1640.51 732.303 1535.97 1018.58 1444.13 1191.73L-24.4108 1221C-72.0951 1182.71 -148.178 1079.15 -71.0354 971.257C25.3928 836.396 100.628 973.255 128.179 997.23C180.102 944.285 191.758 1024.2 234.144 1042.18C270.172 1010.22 278.649 1037.19 299.842 1024.2C321.035 1011.22 354.944 1070.16 387.793 1050.18C420.642 1030.2 442.895 1059.17 464.088 1082.14C494.818 1049.18 531.906 1076.15 543.562 1090.13C562.636 1070.16 594.425 1089.14 607.141 1098.13C636.811 1058.17 649.88 1073.49 661.184 1090.13Z" fill="#F4F0F0"/>
<path d="M676.218 818.063L649.312 843.927L668.177 923.155C668.177 923.155 668.38 866.978 693.121 851.321L676.218 818.063Z" fill="#FF4B35"/>
<path d="M714.269 820.149L740.987 846.207L721.549 925.296C721.549 925.296 721.752 869.119 697.126 853.283L714.269 820.149Z" fill="#FF4B35"/>
<path d="M675.99 841.264C677.005 848.582 679.891 855.069 683.046 861.536C685.845 857.36 689.169 853.822 693.122 851.32L676.803 819.212C674.607 826.518 674.92 833.557 675.99 841.264Z" fill="#DD2C1F"/>
<path d="M707.84 864.682C708.225 863.645 708.612 862.61 709.015 861.579C711.194 856.013 713.32 850.379 714.3 844.455C715.494 837.243 714.535 830.08 712.742 823.099L697.124 853.283C701.403 856.033 704.93 860.003 707.84 864.682Z" fill="#DD2C1F"/>
<path d="M717.883 762.494C717.667 822.08 707.201 870.343 694.51 870.296C681.82 870.25 671.704 821.913 671.92 762.327C671.984 744.708 672.95 728.088 674.587 713.411C678.518 678.428 686.355 654.492 695.293 654.524C704.23 654.556 711.893 678.549 715.572 713.559C717.101 728.248 717.947 744.874 717.883 762.494Z" fill="#3689A3"/>
<path d="M715.57 713.557C717.099 728.249 717.946 744.878 717.882 762.498C717.668 821.45 704.104 869.844 691.58 870.799L698.582 655.648C706.088 660.748 712.35 682.943 715.57 713.557Z" fill="#266A7A"/>
<path d="M717.306 784.836C717.656 777.626 717.856 770.156 717.883 762.494C717.947 744.874 717.101 728.248 715.571 713.56C715.426 712.186 715.274 710.837 715.118 709.498L675.07 709.353C674.904 710.69 674.741 712.039 674.587 713.411C672.951 728.088 671.984 744.708 671.92 762.327C671.892 769.99 672.038 777.461 672.335 784.672L717.306 784.836Z" fill="#FFFAF3"/>
<path opacity="0.38" d="M696.928 709.505C696.589 710.144 695.162 784.056 694.184 785.026L717.305 784.836C717.654 777.626 717.855 770.156 717.882 762.494C717.946 744.874 717.099 728.248 715.57 713.56C715.425 712.186 715.273 710.837 715.117 709.498L696.928 709.505Z" fill="#64DDD7"/>
<path d="M673.284 800.635C673.451 802.793 673.628 804.931 673.823 807.021L715.656 807.173C715.866 805.084 716.059 802.948 716.241 800.791L673.284 800.635Z" fill="#08374E"/>
<path d="M708.343 848.854C711.213 838.9 713.588 825.955 715.251 811.002L674.2 810.853C675.754 825.818 678.036 838.779 680.832 848.755L708.343 848.854Z" fill="#08374E"/>
<path d="M681.981 852.589C685.557 863.759 689.859 870.28 694.51 870.296C699.162 870.313 703.511 863.825 707.168 852.68L681.981 852.589Z" fill="#08374E"/>
<path d="M712.715 692.891C708.582 669.453 702.333 654.55 695.292 654.524C688.252 654.499 681.895 669.356 677.592 692.764L712.715 692.891Z" fill="#FF4B35"/>
<path opacity="0.49" d="M707.514 756.645C714.845 749.367 714.888 737.524 707.61 730.193C700.332 722.861 688.488 722.818 681.157 730.097C673.826 737.375 673.783 749.218 681.061 756.55C688.34 763.881 700.183 763.924 707.514 756.645Z" fill="#18668E"/>
<path d="M705.784 743.358C705.782 737.028 700.649 731.898 694.319 731.9C687.989 731.902 682.859 737.035 682.861 743.365C682.863 749.696 687.996 754.825 694.326 754.823C700.657 754.821 705.786 749.688 705.784 743.358Z" fill="#0F314A"/>
<path d="M700.605 743.394C700.593 746.856 697.776 749.653 694.313 749.64C690.851 749.628 688.054 746.811 688.067 743.348C688.079 739.885 690.896 737.089 694.359 737.101C697.821 737.115 700.618 739.932 700.605 743.394Z" fill="#FFC931"/>
<path d="M695.272 749.575C697.791 749.355 700.592 746.812 700.605 743.394C700.616 740.406 698.532 737.909 695.736 737.271C695.616 740.007 695.422 748.172 695.272 749.575Z" fill="#FF7C33"/>
<path d="M706.637 910.137C706.691 895.218 701.341 883.104 694.689 883.08C688.035 883.056 682.355 895.14 682.544 910.05C682.689 921.49 694.148 979.325 694.148 979.325L694.314 980.224L694.488 979.325L705.105 924.396C705.838 920.599 706.344 916.594 706.559 912.491C706.606 911.637 706.635 910.826 706.637 910.137Z" fill="url(#paint0_linear_172_203)"/>
<path d="M704.52 902.339C704.564 890.185 700.614 880.318 695.696 880.3C690.778 880.283 686.577 890.128 686.713 902.275C686.816 911.594 695.271 958.706 695.271 958.706L695.394 959.439L695.523 958.706L703.385 913.956C703.928 910.863 704.304 907.6 704.464 904.257C704.496 903.562 704.518 902.902 704.52 902.339Z" fill="#DD2C1F"/>
<path d="M702.54 898.055C702.575 888.263 699.064 880.313 694.697 880.297C690.331 880.281 686.603 888.213 686.726 897.998C686.821 905.506 694.342 943.464 694.342 943.464L694.452 944.054L694.565 943.465L701.533 907.414C702.015 904.922 702.347 902.294 702.488 899.6C702.519 899.039 702.538 898.508 702.54 898.055Z" fill="#FCB302"/>
<path d="M694.31 661.543C693.783 661.541 693.354 661.109 693.356 660.582L693.453 633.77C693.455 633.243 693.888 632.814 694.414 632.816C694.941 632.818 695.37 633.25 695.368 633.777L695.271 660.589C695.269 661.116 694.836 661.545 694.31 661.543Z" fill="#FF4B35"/>
<path d="M696.98 633.836C698.495 632.332 698.504 629.884 697 628.369C695.496 626.855 693.048 626.846 691.533 628.35C690.018 629.854 690.009 632.301 691.513 633.816C693.017 635.331 695.465 635.34 696.98 633.836Z" fill="#FF4B35"/>
<path d="M697.447 692.834L712.715 692.891C708.755 670.436 702.853 655.824 696.173 654.615C696.259 667.354 697.678 680.109 697.447 692.834Z" fill="#DD2C1F"/>
<path d="M686.442 670.902C684.939 675.652 682.899 682.964 682.35 687.925" stroke="#FFFAF3" stroke-width="1.247" stroke-miterlimit="10" stroke-linecap="round" stroke-linejoin="round"/>
<path d="M690.233 661.114C689.652 662.439 689.108 663.78 688.582 665.128" stroke="#FFFAF3" stroke-width="1.247" stroke-miterlimit="10" stroke-linecap="round" stroke-linejoin="round"/>
<path opacity="0.6" d="M694.338 868.061L695.609 820.798C695.609 820.798 712.987 840.785 701.632 864.927C701.632 864.927 696.658 872.329 695.285 872.049C693.912 871.769 694.338 868.061 694.338 868.061Z" fill="#051E28"/>
<path d="M693.875 875.124C691.784 875.117 690.08 873.4 690.088 871.309L690.267 821.746C690.275 819.656 691.992 817.951 694.082 817.959C696.173 817.967 697.878 819.684 697.87 821.774L697.69 871.337C697.683 873.427 695.966 875.132 693.875 875.124Z" fill="#DB3C27"/>
<path d="M779.517 722.504L781.478 844.599L761.655 844.527L761.041 722.437L779.517 722.504Z" fill="#153049"/>
<path d="M747.547 725.26L793.455 723.799L770.288 690.825L747.547 725.26Z" fill="#153049"/>
<path d="M624.43 726.672L626.391 848.767L606.567 848.695L605.953 726.605L624.43 726.672Z" fill="#153049"/>
<path d="M592.46 729.428L638.368 727.967L615.2 694.993L592.46 729.428Z" fill="#153049"/>
<path d="M805.539 748.506L804.857 825.641L792.479 825.828L794.003 748.68L805.539 748.506Z" fill="#0768A3"/>
<path d="M785.544 750.599L814.228 749.15L800.147 728.837L785.544 750.599Z" fill="#0768A3"/>
<path d="M585.75 751.662L585.068 828.797L572.689 828.984L574.214 751.836L585.75 751.662Z" fill="#0768A3"/>
<path d="M565.755 753.755L594.439 752.307L580.358 731.993L565.755 753.755Z" fill="#0768A3"/>
<defs>
<linearGradient id="paint0_linear_172_203" x1="682.458" y1="931.608" x2="706.559" y2="931.695" gradientUnits="userSpaceOnUse">
<stop stop-color="#FE6C00"/>
<stop offset="1" stop-color="#FF3F01"/>
</linearGradient>
</defs>
</svg>
