<svg width="1366" height="346" viewBox="0 0 1366 346" fill="none" xmlns="http://www.w3.org/2000/svg">
<path d="M1375.47 180.078C1375.47 180.078 1375.4 180.078 1375.34 180.136C1135.62 367.646 779.993 371.075 475.179 312.561C57.3218 238.591 -305.351 23.2474 -899 165.26L-898.87 165.144C-788.241 20.6907 -484.144 -134.571 -123.688 -108.655C181.518 -82.4488 439.824 19.2962 682.15 84.3758C1054.67 191.002 1209.4 178.799 1375.47 180.078Z" fill="url(#paint0_linear_126_138)"/>
<path d="M640.86 -3.83055C918.996 33.4159 1255.19 73.1028 1377.75 -16.1492C1443.37 -61.8211 1373.51 -140.323 1312.46 -134.978C1369.73 -189.947 1532.41 -112.955 1473.25 11.7421C1381.08 208.898 850.441 77.8676 640.86 -3.77243V-3.83055Z" fill="url(#paint1_linear_126_138)"/>
<path d="M1375.34 180.136C1135.62 367.647 779.993 371.075 475.178 312.561C57.3218 238.591 -305.351 23.2476 -899 165.261L-898.87 165.144C-892.477 161.019 -684.853 26.9665 -374.168 29.1164C-58.5901 31.3245 380.27 239.928 784.559 250.91C1182.91 261.718 1369.99 182.46 1375.34 180.136Z" fill="url(#paint2_linear_126_138)"/>
<defs>
<linearGradient id="paint0_linear_126_138" x1="209.892" y1="336.211" x2="271.787" y2="-113.897" gradientUnits="userSpaceOnUse">
<stop offset="0.13" stop-color="#005BA5"/>
<stop offset="0.35" stop-color="#0070B9"/>
<stop offset="0.77" stop-color="#0095DE"/>
<stop offset="1" stop-color="#00A4EC"/>
</linearGradient>
<linearGradient id="paint1_linear_126_138" x1="1040.52" y1="139.461" x2="1075.84" y2="-167.975" gradientUnits="userSpaceOnUse">
<stop offset="0.13" stop-color="#005BA5"/>
<stop offset="0.35" stop-color="#0070B9"/>
<stop offset="0.77" stop-color="#0095DE"/>
<stop offset="1" stop-color="#00A4EC"/>
</linearGradient>
<linearGradient id="paint2_linear_126_138" x1="91.2407" y1="391.064" x2="597.176" y2="-556.644" gradientUnits="userSpaceOnUse">
<stop offset="0.13" stop-color="#005BA5"/>
<stop offset="0.35" stop-color="#0070B9"/>
<stop offset="0.77" stop-color="#0095DE"/>
<stop offset="1" stop-color="#00A4EC"/>
</linearGradient>
</defs>
</svg>
