<svg width="345" height="85" viewBox="0 0 345 85" fill="none" xmlns="http://www.w3.org/2000/svg">
<g filter="url(#filter0_d_56_298)">
<path d="M1.968 69V1.8H34.8C43.248 1.8 49.584 3.4 53.808 6.6C58.096 9.8 60.24 14.024 60.24 19.272C60.24 22.792 59.376 25.864 57.648 28.488C55.92 31.048 53.552 33.032 50.544 34.44C47.536 35.848 44.08 36.552 40.176 36.552L42 32.616C46.224 32.616 49.968 33.32 53.232 34.728C56.496 36.072 59.024 38.088 60.816 40.776C62.672 43.464 63.6 46.76 63.6 50.664C63.6 56.424 61.328 60.936 56.784 64.2C52.24 67.4 45.552 69 36.72 69H1.968ZM17.424 57.288H35.568C39.6 57.288 42.64 56.648 44.688 55.368C46.8 54.024 47.856 51.912 47.856 49.032C47.856 46.216 46.8 44.136 44.688 42.792C42.64 41.384 39.6 40.68 35.568 40.68H16.272V29.352H32.88C36.656 29.352 39.536 28.712 41.52 27.432C43.568 26.088 44.592 24.072 44.592 21.384C44.592 18.76 43.568 16.808 41.52 15.528C39.536 14.184 36.656 13.512 32.88 13.512H17.424V57.288ZM75.3743 69V1.8H90.9263V56.328H124.622V69H75.3743ZM164.827 70.152C159.515 70.152 154.587 69.288 150.043 67.56C145.563 65.832 141.659 63.4 138.331 60.264C135.067 57.128 132.507 53.448 130.651 49.224C128.859 45 127.963 40.392 127.963 35.4C127.963 30.408 128.859 25.8 130.651 21.576C132.507 17.352 135.099 13.672 138.427 10.536C141.755 7.4 145.659 4.96799 150.139 3.23999C154.619 1.512 159.483 0.647999 164.731 0.647999C170.043 0.647999 174.907 1.512 179.323 3.23999C183.803 4.96799 187.675 7.4 190.939 10.536C194.267 13.672 196.859 17.352 198.715 21.576C200.571 25.736 201.499 30.344 201.499 35.4C201.499 40.392 200.571 45.032 198.715 49.32C196.859 53.544 194.267 57.224 190.939 60.36C187.675 63.432 183.803 65.832 179.323 67.56C174.907 69.288 170.075 70.152 164.827 70.152ZM164.731 56.904C167.739 56.904 170.491 56.392 172.987 55.368C175.547 54.344 177.787 52.872 179.707 50.952C181.627 49.032 183.099 46.76 184.123 44.136C185.211 41.512 185.755 38.6 185.755 35.4C185.755 32.2 185.211 29.288 184.123 26.664C183.099 24.04 181.627 21.768 179.707 19.848C177.851 17.928 175.643 16.456 173.083 15.432C170.523 14.408 167.739 13.896 164.731 13.896C161.723 13.896 158.939 14.408 156.379 15.432C153.883 16.456 151.675 17.928 149.755 19.848C147.835 21.768 146.331 24.04 145.243 26.664C144.219 29.288 143.707 32.2 143.707 35.4C143.707 38.536 144.219 41.448 145.243 44.136C146.331 46.76 147.803 49.032 149.659 50.952C151.579 52.872 153.819 54.344 156.379 55.368C158.939 56.392 161.723 56.904 164.731 56.904ZM245.635 70.152C240.323 70.152 235.427 69.32 230.947 67.656C226.531 65.928 222.659 63.496 219.331 60.36C216.067 57.224 213.507 53.544 211.651 49.32C209.859 45.096 208.963 40.456 208.963 35.4C208.963 30.344 209.859 25.704 211.651 21.48C213.507 17.256 216.099 13.576 219.427 10.44C222.755 7.304 226.659 4.904 231.139 3.23999C235.619 1.512 240.547 0.647999 245.923 0.647999C251.875 0.647999 257.219 1.64 261.955 3.62399C266.755 5.608 270.787 8.488 274.051 12.264L264.067 21.48C261.635 18.92 258.979 17.032 256.099 15.816C253.219 14.536 250.083 13.896 246.691 13.896C243.427 13.896 240.451 14.408 237.763 15.432C235.075 16.456 232.739 17.928 230.755 19.848C228.835 21.768 227.331 24.04 226.243 26.664C225.219 29.288 224.707 32.2 224.707 35.4C224.707 38.536 225.219 41.416 226.243 44.04C227.331 46.664 228.835 48.968 230.755 50.952C232.739 52.872 235.043 54.344 237.667 55.368C240.355 56.392 243.299 56.904 246.499 56.904C249.571 56.904 252.547 56.424 255.427 55.464C258.371 54.44 261.219 52.744 263.971 50.376L272.803 61.608C269.155 64.36 264.899 66.472 260.035 67.944C255.235 69.416 250.435 70.152 245.635 70.152ZM258.595 59.592V34.344H272.803V61.608L258.595 59.592ZM309.329 70.152C303.953 70.152 298.801 69.448 293.873 68.04C288.945 66.568 284.977 64.68 281.969 62.376L287.249 50.664C290.129 52.712 293.521 54.408 297.425 55.752C301.393 57.032 305.393 57.672 309.425 57.672C312.497 57.672 314.961 57.384 316.817 56.808C318.737 56.168 320.145 55.304 321.041 54.216C321.937 53.128 322.385 51.88 322.385 50.472C322.385 48.68 321.681 47.272 320.273 46.248C318.865 45.16 317.009 44.296 314.705 43.656C312.401 42.952 309.841 42.312 307.025 41.736C304.273 41.096 301.489 40.328 298.673 39.432C295.921 38.536 293.393 37.384 291.089 35.976C288.785 34.568 286.897 32.712 285.425 30.408C284.017 28.104 283.313 25.16 283.313 21.576C283.313 17.736 284.337 14.248 286.385 11.112C288.497 7.91199 291.633 5.384 295.793 3.528C300.017 1.608 305.297 0.647999 311.633 0.647999C315.857 0.647999 320.017 1.16 324.113 2.184C328.209 3.144 331.825 4.616 334.961 6.6L330.161 18.408C327.025 16.616 323.889 15.304 320.753 14.472C317.617 13.576 314.545 13.128 311.537 13.128C308.529 13.128 306.065 13.48 304.145 14.184C302.225 14.888 300.849 15.816 300.017 16.968C299.185 18.056 298.769 19.336 298.769 20.808C298.769 22.536 299.473 23.944 300.881 25.032C302.289 26.056 304.145 26.888 306.449 27.528C308.753 28.168 311.281 28.808 314.033 29.448C316.849 30.088 319.633 30.824 322.385 31.656C325.201 32.488 327.761 33.608 330.065 35.016C332.369 36.424 334.225 38.28 335.633 40.584C337.105 42.888 337.841 45.8 337.841 49.32C337.841 53.096 336.785 56.552 334.673 59.688C332.561 62.824 329.393 65.352 325.169 67.272C321.009 69.192 315.729 70.152 309.329 70.152Z" fill="white"/>
</g>
<defs>
<filter id="filter0_d_56_298" x="0.968018" y="0.647949" width="343.873" height="83.5039" filterUnits="userSpaceOnUse" color-interpolation-filters="sRGB">
<feFlood flood-opacity="0" result="BackgroundImageFix"/>
<feColorMatrix in="SourceAlpha" type="matrix" values="0 0 0 0 0 0 0 0 0 0 0 0 0 0 0 0 0 0 127 0" result="hardAlpha"/>
<feOffset dx="3" dy="10"/>
<feGaussianBlur stdDeviation="2"/>
<feComposite in2="hardAlpha" operator="out"/>
<feColorMatrix type="matrix" values="0 0 0 0 0 0 0 0 0 0 0 0 0 0 0 0 0 0 0.25 0"/>
<feBlend mode="normal" in2="BackgroundImageFix" result="effect1_dropShadow_56_298"/>
<feBlend mode="normal" in="SourceGraphic" in2="effect1_dropShadow_56_298" result="shape"/>
</filter>
</defs>
</svg>
