<svg width="921" height="456" viewBox="0 0 921 456" fill="none" xmlns="http://www.w3.org/2000/svg">
<path d="M0 29.9414L0 426.572C0 442.798 17.647 456 39.3361 456L881.056 456C902.745 456 920.392 442.798 920.392 426.572V29.9414C920.392 13.7154 902.745 0.513397 881.056 0.513397L39.3361 0.513397C17.647 0.513397 0 13.7154 0 29.9414ZM881.056 0.772583C881.379 0.772583 881.714 0.772614 882.037 0.789886H882.118C882.384 0.789886 882.615 0.807159 882.857 0.824432C883.1 0.824432 883.365 0.841675 883.619 0.858978C883.7 0.858978 883.781 0.858978 883.862 0.876251C883.943 0.876251 884.024 0.893555 884.104 0.893555H884.232C884.416 0.893555 884.578 0.910828 884.763 0.928101C884.844 0.945374 884.924 0.945404 885.005 0.945404C885.56 0.988586 886.114 1.04907 886.668 1.10092C887.28 1.16141 887.927 1.25647 888.539 1.34286C889.151 1.4379 889.775 1.52426 890.364 1.6366C890.965 1.75754 891.554 1.87851 892.131 2.00812C892.154 2.00812 892.189 2.02539 892.212 2.02539C892.789 2.14636 893.378 2.28458 893.933 2.44012C894.533 2.59564 895.099 2.75983 895.654 2.94989C896.231 3.12271 896.808 3.30414 897.34 3.48557C897.813 3.65839 898.287 3.82251 898.737 3.9953C898.841 4.03851 898.922 4.07306 899.003 4.099C899.534 4.315 900.065 4.53101 900.608 4.75565C902.167 5.42957 903.646 6.18124 905.066 7.02798C905.089 7.04526 905.112 7.04529 905.124 7.06256C906.071 7.61554 906.972 8.2117 907.838 8.83377C907.884 8.83377 907.884 8.86832 907.896 8.86832C908.323 9.17935 908.739 9.49908 909.143 9.81876C909.385 9.99155 909.616 10.173 909.836 10.3544C910.205 10.6741 910.598 11.0024 910.968 11.3394C911.199 11.5381 911.441 11.7541 911.661 11.9701C912.169 12.4626 912.665 12.981 913.162 13.508C913.324 13.6895 913.485 13.8795 913.659 14.0783C913.82 14.2511 913.982 14.4498 914.132 14.614C914.479 15.0114 914.79 15.4088 915.102 15.8322L915.529 16.4284C916.846 18.3033 917.909 20.2991 918.648 22.3727C918.706 22.5455 918.775 22.7097 918.809 22.8825C918.89 23.1158 918.971 23.3404 919.04 23.5564C919.387 24.7401 919.653 25.9411 919.803 27.168C919.826 27.384 919.86 27.5827 919.883 27.7814C919.941 28.5072 919.987 29.2243 919.987 29.9673V426.572C919.987 427.306 919.941 428.032 919.883 428.758C919.86 428.991 919.826 429.216 919.803 429.432C919.641 430.65 919.387 431.816 919.04 432.966C918.983 433.199 918.902 433.424 918.809 433.657C918.752 433.838 918.682 434.054 918.602 434.244C917.862 436.301 916.811 438.271 915.518 440.111L915.091 440.707C914.479 441.519 913.843 442.306 913.139 443.057C912.954 443.239 912.792 443.411 912.631 443.593C912.319 443.913 911.995 444.241 911.661 444.561C910.783 445.39 909.859 446.159 908.866 446.928C908.658 447.101 908.438 447.248 908.207 447.42C908.103 447.515 907.976 447.593 907.884 447.662C907.757 447.74 907.653 447.818 907.561 447.878C907.214 448.138 906.868 448.371 906.51 448.604C906.186 448.82 905.828 449.036 905.482 449.235C905.343 449.33 905.193 449.416 905.054 449.494C904.974 449.555 904.893 449.598 904.789 449.65C904.419 449.866 904.05 450.082 903.657 450.298C903.611 450.298 903.599 450.332 903.553 450.341C903.103 450.583 902.629 450.816 902.156 451.067C902.098 451.084 902.052 451.11 902.017 451.127C901.544 451.343 901.07 451.559 900.597 451.775C900.065 452.008 899.534 452.224 898.991 452.432C898.91 452.475 898.83 452.492 898.726 452.535C898.275 452.708 897.802 452.89 897.328 453.028C896.797 453.227 896.219 453.408 895.642 453.581C895.088 453.762 894.51 453.918 893.921 454.073C893.055 454.307 892.154 454.523 891.253 454.704C890.353 454.885 889.452 455.041 888.516 455.179C887.904 455.274 887.269 455.361 886.645 455.421C886.091 455.464 885.537 455.525 884.982 455.577C884.901 455.577 884.821 455.577 884.74 455.594C884.451 455.628 884.162 455.637 883.874 455.637C883.527 455.672 883.169 455.68 882.823 455.68C882.222 455.715 881.61 455.724 881.021 455.724L39.3361 455.724C38.724 455.724 38.1235 455.706 37.5114 455.68C37.1649 455.68 36.8069 455.663 36.4604 455.637C36.1717 455.637 35.883 455.62 35.6173 455.594C35.5365 455.577 35.4326 455.577 35.3517 455.577C34.7974 455.533 34.243 455.473 33.7117 455.421C33.0765 455.361 32.4529 455.266 31.8177 455.179C30.8938 455.041 29.9698 454.885 29.0806 454.704C28.1797 454.523 27.2905 454.307 26.4127 454.073C25.8122 453.918 25.2463 453.762 24.6919 453.581C24.1145 453.408 23.5601 453.227 23.0057 453.028C22.5322 452.89 22.0587 452.708 21.6083 452.535C21.5275 452.492 21.4466 452.475 21.3427 452.432C20.8114 452.216 20.2802 452 19.7605 451.775C19.2639 451.559 18.7903 451.343 18.3168 451.127C18.2706 451.11 18.236 451.084 18.1782 451.067C17.7278 450.825 17.2312 450.591 16.7808 450.341C16.7346 450.323 16.7231 450.298 16.6769 450.298C16.2842 450.082 15.9146 449.866 15.545 449.65C15.4411 449.606 15.3603 449.555 15.2794 449.494C15.1408 449.416 14.9907 449.321 14.8521 449.235C14.5056 449.036 14.1592 448.82 13.8242 448.604C13.4778 448.371 13.1313 448.146 12.7733 447.878C12.6693 447.818 12.5654 447.74 12.4614 447.662C12.3344 447.585 12.2189 447.507 12.115 447.42C11.884 447.248 11.6646 447.101 11.4567 446.928C10.475 446.159 9.55108 445.39 8.6849 444.561C8.33843 444.241 8.00351 443.913 7.70323 443.593C7.54154 443.411 7.37986 443.239 7.20662 443.057C6.50213 442.306 5.85538 441.519 5.25483 440.707C5.11624 440.508 4.9661 440.31 4.82751 440.111C3.51092 438.271 2.45995 436.301 1.72081 434.244C1.63997 434.063 1.58222 433.847 1.51293 433.657C1.43208 433.424 1.35124 433.199 1.28195 432.966C0.935475 431.816 0.681395 430.641 0.542806 429.432C0.49661 429.216 0.485061 428.983 0.438865 428.758C0.381119 428.032 0.334923 427.315 0.334923 426.572L0.334923 29.9414C0.334923 29.207 0.381119 28.4813 0.438865 27.7555C0.485061 27.5568 0.49661 27.3581 0.519708 27.1421C0.681395 25.9152 0.935475 24.7142 1.28195 23.5305C1.33969 23.3145 1.42054 23.0812 1.51293 22.8566C1.55912 22.6838 1.61687 22.5196 1.67462 22.3468C2.43685 20.2732 3.47627 18.2773 4.81596 16.4024C4.95455 16.2037 5.10469 16.005 5.24328 15.8063C5.532 15.3916 5.84383 14.9941 6.1903 14.588C6.35199 14.4152 6.50213 14.2165 6.66381 14.0523C6.8255 13.8536 6.98719 13.6722 7.16042 13.4821C7.65703 12.9637 8.14209 12.4366 8.6849 11.9442C8.91588 11.7282 9.13531 11.5122 9.38939 11.3135C9.73587 10.9765 10.1285 10.6568 10.4981 10.3285C10.7291 10.147 10.9485 9.95697 11.191 9.79282C11.6068 9.47311 12.011 9.14484 12.4614 8.84244C12.4614 8.84244 12.4845 8.80783 12.4961 8.80783C13.3623 8.1944 14.2862 7.5896 15.2101 7.03662C15.2332 7.01935 15.2563 7.01938 15.2679 7.00208C16.6884 6.15536 18.1667 5.40369 19.7489 4.72974C20.2571 4.49646 20.7999 4.27182 21.3311 4.07309C21.4351 4.03854 21.5159 4.0126 21.5968 3.96942C22.0472 3.79663 22.5207 3.63245 22.9942 3.45963C23.5486 3.2782 24.1029 3.0881 24.6804 2.92395C25.2347 2.74252 25.8122 2.56973 26.4012 2.41422C26.9786 2.27597 27.5561 2.1377 28.122 1.99945C28.1451 1.99945 28.1797 1.98221 28.2259 1.98221C28.8034 1.86127 29.3808 1.7403 29.9698 1.61069C30.5704 1.50702 31.1825 1.39468 31.7946 1.31693C32.4298 1.22186 33.0419 1.13544 33.6886 1.07498C34.0813 1.04041 34.4855 0.997223 34.9013 0.971283C35.0399 0.95401 35.19 0.936737 35.3286 0.928101C35.4095 0.928101 35.5134 0.928131 35.5942 0.910858C35.8021 0.893585 36.0216 0.876251 36.2294 0.876251C36.6452 0.841705 37.0725 0.815765 37.4883 0.815765C37.7539 0.798492 37.9849 0.78125 38.2274 0.78125H38.3083C38.6316 0.763947 38.9666 0.763947 39.313 0.763947L881.056 0.763947V0.772583Z" fill="#929292"/>
<path d="M39.3362 3.47684L881.056 3.47684C900.551 3.47684 916.407 15.3396 916.407 29.9413V426.572C916.407 441.174 900.551 453.036 881.056 453.036L39.3362 453.036C19.8183 453.036 3.96143 441.174 3.96143 426.572L3.96143 29.9413C3.96143 15.3396 19.8183 3.47684 39.3362 3.47684Z" fill="black"/>
<path d="M884.59 0.91095C884.486 0.893677 884.359 0.893646 884.243 0.876373C884.428 0.876373 884.59 0.893677 884.774 0.91095C884.855 0.928253 884.936 0.928192 885.017 0.928192C885.571 0.971405 886.126 1.03189 886.68 1.08371C887.315 1.16147 887.939 1.23926 888.551 1.32568C889.163 1.42072 889.787 1.50708 890.376 1.61942C890.976 1.74036 891.565 1.86136 892.143 1.99097C892.166 1.99097 892.201 2.00821 892.224 2.00821C892.801 2.14645 893.39 2.28473 893.944 2.42297C894.545 2.57849 895.111 2.74261 895.665 2.93271C896.243 3.1055 896.82 3.28696 897.351 3.46838C897.825 3.64117 898.298 3.80536 898.749 3.97818C898.853 4.02136 898.934 4.05594 899.015 4.08185C899.546 4.29785 900.077 4.51385 900.62 4.73849C902.179 5.42972 903.657 6.1814 905.078 7.01083C905.101 7.02811 905.124 7.02811 905.136 7.04538C906.083 7.59836 906.983 8.19449 907.85 8.81659C907.896 8.81659 907.896 8.85114 907.907 8.85114C908.335 9.16217 908.75 9.48187 909.155 9.80157C909.397 9.97437 909.628 10.1558 909.848 10.3372C910.217 10.6569 910.61 10.9853 910.979 11.3222C911.21 11.5209 911.453 11.7369 911.672 11.9529C912.18 12.4454 912.677 12.9639 913.174 13.4909C913.335 13.6724 913.497 13.8624 913.67 14.0611C913.832 14.2339 913.994 14.4326 914.144 14.5968C914.49 14.9943 914.802 15.3917 915.114 15.8151L915.541 16.4112C916.858 18.2861 917.92 20.282 918.659 22.3556C918.717 22.5284 918.787 22.6926 918.821 22.8654C918.902 23.0986 918.983 23.3233 919.052 23.5393C919.399 24.723 919.664 25.9239 919.814 27.1508C919.837 27.3668 919.872 27.5655 919.895 27.7643C919.953 28.49 919.999 29.2072 919.999 29.9502V426.572C919.999 427.306 919.953 428.032 919.895 428.758C919.872 428.991 919.837 429.216 919.814 429.432C919.653 430.65 919.399 431.817 919.052 432.966C918.994 433.199 918.914 433.424 918.821 433.657C918.763 433.838 918.694 434.054 918.613 434.244C917.874 436.301 916.823 438.271 915.53 440.111L915.102 440.707C914.49 441.519 913.855 442.306 913.151 443.057C912.966 443.239 912.804 443.412 912.642 443.593C912.331 443.913 912.007 444.241 911.672 444.561C910.795 445.39 909.871 446.159 908.877 446.928C908.67 447.101 908.45 447.248 908.219 447.421C908.115 447.516 907.988 447.593 907.896 447.662C907.769 447.74 907.665 447.818 907.572 447.878C907.226 448.138 906.879 448.371 906.521 448.604C906.198 448.82 905.84 449.036 905.494 449.235C905.355 449.33 905.205 449.416 905.066 449.494C904.985 449.555 904.905 449.598 904.801 449.65C904.431 449.866 904.061 450.082 903.669 450.298C903.623 450.298 903.611 450.332 903.565 450.341C903.114 450.583 902.641 450.816 902.167 451.067C902.11 451.084 902.063 451.11 902.029 451.127C901.555 451.343 901.082 451.559 900.608 451.775C900.077 452.008 899.546 452.224 899.003 452.432C898.922 452.475 898.841 452.492 898.737 452.535C898.287 452.708 897.813 452.872 897.34 453.028C896.809 453.227 896.231 453.408 895.654 453.581C895.099 453.762 894.522 453.918 893.933 454.073C893.067 454.307 892.166 454.523 891.265 454.704C890.364 454.886 889.463 455.041 888.528 455.179C887.916 455.274 887.292 455.352 886.657 455.421C886.103 455.464 885.548 455.525 884.994 455.577C884.913 455.577 884.832 455.577 884.751 455.594C884.463 455.629 884.174 455.637 883.885 455.637C884.116 455.62 884.336 455.603 884.567 455.594C885.144 455.551 885.733 455.49 886.287 455.421C886.576 455.404 886.842 455.361 887.107 455.318C887.454 455.283 887.789 455.24 888.135 455.179C888.643 455.119 889.163 455.024 889.66 454.937C890.191 454.834 890.722 454.704 891.265 454.6C891.715 454.497 892.143 454.384 892.582 454.281C893.506 454.047 894.43 453.788 895.296 453.486C895.584 453.391 895.85 453.304 896.116 453.192C896.543 453.054 896.959 452.898 897.363 452.743C897.409 452.708 897.444 452.708 897.467 452.7C897.94 452.501 898.391 452.319 898.864 452.112C898.887 452.112 898.899 452.095 898.922 452.078C899.234 451.939 899.557 451.801 899.892 451.646C900.158 451.507 900.424 451.386 900.689 451.248C900.747 451.213 900.816 451.188 900.874 451.144C901.301 450.928 901.74 450.695 902.167 450.47C902.583 450.237 902.987 449.995 903.38 449.762C903.484 449.719 903.565 449.658 903.623 449.589C904.038 449.356 904.408 449.114 904.789 448.837C905.205 448.561 905.609 448.267 906.002 447.973C906.348 447.714 906.706 447.438 907.053 447.179C907.134 447.101 907.214 447.023 907.318 446.945C907.642 446.669 907.977 446.375 908.3 446.081C908.646 445.762 908.993 445.425 909.351 445.079C909.617 444.82 909.882 444.543 910.136 444.267C910.275 444.129 910.402 443.99 910.529 443.835C910.691 443.662 910.841 443.481 910.979 443.299C911.141 443.126 911.291 442.962 911.407 442.781C911.695 442.427 911.961 442.09 912.227 441.718C912.365 441.502 912.538 441.269 912.677 441.053C913.024 440.534 913.358 439.99 913.659 439.437C913.763 439.264 913.844 439.083 913.947 438.901C914.098 438.642 914.213 438.366 914.363 438.089C914.525 437.735 914.687 437.381 914.837 437.018C914.975 436.664 915.125 436.292 915.253 435.929C915.276 435.912 915.276 435.886 915.276 435.869C915.414 435.471 915.541 435.074 915.668 434.651V434.59C915.749 434.279 915.83 433.977 915.899 433.666C916.223 432.24 916.396 430.78 916.396 429.268V27.2372C916.396 26.7188 916.373 26.1745 916.338 25.6734C916.315 25.3969 916.292 25.1204 916.257 24.8439C916.211 24.6107 916.2 24.386 916.153 24.1354C916.13 24.0318 916.107 23.9194 916.107 23.8158C916.049 23.4961 915.98 23.1851 915.899 22.874C915.899 22.8394 915.899 22.7962 915.876 22.753C915.83 22.5716 915.795 22.3815 915.749 22.1828C915.703 22.0877 915.691 22.01 915.668 21.9236C915.668 21.8804 915.645 21.8631 915.645 21.8199C915.564 21.5434 915.483 21.2842 915.403 20.9904C915.356 20.8868 915.322 20.7572 915.276 20.6535C915.137 20.2561 914.987 19.8672 914.848 19.5044C914.687 19.1242 914.525 18.7354 914.352 18.3812C914.329 18.3639 914.329 18.3466 914.329 18.338C914.225 18.1565 914.144 17.9664 914.04 17.785C914.017 17.7677 914.017 17.7418 913.994 17.7245C913.913 17.5258 913.786 17.3098 913.682 17.1111C913.682 17.1111 913.674 17.0967 913.659 17.0679C913.347 16.5322 913.024 15.9965 912.677 15.4695C912.538 15.2362 912.365 15.0202 912.227 14.8042C911.961 14.4326 911.695 14.0957 911.407 13.7415C911.28 13.56 911.141 13.3872 910.979 13.2231C910.841 13.0416 910.691 12.8515 910.529 12.6873C910.402 12.5318 910.286 12.3936 910.136 12.2553C909.894 11.9788 909.628 11.7023 909.351 11.4431C909.004 11.0889 908.646 10.7693 908.3 10.4409C908.011 10.1817 907.722 9.93115 907.434 9.68924C907.388 9.65469 907.353 9.61148 907.307 9.58557C907.203 9.50781 907.122 9.43002 907.041 9.35226C906.995 9.33499 906.96 9.30908 906.937 9.27454C906.625 9.03262 906.325 8.78201 905.99 8.54874L905.54 8.21176C905.39 8.10809 905.228 7.97852 905.066 7.87485C905.02 7.85757 905.008 7.84024 904.985 7.8316C904.858 7.72794 904.72 7.6329 904.558 7.53787C904.269 7.33914 903.958 7.15768 903.669 6.96759C903.565 6.88983 903.461 6.82938 903.357 6.76889C902.964 6.52698 902.56 6.29367 902.144 6.06039C901.833 5.87897 901.544 5.72345 901.22 5.5679C901.197 5.55063 901.163 5.52472 901.14 5.50742C900.897 5.38647 900.643 5.2655 900.4 5.13593C900.008 4.93719 899.58 4.73846 899.153 4.5484C899.13 4.53113 899.107 4.51385 899.072 4.50522L898.206 4.1337C898.044 4.05594 897.883 3.99545 897.709 3.935C897.386 3.79675 897.074 3.67572 896.762 3.56342C896.347 3.4079 895.919 3.25241 895.492 3.11417C895.18 3.0105 894.857 2.89816 894.545 2.79449C894.418 2.75992 894.314 2.73401 894.199 2.69083C893.875 2.59576 893.517 2.50937 893.171 2.41434C892.963 2.35385 892.755 2.29337 892.535 2.24152L892.408 2.19833C892.016 2.10327 891.623 2.01688 891.242 1.92184C890.826 1.82678 890.422 1.74042 889.983 1.66266C889.925 1.64536 889.879 1.62805 889.821 1.62805L889.394 1.53302C889.001 1.45526 888.597 1.39481 888.181 1.33432C888.158 1.33432 888.135 1.31702 888.124 1.31702C887.777 1.27383 887.442 1.22195 887.096 1.19604C886.83 1.15283 886.565 1.10101 886.276 1.09238C885.722 1.01462 885.121 0.971405 884.555 0.919556L884.59 0.91095Z" fill="url(#paint0_linear_174_860)"/>
<path d="M881.044 0.772252C881.656 0.772252 882.257 0.780957 882.857 0.807129C882.257 0.789681 881.644 0.772252 881.044 0.772252Z" fill="#DFDFDF"/>
<path d="M33.712 1.08362C34.1046 1.04907 34.5089 1.00586 34.9246 0.97995C34.6359 1.0145 34.3472 1.05771 34.0584 1.08362C33.7928 1.10089 33.5041 1.1441 33.2385 1.18729C32.892 1.22186 32.5571 1.26508 32.2106 1.30826C31.6331 1.40332 31.0788 1.50699 30.5013 1.61929C30.0278 1.71432 29.5312 1.80075 29.0808 1.91309C28.6881 2.00812 28.2955 2.09454 27.9143 2.18958C27.1983 2.38831 26.4822 2.56973 25.7778 2.78574C25.4659 2.8894 25.1657 3.00174 24.8307 3.10541C24.4034 3.24365 23.9646 3.3992 23.5603 3.55472C23.2485 3.67569 22.9482 3.78799 22.6364 3.92624C22.4516 3.98672 22.2899 4.04718 22.1398 4.12494C21.8164 4.24591 21.4815 4.38412 21.1697 4.53964C20.7424 4.72107 20.3266 4.9198 19.9224 5.12717C19.6798 5.24811 19.4258 5.36914 19.2063 5.49872C18.8599 5.68018 18.5134 5.87021 18.1785 6.05167C17.7627 6.28494 17.3816 6.50958 16.9658 6.76013C16.8619 6.82062 16.7579 6.88113 16.6771 6.95889C16.3653 7.14035 16.065 7.33041 15.7763 7.52911C15.6377 7.62418 15.4875 7.71057 15.3489 7.82291C15.0025 8.05618 14.6675 8.28079 14.3442 8.54865C13.9977 8.80783 13.6512 9.08432 13.3163 9.34351C13.2124 9.42126 13.1315 9.49905 13.0276 9.57681C12.7042 9.8533 12.3693 10.1471 12.0575 10.4408C11.6648 10.7605 11.3183 11.0888 11.0065 11.4431C10.7178 11.7022 10.4521 11.9787 10.2212 12.2552C10.0826 12.3935 9.93243 12.5317 9.80539 12.6872C9.65525 12.86 9.49357 13.0415 9.35498 13.2229C9.19329 13.3958 9.04315 13.5599 8.92766 13.7414C8.63893 14.0956 8.3733 14.4325 8.13077 14.804C7.96909 15.0201 7.8074 15.2361 7.65726 15.4694C7.31079 15.9878 6.99897 16.5321 6.67559 17.0678C6.54855 17.2838 6.44461 17.517 6.35222 17.7244C6.22518 17.9404 6.12124 18.1564 6.02884 18.3897C5.84406 18.744 5.68237 19.1241 5.52068 19.5129C5.3821 19.8844 5.23196 20.2646 5.09337 20.662C4.95478 21.0768 4.82774 21.5088 4.7007 21.9408C4.59676 22.2518 4.53901 22.5715 4.46972 22.8912C4.14634 24.3081 3.97311 25.7683 3.97311 27.2544L3.97311 429.276C3.97311 430.78 4.1348 432.24 4.48127 433.674C4.52746 433.985 4.60831 434.288 4.68915 434.599C4.68915 434.616 4.71225 434.633 4.71225 434.659C4.81619 435.074 4.94323 435.471 5.08182 435.877C5.08182 435.895 5.08182 435.92 5.10492 435.938C5.23196 436.309 5.37055 436.672 5.52068 437.026C5.68237 437.398 5.83251 437.752 5.9942 438.098C6.13279 438.374 6.25983 438.651 6.40996 438.91C6.5139 439.091 6.61785 439.281 6.69869 439.446C7.01051 439.999 7.33389 440.534 7.68036 441.061C7.81895 441.277 7.99219 441.511 8.15387 441.727C8.3964 442.098 8.66203 442.435 8.95076 442.789C9.0778 442.971 9.21639 443.144 9.37807 443.308C9.51666 443.489 9.6899 443.679 9.82849 443.843C9.95553 443.999 10.0941 444.137 10.2443 444.275C10.4752 444.552 10.7409 444.828 11.0296 445.088C11.3414 445.425 11.6879 445.762 12.0806 446.09C12.3924 446.384 12.7158 446.677 13.0507 446.954C13.1546 447.032 13.2355 447.109 13.3394 447.187C13.6628 447.446 14.0208 447.723 14.3673 447.982C14.7599 448.276 15.1642 448.57 15.603 448.846C15.9726 449.123 16.3653 449.364 16.7579 449.598C16.8157 449.658 16.9196 449.719 17.0005 449.771C17.4162 450.004 17.7973 450.246 18.2131 450.479C18.6404 450.712 19.0793 450.937 19.5066 451.153C19.5644 451.196 19.6336 451.231 19.6914 451.257C19.957 451.395 20.2227 451.516 20.5114 451.654C20.8232 451.81 21.1466 451.948 21.4815 452.086C21.4815 452.103 21.5046 452.121 21.5277 452.121C22.0012 452.319 22.4516 452.501 22.9251 452.708C22.9713 452.725 22.9829 452.725 23.0291 452.751C23.4448 452.907 23.8722 453.062 24.2764 453.201C24.542 453.304 24.8076 453.399 25.0964 453.494C25.9741 453.805 26.8865 454.065 27.8104 454.289C28.2377 454.393 28.6766 454.505 29.127 454.609C29.6582 454.713 30.1895 454.842 30.7554 454.946C31.252 455.041 31.7371 455.127 32.2568 455.188C32.6033 455.248 32.9382 455.292 33.2847 455.326C33.5503 455.369 33.839 455.421 34.1046 455.43C34.6821 455.49 35.2595 455.551 35.8254 455.603C36.0564 455.62 36.2759 455.637 36.5068 455.646C36.2181 455.646 35.9294 455.628 35.6638 455.603C35.5829 455.585 35.479 455.585 35.3981 455.585C34.8438 455.542 34.2894 455.482 33.7582 455.43C33.0999 455.352 32.4993 455.274 31.8641 455.188C30.9402 455.05 30.0163 454.894 29.127 454.713C28.2262 454.531 27.3369 454.315 26.4592 454.082C25.8586 453.926 25.2927 453.771 24.7383 453.589C24.1609 453.417 23.6065 453.235 23.0522 453.036C22.5787 452.881 22.1052 452.717 21.6547 452.544C21.5739 452.501 21.493 452.483 21.3891 452.44C20.8579 452.224 20.3266 452.008 19.8069 451.784C19.3103 451.568 18.8368 451.352 18.3633 451.136C18.3171 451.118 18.2824 451.092 18.2247 451.075C17.7742 450.833 17.2776 450.6 16.8272 450.349C16.781 450.332 16.7695 450.306 16.7233 450.306C16.3306 450.09 15.961 449.874 15.5915 449.658C15.4875 449.615 15.4067 449.563 15.3258 449.503C15.1873 449.425 15.0371 449.33 14.8985 449.243C14.5521 449.045 14.2056 448.829 13.8707 448.613C13.5242 448.379 13.1777 448.155 12.8197 447.887C12.7158 447.826 12.6118 447.749 12.5079 447.671C12.3808 447.593 12.2653 447.515 12.1614 447.429C11.9304 447.256 11.711 447.109 11.5031 446.937C10.5214 446.168 9.59751 445.399 8.73133 444.569C8.38485 444.25 8.04993 443.921 7.74966 443.602C7.58797 443.42 7.42628 443.247 7.25305 443.066C6.54855 442.314 5.9018 441.528 5.30125 440.716C5.16266 440.517 5.01253 440.318 4.87394 440.12C3.55734 438.279 2.50638 436.309 1.76724 434.253C1.68639 434.072 1.62865 433.856 1.55935 433.665C1.47851 433.432 1.39767 433.208 1.32837 432.974C0.981899 431.825 0.72782 430.65 0.589231 429.44C0.543035 429.224 0.531486 428.991 0.485289 428.767C0.427544 428.041 0.381348 427.324 0.381348 426.581L0.381348 29.9415C0.381348 29.2071 0.427544 28.4813 0.485289 27.7555C0.531486 27.5568 0.543035 27.3581 0.566133 27.1421C0.72782 25.9152 0.981899 24.7142 1.32837 23.5305C1.38612 23.3145 1.46696 23.0812 1.55935 22.8566C1.60555 22.6838 1.66329 22.5197 1.72104 22.3468C2.48328 20.2732 3.5227 18.2774 4.86239 16.4025C5.00098 16.2038 5.15111 16.005 5.2897 15.8063C5.57843 15.3916 5.89025 14.9941 6.23673 14.5881C6.39841 14.4153 6.54855 14.2166 6.71024 14.0524C6.87193 13.8537 7.03361 13.6722 7.20685 13.4821C7.70346 12.9637 8.18852 12.4367 8.73133 11.9442C8.96231 11.7282 9.18174 11.5122 9.43582 11.3135C9.78229 10.9765 10.175 10.6568 10.5445 10.3285C10.7755 10.1471 10.9949 9.95697 11.2375 9.79282C11.6532 9.47314 12.0575 9.14484 12.5079 8.84244C12.5079 8.84244 12.531 8.80783 12.5425 8.80783C13.4087 8.1944 14.3326 7.5896 15.2566 7.03662C15.2796 7.01935 15.3027 7.01938 15.3143 7.00208C16.7348 6.17264 18.2131 5.42096 19.7953 4.72974C20.3035 4.49646 20.8463 4.28046 21.3776 4.07309C21.4815 4.03854 21.5623 4.01263 21.6432 3.96942C22.0936 3.79663 22.5671 3.63245 23.0406 3.45963C23.595 3.2782 24.1493 3.0881 24.7268 2.92395C25.2811 2.74252 25.8586 2.56973 26.4476 2.41422C27.0251 2.27597 27.6025 2.1377 28.1684 1.99945C28.1915 1.99945 28.2262 1.98221 28.2724 1.98221C28.8498 1.86127 29.4273 1.7403 30.0163 1.61069C30.6168 1.50702 31.2289 1.41196 31.841 1.31693C32.4762 1.22186 33.0768 1.1441 33.7351 1.07498L33.712 1.08362Z" fill="url(#paint1_linear_174_860)"/>
<path d="M35.6176 0.911013C35.6753 0.911013 35.7215 0.893806 35.7793 0.911013C35.4905 0.92822 35.2018 0.953984 34.9131 0.971191C35.0517 0.953984 35.2018 0.936788 35.3404 0.928184C35.4212 0.928184 35.5252 0.92822 35.606 0.911013H35.6176Z" fill="url(#paint2_linear_174_860)"/>
<path d="M39.3244 0.772252C38.7123 0.772252 38.1118 0.789681 37.5112 0.807129C38.1118 0.780957 38.7239 0.772252 39.3244 0.772252Z" fill="#DFDFDF"/>
<path d="M916.407 426.572V429.276C916.407 430.78 916.245 432.24 915.911 433.674C915.853 433.985 915.772 434.288 915.68 434.599V434.659C915.553 435.074 915.437 435.471 915.287 435.877C915.287 435.895 915.287 435.921 915.264 435.938C915.137 436.309 914.998 436.672 914.848 437.026C914.709 437.398 914.536 437.752 914.375 438.098C914.224 438.374 914.109 438.651 913.959 438.91C913.855 439.091 913.774 439.282 913.67 439.446C913.358 439.999 913.035 440.534 912.688 441.061C912.55 441.277 912.377 441.511 912.238 441.727C911.972 442.098 911.707 442.435 911.418 442.789C911.291 442.971 911.152 443.144 910.991 443.308C910.852 443.489 910.702 443.679 910.54 443.843C910.413 443.999 910.298 444.137 910.148 444.275C909.905 444.552 909.639 444.828 909.362 445.088C909.016 445.425 908.658 445.762 908.311 446.09C907.988 446.384 907.653 446.677 907.33 446.954C907.226 447.032 907.145 447.109 907.064 447.187C906.718 447.446 906.371 447.723 906.013 447.982C905.62 448.276 905.216 448.57 904.8 448.846C904.408 449.105 904.038 449.356 903.634 449.598C903.576 449.658 903.495 449.719 903.391 449.771C902.999 450.004 902.594 450.246 902.179 450.479C901.751 450.712 901.313 450.937 900.885 451.153C900.827 451.196 900.758 451.231 900.701 451.257C900.435 451.395 900.169 451.516 899.904 451.654C899.58 451.81 899.245 451.948 898.933 452.086C898.91 452.103 898.887 452.121 898.876 452.121C898.402 452.319 897.952 452.501 897.478 452.708C897.455 452.725 897.421 452.725 897.374 452.751C896.959 452.907 896.554 453.062 896.127 453.201C895.861 453.304 895.596 453.399 895.307 453.494C894.441 453.805 893.517 454.065 892.593 454.289C892.166 454.393 891.727 454.505 891.276 454.609C890.745 454.713 890.214 454.842 889.671 454.946C889.174 455.041 888.666 455.127 888.147 455.188C887.8 455.248 887.465 455.292 887.119 455.326C886.853 455.369 886.587 455.421 886.299 455.43C885.744 455.49 885.144 455.551 884.578 455.603C884.347 455.62 884.128 455.637 883.897 455.646C883.55 455.68 883.192 455.689 882.846 455.689C882.245 455.724 881.633 455.732 881.044 455.732L39.3362 455.732C38.7241 455.732 38.1236 455.715 37.5115 455.689C37.165 455.689 36.807 455.672 36.4605 455.646C36.2295 455.628 36.0101 455.611 35.7791 455.603C35.2016 455.559 34.6242 455.499 34.0583 455.43C33.7927 455.412 33.5039 455.369 33.2383 455.326C32.8918 455.292 32.5569 455.248 32.2104 455.188C31.7023 455.127 31.2057 455.032 30.7091 454.946C30.1547 454.842 29.6234 454.713 29.0806 454.609C28.6302 454.505 28.1914 454.393 27.764 454.289C26.8401 454.056 25.9393 453.797 25.05 453.494C24.7613 453.399 24.4957 453.313 24.23 453.201C23.8143 453.062 23.3869 452.907 22.9827 452.751C22.9365 452.717 22.925 452.717 22.8788 452.708C22.4053 452.509 21.9549 452.328 21.4813 452.121C21.4582 452.121 21.4351 452.103 21.4351 452.086C21.1118 451.948 20.7768 451.81 20.465 451.654C20.1763 451.516 19.9107 451.395 19.645 451.257C19.5873 451.222 19.518 451.196 19.4603 451.153C19.0329 450.937 18.5941 450.704 18.1668 450.479C17.751 450.246 17.3699 450.004 16.9541 449.771C16.8733 449.727 16.7693 449.667 16.7116 449.598C16.3189 449.356 15.9262 449.105 15.5567 448.846C15.1294 448.57 14.7136 448.276 14.3209 447.982C13.9744 447.723 13.628 447.446 13.2931 447.187C13.1891 447.109 13.1083 447.032 13.0043 446.954C12.681 446.677 12.346 446.384 12.0342 446.09C11.6646 445.77 11.3182 445.433 10.9832 445.088C10.6945 444.828 10.4289 444.552 10.1979 444.275C10.0593 444.137 9.90918 443.999 9.78214 443.843C9.632 443.671 9.47031 443.489 9.33172 443.308C9.17004 443.135 9.0199 442.971 8.90441 442.789C8.61568 442.435 8.35005 442.098 8.10752 441.727C7.94583 441.511 7.78415 441.277 7.63401 441.061C7.28754 440.543 6.95261 439.999 6.65234 439.446C6.5715 439.273 6.46755 439.091 6.36361 438.91C6.22502 438.651 6.09798 438.374 5.94784 438.098C5.78616 437.744 5.63602 437.389 5.47433 437.026C5.33574 436.672 5.18561 436.301 5.05857 435.938C5.03547 435.921 5.03547 435.895 5.03547 435.877C4.89688 435.48 4.76984 435.082 4.6659 434.659C4.6659 434.625 4.6428 434.616 4.6428 434.599C4.56196 434.288 4.48111 433.985 4.43492 433.674C4.08844 432.249 3.92676 430.788 3.92676 429.276V426.572C3.96141 441.174 19.8183 453.036 39.3362 453.036L881.055 453.036C900.55 453.036 916.407 441.174 916.407 426.572Z" fill="url(#paint3_linear_174_860)"/>
<path d="M39.3362 0.772699L881.056 0.772699C881.379 0.772699 881.714 0.772715 882.037 0.789995H882.118C882.384 0.789995 882.615 0.807257 882.857 0.824537C883.1 0.841816 883.365 0.841797 883.62 0.859077C883.7 0.859077 883.781 0.876375 883.862 0.876375C883.943 0.876375 884.024 0.893671 884.105 0.893671H884.232C884.359 0.910952 884.474 0.910933 884.578 0.928213C885.156 0.971413 885.745 1.02326 886.299 1.10102C886.588 1.11831 886.853 1.1615 887.119 1.2047C887.465 1.23926 887.8 1.28247 888.147 1.32567C888.17 1.32567 888.193 1.34297 888.205 1.34297C888.62 1.40345 889.024 1.46391 889.417 1.54168L889.844 1.6367C889.902 1.6367 889.948 1.65396 890.006 1.67125C890.433 1.74901 890.849 1.84409 891.265 1.93049C891.658 2.02553 892.05 2.11194 892.431 2.20698L892.559 2.25017C892.79 2.29337 892.986 2.35386 893.194 2.42298C893.54 2.51802 893.887 2.60437 894.222 2.69942C894.349 2.74261 894.453 2.77717 894.568 2.80309C894.88 2.90677 895.203 3.01914 895.515 3.12282C895.942 3.26106 896.381 3.41655 896.785 3.57207C897.097 3.67575 897.398 3.80534 897.732 3.94358C897.894 4.00407 898.056 4.06458 898.229 4.14234L899.095 4.51386C899.095 4.51386 899.153 4.54841 899.176 4.55705C899.603 4.73849 900.042 4.9372 900.423 5.14457C900.666 5.26553 900.92 5.38648 901.163 5.51608C901.186 5.53336 901.22 5.55929 901.243 5.57657C901.567 5.73209 901.879 5.89626 902.167 6.06906C902.583 6.30234 902.987 6.52699 903.38 6.77755C903.484 6.83803 903.588 6.89849 903.692 6.97626C903.981 7.1577 904.292 7.34781 904.581 7.54653C904.743 7.64157 904.893 7.72794 905.008 7.84026C905.031 7.85754 905.055 7.87481 905.089 7.88345C905.228 7.98713 905.401 8.11674 905.563 8.22042L906.013 8.5574C906.337 8.79068 906.648 9.03257 906.96 9.28314C906.983 9.3177 907.018 9.34364 907.064 9.36092C907.145 9.43868 907.226 9.51646 907.33 9.59422C907.376 9.62878 907.411 9.67197 907.457 9.6979C907.746 9.93982 908.034 10.1904 908.323 10.4496C908.669 10.7693 909.016 11.0976 909.374 11.4518C909.64 11.711 909.905 11.9875 910.159 12.264C910.298 12.4022 910.425 12.5404 910.552 12.696C910.714 12.8688 910.864 13.0502 911.002 13.2316C911.164 13.4044 911.314 13.5686 911.43 13.7501C911.718 14.1043 911.984 14.4413 912.25 14.8128C912.388 15.0288 912.562 15.2448 912.7 15.4781C913.047 15.9965 913.381 16.5408 913.682 17.0765C913.682 17.0765 913.69 17.0909 913.705 17.1197C913.809 17.3184 913.936 17.5344 914.017 17.7331C914.04 17.7504 914.04 17.7763 914.063 17.7936C914.167 17.9751 914.248 18.1651 914.352 18.3466C914.352 18.3639 914.352 18.3812 914.375 18.3898C914.536 18.744 914.698 19.1242 914.871 19.513C915.01 19.8845 915.16 20.2647 915.299 20.6621C915.345 20.7658 915.38 20.8954 915.426 20.9991C915.507 21.2928 915.587 21.552 915.668 21.8285C915.668 21.8717 915.691 21.889 915.691 21.9322C915.714 22.0272 915.737 22.105 915.772 22.1914C915.818 22.3901 915.853 22.5716 915.899 22.7617C915.922 22.8049 915.922 22.8567 915.922 22.8826C916.003 23.1936 916.072 23.496 916.13 23.8244C916.13 23.9281 916.153 24.0404 916.176 24.1441C916.223 24.386 916.234 24.6193 916.28 24.8525C916.315 25.129 916.338 25.4055 916.361 25.682C916.396 26.1918 916.419 26.7274 916.419 27.2459V29.9502C916.419 15.3485 900.562 3.48569 881.067 3.48569L39.3362 3.48569C19.8183 3.48569 3.96143 15.3485 3.96143 29.9502V27.2459C3.96143 25.7511 4.12311 24.2996 4.45804 22.8826C4.51578 22.5629 4.58508 22.2346 4.68902 21.9322C4.81606 21.5002 4.93155 21.0682 5.08169 20.6535C5.22027 20.256 5.37041 19.8672 5.509 19.5043C5.67069 19.1242 5.83238 18.7354 6.01716 18.3811C6.1211 18.1479 6.22504 17.9319 6.34053 17.7159C6.44448 17.4999 6.54842 17.2666 6.66391 17.0592C6.98728 16.5235 7.29911 15.9878 7.64558 15.4608C7.78417 15.2275 7.9574 15.0115 8.11909 14.7955C8.36162 14.424 8.62725 14.087 8.91598 13.7328C9.04302 13.5513 9.18161 13.3786 9.34329 13.2144C9.48188 13.033 9.65512 12.8429 9.79371 12.6787C9.92075 12.5232 10.0593 12.385 10.2095 12.2467C10.4405 11.9702 10.7061 11.6938 10.9948 11.4346C11.3182 11.0803 11.6762 10.7606 12.0458 10.4323C12.3576 10.1385 12.681 9.84476 13.0159 9.56827C13.1198 9.49051 13.2007 9.41279 13.3046 9.33503C13.628 9.07582 13.986 8.7993 14.3325 8.5401C14.6559 8.29818 14.9908 8.06493 15.3373 7.81437C15.4758 7.71069 15.626 7.61562 15.7646 7.52058C16.0533 7.32186 16.3651 7.14044 16.6654 6.95036C16.7462 6.8726 16.8502 6.81208 16.9541 6.7516C17.3699 6.50968 17.751 6.2764 18.1668 6.04311C18.4902 5.86167 18.8482 5.67163 19.1947 5.49019C19.4256 5.36923 19.6682 5.24827 19.9107 5.11867C20.3265 4.91995 20.7307 4.72118 21.158 4.5311C21.4698 4.37558 21.7932 4.23736 22.1281 4.1164C22.2667 4.03864 22.4399 3.97817 22.6247 3.91769C22.9366 3.77945 23.2368 3.67578 23.5486 3.54618C23.9644 3.39066 24.3917 3.23512 24.819 3.09688C25.1424 2.9932 25.4542 2.88088 25.7661 2.7772C26.4706 2.5612 27.1866 2.37975 27.9026 2.18103C28.2953 2.08599 28.688 1.99958 29.0691 1.90454C29.5195 1.80086 30.0161 1.70585 30.4896 1.61081C31.0671 1.50713 31.6215 1.39477 32.1989 1.29973C32.5454 1.25653 32.8803 1.20473 33.2268 1.17881C33.4924 1.13561 33.7811 1.08372 34.0468 1.07508C34.6242 0.997318 35.2017 0.954161 35.7676 0.902321C35.9177 0.88504 36.0794 0.867727 36.2411 0.867727C36.6568 0.833166 37.0842 0.82452 37.4999 0.80724C37.7656 0.789959 37.9965 0.772699 38.2391 0.772699H38.3199C38.6433 0.755419 38.9782 0.755402 39.3247 0.755402L39.3362 0.772699Z" fill="url(#paint4_linear_174_860)"/>
<defs>
<linearGradient id="paint0_linear_174_860" x1="920.022" y1="228.265" x2="883.908" y2="228.265" gradientUnits="userSpaceOnUse">
<stop stop-color="#E3E3E3"/>
<stop offset="0.03" stop-color="#C2C2C2"/>
<stop offset="0.06" stop-color="#A6A6A6"/>
<stop offset="0.09" stop-color="#8F8F8F"/>
<stop offset="0.13" stop-color="#7D7D7D"/>
<stop offset="0.17" stop-color="#717171"/>
<stop offset="0.22" stop-color="#6A6A6A"/>
<stop offset="0.36" stop-color="#686868"/>
<stop offset="0.37" stop-color="#676767"/>
<stop offset="1" stop-color="#666666"/>
</linearGradient>
<linearGradient id="paint1_linear_174_860" x1="36.4606" y1="228.309" x2="0.3467" y2="228.309" gradientUnits="userSpaceOnUse">
<stop stop-color="#666666"/>
<stop offset="0.42" stop-color="#676767"/>
<stop offset="0.57" stop-color="#6E6E6E"/>
<stop offset="0.68" stop-color="#7A7A7A"/>
<stop offset="0.77" stop-color="#8B8B8B"/>
<stop offset="0.84" stop-color="#A1A1A1"/>
<stop offset="0.91" stop-color="#BCBCBC"/>
<stop offset="0.97" stop-color="#DCDCDC"/>
<stop offset="1" stop-color="#F1F1F1"/>
</linearGradient>
<linearGradient id="paint2_linear_174_860" x1="35.352" y1="0.971191" x2="35.352" y2="0.90241" gradientUnits="userSpaceOnUse">
<stop stop-color="#666666"/>
<stop offset="0.42" stop-color="#676767"/>
<stop offset="0.57" stop-color="#6E6E6E"/>
<stop offset="0.68" stop-color="#7A7A7A"/>
<stop offset="0.77" stop-color="#8B8B8B"/>
<stop offset="0.84" stop-color="#A1A1A1"/>
<stop offset="0.91" stop-color="#BCBCBC"/>
<stop offset="0.97" stop-color="#DCDCDC"/>
<stop offset="1" stop-color="#F1F1F1"/>
</linearGradient>
<linearGradient id="paint3_linear_174_860" x1="916.407" y1="441.156" x2="3.96146" y2="441.156" gradientUnits="userSpaceOnUse">
<stop stop-color="#C9C9C9"/>
<stop offset="0.25" stop-color="#808080"/>
<stop offset="0.48" stop-color="#F1F1F1"/>
<stop offset="0.53" stop-color="#ECECEC"/>
<stop offset="0.58" stop-color="#DEDEDE"/>
<stop offset="0.64" stop-color="#C6C6C6"/>
<stop offset="0.71" stop-color="#A6A6A6"/>
<stop offset="0.77" stop-color="#808080"/>
<stop offset="0.89" stop-color="#A4A4A4"/>
<stop offset="1" stop-color="#C9C9C9"/>
</linearGradient>
<linearGradient id="paint4_linear_174_860" x1="9.42347e-05" y1="15.3571" x2="9.42347e-05" y2="15.3571" gradientUnits="userSpaceOnUse">
<stop stop-color="#C9C9C9"/>
<stop offset="0.25" stop-color="#808080"/>
<stop offset="0.48" stop-color="#F1F1F1"/>
<stop offset="0.53" stop-color="#ECECEC"/>
<stop offset="0.58" stop-color="#DEDEDE"/>
<stop offset="0.64" stop-color="#C6C6C6"/>
<stop offset="0.71" stop-color="#A6A6A6"/>
<stop offset="0.77" stop-color="#808080"/>
<stop offset="0.89" stop-color="#A4A4A4"/>
<stop offset="1" stop-color="#C9C9C9"/>
</linearGradient>
</defs>
</svg>
