<svg width="337" height="27" viewBox="0 0 337 27" fill="none" xmlns="http://www.w3.org/2000/svg">
<path d="M0.0960001 26V0.835998H5.712V20.996H16.44V26H0.0960001ZM20.5569 0.835998H26.1729V26H20.5569V0.835998ZM40.4694 5.192C39.5334 5.192 38.7894 5.42 38.2374 5.876C37.7094 6.308 37.4454 6.896 37.4454 7.64C37.4454 8.36 37.7694 8.936 38.4174 9.368C39.0894 9.8 40.6134 10.316 42.9894 10.916C45.3894 11.492 47.2494 12.368 48.5694 13.544C49.8894 14.72 50.5494 16.436 50.5494 18.692C50.5494 20.948 49.6974 22.784 47.9934 24.2C46.3134 25.592 44.0934 26.288 41.3334 26.288C37.3494 26.288 33.7614 24.812 30.5694 21.86L33.9174 17.756C36.6294 20.132 39.1374 21.32 41.4414 21.32C42.4734 21.32 43.2774 21.104 43.8534 20.672C44.4534 20.216 44.7534 19.616 44.7534 18.872C44.7534 18.104 44.4414 17.504 43.8174 17.072C43.1934 16.616 41.9574 16.16 40.1094 15.704C37.1814 15.008 35.0334 14.108 33.6654 13.004C32.3214 11.876 31.6494 10.124 31.6494 7.748C31.6494 5.348 32.5014 3.5 34.2054 2.204C35.9334 0.907999 38.0814 0.259999 40.6494 0.259999C42.3294 0.259999 44.0094 0.547999 45.6894 1.124C47.3694 1.7 48.8334 2.516 50.0814 3.572L47.2374 7.676C45.0534 6.02 42.7974 5.192 40.4694 5.192ZM65.7715 5.696V26H60.1555V5.696H53.0275V0.835998H72.8995V5.696H65.7715ZM105.77 13.292C105.77 11.036 105.05 9.116 103.61 7.532C102.17 5.948 100.394 5.156 98.2821 5.156C96.1941 5.156 94.4301 5.948 92.9901 7.532C91.5501 9.116 90.8301 11.036 90.8301 13.292C90.8301 15.524 91.5501 17.432 92.9901 19.016C94.4301 20.576 96.1941 21.356 98.2821 21.356C100.394 21.356 102.17 20.576 103.61 19.016C105.05 17.432 105.77 15.524 105.77 13.292ZM107.678 22.544C105.134 25.016 102.002 26.252 98.2821 26.252C94.5621 26.252 91.4301 25.016 88.8861 22.544C86.3421 20.048 85.0701 16.952 85.0701 13.256C85.0701 9.56 86.3421 6.476 88.8861 4.004C91.4301 1.508 94.5621 0.259999 98.2821 0.259999C102.002 0.259999 105.134 1.508 107.678 4.004C110.222 6.476 111.494 9.56 111.494 13.256C111.494 16.952 110.222 20.048 107.678 22.544ZM133.532 0.835998V5.768H121.868V11.204H132.956V16.136H121.868V26H116.252V0.835998H133.532ZM156.679 0.835998C160.543 0.835998 163.351 1.592 165.103 3.104C166.879 4.592 167.767 6.896 167.767 10.016C167.767 13.112 166.855 15.38 165.031 16.82C163.231 18.26 160.471 18.98 156.751 18.98H153.403V26H147.787V0.835998H156.679ZM157.183 14.12C159.055 14.12 160.327 13.748 160.999 13.004C161.671 12.236 162.007 11.132 162.007 9.692C162.007 8.228 161.563 7.196 160.675 6.596C159.811 5.972 158.455 5.66 156.607 5.66H153.403V14.12H157.183ZM192.563 9.188C192.563 13.22 190.967 15.824 187.775 17L194.147 26H187.235L181.655 17.972H177.767V26H172.151V0.835998H181.691C185.603 0.835998 188.387 1.496 190.043 2.816C191.723 4.136 192.563 6.26 192.563 9.188ZM181.871 13.112C183.791 13.112 185.099 12.8 185.795 12.176C186.491 11.552 186.839 10.568 186.839 9.224C186.839 7.856 186.479 6.92 185.759 6.416C185.039 5.912 183.779 5.66 181.979 5.66H177.767V13.112H181.871ZM217.321 13.292C217.321 11.036 216.601 9.116 215.161 7.532C213.721 5.948 211.945 5.156 209.833 5.156C207.745 5.156 205.981 5.948 204.541 7.532C203.101 9.116 202.381 11.036 202.381 13.292C202.381 15.524 203.101 17.432 204.541 19.016C205.981 20.576 207.745 21.356 209.833 21.356C211.945 21.356 213.721 20.576 215.161 19.016C216.601 17.432 217.321 15.524 217.321 13.292ZM219.229 22.544C216.685 25.016 213.553 26.252 209.833 26.252C206.113 26.252 202.981 25.016 200.437 22.544C197.893 20.048 196.621 16.952 196.621 13.256C196.621 9.56 197.893 6.476 200.437 4.004C202.981 1.508 206.113 0.259999 209.833 0.259999C213.553 0.259999 216.685 1.508 219.229 4.004C221.773 6.476 223.045 9.56 223.045 13.256C223.045 16.952 221.773 20.048 219.229 22.544ZM227.93 5.66V0.835998H241.034V17.252C241.034 20.252 240.254 22.496 238.694 23.984C237.158 25.472 235.178 26.216 232.754 26.216C229.73 26.216 227.09 25.052 224.834 22.724L227.75 18.692C229.262 20.324 230.846 21.14 232.502 21.14C233.294 21.14 233.966 20.84 234.518 20.24C235.094 19.616 235.382 18.692 235.382 17.468V5.66H227.93ZM265.142 0.835998V5.84H252.614V11.024H263.882V15.812H252.614V21.032H265.538V26H246.998V0.835998H265.142ZM282.109 21.032C284.869 21.032 287.125 19.94 288.877 17.756L292.477 21.464C289.621 24.68 286.249 26.288 282.361 26.288C278.497 26.288 275.305 25.064 272.785 22.616C270.289 20.168 269.041 17.084 269.041 13.364C269.041 9.62 270.313 6.5 272.857 4.004C275.425 1.508 278.557 0.259999 282.253 0.259999C286.381 0.259999 289.837 1.832 292.621 4.976L289.129 8.936C287.353 6.728 285.145 5.624 282.505 5.624C280.393 5.624 278.581 6.32 277.069 7.712C275.581 9.08 274.837 10.94 274.837 13.292C274.837 15.62 275.545 17.492 276.961 18.908C278.377 20.324 280.093 21.032 282.109 21.032ZM307.576 5.696V26H301.96V5.696H294.832V0.835998H314.704V5.696H307.576ZM326.712 5.192C325.776 5.192 325.032 5.42 324.48 5.876C323.952 6.308 323.688 6.896 323.688 7.64C323.688 8.36 324.012 8.936 324.66 9.368C325.332 9.8 326.856 10.316 329.232 10.916C331.632 11.492 333.492 12.368 334.812 13.544C336.132 14.72 336.792 16.436 336.792 18.692C336.792 20.948 335.94 22.784 334.236 24.2C332.556 25.592 330.336 26.288 327.576 26.288C323.592 26.288 320.004 24.812 316.812 21.86L320.16 17.756C322.872 20.132 325.38 21.32 327.684 21.32C328.716 21.32 329.52 21.104 330.096 20.672C330.696 20.216 330.996 19.616 330.996 18.872C330.996 18.104 330.684 17.504 330.06 17.072C329.436 16.616 328.2 16.16 326.352 15.704C323.424 15.008 321.276 14.108 319.908 13.004C318.564 11.876 317.892 10.124 317.892 7.748C317.892 5.348 318.744 3.5 320.448 2.204C322.176 0.907999 324.324 0.259999 326.892 0.259999C328.572 0.259999 330.252 0.547999 331.932 1.124C333.612 1.7 335.076 2.516 336.324 3.572L333.48 7.676C331.296 6.02 329.04 5.192 326.712 5.192Z" fill="white"/>
</svg>
