<?xml version="1.0" encoding="UTF-8"?><svg id="Layer_2" xmlns="http://www.w3.org/2000/svg" viewBox="0 0 500 368.76"><defs><style>.cls-1{fill:#f0f0f0;}.cls-2,.cls-3,.cls-4,.cls-5,.cls-6{fill:#fff;}.cls-7{fill:#fafafa;}.cls-8,.cls-5{opacity:.5;}.cls-3,.cls-9{opacity:.4;}.cls-10{fill:#f5f5f5;}.cls-4,.cls-11{opacity:.3;}.cls-12,.cls-13{opacity:.2;}.cls-14{fill:#e0e0e0;}.cls-6{opacity:.8;}.cls-15{fill:#e6e6e6;}.cls-16{opacity:.1;}.cls-17{fill:#ffb573;}.cls-18{fill:#ebebeb;}.cls-19{fill:#ff8b7b;}.cls-13,.cls-20{fill:#263238;}.cls-21{fill:#407bff;}.cls-22{fill:#ff5652;}.cls-23{fill:#ffc3bd;}.cls-24{fill:#ed893e;}.cls-25{fill:#7f3e3b;}.cls-26{fill:#a02724;}</style></defs><g id="Background_Complete"><g><g><rect class="cls-18" x="416.78" y="343.54" width="33.12" height=".25"/><rect class="cls-18" x="322.53" y="346.26" width="8.69" height=".25"/><rect class="cls-18" x="396.59" y="334.26" width="19.19" height=".25"/><rect class="cls-18" x="52.46" y="335.94" width="43.19" height=".25"/><rect class="cls-18" x="104.56" y="335.94" width="6.33" height=".25"/><rect class="cls-18" x="131.47" y="340.16" width="93.68" height=".25"/><path class="cls-18" d="M237.01,282.85H43.92c-3.15,0-5.71-2.56-5.71-5.71V5.71c0-3.15,2.56-5.71,5.71-5.71H237.01c3.15,0,5.71,2.56,5.71,5.71V277.14c0,3.15-2.56,5.71-5.71,5.71ZM43.92,.25c-3.01,0-5.46,2.45-5.46,5.46V277.14c0,3.01,2.45,5.46,5.46,5.46H237.01c3.01,0,5.46-2.45,5.46-5.46V5.71c0-3.01-2.45-5.46-5.46-5.46H43.92Z"/><path class="cls-18" d="M453.31,282.85h-193.1c-3.15,0-5.71-2.56-5.71-5.71V5.71c0-3.15,2.56-5.71,5.71-5.71h193.1c3.15,0,5.71,2.56,5.71,5.71V277.14c0,3.15-2.56,5.71-5.71,5.71ZM260.21,.25c-3.01,0-5.46,2.45-5.46,5.46V277.14c0,3.01,2.45,5.46,5.46,5.46h193.1c3.01,0,5.46-2.45,5.46-5.46V5.71c0-3.01-2.45-5.46-5.46-5.46h-193.1Z"/><rect class="cls-18" y="327.45" width="500" height=".25"/></g><g><g><g><path class="cls-1" d="M213.63,275.71h3.58v51.5c0,.65-.53,1.19-1.19,1.19h-1.21c-.65,0-1.19-.53-1.19-1.19v-51.5h0Z"/><rect class="cls-15" x="293.47" y="271.03" width="31.05" height="4.68"/><path class="cls-15" d="M235.82,275.71h3.58v51.5c0,.65-.53,1.19-1.19,1.19h-1.21c-.65,0-1.19-.53-1.19-1.19v-51.5h0Z"/><path class="cls-15" d="M318.86,275.71h3.58v51.5c0,.65-.53,1.19-1.19,1.19h-1.21c-.65,0-1.19-.53-1.19-1.19v-51.5h0Z"/><rect class="cls-10" x="211.56" y="271.03" width="90.76" height="4.68"/><path class="cls-1" d="M296.67,275.71h3.58v51.5c0,.65-.53,1.19-1.19,1.19h-1.21c-.65,0-1.19-.53-1.19-1.19v-51.5h0Z"/></g><g><path class="cls-1" d="M317.79,271.03h-8.24v-.73c0-1.44,1.21-2.58,2.64-2.5l3.23,.17c1.33,.07,2.37,1.17,2.37,2.5v.56Z"/><g><path class="cls-14" d="M295.56,254.01c-.03-.65-.57-1.16-1.22-1.16h-8.32c-.65,0-1.18,.51-1.22,1.16l1.98,17.34h12.42l-3.64-17.34Z"/><path class="cls-14" d="M318.16,227.34h-3.1l-3.49,32.75h3.1c.51,0,.97-.42,1.03-.93l3.29-30.89c.05-.51-.32-.93-.83-.93Z"/><path class="cls-18" d="M313.36,260.1h-46.47c-.51,0-.89-.42-.83-.93l3.29-30.89c.05-.51,.52-.93,1.03-.93h46.47c.51,0,.89,.42,.83,.93l-3.29,30.89c-.05,.51-.52,.93-1.03,.93Z"/><path class="cls-7" d="M312.5,257.07h-43.82c-.45,0-.77-.36-.73-.81l2.87-26.95c.05-.45,.45-.81,.9-.81h43.82c.45,0,.77,.36,.73,.81l-2.87,26.95c-.05,.45-.45,.81-.9,.81Z"/><path class="cls-14" d="M299.67,270h-15.28c-.37,0-.67,.3-.67,.67h0c0,.37,.3,.67,.67,.67h15.28c.37,0,.67-.3,.67-.67h0c0-.37-.3-.67-.67-.67Z"/></g><rect class="cls-18" x="269.14" y="269.1" width="25.91" height="1.93"/><g><rect class="cls-1" x="279.53" y="238.48" width="10.1" height="10.1" transform="translate(255.56 -129.9) rotate(45)"/><polygon class="cls-18" points="291.2 250.26 295.11 246.35 299.02 250.26 291.2 250.26"/><circle class="cls-15" cx="301.73" cy="239.72" r="4.83"/></g></g><g><g><rect class="cls-10" x="219.04" y="277.84" width="38.14" height="50.75"/><rect class="cls-15" x="257.18" y="277.84" width="7.28" height="50.75"/><rect class="cls-7" x="221.71" y="281.6" width="32.99" height="12.32"/><rect class="cls-7" x="221.71" y="295.28" width="32.99" height="12.32"/><rect class="cls-7" x="221.71" y="308.95" width="32.99" height="12.33"/></g><g><path class="cls-18" d="M239.58,287.77c0,.76-.62,1.37-1.37,1.37s-1.37-.62-1.37-1.37,.62-1.37,1.37-1.37,1.37,.62,1.37,1.37Z"/><path class="cls-18" d="M239.58,301.44c0,.76-.62,1.37-1.37,1.37s-1.37-.62-1.37-1.37,.62-1.37,1.37-1.37,1.37,.62,1.37,1.37Z"/><path class="cls-18" d="M239.58,315.11c0,.76-.62,1.37-1.37,1.37s-1.37-.62-1.37-1.37,.62-1.37,1.37-1.37,1.37,.62,1.37,1.37Z"/></g></g></g><g><g><rect class="cls-1" x="109.28" y="266.01" width="62.68" height="59.6"/><rect class="cls-15" x="171.96" y="266.01" width="8.55" height="59.6"/><rect class="cls-7" x="112.42" y="270.43" width="56.63" height="14.47"/><rect class="cls-7" x="112.42" y="286.49" width="56.63" height="14.47"/><rect class="cls-7" x="112.42" y="302.54" width="56.63" height="14.47"/><polygon class="cls-15" points="169.05 328.59 112.89 328.59 112.42 325.61 169.05 325.61 169.05 328.59"/><polygon class="cls-14" points="177.05 328.59 169.05 328.59 169.05 325.61 177.53 325.61 177.05 328.59"/></g><g><path class="cls-18" d="M135.57,270.43l.17,1.93c.06,.64,.59,1.12,1.23,1.12h7.31c.64,0,1.17-.49,1.23-1.12l.17-1.93h-10.11Z"/><path class="cls-18" d="M135.57,286.49l.17,1.93c.06,.64,.59,1.12,1.23,1.12h7.31c.64,0,1.17-.49,1.23-1.12l.17-1.93h-10.11Z"/><path class="cls-18" d="M135.57,302.54l.17,1.93c.06,.64,.59,1.12,1.23,1.12h7.31c.64,0,1.17-.49,1.23-1.12l.17-1.93h-10.11Z"/></g></g><g><path class="cls-18" d="M385.81,253.05c-3.63-1.12-6.02-1.86-8.86-2.74-.65-.2-.48-1.16,.2-1.12,3.31,.17,6.02,.32,10.21,.54-2.41-4.2-3.84-6.81-5.46-10.1-.3-.6,.5-1.14,.95-.64,2.18,2.45,4,4.44,6.93,7.58,.7-4.06,1.51-7.8,2.52-11.55,.18-.68,1.19-.5,1.13,.2-.27,3.05-.37,6.12-.3,9.09l.28,.1c2.45-2.8,5.03-5.49,7.71-8.06,.52-.5,1.29,.22,.85,.78-2.61,3.3-5.02,6.76-7.21,10.35,3.51-1.32,7.03-2.6,10.57-3.85,.66-.23,1.08,.7,.48,1.04-3.67,2.08-7.3,4.21-10.92,6.41,3.82,1.22,6.32,2.01,9.34,2.97,.65,.21,.47,1.16-.21,1.12-3.1-.19-5.67-.34-9.6-.58,1.9,2.22,3.22,3.74,4.75,5.47,.45,.5-.19,1.24-.75,.86-1.93-1.28-3.63-2.42-6.1-4.07,.25,1.97,.47,3.5,.73,5,.12,.69-.85,.96-1.1,.31-.64-1.64-1.23-3.27-1.97-5.44-2.79,13.35-2.07,26.28,.63,39.55-1.34-.24-2.01-.36-3.34-.6-1.95-13.6-1.45-25.78,1.57-39.15-1.68,1.73-2.91,3.03-4.08,4.35-.46,.52-1.28-.08-.92-.68,.79-1.31,1.65-2.64,2.79-4.36-2.98,.65-5.03,1.11-7.28,1.61-.66,.15-.99-.77-.38-1.08,2.1-1.05,4.03-1.97,6.86-3.32Z"/><path class="cls-1" d="M381.09,257.66c2.75-1.46,4.73-2.51,6.8-3.61,.8-.43,.34-1.65-.55-1.43-2.58,.63-4.99,1.22-8.4,2.06,1.37-3.95,2.24-6.6,3.08-9.52,.25-.87-.94-1.38-1.4-.61-1.38,2.29-2.7,4.41-4.64,7.49-1.18-3.14-2.38-6.06-3.7-8.92-.39-.85-1.67-.39-1.44,.52,.58,2.27,1.06,4.56,1.43,6.81l-.25,.15c-2.2-1.72-4.46-3.36-6.76-4.93-.79-.54-1.67,.55-.96,1.2,2.43,2.22,4.75,4.55,6.97,6.99-2.98-.52-5.96-1.01-8.95-1.48-.93-.14-1.25,1.18-.37,1.49,3.3,1.14,6.59,2.32,9.88,3.56-2.93,1.59-5.02,2.72-7.24,3.92-.8,.43-.32,1.65,.56,1.43,2.39-.6,4.64-1.18,7.8-1.97-1.13,1.98-1.99,3.47-2.88,4.98-.46,.78,.56,1.57,1.2,.94,1.26-1.23,2.51-2.46,4.16-4.09,.07,1.17,.13,2.19,.16,3.14,.04,.93,1.38,1.01,1.53,.1,.19-1.14,.38-2.36,.59-3.81,5.23,12.59,6.93,25.43,6.76,38.97,1.27-.49,1.9-.73,3.17-1.22-.62-13.73-3.39-25.6-8.85-38.17,1.2,.85,2.21,1.57,3.13,2.24,.76,.56,1.66-.46,1.02-1.15-.63-.67-1.31-1.38-2.11-2.19,2.33,.07,4.09,.12,5.82,.17,.91,.03,1.11-1.27,.23-1.51-1.71-.47-3.46-.93-5.79-1.54Z"/><path class="cls-10" d="M393.11,264.98c-2.06-1.09-3.52-1.87-5.08-2.69-.57-.3-.24-1.17,.39-1.01,1.93,.47,3.71,.91,6.25,1.54-1.02-2.93-1.65-4.88-2.28-7.06-.18-.61,.66-.98,.99-.43,1.03,1.71,2,3.27,3.44,5.56,.88-2.35,1.78-4.52,2.77-6.66,.28-.6,1.19-.27,1.02,.37-.44,1.72-.81,3.46-1.09,5.16l.16,.09c1.67-1.31,3.39-2.55,5.14-3.74,.56-.38,1.18,.4,.67,.86-1.83,1.66-3.57,3.41-5.23,5.24,2.23-.39,4.47-.76,6.7-1.1,.66-.1,.89,.84,.26,1.05-2.46,.85-4.91,1.73-7.37,2.65,2.19,1.18,3.73,2.02,5.39,2.92,.57,.31,.23,1.17-.39,1.01-1.79-.45-3.45-.87-5.81-1.47,.85,1.49,1.49,2.6,2.16,3.73,.33,.55-.4,1.12-.85,.67-.95-.93-1.88-1.84-3.12-3.07-.06,.92-.1,1.71-.13,2.45-.02,.66-.97,.72-1.08,.07-.15-.88-.29-1.81-.45-2.93-3.81,9.18-5.06,18.54-4.93,28.41-.92-.35-1.39-.53-2.31-.89,.45-10.01,2.47-18.66,6.45-27.83-.94,.66-1.72,1.22-2.43,1.74-.53,.39-1.18-.33-.72-.81,.49-.52,1.03-1.08,1.66-1.73-1.76,.05-3.08,.09-4.38,.13-.65,.02-.79-.9-.16-1.07,1.29-.35,2.6-.7,4.35-1.16Z"/><g><path class="cls-18" d="M394.43,328.59h-17.29c-1.21,0-2.21-.94-2.28-2.15l-1.83-29.82c-.08-1.32,.96-2.43,2.28-2.43h20.96c1.32,0,2.36,1.11,2.28,2.43l-1.83,29.82c-.07,1.21-1.07,2.15-2.28,2.15Z"/><rect class="cls-10" x="370.75" y="291.39" width="29.85" height="4.58" rx="2.27" ry="2.27"/></g></g><g><g><rect class="cls-15" x="252.97" width="1.35" height="28.02"/><g><polygon class="cls-1" points="210.89 50.25 253.65 24.41 296.41 50.25 210.89 50.25"/><polygon class="cls-7" points="256.6 50.25 253.65 24.41 272.87 50.25 256.6 50.25"/></g></g><g><g><rect class="cls-15" x="148.3" width="1.35" height="28.02"/><g><polygon class="cls-1" points="106.21 50.25 148.97 24.41 191.73 50.25 106.21 50.25"/><polygon class="cls-7" points="151.92 50.25 148.97 24.41 168.19 50.25 151.92 50.25"/></g></g><g><rect class="cls-15" x="357.65" width="1.35" height="28.02"/><g><polygon class="cls-1" points="315.56 50.25 358.32 24.41 401.08 50.25 315.56 50.25"/><polygon class="cls-7" points="361.27 50.25 358.32 24.41 377.54 50.25 361.27 50.25"/></g></g></g></g></g></g></g><g id="Shadow"><ellipse id="_Path_" class="cls-10" cx="245.18" cy="357.44" rx="193.89" ry="11.32"/></g><g id="Coding"><g><g><path class="cls-21" d="M394.34,103.22l-219.81,.04-1.66,1.5-.91,27.86h0l-.38,4.29-.89,10.17h0l-.71,8.1h0l-.4,4.53h-56.16l-1.67,1.5-7.77,106.35c-.24,2.77,1.81,5.02,4.58,5.02h51.42l.42-4.75h-.27l1.01-11.5h0l.71-8.1h0l.56-6.35h0l.71-8.1h0l.57-6.49,.7-7.97h0l.28-3.19h56.44l-.98,11.15v.13h-.01l-3.53,40.4h0l-.15,1.7-.05,.57h0l-.22,2.48,54.77,1.51,1.66-1.29,1.43-16.48h0l.71-8.1h0l1.83-20.94,.7-7.97h0l.28-3.19h56.44l1.54-17.62h0l.56-6.46,.7-7.99h0l.71-8.1h0l1.42-16.27h51.69l3.09,1.5,1.66-1.5,4.35-50.64c.24-2.77-2.22-5.84-5.35-5.84Z"/><path class="cls-21" d="M329.61,274.08h51.42c2.77,0,5.22-2.25,5.46-5.02l4.36-52.55-56.84-.2-1.7,1.33-2.7,56.44Z"/></g><g><g><g><polygon class="cls-21" points="391.85 161.2 396.11 112.49 172.2 112.49 167.93 161.2 114.42 161.2 104.76 271.6 158.27 271.6 163 217.64 219.43 217.64 214.71 271.6 271.15 271.6 275.87 217.64 332.31 217.64 327.59 271.6 382.19 271.6 386.91 217.64 332.31 217.64 337.25 161.2 391.85 161.2"/><polygon class="cls-6" points="391.85 161.2 396.11 112.49 172.2 112.49 167.93 161.2 114.42 161.2 104.76 271.6 158.27 271.6 163 217.64 219.43 217.64 214.71 271.6 271.15 271.6 275.87 217.64 332.31 217.64 327.59 271.6 382.19 271.6 386.91 217.64 332.31 217.64 337.25 161.2 391.85 161.2"/></g><g><path class="cls-21" d="M244.26,171.12h-113.58c-1.12,0-1.95-.91-1.86-2.03l.35-4.03c.1-1.12,1.09-2.03,2.21-2.03h113.58c1.12,0,1.95,.91,1.86,2.03l-.35,4.03c-.1,1.12-1.09,2.03-2.21,2.03Z"/><path class="cls-5" d="M244.26,171.12h-113.58c-1.12,0-1.95-.91-1.86-2.03l.35-4.03c.1-1.12,1.09-2.03,2.21-2.03h113.58c1.12,0,1.95,.91,1.86,2.03l-.35,4.03c-.1,1.12-1.09,2.03-2.21,2.03Z"/></g><g><path class="cls-21" d="M306.61,171.12h-54.76c-1.12,0-1.95-.91-1.86-2.03l.35-4.03c.1-1.12,1.09-2.03,2.21-2.03h54.76c1.12,0,1.95,.91,1.86,2.03l-.35,4.03c-.1,1.12-1.09,2.03-2.21,2.03Z"/><path class="cls-5" d="M306.61,171.12h-54.76c-1.12,0-1.95-.91-1.86-2.03l.35-4.03c.1-1.12,1.09-2.03,2.21-2.03h54.76c1.12,0,1.95,.91,1.86,2.03l-.35,4.03c-.1,1.12-1.09,2.03-2.21,2.03Z"/></g><g><path class="cls-21" d="M243,185.57h-113.58c-1.12,0-1.95-.91-1.86-2.03l.35-4.03c.1-1.12,1.09-2.03,2.21-2.03h113.58c1.12,0,1.95,.91,1.86,2.03l-.35,4.03c-.1,1.12-1.09,2.03-2.21,2.03Z"/><path class="cls-5" d="M243,185.57h-113.58c-1.12,0-1.95-.91-1.86-2.03l.35-4.03c.1-1.12,1.09-2.03,2.21-2.03h113.58c1.12,0,1.95,.91,1.86,2.03l-.35,4.03c-.1,1.12-1.09,2.03-2.21,2.03Z"/></g><path class="cls-21" d="M217.39,214.48H126.89c-1.12,0-1.95-.91-1.86-2.03l.35-4.03c.1-1.12,1.09-2.03,2.21-2.03h90.5c1.12,0,1.95,.91,1.86,2.03l-.35,4.03c-.1,1.12-1.09,2.03-2.21,2.03Z"/><path class="cls-21" d="M174.33,148.57h-5.29l-.71,8.1h5.29c1.12,0,2.11-.91,2.21-2.03l.35-4.03c.1-1.12-.73-2.03-1.86-2.03Z"/><g><path class="cls-21" d="M234.84,134.12h-64.53l-.71,8.1h64.53c1.12,0,2.11-.91,2.21-2.03l.35-4.03c.1-1.12-.73-2.03-1.86-2.03Z"/><path class="cls-5" d="M234.84,134.12h-64.53l-.71,8.1h64.53c1.12,0,2.11-.91,2.21-2.03l.35-4.03c.1-1.12-.73-2.03-1.86-2.03Z"/></g><g><path class="cls-21" d="M334.56,191.93H128.86c-1.12,0-2.11,.91-2.21,2.03l-.35,4.03c-.1,1.12,.73,2.03,1.86,2.03h205.7l.71-8.1Z"/><path class="cls-5" d="M334.56,191.93H128.86c-1.12,0-2.11,.91-2.21,2.03l-.35,4.03c-.1,1.12,.73,2.03,1.86,2.03h205.7l.71-8.1Z"/></g><path class="cls-21" d="M335.82,177.48h-84.52c-1.12,0-2.11,.91-2.21,2.03l-.35,4.03c-.1,1.12,.73,2.03,1.86,2.03h84.52l.71-8.1Z"/><g><g><path class="cls-21" d="M244.79,220.83h-25.63l-.71,8.1h25.63c1.12,0,2.11-.91,2.21-2.03l.35-4.03c.1-1.12-.73-2.03-1.86-2.03Z"/><path class="cls-21" d="M162.72,220.83h-36.39c-1.12,0-2.11,.91-2.21,2.03l-.35,4.03c-.1,1.12,.73,2.03,1.85,2.03h36.39l.71-8.1Z"/></g><g class="cls-8"><path class="cls-2" d="M244.79,220.83h-25.63l-.71,8.1h25.63c1.12,0,2.11-.91,2.21-2.03l.35-4.03c.1-1.12-.73-2.03-1.86-2.03Z"/><path class="cls-2" d="M162.72,220.83h-36.39c-1.12,0-2.11,.91-2.21,2.03l-.35,4.03c-.1,1.12,.73,2.03,1.85,2.03h36.39l.71-8.1Z"/></g></g><g><path class="cls-21" d="M161.45,235.28h-36.39c-1.12,0-2.11,.91-2.21,2.03l-.35,4.03c-.1,1.12,.73,2.03,1.86,2.03h36.39l.71-8.1Z"/><path class="cls-5" d="M161.45,235.28h-36.39c-1.12,0-2.11,.91-2.21,2.03l-.35,4.03c-.1,1.12,.73,2.03,1.86,2.03h36.39l.71-8.1Z"/></g><g><g><path class="cls-21" d="M160.19,249.73h-36.39c-1.12,0-2.11,.91-2.21,2.03l-.35,4.03c-.1,1.12,.73,2.03,1.86,2.03h36.39l.71-8.1Z"/><path class="cls-21" d="M224.72,249.73h-8.1l-.71,8.1h8.1c1.12,0,2.11-.91,2.21-2.03l.35-4.03c.1-1.12-.73-2.03-1.86-2.03Z"/></g><g class="cls-8"><path class="cls-2" d="M160.19,249.73h-36.39c-1.12,0-2.11,.91-2.21,2.03l-.35,4.03c-.1,1.12,.73,2.03,1.86,2.03h36.39l.71-8.1Z"/><path class="cls-2" d="M224.72,249.73h-8.1l-.71,8.1h8.1c1.12,0,2.11-.91,2.21-2.03l.35-4.03c.1-1.12-.73-2.03-1.86-2.03Z"/></g></g><g><path class="cls-21" d="M398.18,109.79c.24-2.77-1.81-5.02-4.58-5.02H172.87l-1.23,14.11h217.68c1.84,0,3.2,1.49,3.03,3.33l-3.41,39h4.75l4.5-51.42Z"/><path class="cls-4" d="M398.18,109.79c.24-2.77-1.81-5.02-4.58-5.02H172.87l-1.23,14.11h217.68c1.84,0,3.2,1.49,3.03,3.33l-3.41,39h4.75l4.5-51.42Z"/></g><g><path class="cls-21" d="M384,217.64l-4.23,48.36c-.16,1.84-1.78,3.33-3.62,3.33h-48.36l-.42,4.75h51.42c2.77,0,5.22-2.25,5.46-5.02l4.5-51.42h-4.75Z"/><path class="cls-4" d="M384,217.64l-4.23,48.36c-.16,1.84-1.78,3.33-3.62,3.33h-48.36l-.42,4.75h51.42c2.77,0,5.22-2.25,5.46-5.02l4.5-51.42h-4.75Z"/></g><g><path class="cls-21" d="M116.52,161.2l-9.17,104.8c-.16,1.84,1.2,3.33,3.03,3.33h48.36l-.42,4.75h-51.42c-2.77,0-4.83-2.25-4.58-5.02l9.42-107.85h4.76Z"/><path class="cls-4" d="M116.52,161.2l-9.17,104.8c-.16,1.84,1.2,3.33,3.03,3.33h48.36l-.42,4.75h-51.42c-2.77,0-4.83-2.25-4.58-5.02l9.42-107.85h4.76Z"/></g><g><polygon class="cls-21" points="271.35 269.33 214.91 269.33 214.5 274.08 270.93 274.08 271.35 269.33"/><polygon class="cls-4" points="271.35 269.33 214.91 269.33 214.5 274.08 270.93 274.08 271.35 269.33"/></g><g><path class="cls-21" d="M273.06,249.73h-40.74c-1.12,0-2.11,.91-2.21,2.03l-.35,4.03c-.1,1.12,.73,2.03,1.86,2.03h40.74l.71-8.1Z"/><path class="cls-21" d="M333.24,249.73h-3.74l-.71,8.1h3.74c1.12,0,2.11-.91,2.21-2.03l.35-4.03c.1-1.12-.73-2.03-1.86-2.03Z"/></g><path class="cls-21" d="M275.59,220.83h-23.21c-1.12,0-2.11,.91-2.21,2.03l-.35,4.03c-.1,1.12,.73,2.03,1.85,2.03h23.21l.71-8.1Z"/></g><g><path class="cls-21" d="M402.7,126.91s-.03,0-.04,0c-.28-.02-.48-.27-.45-.54l1.84-20.98c.13-1.52-.33-2.94-1.31-4.01-.97-1.06-2.34-1.64-3.85-1.64h-16.99c-.28,0-.5-.22-.5-.5s.22-.5,.5-.5h16.99c1.79,0,3.42,.7,4.59,1.97,1.17,1.28,1.73,2.97,1.57,4.77l-1.84,20.98c-.02,.26-.24,.46-.5,.46Z"/><path class="cls-21" d="M378.09,99.73h-4.29c-.28,0-.5-.22-.5-.5s.22-.5,.5-.5h4.29c.28,0,.5,.22,.5,.5s-.22,.5-.5,.5Z"/></g><path class="cls-21" d="M271.87,283.34h-6.41c-.28,0-.5-.22-.5-.5s.22-.5,.5-.5h6.41c.28,0,.5,.22,.5,.5s-.22,.5-.5,.5Z"/><path class="cls-21" d="M260.15,283.34h-46.13c-.28,0-.5-.22-.5-.5s.22-.5,.5-.5h46.13c.28,0,.5,.22,.5,.5s-.22,.5-.5,.5Z"/><g><path class="cls-2" d="M231.92,114.11c-.4-.23-.7-.55-.91-.95-.2-.4-.28-.86-.24-1.36,.04-.5,.2-.95,.48-1.36,.27-.41,.63-.72,1.07-.95,.44-.23,.92-.34,1.45-.34s.98,.11,1.38,.34c.4,.23,.7,.55,.9,.95,.2,.4,.28,.86,.24,1.36-.04,.5-.2,.96-.47,1.36-.27,.4-.63,.72-1.07,.95-.44,.23-.92,.34-1.44,.34s-.99-.11-1.39-.34Zm2.49-.57c.32-.17,.58-.41,.78-.71,.2-.3,.32-.64,.35-1.02,.03-.38-.03-.71-.17-1.02-.15-.3-.37-.54-.66-.71-.29-.17-.62-.26-1-.26s-.73,.09-1.06,.26c-.32,.17-.59,.41-.79,.71-.2,.3-.32,.64-.35,1.02-.03,.38,.03,.72,.17,1.02,.15,.3,.37,.54,.66,.71,.29,.17,.63,.26,1.01,.26s.73-.09,1.05-.26Z"/><path class="cls-2" d="M240.52,110.68c.29,.17,.5,.4,.65,.7,.14,.3,.2,.65,.16,1.04-.03,.4-.15,.74-.35,1.05-.2,.3-.45,.54-.77,.71-.32,.17-.66,.25-1.04,.25-.28,0-.53-.05-.76-.16-.23-.11-.41-.27-.55-.47l-.18,2.03h-.71l.47-5.36h.68l-.05,.62c.18-.22,.39-.38,.64-.49,.25-.11,.52-.17,.81-.17,.38,0,.71,.08,1,.25Zm-.66,2.96c.21-.12,.38-.28,.52-.49,.13-.21,.21-.45,.24-.72,.02-.27-.01-.51-.11-.72-.1-.21-.24-.37-.43-.49-.19-.11-.41-.17-.66-.17s-.48,.06-.69,.17c-.21,.12-.38,.28-.52,.49-.13,.21-.21,.45-.24,.72-.02,.27,.01,.51,.11,.72,.1,.21,.24,.37,.43,.49s.41,.17,.66,.17,.48-.06,.69-.17Z"/><path class="cls-2" d="M245.83,112.66h-3.19c.01,.35,.14,.62,.38,.83,.24,.21,.55,.31,.94,.31,.47,0,.86-.16,1.18-.47l.35,.46c-.2,.21-.43,.37-.7,.47-.27,.11-.57,.16-.9,.16-.41,0-.78-.08-1.08-.26-.31-.17-.53-.41-.68-.72-.15-.31-.21-.65-.17-1.04,.03-.38,.15-.72,.35-1.03,.2-.31,.45-.54,.77-.71,.31-.17,.66-.26,1.03-.26s.7,.08,.98,.26c.28,.17,.49,.41,.63,.71,.14,.31,.19,.66,.16,1.05,0,.05-.02,.13-.03,.21Zm-2.67-1.33c-.25,.21-.41,.48-.48,.82h2.52c-.01-.33-.12-.6-.33-.81-.21-.21-.49-.32-.83-.32s-.64,.1-.88,.31Z"/><path class="cls-2" d="M250.27,110.86c.27,.29,.38,.71,.33,1.27l-.2,2.26h-.71l.19-2.18c.03-.38-.03-.67-.2-.86-.17-.19-.42-.29-.76-.29-.39,0-.7,.11-.94,.34-.24,.22-.38,.55-.42,.97l-.18,2.02h-.71l.34-3.93h.68l-.05,.59c.16-.2,.37-.36,.62-.47,.25-.11,.54-.16,.85-.16,.5,0,.88,.14,1.15,.43Z"/><path class="cls-2" d="M254.21,114.27c-.35-.12-.62-.28-.81-.47l.32-.58c.18,.18,.42,.32,.72,.43,.3,.11,.61,.17,.94,.17,.43,0,.76-.07,.98-.22,.22-.15,.35-.34,.37-.58,.02-.18-.03-.32-.14-.43-.11-.11-.24-.2-.41-.26-.17-.06-.4-.13-.7-.2-.38-.09-.69-.19-.92-.28-.23-.09-.42-.24-.58-.43-.15-.2-.22-.46-.19-.79,.02-.28,.12-.53,.28-.75,.17-.22,.4-.4,.71-.53,.31-.13,.68-.2,1.12-.2,.31,0,.6,.04,.89,.12,.29,.08,.53,.19,.73,.34l-.3,.59c-.21-.14-.43-.24-.67-.31-.24-.07-.48-.11-.72-.11-.42,0-.74,.08-.97,.23-.22,.15-.35,.35-.37,.59-.02,.18,.03,.32,.14,.43,.11,.11,.25,.2,.42,.26,.17,.06,.4,.13,.7,.2,.38,.09,.69,.19,.92,.28,.23,.09,.42,.24,.57,.43,.15,.19,.22,.45,.19,.78-.02,.27-.12,.52-.29,.74-.17,.23-.41,.4-.72,.53-.31,.13-.69,.2-1.13,.2-.39,0-.76-.06-1.11-.18Z"/><path class="cls-2" d="M258.96,114.18c-.3-.17-.52-.41-.67-.71-.15-.3-.21-.65-.17-1.03,.03-.39,.15-.73,.35-1.03,.2-.3,.47-.54,.79-.71,.33-.17,.68-.26,1.07-.26s.73,.08,1.03,.26c.29,.17,.51,.41,.66,.71,.15,.3,.21,.65,.17,1.03-.03,.39-.15,.73-.35,1.03-.2,.3-.47,.54-.79,.71-.32,.17-.68,.26-1.07,.26s-.73-.09-1.03-.26Zm1.78-.54c.21-.12,.38-.28,.51-.49,.13-.21,.21-.45,.23-.72,.02-.27-.01-.51-.11-.72-.1-.21-.24-.37-.43-.49-.19-.11-.41-.17-.66-.17s-.48,.06-.69,.17c-.21,.11-.38,.28-.52,.49-.13,.21-.21,.45-.24,.72-.02,.27,.01,.51,.11,.72,.1,.21,.24,.37,.43,.49,.19,.12,.41,.17,.66,.17s.48-.06,.69-.17Z"/><path class="cls-2" d="M267.03,110.46l-.34,3.93h-.67l.05-.59c-.16,.2-.36,.36-.61,.47-.24,.11-.5,.17-.78,.17-.52,0-.92-.14-1.2-.43-.28-.29-.39-.72-.34-1.28l.2-2.26h.71l-.19,2.18c-.03,.38,.03,.67,.2,.86,.17,.2,.42,.29,.76,.29,.38,0,.68-.11,.92-.34,.24-.23,.37-.55,.41-.96l.18-2.03h.71Z"/><path class="cls-2" d="M269.6,110.6c.25-.12,.55-.18,.9-.18l-.06,.69s-.09,0-.16,0c-.39,0-.7,.11-.94,.34-.24,.23-.38,.56-.42,.98l-.17,1.96h-.71l.34-3.93h.68l-.06,.66c.14-.23,.34-.4,.59-.52Z"/><path class="cls-2" d="M271.65,114.18c-.3-.17-.52-.41-.67-.71-.15-.3-.21-.65-.18-1.03,.03-.39,.15-.73,.36-1.03,.2-.3,.47-.54,.8-.71,.33-.17,.69-.26,1.09-.26,.36,0,.67,.07,.93,.21,.27,.14,.46,.35,.59,.62l-.57,.35c-.11-.19-.25-.33-.42-.42-.17-.09-.37-.14-.6-.14-.26,0-.49,.06-.71,.17-.22,.11-.39,.28-.52,.49-.13,.21-.21,.45-.24,.72-.02,.28,.01,.52,.11,.73,.1,.21,.24,.37,.44,.49,.2,.11,.42,.17,.68,.17,.22,0,.43-.05,.62-.14,.19-.09,.36-.23,.5-.42l.51,.34c-.18,.27-.41,.48-.7,.63-.29,.15-.62,.22-.97,.22-.4,0-.75-.09-1.05-.26Z"/><path class="cls-2" d="M278.85,112.66h-3.19c.01,.35,.14,.62,.38,.83,.24,.21,.55,.31,.94,.31,.47,0,.86-.16,1.18-.47l.35,.46c-.2,.21-.43,.37-.7,.47-.27,.11-.57,.16-.9,.16-.41,0-.78-.08-1.08-.26-.31-.17-.53-.41-.68-.72-.15-.31-.21-.65-.17-1.04,.03-.38,.15-.72,.35-1.03,.2-.31,.45-.54,.77-.71,.31-.17,.66-.26,1.03-.26s.7,.08,.98,.26c.28,.17,.49,.41,.63,.71,.14,.31,.19,.66,.16,1.05,0,.05-.02,.13-.03,.21Zm-2.67-1.33c-.25,.21-.41,.48-.48,.82h2.52c-.01-.33-.12-.6-.33-.81-.21-.21-.49-.32-.83-.32s-.64,.1-.88,.31Z"/></g></g></g><g><path class="cls-21" d="M174.23,99.49h6.41c.28,0,.5-.22,.5-.5s-.22-.5-.5-.5h-6.41c-.28,0-.5,.22-.5,.5s.22,.5,.5,.5Z"/><path class="cls-21" d="M185.94,99.49h46.13c.28,0,.5-.22,.5-.5s-.22-.5-.5-.5h-46.13c-.28,0-.5,.22-.5,.5s.22,.5,.5,.5Z"/></g></g><g id="Character_4"><g><path class="cls-20" d="M397.61,152.72l18.06,206.48h2.85l-.76-8.69h39.8l.76,8.69h2.85l-18.06-206.48h-2.85l.76,8.69h-39.8l-.76-8.69h-2.85Zm3.86,11.54h39.8l2.47,28.19h-39.8l-2.47-28.19Zm2.72,31.04h39.8l2.47,28.19h-39.8l-2.47-28.19Zm2.72,31.04h39.8l2.47,28.19h-39.8l-2.47-28.19Zm2.72,31.04h39.8l2.47,28.19h-39.8l-2.47-28.19Zm2.72,31.04h39.8l2.47,28.19h-39.8l-2.47-28.19Zm44.99,59.24h-39.8l-2.47-28.19h39.8l2.47,28.19Z"/><path class="cls-4" d="M397.61,152.72l18.06,206.48h2.85l-.76-8.69h39.8l.76,8.69h2.85l-18.06-206.48h-2.85l.76,8.69h-39.8l-.76-8.69h-2.85Zm3.86,11.54h39.8l2.47,28.19h-39.8l-2.47-28.19Zm2.72,31.04h39.8l2.47,28.19h-39.8l-2.47-28.19Zm2.72,31.04h39.8l2.47,28.19h-39.8l-2.47-28.19Zm2.72,31.04h39.8l2.47,28.19h-39.8l-2.47-28.19Zm2.72,31.04h39.8l2.47,28.19h-39.8l-2.47-28.19Zm44.99,59.24h-39.8l-2.47-28.19h39.8l2.47,28.19Z"/></g><g><path class="cls-25" d="M422.51,164.27l-5.08,4.81-9.73-2.25v-1.93c0-.59-.62-.98-1.15-.73,0,0-.47,.33-.65,.3-.81-.11-2.49-2.12-2.49-2.12-.23-.19-.54-.25-.81-.14l-.7,.27c-.37,.14-.58,.54-.5,.93l1.1,4.87c.07,.32,.33,.56,.65,.62l3.07,.54s8.78,5.39,11.95,4.65c3.17-.74,7.92-5.18,7.92-5.18l-3.59-4.65Z"/><g><polygon class="cls-21" points="347.71 155.2 345.5 156.54 342.02 211.78 396.43 213.5 398.41 212.31 403.86 155.66 347.71 155.2"/><g><g><g><polygon class="cls-21" points="400.06 157.04 345.5 156.54 340.04 212.97 394.59 213.48 400.06 157.04"/><polygon class="cls-6" points="400.06 157.04 345.5 156.54 340.04 212.97 394.59 213.48 400.06 157.04"/></g><path class="cls-21" d="M372.96,173.08l-29.03-.27-.78,8.1,29.03,.27c1.12,.01,2.12-.89,2.23-2.01l.39-4.03c.11-1.12-.71-2.04-1.83-2.05Z"/><g><path class="cls-21" d="M343.7,187.27h-1.17l-.78,8.09h1.17c1.12,.02,2.12-.88,2.23-2l.39-4.03c.11-1.12-.71-2.04-1.83-2.05Z"/><path class="cls-5" d="M343.7,187.27h-1.17l-.78,8.09h1.17c1.12,.02,2.12-.88,2.23-2l.39-4.03c.11-1.12-.71-2.04-1.83-2.05Z"/></g></g><g><polygon class="cls-21" points="391.69 213.45 396.43 213.5 401.89 157.06 397.15 157.02 391.69 213.45"/><polygon class="cls-4" points="391.69 213.45 396.43 213.5 401.89 157.06 397.15 157.02 391.69 213.45"/></g></g></g><g><path class="cls-20" d="M414.52,142.77s-3.68,.29-3.66,2.83c0,1.61,1.26-1.05,3.07-1.87,1.8-.82,.59-.96,.59-.96Z"/><g><path class="cls-25" d="M428.6,228.51s1.8,6.09,2.61,8.05c4.28,10.28,12.92,25.16,18.37,40.58l4.38-1.7s-2.12-10.43-6.58-23.14c-2.19-6.26-6.04-12.61-8.3-19.46-.63-1.91-1.25-7.97-1.25-7.97l-9.24,3.65Z"/><path class="cls-20" d="M432.37,189.74s4.84,4.86,5.69,11.1c.85,6.24-1.02,16.71,1.9,28.02l-11.21,3.07s-9.08-31.72-9.93-39.39l13.55-2.8Z"/><path class="cls-9" d="M425.1,218.81l2.87-10.07,3.5-5.64s.96,8.43-.95,16.92c-.95,4.21-1.73,7.67-2.28,10.1-.64-2.28-1.82-6.47-3.13-11.3Z"/><g><path class="cls-21" d="M418.32,281.61c-.62-.02-1.25-.14-1.45-.41-.1-.16-.09-.36,.02-.51,.09-.13,.22-.23,.38-.27,.83-.21,2.54,.82,2.61,.87,.04,.03,.06,.08,.05,.12-.01,.05-.05,.08-.1,.09-.5,.08-1.01,.11-1.52,.1Zm-.76-.98c-.08,0-.15,0-.23,.02-.1,.01-.18,.07-.23,.16-.09,.14-.06,.22-.03,.26,.22,.33,1.47,.37,2.4,.28-.59-.36-1.23-.6-1.91-.71Z"/><path class="cls-21" d="M419.82,281.51s-.03,0-.05,0c-.59-.28-1.75-1.38-1.63-1.94,.02-.13,.12-.3,.44-.32,.24-.02,.47,.06,.65,.22,.62,.53,.72,1.88,.72,1.94,0,.04-.02,.08-.06,.1-.03,.01-.05,.01-.08,0Zm-1.16-2.04h-.07c-.21,0-.23,.09-.24,.12-.04,.34,.72,1.2,1.33,1.57-.04-.56-.26-1.1-.62-1.54-.11-.1-.25-.16-.4-.16h0Z"/><path class="cls-20" d="M420.36,280.83l5.41,.13c.2,0,.38,.15,.42,.35l.87,4.43c.08,.39-.17,.77-.57,.85-.05,.01-.1,.02-.15,.01-1.95-.08-3.68-.23-6.11-.29-2.87-.07-2.15,.29-5.52,.26-2.03-.02-2.35-2.34-1.48-2.43,3.95-.4,4.39-1.58,5.95-2.95,.34-.26,.76-.39,1.19-.36Z"/></g><g><path class="cls-21" d="M447.63,278.24c-.58,.2-1.22,.3-1.5,.12-.15-.11-.21-.31-.16-.49,.03-.16,.13-.29,.26-.38,.71-.49,2.67-.12,2.75-.1,.05,0,.09,.05,.09,.1,0,.05-.02,.1-.06,.12-.44,.25-.91,.46-1.39,.63Zm-1.06-.65c-.07,.02-.14,.06-.2,.1-.09,.05-.15,.13-.16,.23-.03,.17,.02,.22,.06,.25,.32,.23,1.51-.17,2.34-.58-.67-.13-1.36-.13-2.04,0Z"/><path class="cls-21" d="M449,277.62s-.03,.01-.05,.01c-.65-.05-2.12-.68-2.21-1.24-.03-.13,0-.32,.3-.46,.22-.1,.46-.11,.68-.02,.77,.28,1.33,1.5,1.36,1.56,.02,.04,.01,.08-.01,.12-.02,.02-.05,.03-.07,.03Zm-1.8-1.5l-.07,.02c-.19,.09-.18,.17-.18,.2,.08,.33,1.1,.87,1.8,1.01-.24-.51-.63-.94-1.12-1.22-.14-.05-.29-.06-.43,0h0Z"/><path class="cls-20" d="M449.27,276.79l5.12-1.77c.19-.07,.41,0,.51,.18l2.37,3.84c.21,.34,.11,.79-.23,1-.04,.03-.09,.05-.14,.07-1.86,.61-3.53,1.07-5.83,1.87-2.71,.94-1.91,1.03-5.08,2.17-1.91,.69-3.02-1.37-2.24-1.76,3.56-1.76,3.56-3.02,4.53-4.85,.22-.36,.57-.63,.98-.76Z"/></g><path class="cls-25" d="M415.6,228.41s-.17,6.35,0,8.46c.89,11.1,4.51,27.92,4.94,44.28h4.65s1.4-12.31,.79-27.29c-.23-5.73-1.75-11.77-1.78-17.83-.01-2.02,1.27-7.97,1.27-7.97l-9.87,.35Z"/><path class="cls-20" d="M427.59,190.91s6.66,9.49,2.54,21.78c-4.37,13.04-3.28,19.46-3.28,19.46h-12.16s0-17.08-.53-22.74c-.37-3.98-1.37-8.35-1.06-15.97l14.49-2.54Z"/><g><polygon class="cls-20" points="426.98 229.71 427.35 232.62 414.19 232.62 414.19 229.71 426.98 229.71"/><polygon class="cls-3" points="426.98 229.71 427.35 232.62 414.19 232.62 414.19 229.71 426.98 229.71"/></g><g><polygon class="cls-20" points="439.96 226.22 427.72 229.87 428.6 232.62 440.78 229.08 439.96 226.22"/><polygon class="cls-3" points="439.96 226.22 427.72 229.87 428.6 232.62 440.78 229.08 439.96 226.22"/></g></g><path class="cls-25" d="M423.4,161.02s-2.74-.28-2.69-5.32c0,0-2.53-1.15-4.16,.33s1.48,4.96-.56,6.42c0,0,1.79,1.2,7.41-1.44Z"/><path class="cls-20" d="M411.42,148.64c-.03-.34-.22-.6-.44-.58-.22,.02-.38,.3-.35,.64,.03,.34,.22,.6,.44,.58s.38-.3,.35-.64Z"/><path class="cls-26" d="M411.19,149.25l-1.78,2.35s.77,.67,1.96,.35l-.18-2.7Z"/><path class="cls-25" d="M423.07,148.12c-.2,4.26-.2,6.08-2.32,8.29-3.26,2.27-8.39,2.15-9.47-2.09-.97-3.82-.47-10.13,3.68-11.91,2.96-1.26,6.38,.11,7.65,3.07,.36,.83,.51,1.73,.46,2.64Z"/><path class="cls-20" d="M412.05,147.65c-.06,.02-.13,0-.18-.04-.37-.34-.88-.49-1.38-.38-.1,.03-.21-.03-.24-.14-.03-.1,.03-.21,.14-.25,.62-.14,1.27,.04,1.74,.46,.08,.07,.1,.19,.03,.27h0s-.06,.06-.1,.07Z"/><path class="cls-20" d="M411.06,148.08l-.93-.14s.56,.63,.93,.14Z"/><path class="cls-12" d="M418.75,157.42c-.28,.47-.99,1.44-2.28,2.08-.14-.55-.3-1.11-.37-1.64,.88,0,1.78-.14,2.65-.44Z"/><path class="cls-21" d="M425.47,161.72s0-3.38-3.95-2.75c-3.95,.63-6.91,2.54-7.05,4.51l11-1.76Z"/><path class="cls-16" d="M425.47,161.72s0-3.38-3.95-2.75c-3.95,.63-6.91,2.54-7.05,4.51l11-1.76Z"/><g><path class="cls-21" d="M427.87,161.35s5.29,.16,5.29,4.39-3.04,5.99-3.04,5.99l-2.25-10.38Z"/><path class="cls-16" d="M427.87,161.35s5.29,.16,5.29,4.39-3.04,5.99-3.04,5.99l-2.25-10.38Z"/></g><path class="cls-21" d="M433.93,190.27s-2.64-5.18-3.17-11.42c-.53-6.24,3.28-17.34-3.49-17.55s-10.47,.74-14.49,2.33-3.17,12.48-2.54,16.6c.63,4.12,2.54,14.59,2.54,14.59,0,0,11.53,1.48,21.15-4.55Z"/><path class="cls-16" d="M409.92,177.53c-.2-2.17-.31-4.86-.09-7.31l4.59-.57s-1.77,4.9-4.49,7.88Z"/><path class="cls-25" d="M406.12,168.91l-5.08,4.81-9.73-2.25v-2.07c0-.53-.55-.87-1.02-.65,0,0-.66,.17-.87,.14-.82-.11-2.43-1.93-2.43-1.93-.2-.17-.48-.22-.72-.12l-2.06,1.92c-.31,.21-.48,.53-.4,.88l2.21,3.18c.08,.28,.52,.65,.81,.68l3.01,.59s8.78,5.39,11.95,4.65c3.17-.74,7.92-5.18,7.92-5.18l-3.59-4.65Z"/><path class="cls-21" d="M412.78,163.62s-3.17,.92-7.76,4.94c0,0,.18,3.17,4.2,6.66,0,0,4.33-2.71,5.67-6.73s-2.11-4.86-2.11-4.86Z"/><path class="cls-20" d="M414.41,141.94s-2.98,1.38-2.21,3.54c.77,2.17,1.24,4.02,.66,4.71-.58,.69,1.43,.88,1.32-1.51,0,0,.27,3.01,1.8,3.37,1.53,.36,2.58,4.84,1.29,6.96-1.28,2.12-1.58,7.1-.31,8.2,1.27,1.1,3.69,2.22,3.4,4.18-.29,1.96,2.91,.64,2.27-1.74,0,0,1.74,2.7,3.86,.26,2.11-2.43-1.27-4.65-1.27-4.65,0,0,2.57,.79,2.63,2.17,.06,1.37,.91,2.06,1.91,.53,1-1.53,.37-3.33-.63-4.33,0,0,1.7-.28,1.91,.9s2.16-.8,.47-2.36c-1.69-1.56-4.65-2.36-4.6-8.38s-1.11-11.16-5.71-12.21-6.81,.37-6.81,.37Z"/><path class="cls-25" d="M415.49,149.56c-.65,.59-1.03,1.4-1.07,2.27-.05,1.16,1.06,1.48,2.01,.94,.86-.48,1.92-1.67,1.51-2.73-.41-1.06-1.65-1.2-2.45-.49Z"/></g></g></g><g id="Character_3"><g><polygon class="cls-21" points="343.11 222.47 286.33 222.23 284.65 223.55 284.25 255.61 283.5 263.71 282.43 275.21 282.22 277.48 281.99 279.96 335.84 280.25 338.31 277.75 343.11 222.47"/><g><g><polygon class="cls-21" points="279.66 277.47 336.07 277.77 341.08 223.81 284.65 223.55 279.66 277.47"/><polygon class="cls-6" points="279.66 277.47 336.07 277.77 341.08 223.81 284.65 223.55 279.66 277.47"/></g><path class="cls-21" d="M311.21,226.84l-26.84-.14-.75,8.1,26.83,.14c1.12,0,2.12-.9,2.22-2.02l.37-4.03c.1-1.12-.72-2.04-1.84-2.04Z"/><polygon class="cls-21" points="280.94 263.7 337.35 264 338.1 255.9 281.69 255.6 280.94 263.7"/><g><polygon class="cls-21" points="279.87 275.2 279.43 279.95 335.84 280.25 336.28 275.5 279.87 275.2"/><polygon class="cls-4" points="279.87 275.2 279.43 279.95 335.84 280.25 336.28 275.5 279.87 275.2"/></g></g></g><g><path class="cls-23" d="M319.76,288.11s.64,13.17,.94,17.55c.81,11.95,3.91,47.75,3.91,47.75h5.32s2.04-16.43,1.45-30.55c-.24-5.84-2-11.02-2.39-15-.39-4.02,1.88-10.35,.31-16.14-1.47-5.46-9.54-3.6-9.54-3.6Z"/><path class="cls-23" d="M332.41,288.43s1.12,13.82,1.78,18.4c1.68,11.71,8.86,46.47,8.86,46.47l5.31-.24s-.12-17.96-2.53-32.21c-.8-4.75-2.09-8.85-2.61-12.23-.64-4.22,.71-11.32-1.12-17.03-1.72-5.38-9.7-3.16-9.7-3.16Z"/><path class="cls-20" d="M337.89,261.14s9.39,8.73,9.06,37.22c0,0-12.86,5.76-28.55,1.48,0,0-2.53-20.92,0-36.31l19.5-2.39Z"/><g><path class="cls-20" d="M318.69,220.8c-.02-.33-.22-.58-.44-.57-.22,.02-.37,.3-.35,.63,.02,.33,.22,.58,.44,.57,.22-.02,.37-.3,.35-.63Z"/><path class="cls-20" d="M318.33,220.24l-.91-.13s.54,.62,.91,.13Z"/></g><path class="cls-23" d="M330.48,232.16s-2.68-.28-2.64-5.2c0,0-2.47-1.13-4.08,.33s1.45,4.86-.55,6.29c0,0,1.75,1.18,7.26-1.41Z"/><path class="cls-24" d="M318.66,221.26l-1.74,2.3s.76,.66,1.92,.35l-.17-2.65Z"/><path class="cls-23" d="M330.16,219.52c-.2,4.17-.2,5.95-2.27,8.12-3.19,2.22-8.22,2.11-9.27-2.05-.95-3.74-.46-9.92,3.6-11.66,2.9-1.24,6.25,.11,7.49,3.01,.35,.81,.5,1.7,.45,2.58Z"/><path class="cls-20" d="M319.44,219.82c-.06,.02-.13,0-.18-.04-.36-.34-.86-.48-1.35-.38-.1,.03-.21-.03-.24-.13-.03-.1,.03-.21,.13-.24,.61-.13,1.24,.03,1.71,.45,.08,.06,.1,.18,.03,.26h0s-.06,.06-.1,.07Z"/><path class="cls-12" d="M325.93,228.63c-.28,.46-.97,1.4-2.23,2.04-.14-.54-.29-1.09-.37-1.6,.86,0,1.75-.14,2.6-.44Z"/><path class="cls-21" d="M332.56,232.87s-1.55-3.73-6.33-2.19c-4.79,1.54-5.85,4.22-5.85,4.22l12.18-2.03Z"/><path class="cls-12" d="M332.56,232.87s-1.55-3.73-6.33-2.19c-4.79,1.54-5.85,4.22-5.85,4.22l12.18-2.03Z"/><g><path class="cls-21" d="M336.21,233.68s6.19,5.72,3.53,11.32c-2.67,5.6-7.18-2.31-7.18-2.31l3.65-9.02Z"/><path class="cls-12" d="M336.21,233.68s6.19,5.72,3.53,11.32c-2.67,5.6-7.18-2.31-7.18-2.31l3.65-9.02Z"/></g><path class="cls-20" d="M324.5,352.84l5.96,.15c.22,0,.42,.17,.46,.39l.96,4.88c.09,.43-.19,.85-.62,.94-.06,.01-.11,.02-.17,.02-2.15-.09-4.06-.26-6.73-.32-3.16-.08-2.37,.32-6.08,.28-2.24-.03-2.58-2.58-1.63-2.68,4.36-.44,4.84-1.74,6.55-3.25,.37-.29,.84-.43,1.31-.4Z"/><path class="cls-20" d="M343.06,352.77l5.96,.05c.22,0,.42,.16,.47,.38l1.04,4.86c.1,.43-.18,.86-.61,.95-.06,.01-.11,.02-.17,.02-2.15-.06-4.06-.19-6.74-.21-3.16-.03-2.36,.36-6.08,.38-2.24,.01-2.63-2.54-1.68-2.65,4.35-.51,4.81-1.82,6.5-3.36,.37-.3,.83-.45,1.3-.42Z"/><path class="cls-21" d="M339.73,261.34s-8.59,6.32-22,2.98c0,0-4.22-19.91-1.39-25.91,2.52-5.35,7.56-6.06,11.58-6.33,4.01-.27,10.29-.76,10.08,7.3-.21,8.06-.28,12.78,1.73,21.98Z"/><path class="cls-12" d="M315.9,252.9c-.31-2.67-.53-5.46-.53-7.96l5-1.79-4.48,9.75Z"/><path class="cls-23" d="M306.68,248.93l-11.49-1.98-.49-.95c-.37-.71-1.16-1.1-1.95-.94l-.52,.1-1.35-.98c-.66-.48-1.56-.45-2.2,.07h0c-.42,.34-.66,.85-.66,1.39v1.18c0,.37,.11,.73,.33,1.03l.91,1.3c.31,.45,.81,.73,1.36,.76l3.89,.25,12.17,3.09v-4.32Z"/><path class="cls-21" d="M322.54,235.47s-3.34-2.2-6.79,1.12c-3.44,3.32-9.31,11.33-9.31,11.33l-2.08-.25-.27,5.94s3.03,1.17,6.01-.34c2.98-1.51,12.67-12.86,12.67-12.86,0,0,1.27-3.33-.22-4.94Z"/><g><polygon class="cls-21" points="305.94 246.77 305.94 250.04 305.02 250.47 305.94 251.09 305.94 254.67 303.1 254.04 303.1 246.77 305.94 246.77"/><polygon class="cls-5" points="305.94 246.77 305.94 250.04 305.02 250.47 305.94 251.09 305.94 254.67 303.1 254.04 303.1 246.77 305.94 246.77"/></g><path class="cls-11" d="M333.89,301.28c-.78,.06-1.59,.1-2.43,.12-.5-13.79,3.5-18.86,3.5-18.86-1.83,8.38-1.34,16.06-1.07,18.74Z"/><path class="cls-20" d="M324.64,212.39s6.71-2.33,7.92,4.49c1.21,6.82,7.3,8.56,3.92,13.11-3.37,4.55-13.07,1.14-13.25-2.69-.18-3.83-.12-10.23-1.54-11.07,0,0,.85,2.63,0,2.63s-1.43-.97-1.32-2.33c0,0-.04,1.68-2.01,1.08-1.96-.6,1.16-2.81,1.16-2.81,0,0-1.48,.6-2.03,1.2s-.7-.3,0-1.44c.55-.88,2.92-2.93,7.14-2.15Z"/><path class="cls-23" d="M322.74,220.94c-.63,.57-1.01,1.37-1.05,2.23-.05,1.13,1.03,1.45,1.97,.92,.85-.47,1.88-1.63,1.48-2.67-.4-1.04-1.61-1.17-2.39-.48Z"/></g></g><g id="Character_2"><g><g><path class="cls-17" d="M161.65,246.86l5.51-.75,.42-1.35c.17-.55,.75-.87,1.31-.72l.63,.17,2.38-1.24c.18-.09,.38-.13,.58-.12h0c.57,.04,1.01,.53,1,1.1l-.05,2.17s0,.09-.01,.14l-.26,1.64c-.07,.46-.43,.83-.9,.9l-3.44,.54-6.33,1.34-.83-3.83Z"/><path class="cls-20" d="M165.51,245.34s-4.27,.36-8.55,0c-1.51-.13-2.82-1.24-4.02-2.78l-4.77,6.97c1.36,1.34,2.68,2.33,3.86,2.7,6,1.9,14.43-1.54,14.43-1.54,1.07-3.33-.95-5.34-.95-5.34Z"/><path class="cls-11" d="M165.51,245.34s-4.27,.36-8.55,0c-1.51-.13-2.82-1.24-4.02-2.78l-4.77,6.97c1.36,1.34,2.68,2.33,3.86,2.7,6,1.9,14.43-1.54,14.43-1.54,1.07-3.33-.95-5.34-.95-5.34Z"/></g><g><polygon class="cls-21" points="155.71 222.05 150.4 279.8 205.14 280.01 206.84 278.62 212.19 222.31 155.71 222.05"/><g><g><polygon class="cls-21" points="148.95 277.32 205.37 277.53 210.29 223.57 153.87 223.36 148.95 277.32"/><polygon class="cls-6" points="148.95 277.32 205.37 277.53 210.29 223.57 153.87 223.36 148.95 277.32"/></g><g><polygon class="cls-21" points="150.2 263.54 206.62 263.76 207.36 255.66 150.94 255.45 150.2 263.54"/><polygon class="cls-5" points="150.2 263.54 206.62 263.76 207.36 255.66 150.94 255.45 150.2 263.54"/></g><g><path class="cls-21" d="M193.84,241.15l-41.58-.16-.74,8.1,41.58,.16c1.12,0,2.12-.9,2.22-2.03l.37-4.03c.1-1.12-.72-2.04-1.85-2.04Z"/><path class="cls-5" d="M193.84,241.15l-41.58-.16-.74,8.1,41.58,.16c1.12,0,2.12-.9,2.22-2.03l.37-4.03c.1-1.12-.72-2.04-1.85-2.04Z"/></g><g><polygon class="cls-21" points="152.84 234.64 209.26 234.86 210 226.76 153.58 226.54 152.84 234.64"/><polygon class="cls-5" points="152.84 234.64 209.26 234.86 210 226.76 153.58 226.54 152.84 234.64"/></g><g><polygon class="cls-21" points="149.16 275.05 148.72 279.8 205.14 280.01 205.57 275.26 149.16 275.05"/><polygon class="cls-4" points="149.16 275.05 148.72 279.8 205.14 280.01 205.57 275.26 149.16 275.05"/></g></g></g><g><path class="cls-17" d="M145.39,229s3.02-.31,2.97-5.86c0,0,2.79-1.27,4.59,.37,1.81,1.64-1.63,5.48,.61,7.09,0,0-1.97,1.33-8.18-1.59Z"/><path class="cls-20" d="M158.61,215.34c.03-.37,.25-.66,.49-.64,.24,.02,.42,.33,.39,.71-.03,.37-.25,.66-.49,.64-.24-.02-.42-.33-.39-.71Z"/><path class="cls-24" d="M158.86,216.01l1.96,2.59s-.85,.74-2.16,.39l.2-2.98Z"/><path class="cls-17" d="M145.75,214.76c.23,4.7,.22,6.7,2.56,9.15,3.59,2.5,9.26,2.37,10.44-2.31,1.07-4.21,.52-11.18-4.06-13.14-3.27-1.39-7.04,.12-8.44,3.39-.39,.92-.56,1.91-.5,2.91Z"/><path class="cls-20" d="M157.91,214.24c.07,.02,.15,0,.2-.04,.41-.38,.97-.54,1.52-.42,.11,.03,.23-.04,.27-.15,.03-.12-.03-.24-.15-.27-.69-.15-1.4,.04-1.92,.51-.09,.07-.11,.21-.04,.3h0s.07,.07,.12,.08Z"/><path class="cls-12" d="M150.52,225.02c.31,.52,1.09,1.58,2.51,2.3,.15-.61,.33-1.23,.41-1.8-.97,.01-1.97-.16-2.93-.49Z"/><g><path class="cls-20" d="M143.31,229.86s.57-3.55,4.86-3.56c6.06-.02,7.84,2.84,7.84,2.84l-12.69,.73Z"/><path class="cls-11" d="M143.31,229.86s.57-3.55,4.86-3.56c6.06-.02,7.84,2.84,7.84,2.84l-12.69,.73Z"/></g><g><polygon class="cls-17" points="141.97 348.07 142.51 357.04 147.53 356.86 147.82 348.25 141.97 348.07"/><g><path class="cls-21" d="M148.37,356.29c-.05-.01-.09-.05-.1-.1,0-.05,.01-.1,.06-.13,.08-.05,1.9-1.1,2.78-.86,.16,.04,.3,.15,.39,.29,.12,.16,.12,.38,.01,.54-.21,.28-.89,.4-1.54,.41-.54,0-1.07-.05-1.6-.14Zm.4-.17c.98,.12,2.3,.1,2.54-.24,.03-.04,.07-.12-.03-.27-.05-.09-.14-.16-.24-.17-.08-.02-.16-.03-.24-.03-.72,.11-1.4,.35-2.03,.71Z"/><path class="cls-21" d="M148.31,356.28s-.06-.07-.06-.11c0-.07,.14-1.48,.8-2.03,.19-.16,.44-.24,.69-.22,.34,.03,.45,.2,.46,.35,.11,.59-1.14,1.73-1.76,2.01-.02,0-.03,0-.05,0-.03,0-.06,0-.09,0Zm1.36-2.12c-.16,0-.31,.06-.43,.16-.39,.45-.63,1.02-.69,1.61,.65-.39,1.47-1.28,1.43-1.64,0-.03-.02-.12-.25-.14h-.07Z"/><path class="cls-20" d="M147.84,355.56l-5.72,.03c-.22,0-.4,.15-.45,.36l-1.01,4.66c-.09,.41,.17,.82,.58,.91,.05,.01,.11,.02,.16,.02,2.06-.05,3.89-.17,6.46-.18,3.03-.01,2.26,.35,5.82,.39,2.15,.02,2.53-2.42,1.62-2.54-4.17-.5-4.6-1.76-6.22-3.24-.35-.28-.79-.43-1.24-.41Z"/></g><polygon class="cls-12" points="142.25 352.71 147.67 352.71 147.82 348.25 141.97 348.07 142.25 352.71"/><path class="cls-21" d="M138.27,269.92s-1.06,7.52,1.58,20.11c1.12,5.31,2.9,16.1,2.85,21.53-.03,3.6-.79,5.23-2.06,14.25-1.27,9.02,.63,25.33,.63,25.33l7.28,.08s4.54-30.15,5.39-40.62c.43-5.33,.63-21.38,.63-21.38l-2.53-19.32h-13.77Z"/><path class="cls-16" d="M147.23,282.68s1.63,11.48,7.04,20.89c.21-6.53,.3-14.34,.3-14.34l-.07-.5-3.72-5.18-3.56-.87Z"/></g><g><g><polygon class="cls-17" points="163.55 348.27 164.46 357.21 169.47 356.81 169.4 348.21 163.55 348.27"/><g><path class="cls-21" d="M170.29,356.21c-.05,0-.09-.05-.1-.1-.01-.05,0-.1,.05-.13,.08-.05,1.86-1.18,2.74-.98,.16,.03,.31,.13,.4,.27,.12,.15,.14,.37,.03,.54-.2,.29-.87,.44-1.52,.47-.54,.02-1.08,0-1.61-.07Zm.39-.19c.98,.08,2.3,0,2.53-.35,.03-.04,.06-.12-.04-.27-.05-.09-.15-.15-.25-.16-.08-.02-.16-.02-.24-.02-.71,.14-1.39,.41-2,.8Z"/><path class="cls-21" d="M170.22,356.21s-.06-.06-.06-.11c0-.07,.08-1.48,.72-2.06,.18-.17,.43-.26,.68-.24,.34,.02,.46,.19,.48,.33,.14,.58-1.07,1.78-1.68,2.08-.02,0-.03,.01-.05,0-.03,.01-.06,0-.09,0Zm1.27-2.18c-.16,0-.31,.07-.42,.18-.37,.47-.59,1.04-.62,1.64,.63-.41,1.41-1.34,1.37-1.69-.01-.03-.03-.12-.25-.13h-.07Z"/><path class="cls-20" d="M169.72,355.5l-5.71,.27c-.22,.01-.4,.17-.43,.38l-.82,4.7c-.08,.42,.2,.81,.62,.89,.05,0,.11,.01,.16,.01,2.06-.13,3.88-.33,6.45-.45,3.03-.14,2.28,.26,5.83,.14,2.14-.07,2.42-2.53,1.51-2.6-4.18-.33-4.67-1.57-6.35-2.98-.36-.27-.81-.4-1.26-.36Z"/></g><polygon class="cls-12" points="169.4 348.21 163.55 348.27 164 352.68 169.43 352.36 169.4 348.21"/></g><path class="cls-21" d="M146.02,269.92s-1.08,11.4,4.76,22.01c5.85,10.61,6.42,13.73,6.84,18.68,.4,4.74,.43,6.33,1.06,16.15,.63,9.82,4.2,24.47,4.2,24.47l7.52-.48s.01-31.05-1.27-42.04c-1.14-9.79-7.12-38.79-7.12-38.79h-15.99Z"/></g><path class="cls-20" d="M143.31,228.63s-9.51,1.23-10.7,6.69,1.56,15.91,5.35,17.22c3.79,1.31,5.35-23.91,5.35-23.91Z"/><path class="cls-9" d="M139.49,233.74l-1.68-1.02s-2.35,3.05-3.82,14.5c1.01,2.67,2.39,4.78,3.96,5.32,1.53,.53,2.7-3.27,3.55-7.99l-2.01-10.81Z"/><path class="cls-20" d="M137.24,271.31s9.86,2.73,26.36,0c0,0-1.12-14.55,.59-27.67,1.78-13.66-1.54-14.61-10.81-15.08s-15.84-.97-16.15,7.48c-.71,19.59,0,35.27,0,35.27Z"/><path class="cls-9" d="M159.9,236.43s.71,7.72,3.73,12.77h0c.14-1.85,.32-3.72,.56-5.56,.43-3.26,.56-5.79,.39-7.77l-3.24-4.82-1.44,5.38Z"/><g><path class="cls-17" d="M183.49,247.77l5.51-.75,.42-1.35c.17-.55,.75-.87,1.31-.72l.62,.17,2.38-1.24c.18-.09,.38-.13,.58-.12h0c.57,.04,1.01,.53,1,1.1l-.05,2.17s0,.09-.01,.14l-.26,1.64c-.07,.46-.43,.83-.9,.9l-3.44,.54-6.33,1.34-.83-3.83Z"/><path class="cls-20" d="M158.97,229.14s6.88,0,10.09,4.64c2.68,3.88,5.46,12.11,9.74,12.47,4.28,.36,8.55,0,8.55,0,0,0,2.02,2.02,.95,5.34,0,0-8.43,3.44-14.43,1.54-6-1.9-15.62-19.59-15.62-19.59l.72-4.41Z"/></g><path class="cls-20" d="M153.82,217.29s1.13-2.61,.83-5.23c0,0,4.42,1.66,5.09-.42,.67-2.08-1.47-2.61-1.47-2.61,0,0,2.2-.3,.94-1.78-1.22-1.45-3.5-.95-3.5-.95,0,0,2.25-1.43,.53-2.26-1.72-.83-4.27,1.72-4.27,1.72,0,0,1.47-2.38-.24-2.79-1.72-.42-3.79,4.01-3.79,4.01,0,0-4.53,.45-4.64,2.05-.11,1.6,1.49,1.6,1.49,1.6,0,0-2.96,.48-2.49,2.02,.48,1.54,1.78,.64,1.78,.64,0,0-1.9,1.65-1.25,3.16,.47,1.09,1.31,.53,1.31,.53,0,0-.53,2.15,.36,3.18,.89,1.03,1.24-.81,1.24-.81,0,0,.03,2.24,1.56,3.29,0,0,1.41-1.39,4.26-.44l2.26-4.93Z"/><path class="cls-17" d="M154.12,216.35c.71,.65,1.14,1.55,1.19,2.51,.05,1.28-1.16,1.63-2.22,1.04-.95-.53-2.12-1.84-1.67-3.01,.45-1.17,1.82-1.32,2.7-.54Z"/></g></g></g><g id="Character_1"><g><g><path class="cls-20" d="M105.17,150.54l-.76,8.69h-39.8l.76-8.69h-2.85l-18.06,206.48h2.85l.76-8.69h39.8l-.76,8.69h2.85l18.06-206.48h-2.85Zm-3.48,39.73H61.9l2.47-28.19h39.8l-2.47,28.19Zm-2.72,31.04H59.18l2.47-28.19h39.8l-2.47,28.19Zm-2.72,31.04H56.46l2.47-28.19h39.8l-2.47,28.19Zm-2.72,31.04H53.75l2.47-28.19h39.8l-2.47,28.19Zm-2.72,31.04H51.03l2.47-28.19h39.8l-2.47,28.19Zm-40.05,2.85h39.8l-2.47,28.19H48.32l2.47-28.19Z"/><path class="cls-4" d="M105.17,150.54l-.76,8.69h-39.8l.76-8.69h-2.85l-18.06,206.48h2.85l.76-8.69h39.8l-.76,8.69h2.85l18.06-206.48h-2.85Zm-3.48,39.73H61.9l2.47-28.19h39.8l-2.47,28.19Zm-2.72,31.04H59.18l2.47-28.19h39.8l-2.47,28.19Zm-2.72,31.04H56.46l2.47-28.19h39.8l-2.47,28.19Zm-2.72,31.04H53.75l2.47-28.19h39.8l-2.47,28.19Zm-2.72,31.04H51.03l2.47-28.19h39.8l-2.47,28.19Zm-40.05,2.85h39.8l-2.47,28.19H48.32l2.47-28.19Z"/></g><g><path class="cls-19" d="M76.8,149.3l6.45,3.76,11.19-4.94,.13-2.74c.03-.69,.6-1.23,1.29-1.24h1.1l1.16-1.07c.59-.54,1.52-.42,1.96,.24l.66,1.01c.16,.25,.24,.55,.21,.85l-.35,3.32c-.05,.49-.38,.91-.84,1.08l-3.02,1.11s-9.29,6.61-12.69,7.37-10.14-2.8-10.14-2.8l2.89-5.96Z"/><g><path class="cls-21" d="M161.21,94.76l-51.51,.24c-2.77,0-5.67,1.87-5.92,4.65l-3.57,51.51,53.97,1.91,1.83-1.37,5.18-56.93Z"/><g><g><polygon class="cls-21" points="154.19 153.04 158.52 104.28 105.06 104.2 100.72 152.95 154.19 153.04"/><polygon class="cls-6" points="154.19 153.04 158.52 104.28 105.06 104.2 100.72 152.95 154.19 153.04"/></g><path class="cls-21" d="M155.31,140.4l-36.35-.06c-1.12,0-2.11,.91-2.21,2.03l-.36,4.04c-.1,1.12,.73,2.04,1.85,2.04l36.35,.06,.72-8.11Z"/><g><path class="cls-21" d="M156.6,125.93l-36.35-.06c-1.12,0-2.11,.91-2.21,2.03l-.36,4.04c-.1,1.12,.73,2.04,1.85,2.04l36.35,.06,.72-8.11Z"/><path class="cls-5" d="M156.6,125.93l-36.35-.06c-1.12,0-2.11,.91-2.21,2.03l-.36,4.04c-.1,1.12,.73,2.04,1.85,2.04l36.35,.06,.72-8.11Z"/></g><g><path class="cls-21" d="M106.02,113.92c.16-1.84,1.78-3.33,3.62-3.32l48.31,.07,1.26-14.12-51.37-.08c-2.77,0-5.22,2.24-5.46,5.02l-4.58,51.46h4.75l3.47-39.03Z"/><path class="cls-4" d="M106.02,113.92c.16-1.84,1.78-3.33,3.62-3.32l48.31,.07,1.26-14.12-51.37-.08c-2.77,0-5.22,2.24-5.46,5.02l-4.58,51.46h4.75l3.47-39.03Z"/></g><g><path class="cls-21" d="M138.86,103.3c-.16,1.8-1.75,3.26-3.55,3.26-1.8,0-3.13-1.47-2.97-3.27s1.75-3.26,3.55-3.26c1.8,0,3.13,1.47,2.97,3.27Z"/><path class="cls-5" d="M138.86,103.3c-.16,1.8-1.75,3.26-3.55,3.26-1.8,0-3.13-1.47-2.97-3.27s1.75-3.26,3.55-3.26c1.8,0,3.13,1.47,2.97,3.27Z"/></g><path class="cls-21" d="M126.75,103.28c-.16,1.8-1.75,3.26-3.55,3.26-1.8,0-3.13-1.47-2.97-3.27,.16-1.8,1.75-3.26,3.55-3.26,1.8,0,3.13,1.47,2.97,3.27Z"/><g><path class="cls-21" d="M114.63,103.26c-.16,1.8-1.75,3.26-3.55,3.26s-3.13-1.47-2.97-3.27,1.75-3.26,3.55-3.26c1.8,0,3.13,1.47,2.97,3.27Z"/><path class="cls-12" d="M114.63,103.26c-.16,1.8-1.75,3.26-3.55,3.26s-3.13-1.47-2.97-3.27,1.75-3.26,3.55-3.26c1.8,0,3.13,1.47,2.97,3.27Z"/></g><path class="cls-2" d="M113.05,104.29l-1.03-1.04c.35-.34,.69-.69,1.04-1.03,.42-.42-.23-1.08-.65-.66-.35,.34-.69,.69-1.04,1.03-.34-.35-.69-.69-1.03-1.04-.42-.42-1.08,.23-.66,.65,.34,.35,.69,.69,1.03,1.04-.35,.34-.69,.69-1.04,1.03-.42,.42,.23,1.08,.65,.66,.35-.34,.69-.69,1.04-1.03,.34,.35,.69,.69,1.03,1.04,.42,.42,1.08-.23,.66-.65Z"/><path class="cls-2" d="M125.42,102.82c-1.29,0-2.57,0-3.86-.01-.6,0-.6,.92,0,.93,1.29,0,2.57,0,3.86,.01,.6,0,.6-.92,0-.93h0Z"/><g><polygon class="cls-2" points="133.96 104.92 135.95 104.93 133.97 102.94 133.96 104.92"/><polygon class="cls-2" points="135.28 101.64 137.26 103.63 137.27 101.64 135.28 101.64"/></g></g></g><g><polygon class="cls-19" points="57.84 268.34 57.08 277.29 62.08 277.84 63.6 269.36 57.84 268.34"/><g><path class="cls-21" d="M62.95,277.84s-.08-.06-.09-.11c0-.05,.03-.1,.08-.12,.09-.03,2.04-.81,2.87-.45,.16,.06,.28,.19,.35,.34,.09,.17,.07,.39-.07,.54-.25,.25-.94,.27-1.58,.18-.53-.08-1.06-.2-1.57-.37Zm.42-.11c.95,.25,2.26,.43,2.55,.13,.04-.04,.08-.11,.01-.27-.04-.1-.12-.17-.22-.21-.07-.03-.15-.05-.23-.06-.72,0-1.44,.14-2.11,.41Z"/><path class="cls-21" d="M62.89,277.82s-.05-.08-.04-.12c.02-.06,.35-1.44,1.09-1.89,.21-.13,.47-.17,.71-.11,.33,.08,.42,.27,.41,.41,.03,.6-1.38,1.55-2.03,1.74-.02,0-.04,0-.05,0-.03,0-.06,0-.08-.02Zm1.65-1.91c-.16-.02-.31,.01-.45,.09-.45,.39-.77,.91-.91,1.49,.7-.29,1.64-1.06,1.65-1.41,0-.03,0-.12-.23-.17h-.07Z"/><path class="cls-20" d="M62.53,277.04l-5.66-.79c-.21-.03-.42,.09-.5,.29l-1.67,4.46c-.15,.4,.05,.84,.44,.99,.05,.02,.1,.03,.16,.04,2.05,.25,3.88,.39,6.42,.75,3,.42,2.19,.67,5.71,1.22,2.12,.33,2.85-2.03,1.96-2.28-4.05-1.1-4.3-2.4-5.69-4.1-.31-.33-.72-.54-1.17-.58Z"/></g><polygon class="cls-13" points="63.6 269.36 57.84 268.34 57.44 273.02 62.8 273.81 63.6 269.36"/></g><g><path class="cls-20" d="M86.24,126.82s4.04-1.9,3.66-.3c-.39,1.6-3.35,2.32-4.19,1.72-.84-.59,.53-1.43,.53-1.43Z"/><path class="cls-19" d="M75.8,145.7s3.02-.31,2.97-5.86c0,0,2.79-1.27,4.59,.37,1.81,1.64-1.63,5.48,.61,7.09,0,0-1.97,1.33-8.18-1.59Z"/><path class="cls-20" d="M89.02,132.04c.03-.37,.25-.66,.49-.64,.24,.02,.42,.33,.39,.71-.03,.37-.25,.66-.49,.64-.24-.02-.42-.33-.39-.71Z"/><path class="cls-22" d="M89.27,132.71l1.96,2.59s-.85,.74-2.16,.39l.2-2.98Z"/><path class="cls-19" d="M76.16,131.46c.23,4.7,.22,6.7,2.56,9.15,3.59,2.5,9.26,2.37,10.44-2.31,1.07-4.21,.52-11.18-4.06-13.14-3.27-1.39-7.04,.12-8.44,3.39-.39,.92-.56,1.91-.5,2.91Z"/><path class="cls-20" d="M88.32,130.94c.07,.02,.15,0,.2-.04,.41-.38,.97-.54,1.52-.42,.11,.03,.23-.04,.27-.15,.03-.12-.03-.24-.15-.27-.69-.15-1.4,.04-1.92,.51-.09,.07-.11,.21-.04,.3h0s.07,.07,.12,.08Z"/><path class="cls-12" d="M80.93,141.72c.31,.52,1.09,1.58,2.51,2.29,.15-.61,.33-1.23,.41-1.8-.97,0-1.97-.16-2.93-.49Z"/><path class="cls-20" d="M78.7,141.31s.33-.4,1.65,.18c0,0,3.08-3.46,3.63-5.95,0,0,1.62-.91,1.74-2.98,.11-2.07,.17-3.43,1-3.91,.83-.48,3.1-2.55,1.43-4.69-1.67-2.14-1.55,.36-1.55,.36,0,0-4.92-5.64-4.21-1.9,0,0-5.57-1.28-2.74,1.78,0,0-6.29,1.6-4.21,7.54,0,0-2.18,5.78,3.26,9.57Z"/><path class="cls-19" d="M84.53,133.05c.71,.65,1.14,1.55,1.19,2.51,.05,1.28-1.17,1.63-2.22,1.04-.95-.53-2.12-1.84-1.67-3.01,.45-1.17,1.82-1.32,2.7-.54Z"/></g><g><path class="cls-21" d="M80.84,144.25c1.07,.1,2.49,.32,3.96,.79-.57-.9-1.75-2.38-4.14-2.69-2.75-.36-3.84,.99-4.42,1.98,1.36-.2,2.88-.24,4.6-.08Z"/><path class="cls-5" d="M80.84,144.25c1.07,.1,2.49,.32,3.96,.79-.57-.9-1.75-2.38-4.14-2.69-2.75-.36-3.84,.99-4.42,1.98,1.36-.2,2.88-.24,4.6-.08Z"/></g><path class="cls-20" d="M65.05,179.76s-2.57,5.9-1.46,21.89c0,0,2.07,18.89,.79,25.02-2.31,11.02-6.17,12.98-7.52,44.41l6.89,.95s9.09-31.78,11.16-42.51c1.29-6.66,3.01-26.84,3.01-26.84l.64-21.38-13.5-1.54Z"/><g><polygon class="cls-19" points="75.15 270.02 75.16 279 80.19 279.11 80.97 270.54 75.15 270.02"/><g><path class="cls-21" d="M81.06,278.59c-.05-.01-.09-.06-.09-.11,0-.05,.02-.1,.07-.13,.08-.04,1.96-.99,2.82-.7,.16,.05,.3,.16,.37,.31,.11,.17,.1,.38-.02,.54-.23,.27-.91,.35-1.56,.32-.54-.03-1.07-.11-1.59-.23Zm.41-.14c.97,.17,2.29,.23,2.55-.09,.04-.04,.07-.11-.01-.27-.05-.09-.13-.16-.23-.19-.08-.03-.16-.04-.24-.04-.72,.07-1.42,.27-2.07,.59Z"/><path class="cls-21" d="M81,278.58s-.06-.07-.05-.11c.01-.07,.23-1.47,.92-1.98,.2-.15,.45-.21,.7-.17,.34,.05,.44,.23,.44,.37,.08,.59-1.24,1.66-1.88,1.91-.02,0-.03,0-.05,0-.03,0-.06,0-.08,0Zm1.48-2.04c-.16,0-.31,.04-.44,.13-.41,.43-.69,.98-.78,1.57,.67-.35,1.54-1.19,1.53-1.55,0-.03-.02-.12-.24-.15h-.07Z"/><path class="cls-20" d="M80.57,277.83l-5.71-.3c-.22-.01-.41,.13-.47,.34l-1.28,4.59c-.12,.41,.12,.83,.52,.95,.05,.02,.11,.02,.16,.03,2.06,.07,3.9,.06,6.46,.2,3.02,.16,2.24,.48,5.79,.72,2.14,.14,2.66-2.27,1.76-2.44-4.13-.75-4.5-2.02-6.02-3.6-.33-.3-.77-.48-1.22-.48Z"/></g><polygon class="cls-13" points="75.15 275.17 80.54 275.26 80.97 270.54 75.15 270.02 75.15 275.17"/></g><path class="cls-9" d="M77.65,205.68l-1.4-2.61-3.72-3.48s-1.18,15.08,2.84,27.06c.87-6.03,1.82-16,2.27-20.97Z"/><path class="cls-20" d="M73.48,181.3s-1.19,5.7-.95,18.29c.24,12.59,4.81,22.17,4.75,29.69-.1,10.95-4.78,16.86-2.85,43.7h7.36s5.83-33.25,6.65-44.41c.85-11.55-.06-46.31-.06-46.31l-14.9-.95Z"/><g><path class="cls-21" d="M74.01,144.84s-5.34,.42-6.53,4.1c-1.19,3.68,.86,6.3,.86,6.3l2.88,.82,2.79-11.23Z"/><path class="cls-16" d="M74.01,144.84s-5.34,.42-6.53,4.1c-1.19,3.68,.86,6.3,.86,6.3l2.88,.82,2.79-11.23Z"/></g><path class="cls-21" d="M80.84,144.25c3.43,.31,10.45,1.9,11.16,9.02s-2.61,32.3-2.61,32.3c0,0-13.3,.47-25.65-3.09,0,0,4.12-13.93,4.75-30.16,.21-5.46,4.28-8.8,12.35-8.07Z"/><path class="cls-16" d="M85.44,152.09s2.38,7.07,6.29,11.58c.27-3.55,.42-6.8,.35-9.05l-6.64-2.52Z"/><g><path class="cls-19" d="M95.96,153.21l5.7,4.81,11.88-2.93,.6-2.68c.15-.67,.8-1.11,1.49-.99l1.08,.19,1.33-.85c.67-.43,1.57-.15,1.89,.58l.48,1.11c.12,.28,.14,.58,.06,.87l-.92,3.21c-.14,.48-.53,.83-1.02,.92l-3.16,.57s-10.29,4.91-13.77,5.07c-3.48,.16-9.5-4.51-9.5-4.51l3.88-5.37Z"/><path class="cls-21" d="M86.28,145.61s5.67,1.43,12.32,7.73c0,0-1.46,4.98-6.81,7.48,0,0-11.65-12-5.51-15.2Z"/></g><g><polygon class="cls-20" points="56.58 269.14 56.38 271.67 63.86 272.74 64.58 270.48 56.58 269.14"/><polygon class="cls-4" points="56.58 269.14 56.38 271.67 63.86 272.74 64.58 270.48 56.58 269.14"/></g><g><polygon class="cls-20" points="74.06 271.28 74.3 273.81 81.91 273.8 82.35 271.33 74.06 271.28"/><polygon class="cls-4" points="74.06 271.28 74.3 273.81 81.91 273.8 82.35 271.33 74.06 271.28"/></g></g></g></g></svg>