<svg width="895" height="61" viewBox="0 0 895 61" fill="none" xmlns="http://www.w3.org/2000/svg">
<g filter="url(#filter0_d_134_501)">
<path d="M26.072 46.768C22.5307 46.768 19.2453 46.192 16.216 45.04C13.2293 43.888 10.6267 42.2667 8.408 40.176C6.232 38.0853 4.52533 35.632 3.288 32.816C2.09333 30 1.496 26.928 1.496 23.6C1.496 20.272 2.09333 17.2 3.288 14.384C4.52533 11.568 6.25333 9.11467 8.472 7.024C10.6907 4.93333 13.2933 3.312 16.28 2.16C19.2667 1.008 22.5093 0.431999 26.008 0.431999C29.5493 0.431999 32.792 1.008 35.736 2.16C38.7227 3.312 41.304 4.93333 43.48 7.024C45.6987 9.11467 47.4267 11.568 48.664 14.384C49.9013 17.1573 50.52 20.2293 50.52 23.6C50.52 26.928 49.9013 30.0213 48.664 32.88C47.4267 35.696 45.6987 38.1493 43.48 40.24C41.304 42.288 38.7227 43.888 35.736 45.04C32.792 46.192 29.5707 46.768 26.072 46.768ZM26.008 37.936C28.0133 37.936 29.848 37.5947 31.512 36.912C33.2187 36.2293 34.712 35.248 35.992 33.968C37.272 32.688 38.2533 31.1733 38.936 29.424C39.6613 27.6747 40.024 25.7333 40.024 23.6C40.024 21.4667 39.6613 19.5253 38.936 17.776C38.2533 16.0267 37.272 14.512 35.992 13.232C34.7547 11.952 33.2827 10.9707 31.576 10.288C29.8693 9.60533 28.0133 9.264 26.008 9.264C24.0027 9.264 22.1467 9.60533 20.44 10.288C18.776 10.9707 17.304 11.952 16.024 13.232C14.744 14.512 13.7413 16.0267 13.016 17.776C12.3333 19.5253 11.992 21.4667 11.992 23.6C11.992 25.6907 12.3333 27.632 13.016 29.424C13.7413 31.1733 14.7227 32.688 15.96 33.968C17.24 35.248 18.7333 36.2293 20.44 36.912C22.1467 37.5947 24.0027 37.936 26.008 37.936ZM58.312 46V1.2H77.704C81.7147 1.2 85.1707 1.86133 88.072 3.184C90.9733 4.464 93.2133 6.32 94.792 8.752C96.3707 11.184 97.16 14.0853 97.16 17.456C97.16 20.784 96.3707 23.664 94.792 26.096C93.2133 28.528 90.9733 30.4053 88.072 31.728C85.1707 33.008 81.7147 33.648 77.704 33.648H64.072L68.68 28.976V46H58.312ZM68.68 30.128L64.072 25.2H77.128C80.328 25.2 82.7173 24.5173 84.296 23.152C85.8747 21.7867 86.664 19.888 86.664 17.456C86.664 14.9813 85.8747 13.0613 84.296 11.696C82.7173 10.3307 80.328 9.648 77.128 9.648H64.072L68.68 4.72V30.128ZM114.098 19.248H135.666V27.312H114.098V19.248ZM114.866 37.68H139.25V46H104.562V1.2H138.418V9.52H114.866V37.68ZM147.5 46V1.2H156.076L182.508 33.456H178.347V1.2H188.588V46H180.076L153.58 13.744H157.74V46H147.5ZM213.907 46.768C210.323 46.768 206.888 46.2987 203.603 45.36C200.318 44.3787 197.672 43.12 195.667 41.584L199.187 33.776C201.107 35.1413 203.368 36.272 205.971 37.168C208.616 38.0213 211.283 38.448 213.971 38.448C216.019 38.448 217.662 38.256 218.899 37.872C220.179 37.4453 221.118 36.8693 221.715 36.144C222.312 35.4187 222.611 34.5867 222.611 33.648C222.611 32.4533 222.142 31.5147 221.203 30.832C220.264 30.1067 219.027 29.5307 217.491 29.104C215.955 28.6347 214.248 28.208 212.371 27.824C210.536 27.3973 208.68 26.8853 206.803 26.288C204.968 25.6907 203.283 24.9227 201.747 23.984C200.211 23.0453 198.952 21.808 197.971 20.272C197.032 18.736 196.563 16.7733 196.563 14.384C196.563 11.824 197.246 9.49866 198.611 7.408C200.019 5.27466 202.11 3.58933 204.883 2.352C207.699 1.072 211.219 0.431999 215.443 0.431999C218.259 0.431999 221.032 0.773332 223.763 1.456C226.494 2.096 228.904 3.07733 230.995 4.4L227.795 12.272C225.704 11.0773 223.614 10.2027 221.523 9.648C219.432 9.05067 217.384 8.752 215.379 8.752C213.374 8.752 211.731 8.98667 210.451 9.456C209.171 9.92533 208.254 10.544 207.699 11.312C207.144 12.0373 206.867 12.8907 206.867 13.872C206.867 15.024 207.336 15.9627 208.275 16.688C209.214 17.3707 210.451 17.9253 211.987 18.352C213.523 18.7787 215.208 19.2053 217.043 19.632C218.92 20.0587 220.776 20.5493 222.611 21.104C224.488 21.6587 226.195 22.4053 227.731 23.344C229.267 24.2827 230.504 25.52 231.443 27.056C232.424 28.592 232.915 30.5333 232.915 32.88C232.915 35.3973 232.211 37.7013 230.803 39.792C229.395 41.8827 227.283 43.568 224.467 44.848C221.694 46.128 218.174 46.768 213.907 46.768ZM261.76 46.768C258.218 46.768 254.933 46.192 251.904 45.04C248.917 43.888 246.314 42.2667 244.095 40.176C241.92 38.0853 240.213 35.632 238.976 32.816C237.781 30 237.184 26.928 237.184 23.6C237.184 20.272 237.781 17.2 238.976 14.384C240.213 11.568 241.941 9.11467 244.16 7.024C246.378 4.93333 248.981 3.312 251.968 2.16C254.954 1.008 258.197 0.431999 261.696 0.431999C265.237 0.431999 268.479 1.008 271.424 2.16C274.41 3.312 276.992 4.93333 279.168 7.024C281.386 9.11467 283.114 11.568 284.352 14.384C285.589 17.1573 286.208 20.2293 286.208 23.6C286.208 26.928 285.589 30.0213 284.352 32.88C283.114 35.696 281.386 38.1493 279.168 40.24C276.992 42.288 274.41 43.888 271.424 45.04C268.479 46.192 265.258 46.768 261.76 46.768ZM261.696 37.936C263.701 37.936 265.536 37.5947 267.2 36.912C268.906 36.2293 270.4 35.248 271.68 33.968C272.96 32.688 273.941 31.1733 274.624 29.424C275.349 27.6747 275.712 25.7333 275.712 23.6C275.712 21.4667 275.349 19.5253 274.624 17.776C273.941 16.0267 272.96 14.512 271.68 13.232C270.442 11.952 268.97 10.9707 267.264 10.288C265.557 9.60533 263.701 9.264 261.696 9.264C259.69 9.264 257.834 9.60533 256.128 10.288C254.464 10.9707 252.992 11.952 251.712 13.232C250.432 14.512 249.429 16.0267 248.704 17.776C248.021 19.5253 247.68 21.4667 247.68 23.6C247.68 25.6907 248.021 27.632 248.704 29.424C249.429 31.1733 250.41 32.688 251.648 33.968C252.928 35.248 254.421 36.2293 256.128 36.912C257.834 37.5947 259.69 37.936 261.696 37.936ZM313.904 46.768C307.546 46.768 302.576 44.9973 298.992 41.456C295.408 37.9147 293.616 32.8587 293.616 26.288V1.2H303.984V25.904C303.984 30.1707 304.858 33.2427 306.608 35.12C308.357 36.9973 310.81 37.936 313.968 37.936C317.125 37.936 319.578 36.9973 321.328 35.12C323.077 33.2427 323.951 30.1707 323.951 25.904V1.2H334.192V26.288C334.192 32.8587 332.4 37.9147 328.816 41.456C325.232 44.9973 320.261 46.768 313.904 46.768ZM344.437 46V1.2H363.829C367.84 1.2 371.296 1.86133 374.197 3.184C377.098 4.464 379.338 6.32 380.917 8.752C382.496 11.184 383.285 14.0853 383.285 17.456C383.285 20.784 382.496 23.664 380.917 26.096C379.338 28.4853 377.098 30.32 374.197 31.6C371.296 32.88 367.84 33.52 363.829 33.52H350.197L354.805 28.976V46H344.437ZM372.917 46L361.717 29.744H372.789L384.117 46H372.917ZM354.805 30.128L350.197 25.264H363.253C366.453 25.264 368.842 24.5813 370.421 23.216C372 21.808 372.789 19.888 372.789 17.456C372.789 14.9813 372 13.0613 370.421 11.696C368.842 10.3307 366.453 9.648 363.253 9.648H350.197L354.805 4.72V30.128ZM412.94 46.768C409.484 46.768 406.262 46.2133 403.276 45.104C400.332 43.952 397.772 42.3307 395.595 40.24C393.42 38.1493 391.713 35.696 390.476 32.88C389.281 30.064 388.684 26.9707 388.684 23.6C388.684 20.2293 389.281 17.136 390.476 14.32C391.713 11.504 393.42 9.05066 395.595 6.96C397.814 4.86933 400.396 3.26933 403.34 2.16C406.284 1.008 409.505 0.431999 413.004 0.431999C416.886 0.431999 420.385 1.11467 423.5 2.48C426.657 3.80266 429.302 5.76533 431.436 8.368L424.78 14.512C423.244 12.7627 421.537 11.4613 419.66 10.608C417.782 9.712 415.734 9.264 413.516 9.264C411.425 9.264 409.505 9.60533 407.756 10.288C406.006 10.9707 404.492 11.952 403.212 13.232C401.932 14.512 400.929 16.0267 400.204 17.776C399.521 19.5253 399.18 21.4667 399.18 23.6C399.18 25.7333 399.521 27.6747 400.204 29.424C400.929 31.1733 401.932 32.688 403.212 33.968C404.492 35.248 406.006 36.2293 407.756 36.912C409.505 37.5947 411.425 37.936 413.516 37.936C415.734 37.936 417.782 37.5093 419.66 36.656C421.537 35.76 423.244 34.416 424.78 32.624L431.436 38.768C429.302 41.3707 426.657 43.3547 423.5 44.72C420.385 46.0853 416.865 46.768 412.94 46.768ZM447.973 19.248H469.541V27.312H447.973V19.248ZM448.741 37.68H473.125V46H438.437V1.2H472.293V9.52H448.741V37.68ZM499.5 46V1.2H518.892C522.902 1.2 526.358 1.86133 529.26 3.184C532.161 4.464 534.401 6.32 535.98 8.752C537.558 11.184 538.348 14.0853 538.348 17.456C538.348 20.784 537.558 23.664 535.98 26.096C534.401 28.528 532.161 30.4053 529.26 31.728C526.358 33.008 522.902 33.648 518.892 33.648H505.26L509.868 28.976V46H499.5ZM509.868 30.128L505.26 25.2H518.316C521.516 25.2 523.905 24.5173 525.484 23.152C527.062 21.7867 527.852 19.888 527.852 17.456C527.852 14.9813 527.062 13.0613 525.484 11.696C523.905 10.3307 521.516 9.648 518.316 9.648H505.26L509.868 4.72V30.128ZM545.75 46V1.2H565.142C569.152 1.2 572.608 1.86133 575.51 3.184C578.411 4.464 580.651 6.32 582.23 8.752C583.808 11.184 584.598 14.0853 584.598 17.456C584.598 20.784 583.808 23.664 582.23 26.096C580.651 28.4853 578.411 30.32 575.51 31.6C572.608 32.88 569.152 33.52 565.142 33.52H551.51L556.118 28.976V46H545.75ZM574.229 46L563.03 29.744H574.102L585.43 46H574.229ZM556.118 30.128L551.51 25.264H564.566C567.766 25.264 570.155 24.5813 571.734 23.216C573.312 21.808 574.102 19.888 574.102 17.456C574.102 14.9813 573.312 13.0613 571.734 11.696C570.155 10.3307 567.766 9.648 564.566 9.648H551.51L556.118 4.72V30.128ZM614.572 46.768C611.031 46.768 607.745 46.192 604.716 45.04C601.729 43.888 599.127 42.2667 596.908 40.176C594.732 38.0853 593.025 35.632 591.788 32.816C590.593 30 589.996 26.928 589.996 23.6C589.996 20.272 590.593 17.2 591.788 14.384C593.025 11.568 594.753 9.11467 596.972 7.024C599.191 4.93333 601.793 3.312 604.78 2.16C607.767 1.008 611.009 0.431999 614.508 0.431999C618.049 0.431999 621.292 1.008 624.236 2.16C627.223 3.312 629.804 4.93333 631.98 7.024C634.199 9.11467 635.927 11.568 637.164 14.384C638.401 17.1573 639.02 20.2293 639.02 23.6C639.02 26.928 638.401 30.0213 637.164 32.88C635.927 35.696 634.199 38.1493 631.98 40.24C629.804 42.288 627.223 43.888 624.236 45.04C621.292 46.192 618.071 46.768 614.572 46.768ZM614.508 37.936C616.513 37.936 618.348 37.5947 620.012 36.912C621.719 36.2293 623.212 35.248 624.492 33.968C625.772 32.688 626.753 31.1733 627.436 29.424C628.161 27.6747 628.524 25.7333 628.524 23.6C628.524 21.4667 628.161 19.5253 627.436 17.776C626.753 16.0267 625.772 14.512 624.492 13.232C623.255 11.952 621.783 10.9707 620.076 10.288C618.369 9.60533 616.513 9.264 614.508 9.264C612.503 9.264 610.647 9.60533 608.94 10.288C607.276 10.9707 605.804 11.952 604.524 13.232C603.244 14.512 602.241 16.0267 601.516 17.776C600.833 19.5253 600.492 21.4667 600.492 23.6C600.492 25.6907 600.833 27.632 601.516 29.424C602.241 31.1733 603.223 32.688 604.46 33.968C605.74 35.248 607.233 36.2293 608.94 36.912C610.647 37.5947 612.503 37.936 614.508 37.936ZM668.444 46.768C664.903 46.768 661.639 46.2133 658.652 45.104C655.708 43.952 653.127 42.3307 650.908 40.24C648.732 38.1493 647.025 35.696 645.788 32.88C644.593 30.064 643.996 26.9707 643.996 23.6C643.996 20.2293 644.593 17.136 645.788 14.32C647.025 11.504 648.753 9.05066 650.972 6.96C653.191 4.86933 655.793 3.26933 658.78 2.16C661.767 1.008 665.052 0.431999 668.636 0.431999C672.604 0.431999 676.167 1.09333 679.324 2.416C682.524 3.73866 685.212 5.65866 687.388 8.176L680.732 14.32C679.111 12.6133 677.34 11.3547 675.42 10.544C673.5 9.69067 671.409 9.264 669.148 9.264C666.972 9.264 664.988 9.60533 663.196 10.288C661.404 10.9707 659.847 11.952 658.524 13.232C657.244 14.512 656.241 16.0267 655.516 17.776C654.833 19.5253 654.492 21.4667 654.492 23.6C654.492 25.6907 654.833 27.6107 655.516 29.36C656.241 31.1093 657.244 32.6453 658.524 33.968C659.847 35.248 661.383 36.2293 663.132 36.912C664.924 37.5947 666.887 37.936 669.02 37.936C671.068 37.936 673.052 37.616 674.972 36.976C676.935 36.2933 678.833 35.1627 680.668 33.584L686.556 41.072C684.124 42.9067 681.287 44.3147 678.044 45.296C674.844 46.2773 671.644 46.768 668.444 46.768ZM677.084 39.728V22.896H686.556V41.072L677.084 39.728ZM696.187 46V1.2H715.579C719.59 1.2 723.046 1.86133 725.947 3.184C728.848 4.464 731.088 6.32 732.667 8.752C734.246 11.184 735.035 14.0853 735.035 17.456C735.035 20.784 734.246 23.664 732.667 26.096C731.088 28.4853 728.848 30.32 725.947 31.6C723.046 32.88 719.59 33.52 715.579 33.52H701.947L706.555 28.976V46H696.187ZM724.667 46L713.467 29.744H724.539L735.867 46H724.667ZM706.555 30.128L701.947 25.264H715.003C718.203 25.264 720.592 24.5813 722.171 23.216C723.75 21.808 724.539 19.888 724.539 17.456C724.539 14.9813 723.75 13.0613 722.171 11.696C720.592 10.3307 718.203 9.648 715.003 9.648H701.947L706.555 4.72V30.128ZM737.361 46L757.33 1.2H767.57L787.602 46H776.722L760.338 6.448H764.434L747.986 46H737.361ZM747.345 36.4L750.098 28.528H773.138L775.954 36.4H747.345ZM792.25 46V1.2H800.826L819.898 32.816H815.354L834.106 1.2H842.618L842.746 46H833.018L832.954 16.112H834.746L819.77 41.264H815.098L799.802 16.112H801.978V46H792.25ZM868.095 46.768C864.511 46.768 861.076 46.2987 857.791 45.36C854.505 44.3787 851.86 43.12 849.855 41.584L853.375 33.776C855.295 35.1413 857.556 36.272 860.159 37.168C862.804 38.0213 865.471 38.448 868.159 38.448C870.207 38.448 871.849 38.256 873.087 37.872C874.367 37.4453 875.305 36.8693 875.903 36.144C876.5 35.4187 876.799 34.5867 876.799 33.648C876.799 32.4533 876.329 31.5147 875.391 30.832C874.452 30.1067 873.215 29.5307 871.679 29.104C870.143 28.6347 868.436 28.208 866.559 27.824C864.724 27.3973 862.868 26.8853 860.991 26.288C859.156 25.6907 857.471 24.9227 855.935 23.984C854.399 23.0453 853.14 21.808 852.159 20.272C851.22 18.736 850.751 16.7733 850.751 14.384C850.751 11.824 851.433 9.49866 852.799 7.408C854.207 5.27466 856.297 3.58933 859.071 2.352C861.887 1.072 865.407 0.431999 869.631 0.431999C872.447 0.431999 875.22 0.773332 877.951 1.456C880.681 2.096 883.092 3.07733 885.183 4.4L881.983 12.272C879.892 11.0773 877.801 10.2027 875.711 9.648C873.62 9.05067 871.572 8.752 869.567 8.752C867.561 8.752 865.919 8.98667 864.639 9.456C863.359 9.92533 862.441 10.544 861.887 11.312C861.332 12.0373 861.055 12.8907 861.055 13.872C861.055 15.024 861.524 15.9627 862.463 16.688C863.401 17.3707 864.639 17.9253 866.175 18.352C867.711 18.7787 869.396 19.2053 871.231 19.632C873.108 20.0587 874.964 20.5493 876.799 21.104C878.676 21.6587 880.383 22.4053 881.919 23.344C883.455 24.2827 884.692 25.52 885.631 27.056C886.612 28.592 887.103 30.5333 887.103 32.88C887.103 35.3973 886.399 37.7013 884.991 39.792C883.583 41.8827 881.471 43.568 878.655 44.848C875.881 46.128 872.361 46.768 868.095 46.768Z" fill="white"/>
</g>
<defs>
<filter id="filter0_d_134_501" x="0.496094" y="0.432129" width="893.606" height="60.3359" filterUnits="userSpaceOnUse" color-interpolation-filters="sRGB">
<feFlood flood-opacity="0" result="BackgroundImageFix"/>
<feColorMatrix in="SourceAlpha" type="matrix" values="0 0 0 0 0 0 0 0 0 0 0 0 0 0 0 0 0 0 127 0" result="hardAlpha"/>
<feOffset dx="3" dy="10"/>
<feGaussianBlur stdDeviation="2"/>
<feComposite in2="hardAlpha" operator="out"/>
<feColorMatrix type="matrix" values="0 0 0 0 0 0 0 0 0 0 0 0 0 0 0 0 0 0 0.25 0"/>
<feBlend mode="normal" in2="BackgroundImageFix" result="effect1_dropShadow_134_501"/>
<feBlend mode="normal" in="SourceGraphic" in2="effect1_dropShadow_134_501" result="shape"/>
</filter>
</defs>
</svg>
