<svg width="591" height="85" viewBox="0 0 591 85" fill="none" xmlns="http://www.w3.org/2000/svg">
<g filter="url(#filter0_d_134_501)">
<path d="M1.968 69V1.8H31.056C37.072 1.8 42.256 2.792 46.608 4.776C50.96 6.696 54.32 9.48 56.688 13.128C59.056 16.776 60.24 21.128 60.24 26.184C60.24 31.176 59.056 35.496 56.688 39.144C54.32 42.792 50.96 45.608 46.608 47.592C42.256 49.512 37.072 50.472 31.056 50.472H10.608L17.52 43.464V69H1.968ZM17.52 45.192L10.608 37.8H30.192C34.992 37.8 38.576 36.776 40.944 34.728C43.312 32.68 44.496 29.832 44.496 26.184C44.496 22.472 43.312 19.592 40.944 17.544C38.576 15.496 34.992 14.472 30.192 14.472H10.608L17.52 7.08V45.192ZM71.343 69V1.8H100.431C106.447 1.8 111.631 2.792 115.983 4.776C120.335 6.696 123.695 9.48 126.063 13.128C128.431 16.776 129.615 21.128 129.615 26.184C129.615 31.176 128.431 35.496 126.063 39.144C123.695 42.728 120.335 45.48 115.983 47.4C111.631 49.32 106.447 50.28 100.431 50.28H79.983L86.895 43.464V69H71.343ZM114.063 69L97.263 44.616H113.871L130.863 69H114.063ZM86.895 45.192L79.983 37.896H99.567C104.367 37.896 107.951 36.872 110.319 34.824C112.687 32.712 113.871 29.832 113.871 26.184C113.871 22.472 112.687 19.592 110.319 17.544C107.951 15.496 104.367 14.472 99.567 14.472H79.983L86.895 7.08V45.192ZM174.577 70.152C169.265 70.152 164.337 69.288 159.793 67.56C155.313 65.832 151.409 63.4 148.081 60.264C144.817 57.128 142.257 53.448 140.401 49.224C138.609 45 137.713 40.392 137.713 35.4C137.713 30.408 138.609 25.8 140.401 21.576C142.257 17.352 144.849 13.672 148.177 10.536C151.505 7.4 155.409 4.96799 159.889 3.23999C164.369 1.512 169.233 0.647999 174.481 0.647999C179.793 0.647999 184.657 1.512 189.073 3.23999C193.553 4.96799 197.425 7.4 200.689 10.536C204.017 13.672 206.609 17.352 208.465 21.576C210.321 25.736 211.249 30.344 211.249 35.4C211.249 40.392 210.321 45.032 208.465 49.32C206.609 53.544 204.017 57.224 200.689 60.36C197.425 63.432 193.553 65.832 189.073 67.56C184.657 69.288 179.825 70.152 174.577 70.152ZM174.481 56.904C177.489 56.904 180.241 56.392 182.737 55.368C185.297 54.344 187.537 52.872 189.457 50.952C191.377 49.032 192.849 46.76 193.873 44.136C194.961 41.512 195.505 38.6 195.505 35.4C195.505 32.2 194.961 29.288 193.873 26.664C192.849 24.04 191.377 21.768 189.457 19.848C187.601 17.928 185.393 16.456 182.833 15.432C180.273 14.408 177.489 13.896 174.481 13.896C171.473 13.896 168.689 14.408 166.129 15.432C163.633 16.456 161.425 17.928 159.505 19.848C157.585 21.768 156.081 24.04 154.993 26.664C153.969 29.288 153.457 32.2 153.457 35.4C153.457 38.536 153.969 41.448 154.993 44.136C156.081 46.76 157.553 49.032 159.409 50.952C161.329 52.872 163.569 54.344 166.129 55.368C168.689 56.392 171.473 56.904 174.481 56.904ZM255.385 70.152C250.073 70.152 245.177 69.32 240.697 67.656C236.281 65.928 232.409 63.496 229.081 60.36C225.817 57.224 223.257 53.544 221.401 49.32C219.609 45.096 218.713 40.456 218.713 35.4C218.713 30.344 219.609 25.704 221.401 21.48C223.257 17.256 225.849 13.576 229.177 10.44C232.505 7.304 236.409 4.904 240.889 3.23999C245.369 1.512 250.297 0.647999 255.673 0.647999C261.625 0.647999 266.969 1.64 271.705 3.62399C276.505 5.608 280.537 8.488 283.801 12.264L273.817 21.48C271.385 18.92 268.729 17.032 265.849 15.816C262.969 14.536 259.833 13.896 256.441 13.896C253.177 13.896 250.201 14.408 247.513 15.432C244.825 16.456 242.489 17.928 240.505 19.848C238.585 21.768 237.081 24.04 235.993 26.664C234.969 29.288 234.457 32.2 234.457 35.4C234.457 38.536 234.969 41.416 235.993 44.04C237.081 46.664 238.585 48.968 240.505 50.952C242.489 52.872 244.793 54.344 247.417 55.368C250.105 56.392 253.049 56.904 256.249 56.904C259.321 56.904 262.297 56.424 265.177 55.464C268.121 54.44 270.969 52.744 273.721 50.376L282.553 61.608C278.905 64.36 274.649 66.472 269.785 67.944C264.985 69.416 260.185 70.152 255.385 70.152ZM268.345 59.592V34.344H282.553V61.608L268.345 59.592ZM296.999 69V1.8H326.087C332.103 1.8 337.287 2.792 341.639 4.776C345.991 6.696 349.351 9.48 351.719 13.128C354.087 16.776 355.271 21.128 355.271 26.184C355.271 31.176 354.087 35.496 351.719 39.144C349.351 42.728 345.991 45.48 341.639 47.4C337.287 49.32 332.103 50.28 326.087 50.28H305.639L312.551 43.464V69H296.999ZM339.719 69L322.919 44.616H339.527L356.519 69H339.719ZM312.551 45.192L305.639 37.896H325.223C330.023 37.896 333.607 36.872 335.975 34.824C338.343 32.712 339.527 29.832 339.527 26.184C339.527 22.472 338.343 19.592 335.975 17.544C333.607 15.496 330.023 14.472 325.223 14.472H305.639L312.551 7.08V45.192ZM358.761 69L388.713 1.8H404.073L434.121 69H417.801L393.225 9.672H399.369L374.697 69H358.761ZM373.737 54.6L377.865 42.792H412.425L416.649 54.6H373.737ZM441.093 69V1.8H453.957L482.565 49.224H475.749L503.877 1.8H516.645L516.837 69H502.245L502.149 24.168H504.837L482.373 61.896H475.365L452.421 24.168H455.685V69H441.093ZM554.861 70.152C549.485 70.152 544.333 69.448 539.405 68.04C534.477 66.568 530.509 64.68 527.501 62.376L532.781 50.664C535.661 52.712 539.053 54.408 542.957 55.752C546.925 57.032 550.925 57.672 554.957 57.672C558.029 57.672 560.493 57.384 562.349 56.808C564.269 56.168 565.677 55.304 566.573 54.216C567.469 53.128 567.917 51.88 567.917 50.472C567.917 48.68 567.213 47.272 565.805 46.248C564.397 45.16 562.541 44.296 560.237 43.656C557.933 42.952 555.373 42.312 552.557 41.736C549.805 41.096 547.021 40.328 544.205 39.432C541.453 38.536 538.925 37.384 536.621 35.976C534.317 34.568 532.429 32.712 530.957 30.408C529.549 28.104 528.845 25.16 528.845 21.576C528.845 17.736 529.869 14.248 531.917 11.112C534.029 7.91199 537.165 5.384 541.325 3.528C545.549 1.608 550.829 0.647999 557.165 0.647999C561.389 0.647999 565.549 1.16 569.645 2.184C573.741 3.144 577.357 4.616 580.493 6.6L575.693 18.408C572.557 16.616 569.421 15.304 566.285 14.472C563.149 13.576 560.077 13.128 557.069 13.128C554.061 13.128 551.597 13.48 549.677 14.184C547.757 14.888 546.381 15.816 545.549 16.968C544.717 18.056 544.301 19.336 544.301 20.808C544.301 22.536 545.005 23.944 546.413 25.032C547.821 26.056 549.677 26.888 551.981 27.528C554.285 28.168 556.813 28.808 559.565 29.448C562.381 30.088 565.165 30.824 567.917 31.656C570.733 32.488 573.293 33.608 575.597 35.016C577.901 36.424 579.757 38.28 581.165 40.584C582.637 42.888 583.373 45.8 583.373 49.32C583.373 53.096 582.317 56.552 580.205 59.688C578.093 62.824 574.925 65.352 570.701 67.272C566.541 69.192 561.261 70.152 554.861 70.152Z" fill="white"/>
</g>
<defs>
<filter id="filter0_d_134_501" x="0.967773" y="0.647949" width="589.405" height="83.5039" filterUnits="userSpaceOnUse" color-interpolation-filters="sRGB">
<feFlood flood-opacity="0" result="BackgroundImageFix"/>
<feColorMatrix in="SourceAlpha" type="matrix" values="0 0 0 0 0 0 0 0 0 0 0 0 0 0 0 0 0 0 127 0" result="hardAlpha"/>
<feOffset dx="3" dy="10"/>
<feGaussianBlur stdDeviation="2"/>
<feComposite in2="hardAlpha" operator="out"/>
<feColorMatrix type="matrix" values="0 0 0 0 0 0 0 0 0 0 0 0 0 0 0 0 0 0 0.25 0"/>
<feBlend mode="normal" in2="BackgroundImageFix" result="effect1_dropShadow_134_501"/>
<feBlend mode="normal" in="SourceGraphic" in2="effect1_dropShadow_134_501" result="shape"/>
</filter>
</defs>
</svg>
