<svg width="1366" height="2516" viewBox="0 0 1366 2516" fill="none" xmlns="http://www.w3.org/2000/svg">
<path d="M725.742 593.588C734.984 577.091 729.102 556.226 712.605 546.984C696.108 537.742 675.243 543.624 666.002 560.121C656.76 576.618 662.642 597.483 679.138 606.725C695.635 615.966 716.501 610.085 725.742 593.588Z" fill="#FF4B35"/>
<path d="M716.258 559.872C706.876 548.604 690.136 547.076 678.869 556.458C667.602 565.841 666.073 582.58 675.456 593.848C684.838 605.115 701.578 606.643 712.845 597.261C724.113 587.879 725.641 571.139 716.258 559.872Z" fill="white"/>
<path d="M712.751 577.725C713.223 568.408 706.053 560.473 696.736 560.001C687.419 559.53 679.484 566.7 679.012 576.017C678.541 585.333 685.711 593.268 695.028 593.74C704.344 594.212 712.28 587.042 712.751 577.725Z" fill="#FF4B35"/>
<path d="M702.623 583.653C706.376 579.926 706.398 573.862 702.672 570.108C698.945 566.355 692.881 566.333 689.127 570.059C685.373 573.786 685.351 579.85 689.078 583.604C692.805 587.358 698.869 587.38 702.623 583.653Z" fill="white"/>
<path d="M699.912 577.265C699.687 579.495 697.697 581.119 695.467 580.894C693.236 580.669 691.612 578.679 691.837 576.448C692.062 574.218 694.053 572.594 696.283 572.819C698.513 573.044 700.138 575.035 699.912 577.265Z" fill="#FF4B35"/>
<g filter="url(#filter0_d_366_9)">
<path d="M535.48 980V935.2H545.912L564.472 965.664H558.968L577.016 935.2H587.448L587.576 980H575.928L575.8 952.928H577.784L564.28 975.584H558.648L544.76 952.928H547.192V980H535.48ZM596.542 980V935.2H609.214V980H596.542ZM633.974 980.896C630.305 980.896 626.763 980.448 623.35 979.552C619.979 978.613 617.227 977.419 615.094 975.968L619.254 966.624C621.259 967.904 623.563 968.971 626.166 969.824C628.811 970.635 631.435 971.04 634.038 971.04C635.787 971.04 637.195 970.891 638.262 970.592C639.329 970.251 640.097 969.824 640.566 969.312C641.078 968.757 641.334 968.117 641.334 967.392C641.334 966.368 640.865 965.557 639.926 964.96C638.987 964.363 637.771 963.872 636.278 963.488C634.785 963.104 633.121 962.72 631.286 962.336C629.494 961.952 627.681 961.461 625.846 960.864C624.054 960.267 622.411 959.499 620.918 958.56C619.425 957.579 618.209 956.32 617.27 954.784C616.331 953.205 615.862 951.221 615.862 948.832C615.862 946.144 616.587 943.712 618.038 941.536C619.531 939.36 621.75 937.611 624.694 936.288C627.638 934.965 631.307 934.304 635.702 934.304C638.646 934.304 641.526 934.645 644.342 935.328C647.201 935.968 649.739 936.928 651.958 938.208L648.054 947.616C645.921 946.464 643.809 945.611 641.718 945.056C639.627 944.459 637.601 944.16 635.638 944.16C633.889 944.16 632.481 944.352 631.414 944.736C630.347 945.077 629.579 945.547 629.11 946.144C628.641 946.741 628.406 947.424 628.406 948.192C628.406 949.173 628.854 949.963 629.75 950.56C630.689 951.115 631.905 951.584 633.398 951.968C634.934 952.309 636.598 952.672 638.39 953.056C640.225 953.44 642.038 953.931 643.83 954.528C645.665 955.083 647.329 955.851 648.822 956.832C650.315 957.771 651.51 959.029 652.406 960.608C653.345 962.144 653.814 964.085 653.814 966.432C653.814 969.035 653.067 971.445 651.574 973.664C650.123 975.84 647.926 977.589 644.982 978.912C642.081 980.235 638.411 980.896 633.974 980.896ZM675.411 980.896C671.742 980.896 668.201 980.448 664.787 979.552C661.417 978.613 658.665 977.419 656.531 975.968L660.691 966.624C662.697 967.904 665.001 968.971 667.603 969.824C670.249 970.635 672.873 971.04 675.475 971.04C677.225 971.04 678.633 970.891 679.699 970.592C680.766 970.251 681.534 969.824 682.003 969.312C682.515 968.757 682.771 968.117 682.771 967.392C682.771 966.368 682.302 965.557 681.363 964.96C680.425 964.363 679.209 963.872 677.715 963.488C676.222 963.104 674.558 962.72 672.723 962.336C670.931 961.952 669.118 961.461 667.283 960.864C665.491 960.267 663.849 959.499 662.355 958.56C660.862 957.579 659.646 956.32 658.707 954.784C657.769 953.205 657.299 951.221 657.299 948.832C657.299 946.144 658.025 943.712 659.475 941.536C660.969 939.36 663.187 937.611 666.131 936.288C669.075 934.965 672.745 934.304 677.139 934.304C680.083 934.304 682.963 934.645 685.779 935.328C688.638 935.968 691.177 936.928 693.395 938.208L689.491 947.616C687.358 946.464 685.246 945.611 683.155 945.056C681.065 944.459 679.038 944.16 677.075 944.16C675.326 944.16 673.918 944.352 672.851 944.736C671.785 945.077 671.017 945.547 670.547 946.144C670.078 946.741 669.843 947.424 669.843 948.192C669.843 949.173 670.291 949.963 671.187 950.56C672.126 951.115 673.342 951.584 674.835 951.968C676.371 952.309 678.035 952.672 679.827 953.056C681.662 953.44 683.475 953.931 685.267 954.528C687.102 955.083 688.766 955.851 690.259 956.832C691.753 957.771 692.947 959.029 693.843 960.608C694.782 962.144 695.251 964.085 695.251 966.432C695.251 969.035 694.505 971.445 693.011 973.664C691.561 975.84 689.363 977.589 686.419 978.912C683.518 980.235 679.849 980.896 675.411 980.896ZM701.105 980V935.2H713.777V980H701.105ZM745.384 980.896C741.8 980.896 738.494 980.32 735.464 979.168C732.435 978.016 729.79 976.395 727.528 974.304C725.31 972.171 723.582 969.696 722.344 966.88C721.107 964.064 720.488 960.971 720.488 957.6C720.488 954.229 721.107 951.136 722.344 948.32C723.582 945.504 725.31 943.051 727.528 940.96C729.79 938.827 732.435 937.184 735.464 936.032C738.494 934.88 741.8 934.304 745.384 934.304C749.011 934.304 752.318 934.88 755.304 936.032C758.334 937.184 760.958 938.827 763.176 940.96C765.395 943.051 767.123 945.504 768.36 948.32C769.64 951.136 770.28 954.229 770.28 957.6C770.28 960.971 769.64 964.085 768.36 966.944C767.123 969.76 765.395 972.213 763.176 974.304C760.958 976.395 758.334 978.016 755.304 979.168C752.318 980.32 749.011 980.896 745.384 980.896ZM745.384 970.4C747.091 970.4 748.67 970.101 750.12 969.504C751.614 968.907 752.894 968.053 753.96 966.944C755.07 965.792 755.923 964.427 756.52 962.848C757.16 961.269 757.48 959.52 757.48 957.6C757.48 955.637 757.16 953.888 756.52 952.352C755.923 950.773 755.07 949.429 753.96 948.32C752.894 947.168 751.614 946.293 750.12 945.696C748.67 945.099 747.091 944.8 745.384 944.8C743.678 944.8 742.078 945.099 740.584 945.696C739.134 946.293 737.854 947.168 736.744 948.32C735.678 949.429 734.824 950.773 734.184 952.352C733.587 953.888 733.288 955.637 733.288 957.6C733.288 959.52 733.587 961.269 734.184 962.848C734.824 964.427 735.678 965.792 736.744 966.944C737.854 968.053 739.134 968.907 740.584 969.504C742.078 970.101 743.678 970.4 745.384 970.4ZM776.917 980V935.2H787.349L812.053 965.024H807.125V935.2H819.541V980H809.109L784.405 950.176H789.333V980H776.917Z" fill="white" fill-opacity="0.66" shape-rendering="crispEdges"/>
</g>
<path d="M666.445 1032.11L683.405 930.203L699.305 896.232C701.425 899.23 707.997 930.602 717.325 1032.11C726.866 1010.13 744.886 1040.11 754.426 1032.11C763.966 1024.12 784.106 1011.13 810.607 1024.12C827.567 989.151 842.407 992.149 869.967 1017.13C882.687 994.147 914.488 992.149 962.188 1017.13C1005.65 987.153 1009.89 1011.13 1028.97 1024.12C1037.45 1000.14 1078.79 1005.14 1105.29 1011.13C1105.29 967.17 1143.45 961.509 1162.53 964.173C1168.18 949.186 1185.21 913.417 1208.11 890.237C1236.73 861.263 1292.91 887.24 1311.99 905.224C1360.75 861.263 1383.01 898.23 1401.03 913.217C1646.11 674.226 1523.64 960.843 1431.77 1134.02L-19.3832 1163C-67.0837 1124.7 -143.193 1021.12 -66.0237 913.217C30.4374 778.335 105.698 915.216 133.259 939.195C185.199 886.241 196.859 966.171 239.26 984.156C275.3 952.183 283.78 979.16 304.98 966.171C326.181 953.183 360.101 1012.13 392.961 992.149C425.821 972.166 448.082 1001.14 469.282 1024.12C500.023 991.15 537.123 1018.13 548.783 1032.11C567.863 1012.13 599.663 1031.11 612.383 1040.11C642.064 1000.14 655.138 1015.46 666.445 1032.11Z" fill="#D9D9D9"/>
<path d="M661.184 1090.13L678.138 988.24L694.033 954.275C696.152 957.272 702.722 988.639 712.047 1090.13C721.584 1068.16 739.598 1098.13 749.135 1090.13C758.672 1082.14 778.805 1069.16 805.296 1082.14C822.251 1047.18 837.086 1050.18 864.637 1075.15C877.352 1052.17 909.142 1050.18 956.826 1075.15C1000.27 1045.18 1004.51 1069.16 1023.58 1082.14C1032.06 1058.17 1073.39 1063.16 1099.88 1069.16C1099.88 1025.2 1138.03 1019.54 1157.1 1022.2C1162.75 1007.22 1179.78 971.457 1202.67 948.281C1231.28 919.311 1287.44 945.284 1306.51 963.265C1355.26 919.311 1377.51 956.273 1395.52 971.257C1640.51 732.303 1535.97 1018.58 1444.13 1191.73L-24.4108 1221C-72.0951 1182.71 -148.178 1079.15 -71.0354 971.257C25.3928 836.396 100.628 973.255 128.179 997.23C180.102 944.285 191.758 1024.2 234.144 1042.18C270.172 1010.22 278.649 1037.19 299.842 1024.2C321.035 1011.22 354.944 1070.16 387.793 1050.18C420.642 1030.2 442.895 1059.17 464.088 1082.14C494.818 1049.18 531.906 1076.15 543.562 1090.13C562.636 1070.16 594.425 1089.14 607.141 1098.13C636.811 1058.17 649.88 1073.49 661.184 1090.13Z" fill="#F4F0F0"/>
<path d="M676.218 818.063L649.312 843.927L668.177 923.155C668.177 923.155 668.38 866.978 693.121 851.321L676.218 818.063Z" fill="#FF4B35"/>
<path d="M714.269 820.149L740.987 846.207L721.549 925.296C721.549 925.296 721.752 869.119 697.126 853.283L714.269 820.149Z" fill="#FF4B35"/>
<path d="M675.99 841.264C677.005 848.582 679.891 855.069 683.046 861.536C685.845 857.36 689.169 853.822 693.122 851.32L676.803 819.212C674.607 826.518 674.92 833.557 675.99 841.264Z" fill="#DD2C1F"/>
<path d="M707.84 864.682C708.225 863.645 708.612 862.61 709.015 861.579C711.194 856.013 713.32 850.379 714.3 844.455C715.494 837.243 714.535 830.08 712.742 823.099L697.124 853.283C701.403 856.033 704.93 860.003 707.84 864.682Z" fill="#DD2C1F"/>
<path d="M717.883 762.494C717.667 822.08 707.201 870.343 694.51 870.296C681.82 870.25 671.704 821.913 671.92 762.327C671.984 744.708 672.95 728.088 674.587 713.411C678.518 678.428 686.355 654.492 695.293 654.524C704.23 654.556 711.893 678.549 715.572 713.559C717.101 728.248 717.947 744.874 717.883 762.494Z" fill="#3689A3"/>
<path d="M715.57 713.557C717.099 728.249 717.946 744.878 717.882 762.498C717.668 821.45 704.104 869.844 691.58 870.799L698.582 655.648C706.088 660.748 712.35 682.943 715.57 713.557Z" fill="#266A7A"/>
<path d="M717.306 784.836C717.656 777.626 717.856 770.156 717.883 762.494C717.947 744.874 717.101 728.248 715.571 713.56C715.426 712.186 715.274 710.837 715.118 709.498L675.07 709.353C674.904 710.69 674.741 712.039 674.587 713.411C672.951 728.088 671.984 744.708 671.92 762.327C671.892 769.99 672.038 777.461 672.335 784.672L717.306 784.836Z" fill="#FFFAF3"/>
<path opacity="0.38" d="M696.928 709.505C696.589 710.144 695.162 784.056 694.184 785.026L717.305 784.836C717.654 777.626 717.855 770.156 717.882 762.494C717.946 744.874 717.099 728.248 715.57 713.56C715.425 712.186 715.273 710.837 715.117 709.498L696.928 709.505Z" fill="#64DDD7"/>
<path d="M673.284 800.635C673.451 802.793 673.628 804.931 673.823 807.021L715.656 807.173C715.866 805.084 716.059 802.948 716.241 800.791L673.284 800.635Z" fill="#08374E"/>
<path d="M708.343 848.854C711.213 838.9 713.588 825.955 715.251 811.002L674.2 810.853C675.754 825.818 678.036 838.779 680.832 848.755L708.343 848.854Z" fill="#08374E"/>
<path d="M681.981 852.589C685.557 863.759 689.859 870.28 694.51 870.296C699.162 870.313 703.511 863.825 707.168 852.68L681.981 852.589Z" fill="#08374E"/>
<path d="M712.715 692.891C708.582 669.453 702.333 654.55 695.292 654.524C688.252 654.499 681.895 669.356 677.592 692.764L712.715 692.891Z" fill="#FF4B35"/>
<path opacity="0.49" d="M707.514 756.645C714.845 749.367 714.888 737.524 707.61 730.193C700.332 722.861 688.488 722.818 681.157 730.097C673.826 737.375 673.783 749.218 681.061 756.55C688.34 763.881 700.183 763.924 707.514 756.645Z" fill="#18668E"/>
<path d="M705.784 743.358C705.782 737.028 700.649 731.898 694.319 731.9C687.989 731.902 682.859 737.035 682.861 743.365C682.863 749.696 687.996 754.825 694.326 754.823C700.657 754.821 705.786 749.688 705.784 743.358Z" fill="#0F314A"/>
<path d="M700.605 743.394C700.593 746.856 697.776 749.653 694.313 749.64C690.851 749.628 688.054 746.811 688.067 743.348C688.079 739.885 690.896 737.089 694.359 737.101C697.821 737.115 700.618 739.932 700.605 743.394Z" fill="#FFC931"/>
<path d="M695.272 749.575C697.791 749.355 700.592 746.812 700.605 743.394C700.616 740.406 698.532 737.909 695.736 737.271C695.616 740.007 695.422 748.172 695.272 749.575Z" fill="#FF7C33"/>
<path d="M706.637 910.137C706.691 895.218 701.341 883.104 694.689 883.08C688.035 883.056 682.355 895.14 682.544 910.05C682.689 921.49 694.148 979.325 694.148 979.325L694.314 980.224L694.488 979.325L705.105 924.396C705.838 920.599 706.344 916.594 706.559 912.491C706.606 911.637 706.635 910.826 706.637 910.137Z" fill="url(#paint0_linear_366_9)"/>
<path d="M704.52 902.339C704.564 890.185 700.614 880.318 695.696 880.3C690.778 880.283 686.577 890.128 686.713 902.275C686.816 911.594 695.271 958.706 695.271 958.706L695.394 959.439L695.523 958.706L703.385 913.956C703.928 910.863 704.304 907.6 704.464 904.257C704.496 903.562 704.518 902.902 704.52 902.339Z" fill="#DD2C1F"/>
<path d="M702.54 898.055C702.575 888.263 699.064 880.313 694.697 880.297C690.331 880.281 686.603 888.213 686.726 897.998C686.821 905.506 694.342 943.464 694.342 943.464L694.452 944.054L694.565 943.465L701.533 907.414C702.015 904.922 702.347 902.294 702.488 899.6C702.519 899.039 702.538 898.508 702.54 898.055Z" fill="#FCB302"/>
<path d="M694.31 661.543C693.783 661.541 693.354 661.109 693.356 660.582L693.453 633.77C693.455 633.243 693.888 632.814 694.414 632.816C694.941 632.818 695.37 633.25 695.368 633.777L695.271 660.589C695.269 661.116 694.836 661.545 694.31 661.543Z" fill="#FF4B35"/>
<path d="M696.98 633.836C698.495 632.332 698.504 629.884 697 628.369C695.496 626.855 693.048 626.846 691.533 628.35C690.018 629.854 690.009 632.301 691.513 633.816C693.017 635.331 695.465 635.34 696.98 633.836Z" fill="#FF4B35"/>
<path d="M697.447 692.834L712.715 692.891C708.755 670.436 702.853 655.824 696.173 654.615C696.259 667.354 697.678 680.109 697.447 692.834Z" fill="#DD2C1F"/>
<path d="M686.442 670.902C684.939 675.652 682.899 682.964 682.35 687.925" stroke="#FFFAF3" stroke-width="1.247" stroke-miterlimit="10" stroke-linecap="round" stroke-linejoin="round"/>
<path d="M690.233 661.114C689.652 662.439 689.108 663.78 688.582 665.128" stroke="#FFFAF3" stroke-width="1.247" stroke-miterlimit="10" stroke-linecap="round" stroke-linejoin="round"/>
<path opacity="0.6" d="M694.338 868.061L695.609 820.798C695.609 820.798 712.987 840.785 701.632 864.927C701.632 864.927 696.658 872.329 695.285 872.049C693.912 871.769 694.338 868.061 694.338 868.061Z" fill="#051E28"/>
<path d="M693.875 875.124C691.784 875.117 690.08 873.4 690.088 871.309L690.267 821.746C690.275 819.656 691.992 817.951 694.082 817.959C696.173 817.967 697.878 819.684 697.87 821.774L697.69 871.337C697.683 873.427 695.966 875.132 693.875 875.124Z" fill="#DB3C27"/>
<path d="M779.517 722.504L781.478 844.599L761.655 844.527L761.041 722.437L779.517 722.504Z" fill="#153049"/>
<path d="M747.547 725.26L793.455 723.799L770.288 690.825L747.547 725.26Z" fill="#153049"/>
<path d="M624.43 726.672L626.391 848.767L606.567 848.695L605.953 726.605L624.43 726.672Z" fill="#153049"/>
<path d="M592.46 729.428L638.368 727.967L615.2 694.993L592.46 729.428Z" fill="#153049"/>
<path d="M805.539 748.506L804.857 825.641L792.479 825.828L794.003 748.68L805.539 748.506Z" fill="#0768A3"/>
<path d="M785.544 750.599L814.228 749.15L800.147 728.837L785.544 750.599Z" fill="#0768A3"/>
<path d="M585.75 751.662L585.068 828.797L572.689 828.984L574.214 751.836L585.75 751.662Z" fill="#0768A3"/>
<path d="M565.755 753.755L594.439 752.307L580.358 731.993L565.755 753.755Z" fill="#0768A3"/>
<rect x="-8" y="1170" width="1374" height="942" fill="#F4F0F0"/>
<g clip-path="url(#clip0_366_9)">
<g filter="url(#filter1_d_366_9)">
<path d="M1100.07 1317.31C1028.52 1266.56 929.362 1283.39 878.584 1354.9C851.727 1392.7 843.8 1438.23 852.846 1480.25L852.753 1480.2C854.175 1487.12 852.823 1494.6 848.393 1500.85C839.93 1512.78 823.377 1515.57 811.441 1507.12C810.298 1506.32 809.296 1505.41 808.317 1504.48C804.726 1500.52 800.903 1496.7 796.869 1493.06V1493.16C768.706 1467.8 731.427 1452.35 690.558 1452.35C644.42 1452.35 602.875 1472.04 573.849 1503.43V1503.34C573.663 1503.53 573.499 1503.71 573.336 1503.88C568.51 1508.84 561.796 1511.92 554.335 1511.92C539.694 1511.92 527.828 1500.05 527.828 1485.42C527.828 1483.39 528.061 1481.44 528.48 1479.55C528.434 1479.57 528.387 1479.59 528.341 1479.62C530.532 1469.11 531.698 1458.23 531.698 1447.09C531.721 1359.38 460.591 1288.3 372.861 1288.3C285.131 1288.3 214 1359.38 214 1447.09C214 1534.8 285.131 1605.87 372.861 1605.87C419.255 1605.87 460.964 1586 490.013 1554.3V1554.4C494.862 1549.22 501.739 1546.01 509.386 1546.01C524.027 1546.01 535.894 1557.87 535.894 1572.5C535.894 1573.9 535.754 1575.25 535.545 1576.58C533.073 1587.72 531.721 1599.28 531.721 1611.16C531.721 1698.85 602.852 1769.95 690.582 1769.95C778.312 1769.95 849.442 1698.85 849.442 1611.16C849.442 1599.37 848.113 1587.88 845.665 1576.81C844.593 1570.2 845.992 1563.16 850.188 1557.24C858.651 1545.31 875.204 1542.51 887.141 1550.97C888.796 1552.14 890.265 1553.46 891.547 1554.91C891.547 1554.86 891.547 1554.79 891.547 1554.75C898.844 1562.6 907.051 1569.85 916.143 1576.3C987.693 1627.05 1086.85 1610.23 1137.62 1538.71C1188.4 1467.2 1171.57 1368.09 1100.02 1317.34L1100.07 1317.31Z" fill="url(#paint1_linear_366_9)"/>
<path d="M372.861 1561.67C436.171 1561.67 487.495 1510.37 487.495 1447.09C487.495 1383.81 436.171 1332.51 372.861 1332.51C309.55 1332.51 258.227 1383.81 258.227 1447.09C258.227 1510.37 309.55 1561.67 372.861 1561.67Z" fill="url(#paint2_linear_366_9)"/>
<path d="M372.184 1793.34V1524.2H366.1V1793.32C363.372 1794.48 361.483 1797.19 361.483 1800.33C361.483 1804.55 364.911 1807.98 369.13 1807.98C373.35 1807.98 376.777 1804.55 376.777 1800.33C376.777 1797.19 374.866 1794.48 372.161 1793.32L372.184 1793.34Z" fill="url(#paint3_linear_366_9)"/>
<path d="M370.669 1531.28C418.696 1531.28 457.63 1492.37 457.63 1444.36C457.63 1396.36 418.696 1357.44 370.669 1357.44C322.642 1357.44 283.708 1396.36 283.708 1444.36C283.708 1492.37 322.642 1531.28 370.669 1531.28Z" fill="white"/>
<path d="M370.669 1537.36C418.696 1537.36 457.63 1498.45 457.63 1450.44C457.63 1402.44 418.696 1363.52 370.669 1363.52C322.642 1363.52 283.708 1402.44 283.708 1450.44C283.708 1498.45 322.642 1537.36 370.669 1537.36Z" fill="#D7DBFF"/>
<path d="M370.669 1534.01C418.696 1534.01 457.63 1495.09 457.63 1447.09C457.63 1399.08 418.696 1360.17 370.669 1360.17C322.642 1360.17 283.708 1399.08 283.708 1447.09C283.708 1495.09 322.642 1534.01 370.669 1534.01Z" fill="#F8F8FF"/>
<path d="M690.581 1725.7C753.892 1725.7 805.216 1674.4 805.216 1611.12C805.216 1547.84 753.892 1496.54 690.581 1496.54C627.271 1496.54 575.947 1547.84 575.947 1611.12C575.947 1674.4 627.271 1725.7 690.581 1725.7Z" fill="url(#paint4_linear_366_9)"/>
<path d="M691.421 1793.34V1692.42H685.336V1793.34C682.608 1794.51 680.72 1797.21 680.72 1800.36C680.72 1804.57 684.147 1808 688.367 1808C692.586 1808 696.014 1804.57 696.014 1800.36C696.014 1797.21 694.102 1794.51 691.397 1793.34H691.421Z" fill="url(#paint5_linear_366_9)"/>
<path d="M688.39 1695.33C736.417 1695.33 775.35 1656.42 775.35 1608.41C775.35 1560.41 736.417 1521.49 688.39 1521.49C640.363 1521.49 601.429 1560.41 601.429 1608.41C601.429 1656.42 640.363 1695.33 688.39 1695.33Z" fill="white"/>
<path d="M688.39 1698.03C736.417 1698.03 775.35 1659.12 775.35 1611.12C775.35 1563.11 736.417 1524.2 688.39 1524.2C640.363 1524.2 601.429 1563.11 601.429 1611.12C601.429 1659.12 640.363 1698.03 688.39 1698.03Z" fill="#F8F8FF"/>
<path d="M1008.3 1561.67C1071.61 1561.67 1122.94 1510.37 1122.94 1447.09C1122.94 1383.81 1071.61 1332.51 1008.3 1332.51C944.992 1332.51 893.668 1383.81 893.668 1447.09C893.668 1510.37 944.992 1561.67 1008.3 1561.67Z" fill="url(#paint6_linear_366_9)"/>
<path d="M1010.66 1793.34V1528.95H1004.57V1793.32C1001.84 1794.48 999.956 1797.19 999.956 1800.33C999.956 1804.55 1003.38 1807.98 1007.6 1807.98C1011.82 1807.98 1015.25 1804.55 1015.25 1800.33C1015.25 1797.19 1013.34 1794.48 1010.63 1793.32L1010.66 1793.34Z" fill="url(#paint7_linear_366_9)"/>
<path d="M1006.11 1531.28C1054.14 1531.28 1093.07 1492.37 1093.07 1444.36C1093.07 1396.36 1054.14 1357.44 1006.11 1357.44C958.084 1357.44 919.15 1396.36 919.15 1444.36C919.15 1492.37 958.084 1531.28 1006.11 1531.28Z" fill="white"/>
<path d="M1006.11 1537.36C1054.14 1537.36 1093.07 1498.45 1093.07 1450.44C1093.07 1402.44 1054.14 1363.52 1006.11 1363.52C958.084 1363.52 919.15 1402.44 919.15 1450.44C919.15 1498.45 958.084 1537.36 1006.11 1537.36Z" fill="#D7DBFF"/>
<path d="M1006.11 1534.01C1054.14 1534.01 1093.07 1495.09 1093.07 1447.09C1093.07 1399.08 1054.14 1360.17 1006.11 1360.17C958.084 1360.17 919.15 1399.08 919.15 1447.09C919.15 1495.09 958.084 1534.01 1006.11 1534.01Z" fill="#F8F8FF"/>
<path d="M1043.81 1478.72L1026.16 1447.04C1025.88 1446.52 1025.33 1446.24 1024.71 1446.21C1024.13 1446.21 1023.57 1446.58 1023.32 1447.1L1017.21 1459.59L999.101 1426.78V1420.84H1016.75C1017.4 1420.84 1017.98 1420.44 1018.23 1419.86C1018.48 1419.29 1018.36 1418.59 1017.89 1418.13L1012.62 1412.92L1017.89 1407.71C1018.36 1407.25 1018.48 1406.58 1018.23 1405.97C1017.98 1405.4 1017.4 1405 1016.75 1405H997.497C996.602 1405 995.892 1405.7 995.892 1406.58V1426.78L967.197 1478.68C966.919 1479.17 966.95 1479.78 967.197 1480.24C967.444 1480.7 967.999 1481 968.585 1481H1042.39C1042.95 1481 1043.47 1480.7 1043.78 1480.21C1044.06 1479.72 1044.09 1479.14 1043.78 1478.65L1043.81 1478.72ZM997.466 1430.53L1005.67 1445.39L1002.46 1448.56L998.762 1443.69C998.145 1442.89 996.787 1442.89 996.201 1443.69L992.498 1448.56L989.289 1445.39L997.497 1430.53H997.466Z" fill="#000054"/>
<path d="M352.852 1481.42V1470.58C351.722 1459.3 338.375 1453.25 338.375 1435.92C338.375 1418.59 348.715 1405.37 369.398 1405.58C384.288 1405.74 398.352 1414.25 398.352 1431.59L406.625 1444.58C406.625 1453.25 398.352 1453.25 398.352 1453.25C398.352 1453.25 400.422 1474.92 381.805 1474.92V1481.42" stroke="#000054" stroke-width="6" stroke-linecap="round" stroke-linejoin="round"/>
<path d="M368.708 1443.5C370.72 1443.5 372.648 1442.7 374.071 1441.28C375.493 1439.86 376.292 1437.93 376.292 1435.92C376.292 1433.91 375.493 1431.98 374.071 1430.55C372.648 1429.13 370.72 1428.33 368.708 1428.33C366.697 1428.33 364.768 1429.13 363.346 1430.55C361.924 1431.98 361.125 1433.91 361.125 1435.92C361.125 1437.93 361.924 1439.86 363.346 1441.28C364.768 1442.7 366.697 1443.5 368.708 1443.5Z" stroke="#000054" stroke-width="6" stroke-linecap="round" stroke-linejoin="round"/>
<path d="M368.708 1447.29C371.725 1447.29 374.619 1446.09 376.752 1443.96C378.885 1441.83 380.083 1438.93 380.083 1435.92C380.083 1432.9 378.885 1430.01 376.752 1427.87C374.619 1425.74 371.725 1424.54 368.708 1424.54C365.692 1424.54 362.798 1425.74 360.665 1427.87C358.532 1430.01 357.333 1432.9 357.333 1435.92C357.333 1438.93 358.532 1441.83 360.665 1443.96C362.798 1446.09 365.692 1447.29 368.708 1447.29Z" stroke="#000054" stroke-width="6" stroke-linecap="round" stroke-linejoin="round"/>
</g>
<path d="M681.92 1556.81L676.292 1561.5L681.92 1566.19C682.107 1566.34 682.261 1566.53 682.375 1566.74C682.488 1566.96 682.558 1567.19 682.581 1567.43C682.604 1567.67 682.579 1567.91 682.508 1568.14C682.436 1568.37 682.32 1568.59 682.166 1568.77C682.011 1568.96 681.822 1569.11 681.608 1569.22C681.394 1569.33 681.16 1569.4 680.92 1569.42C680.679 1569.45 680.437 1569.42 680.207 1569.35C679.977 1569.27 679.764 1569.15 679.58 1569L672.267 1562.9C672.061 1562.73 671.896 1562.52 671.782 1562.28C671.668 1562.03 671.609 1561.77 671.609 1561.5C671.609 1561.23 671.668 1560.97 671.782 1560.72C671.896 1560.48 672.061 1560.27 672.267 1560.1L679.58 1554C679.953 1553.7 680.432 1553.55 680.912 1553.6C681.392 1553.64 681.835 1553.87 682.143 1554.25C682.452 1554.62 682.602 1555.09 682.56 1555.57C682.518 1556.05 682.288 1556.5 681.92 1556.81ZM708.732 1560.1L701.42 1554C701.236 1553.85 701.023 1553.73 700.793 1553.65C700.563 1553.58 700.32 1553.55 700.08 1553.58C699.84 1553.6 699.606 1553.66 699.392 1553.78C699.178 1553.89 698.988 1554.04 698.834 1554.23C698.68 1554.41 698.563 1554.63 698.492 1554.86C698.421 1555.09 698.396 1555.33 698.419 1555.57C698.442 1555.81 698.512 1556.04 698.625 1556.26C698.739 1556.47 698.893 1556.66 699.08 1556.81L704.707 1561.5L699.08 1566.19C698.893 1566.34 698.739 1566.53 698.625 1566.74C698.512 1566.96 698.442 1567.19 698.419 1567.43C698.396 1567.67 698.421 1567.91 698.492 1568.14C698.563 1568.37 698.68 1568.59 698.834 1568.77C698.988 1568.96 699.178 1569.11 699.392 1569.22C699.606 1569.33 699.84 1569.4 700.08 1569.42C700.32 1569.45 700.563 1569.42 700.793 1569.35C701.023 1569.27 701.236 1569.15 701.42 1569L708.732 1562.9C708.938 1562.73 709.104 1562.52 709.218 1562.28C709.331 1562.03 709.39 1561.77 709.39 1561.5C709.39 1561.23 709.331 1560.97 709.218 1560.72C709.104 1560.48 708.938 1560.27 708.732 1560.1ZM696 1546.38C695.774 1546.29 695.534 1546.26 695.294 1546.27C695.054 1546.28 694.819 1546.34 694.601 1546.44C694.384 1546.54 694.188 1546.68 694.026 1546.86C693.864 1547.04 693.738 1547.24 693.656 1547.47L683.906 1574.28C683.741 1574.74 683.764 1575.24 683.969 1575.68C684.174 1576.12 684.545 1576.46 685 1576.62C685.2 1576.7 685.412 1576.73 685.625 1576.73C686 1576.73 686.367 1576.62 686.674 1576.4C686.981 1576.19 687.215 1575.88 687.343 1575.53L697.093 1548.72C697.175 1548.49 697.212 1548.25 697.202 1548.01C697.191 1547.77 697.133 1547.54 697.032 1547.32C696.93 1547.1 696.787 1546.91 696.61 1546.74C696.433 1546.58 696.225 1546.46 696 1546.38Z" fill="#000054"/>
<path d="M684.913 1661.04C684.732 1661.76 684.315 1662.41 683.727 1662.87C683.14 1663.32 682.415 1663.57 681.67 1663.57C681.388 1663.58 681.107 1663.54 680.834 1663.47L667.459 1660.13C667.086 1660.04 666.733 1659.88 666.414 1659.67L656.383 1652.98C655.645 1652.49 655.133 1651.72 654.959 1650.85C654.786 1649.98 654.965 1649.08 655.457 1648.34C655.949 1647.6 656.714 1647.09 657.584 1646.92C658.453 1646.74 659.356 1646.92 660.094 1647.42L669.641 1653.78L682.455 1656.99C682.884 1657.09 683.287 1657.28 683.643 1657.54C683.998 1657.8 684.299 1658.13 684.527 1658.5C684.755 1658.88 684.907 1659.3 684.973 1659.73C685.04 1660.17 685.019 1660.61 684.913 1661.04ZM740.373 1620.72C740.099 1621.56 739.662 1622.33 739.088 1622.99C738.514 1623.66 737.815 1624.2 737.03 1624.59L727.132 1629.54L704.11 1652.57C703.702 1652.97 703.194 1653.27 702.638 1653.42C702.081 1653.58 701.494 1653.58 700.934 1653.44L674.184 1646.76C673.777 1646.65 673.393 1646.48 673.051 1646.23L649.846 1629.66L639.697 1624.59C638.111 1623.8 636.905 1622.41 636.344 1620.73C635.783 1619.04 635.912 1617.21 636.705 1615.62L647.091 1594.85C647.884 1593.27 649.274 1592.06 650.956 1591.5C652.638 1590.94 654.474 1591.07 656.061 1591.86L665.281 1596.46L687.433 1590.13C688.034 1589.96 688.672 1589.96 689.273 1590.13L711.425 1596.46L720.645 1591.86C722.232 1591.07 724.068 1590.94 725.75 1591.5C727.432 1592.06 728.822 1593.27 729.615 1594.85L740.001 1615.62C740.398 1616.4 740.634 1617.26 740.698 1618.14C740.762 1619.01 740.652 1619.89 740.373 1620.72ZM721.072 1626.13L709.699 1603.39H696.399L678.326 1620.94C683.617 1624.32 691.914 1625.26 699.358 1617.75C699.939 1617.17 700.717 1616.82 701.541 1616.77C702.365 1616.72 703.178 1616.98 703.822 1617.5L718.204 1629.02L721.072 1626.13ZM642.686 1618.61L650.08 1622.31L660.466 1601.54L653.072 1597.84L642.686 1618.61ZM713.435 1633.76L701.853 1624.48C693.686 1631.17 683.316 1632.05 674.723 1626.57C673.878 1626.03 673.164 1625.31 672.635 1624.46C672.105 1623.61 671.774 1622.65 671.665 1621.66C671.556 1620.66 671.672 1619.65 672.004 1618.71C672.337 1617.76 672.877 1616.91 673.586 1616.2C673.596 1616.19 673.607 1616.17 673.62 1616.16L692.37 1597.98L688.357 1596.83L667.283 1602.86L655.843 1625.73L676.407 1640.42L700.708 1646.5L713.435 1633.76ZM734.016 1618.61L723.642 1597.84L716.248 1601.54L726.635 1622.31L734.016 1618.61Z" fill="#000054"/>
</g>
<mask id="mask0_366_9" style="mask-type:alpha" maskUnits="userSpaceOnUse" x="-10" y="1996" width="1380" height="520">
<rect x="-10" y="1996" width="1380" height="520" fill="#D9D9D9"/>
</mask>
<g mask="url(#mask0_366_9)">
<path d="M-198.024 2032.73C1728.01 2432.14 2884.08 1001.03 3859.14 1329.38C3112.89 1555.83 2761.77 2140.6 1722.77 2418.31C861.809 2632.51 77.9284 2373.3 -198.144 2032.75L-198.024 2032.73Z" fill="#0078C1"/>
<path d="M1722.91 2418.38C2761.89 2140.58 3113.03 1555.91 3859.28 1329.45C3004.65 1454.03 2548.02 2102.22 1582.23 2249.36C287.423 2446.67 -197.885 2032.81 -197.885 2032.81C78.1875 2373.36 861.947 2632.59 1723.03 2418.36L1722.91 2418.38Z" fill="#0170B3"/>
</g>
<defs>
<filter id="filter0_d_366_9" x="525.48" y="934.304" width="294.062" height="54.592" filterUnits="userSpaceOnUse" color-interpolation-filters="sRGB">
<feFlood flood-opacity="0" result="BackgroundImageFix"/>
<feColorMatrix in="SourceAlpha" type="matrix" values="0 0 0 0 0 0 0 0 0 0 0 0 0 0 0 0 0 0 127 0" result="hardAlpha"/>
<feOffset dx="-6" dy="4"/>
<feGaussianBlur stdDeviation="2"/>
<feComposite in2="hardAlpha" operator="out"/>
<feColorMatrix type="matrix" values="0 0 0 0 0 0 0 0 0 0 0 0 0 0 0 0 0 0 0.25 0"/>
<feBlend mode="normal" in2="BackgroundImageFix" result="effect1_dropShadow_366_9"/>
<feBlend mode="normal" in="SourceGraphic" in2="effect1_dropShadow_366_9" result="shape"/>
</filter>
<filter id="filter1_d_366_9" x="204" y="1288" width="962.949" height="527.995" filterUnits="userSpaceOnUse" color-interpolation-filters="sRGB">
<feFlood flood-opacity="0" result="BackgroundImageFix"/>
<feColorMatrix in="SourceAlpha" type="matrix" values="0 0 0 0 0 0 0 0 0 0 0 0 0 0 0 0 0 0 127 0" result="hardAlpha"/>
<feOffset dx="-6" dy="4"/>
<feGaussianBlur stdDeviation="2"/>
<feComposite in2="hardAlpha" operator="out"/>
<feColorMatrix type="matrix" values="0 0 0 0 0 0 0 0 0 0 0 0 0 0 0 0 0 0 0.25 0"/>
<feBlend mode="normal" in2="BackgroundImageFix" result="effect1_dropShadow_366_9"/>
<feBlend mode="normal" in="SourceGraphic" in2="effect1_dropShadow_366_9" result="shape"/>
</filter>
<linearGradient id="paint0_linear_366_9" x1="682.458" y1="931.608" x2="706.559" y2="931.695" gradientUnits="userSpaceOnUse">
<stop stop-color="#FE6C00"/>
<stop offset="1" stop-color="#FF3F01"/>
</linearGradient>
<linearGradient id="paint1_linear_366_9" x1="19.2128" y1="1705.42" x2="1058.56" y2="1347.51" gradientUnits="userSpaceOnUse">
<stop stop-color="#000054"/>
<stop offset="1" stop-color="#0078C1"/>
</linearGradient>
<linearGradient id="paint2_linear_366_9" x1="373.397" y1="1570.38" x2="372.302" y2="1319.99" gradientUnits="userSpaceOnUse">
<stop offset="0.02" stop-color="#7BB3FF"/>
<stop offset="1" stop-color="#002D50"/>
</linearGradient>
<linearGradient id="paint3_linear_366_9" x1="369.13" y1="1524.2" x2="369.13" y2="1807.98" gradientUnits="userSpaceOnUse">
<stop stop-color="#002B7B"/>
<stop offset="1" stop-color="#0071BB"/>
</linearGradient>
<linearGradient id="paint4_linear_366_9" x1="691.118" y1="1734.43" x2="690.023" y2="1484.05" gradientUnits="userSpaceOnUse">
<stop offset="0.02" stop-color="#0087FF"/>
<stop offset="1"/>
</linearGradient>
<linearGradient id="paint5_linear_366_9" x1="688.367" y1="1692.42" x2="688.367" y2="1808" gradientUnits="userSpaceOnUse">
<stop stop-color="#004593"/>
<stop offset="1" stop-color="#0071BB"/>
</linearGradient>
<linearGradient id="paint6_linear_366_9" x1="1008.84" y1="1570.38" x2="1007.74" y2="1319.99" gradientUnits="userSpaceOnUse">
<stop offset="0.02" stop-color="#0355A0"/>
<stop offset="1" stop-color="#000204"/>
</linearGradient>
<linearGradient id="paint7_linear_366_9" x1="1007.6" y1="1528.95" x2="1007.6" y2="1807.98" gradientUnits="userSpaceOnUse">
<stop stop-color="#0068B3"/>
<stop offset="1" stop-color="#0071BB"/>
</linearGradient>
<clipPath id="clip0_366_9">
<rect width="953" height="520" fill="white" transform="translate(214 1288)"/>
</clipPath>
</defs>
</svg>
