<svg width="1366" height="1297" viewBox="0 0 1366 1297" fill="none" xmlns="http://www.w3.org/2000/svg">
<rect x="-8.00049" y="607.985" width="1396" height="539.342" fill="#F4F0F0"/>
<path d="M725.743 71.9792C734.984 56.6386 729.103 37.236 712.606 28.6422C696.109 20.0484 675.244 25.5177 666.002 40.8583C656.76 56.1988 662.642 75.6014 679.139 84.1952C695.636 92.789 716.501 87.3197 725.743 71.9792Z" fill="#FF4B35"/>
<path d="M716.258 40.6258C706.876 30.1482 690.136 28.7272 678.869 37.4518C667.602 46.1764 666.073 61.7428 675.456 72.2203C684.838 82.6978 701.578 84.1188 712.845 75.3943C724.113 66.6697 725.641 51.1033 716.258 40.6258Z" fill="white"/>
<path d="M712.752 57.2284C713.224 48.5647 706.053 41.1858 696.737 40.7471C687.42 40.3083 679.485 46.976 679.013 55.6396C678.541 64.3033 685.711 71.6822 695.028 72.1209C704.345 72.5597 712.28 65.892 712.752 57.2284Z" fill="#FF4B35"/>
<path d="M702.623 62.7399C706.377 59.2744 706.399 53.6354 702.672 50.1447C698.945 46.654 692.881 46.6336 689.127 50.099C685.374 53.5645 685.352 59.2035 689.078 62.6942C692.805 66.1849 698.869 66.2053 702.623 62.7399Z" fill="white"/>
<path d="M699.913 56.8002C699.688 58.8739 697.697 60.3846 695.467 60.1752C693.237 59.9658 691.612 58.1148 691.838 56.041C692.063 53.9673 694.053 52.4566 696.283 52.666C698.513 52.8754 700.139 54.7269 699.913 56.8002Z" fill="#FF4B35"/>
<g filter="url(#filter0_d_366_9)">
<path d="M535.639 433.359L535.639 390.215L546.443 390.215L565.664 419.553L559.964 419.553L578.655 390.215L589.459 390.215L589.592 433.359L577.529 433.359L577.396 407.288L579.451 407.288L565.466 429.107L559.633 429.107L545.25 407.288L547.769 407.288L547.769 433.359L535.639 433.359ZM598.878 433.359L598.878 390.215L612.001 390.215L612.001 433.359L598.878 433.359ZM637.643 434.222C633.843 434.222 630.176 433.791 626.641 432.928C623.15 432.024 620.3 430.873 618.09 429.476L622.399 420.478C624.475 421.71 626.862 422.738 629.557 423.559C632.297 424.34 635.014 424.731 637.71 424.731C639.521 424.731 640.979 424.587 642.084 424.299C643.189 423.97 643.984 423.559 644.47 423.066C645 422.532 645.266 421.916 645.266 421.217C645.266 420.231 644.779 419.45 643.807 418.875C642.835 418.3 641.576 417.827 640.029 417.458C638.483 417.088 636.76 416.718 634.859 416.348C633.004 415.978 631.126 415.506 629.226 414.931C627.37 414.355 625.669 413.616 624.122 412.712C622.575 411.767 621.316 410.554 620.344 409.075C619.372 407.555 618.886 405.644 618.886 403.343C618.886 400.755 619.637 398.412 621.139 396.317C622.686 394.221 624.984 392.537 628.033 391.263C631.081 389.989 634.882 389.352 639.433 389.352C642.482 389.352 645.464 389.681 648.381 390.338C651.341 390.955 653.97 391.879 656.268 393.112L652.225 402.172C650.016 401.063 647.828 400.241 645.663 399.707C643.498 399.132 641.399 398.844 639.367 398.844C637.555 398.844 636.097 399.029 634.992 399.399C633.887 399.727 633.092 400.179 632.606 400.755C632.12 401.33 631.877 401.987 631.877 402.727C631.877 403.672 632.341 404.432 633.269 405.007C634.241 405.542 635.5 405.994 637.047 406.363C638.637 406.692 640.361 407.041 642.217 407.411C644.117 407.781 645.995 408.253 647.85 408.829C649.751 409.363 651.474 410.103 653.02 411.048C654.567 411.952 655.804 413.164 656.732 414.684C657.704 416.163 658.19 418.033 658.19 420.293C658.19 422.799 657.417 425.121 655.87 427.258C654.368 429.353 652.092 431.038 649.044 432.312C646.039 433.585 642.239 434.222 637.643 434.222ZM680.557 434.222C676.757 434.222 673.09 433.791 669.555 432.928C666.064 432.024 663.214 430.873 661.005 429.476L665.313 420.478C667.39 421.71 669.776 422.738 672.471 423.559C675.211 424.34 677.928 424.731 680.624 424.731C682.435 424.731 683.894 424.587 684.998 424.299C686.103 423.97 686.898 423.559 687.384 423.066C687.915 422.532 688.18 421.916 688.18 421.217C688.18 420.231 687.694 419.45 686.722 418.875C685.749 418.3 684.49 417.827 682.944 417.458C681.397 417.088 679.674 416.718 677.774 416.348C675.918 415.978 674.04 415.506 672.14 414.931C670.284 414.355 668.583 413.616 667.036 412.712C665.49 411.767 664.23 410.554 663.258 409.075C662.286 407.555 661.8 405.644 661.8 403.343C661.8 400.755 662.551 398.412 664.054 396.317C665.6 394.221 667.898 392.537 670.947 391.263C673.996 389.989 677.796 389.352 682.347 389.352C685.396 389.352 688.379 389.681 691.295 390.338C694.255 390.955 696.885 391.879 699.182 393.112L695.139 402.172C692.93 401.063 690.743 400.241 688.577 399.707C686.412 399.132 684.313 398.844 682.281 398.844C680.469 398.844 679.011 399.029 677.906 399.399C676.802 399.727 676.006 400.179 675.52 400.755C675.034 401.33 674.791 401.987 674.791 402.727C674.791 403.672 675.255 404.432 676.183 405.007C677.155 405.542 678.414 405.994 679.961 406.363C681.552 406.692 683.275 407.041 685.131 407.411C687.031 407.781 688.909 408.253 690.765 408.829C692.665 409.363 694.388 410.103 695.935 411.048C697.481 411.952 698.718 413.164 699.646 414.684C700.618 416.163 701.105 418.033 701.105 420.293C701.105 422.799 700.331 425.121 698.785 427.258C697.282 429.353 695.007 431.038 691.958 432.312C688.953 433.585 685.153 434.222 680.557 434.222ZM707.167 433.359L707.167 390.215L720.29 390.215L720.29 433.359L707.167 433.359ZM753.024 434.222C749.312 434.222 745.888 433.668 742.751 432.558C739.613 431.449 736.874 429.887 734.532 427.874C732.234 425.819 730.444 423.436 729.163 420.724C727.882 418.012 727.241 415.033 727.241 411.787C727.241 408.541 727.882 405.562 729.163 402.85C730.444 400.138 732.234 397.776 734.532 395.762C736.874 393.708 739.613 392.126 742.751 391.016C745.888 389.907 749.312 389.352 753.024 389.352C756.78 389.352 760.205 389.907 763.298 391.016C766.435 392.126 769.152 393.708 771.45 395.762C773.748 397.776 775.537 400.138 776.819 402.85C778.145 405.562 778.807 408.541 778.807 411.787C778.807 415.033 778.145 418.033 776.819 420.786C775.538 423.498 773.748 425.86 771.45 427.874C769.152 429.887 766.435 431.449 763.298 432.558C760.205 433.668 756.78 434.222 753.024 434.222ZM753.024 424.114C754.792 424.114 756.427 423.827 757.929 423.251C759.475 422.676 760.801 421.854 761.906 420.786C763.055 419.676 763.938 418.362 764.557 416.841C765.22 415.321 765.551 413.636 765.551 411.787C765.551 409.897 765.22 408.212 764.557 406.733C763.938 405.213 763.055 403.918 761.906 402.85C760.801 401.741 759.475 400.898 757.929 400.323C756.427 399.748 754.792 399.46 753.024 399.46C751.257 399.46 749.6 399.748 748.053 400.323C746.551 400.898 745.225 401.741 744.076 402.85C742.972 403.918 742.088 405.213 741.425 406.733C740.806 408.212 740.497 409.897 740.497 411.787C740.497 413.636 740.806 415.321 741.425 416.841C742.088 418.362 742.972 419.676 744.076 420.786C745.225 421.854 746.551 422.676 748.053 423.251C749.6 423.827 751.257 424.114 753.024 424.114ZM785.681 433.359L785.681 390.215L796.485 390.215L822.069 418.937L816.965 418.937L816.965 390.215L829.824 390.215L829.824 433.359L819.02 433.359L793.436 404.638L798.539 404.638L798.539 433.359L785.681 433.359Z" fill="white" fill-opacity="0.66" shape-rendering="crispEdges"/>
</g>
<path d="M666.445 479.765L683.405 384.997L699.305 353.408C701.425 356.195 707.997 385.369 717.325 479.765C726.865 459.325 744.885 487.197 754.426 479.765C763.966 472.332 784.106 460.254 810.606 472.332C827.566 439.814 842.407 442.601 869.967 465.828C882.687 444.459 914.487 442.601 962.188 465.828C1005.65 437.955 1009.89 460.254 1028.97 472.332C1037.45 450.034 1078.79 454.679 1105.29 460.254C1105.29 419.374 1143.45 414.109 1162.53 416.586C1168.18 402.65 1185.21 369.389 1208.11 347.834C1236.73 320.89 1292.91 345.046 1311.99 361.77C1360.75 320.89 1383.01 355.266 1401.03 369.203C1646.11 146.964 1523.64 413.489 1431.77 574.532L-19.3831 601.475C-67.0836 565.86 -143.192 469.544 -66.0237 369.203C30.4373 243.775 105.698 371.061 133.258 393.359C185.199 344.117 196.859 418.444 239.26 435.168C275.3 405.437 283.78 430.523 304.98 418.444C326.181 406.366 360.1 461.183 392.961 442.601C425.821 424.019 448.082 450.963 469.282 472.332C500.022 441.672 537.123 466.757 548.783 479.765C567.863 461.183 599.663 478.835 612.383 487.197C642.063 450.034 655.138 464.28 666.445 479.765Z" fill="#D9D9D9"/>
<path d="M661.184 533.718L678.138 438.965L694.033 407.381C696.152 410.168 702.722 439.337 712.047 533.718C721.584 513.281 739.598 541.149 749.134 533.718C758.671 526.286 778.805 514.21 805.296 526.286C822.25 493.773 837.085 496.56 864.636 519.783C877.352 498.418 909.142 496.56 956.826 519.783C1000.27 491.915 1004.51 514.21 1023.58 526.286C1032.06 503.991 1073.39 508.636 1099.88 514.21C1099.88 473.336 1138.03 468.072 1157.1 470.549C1162.75 456.615 1179.78 423.359 1202.66 401.808C1231.28 374.868 1287.44 399.021 1306.51 415.742C1355.25 374.868 1377.51 409.239 1395.52 423.173C1640.51 200.97 1535.97 467.177 1444.13 628.194L-24.4103 655.409C-72.0945 619.8 -148.177 523.499 -71.0349 423.173C25.3931 297.766 100.628 425.031 128.179 447.326C180.102 398.092 191.758 472.407 234.144 489.128C270.172 459.402 278.65 484.483 299.843 472.407C321.035 460.331 354.944 515.139 387.793 496.56C420.642 477.981 442.895 504.92 464.088 526.286C494.818 495.631 531.906 520.712 543.562 533.718C562.636 515.139 594.425 532.789 607.14 541.149C636.811 503.991 649.88 518.235 661.184 533.718Z" fill="#F4F0F0"/>
<path d="M676.218 280.718L649.312 304.769L668.177 378.443C668.177 378.443 668.38 326.204 693.121 311.644L676.218 280.718Z" fill="#FF4B35"/>
<path d="M714.269 282.658L740.986 306.89L721.548 380.435C721.548 380.435 721.752 328.196 697.125 313.47L714.269 282.658Z" fill="#FF4B35"/>
<path d="M675.99 302.293C677.005 309.098 679.891 315.13 683.046 321.143C685.845 317.26 689.169 313.97 693.122 311.644L676.803 281.787C674.607 288.58 674.92 295.126 675.99 302.293Z" fill="#DD2C1F"/>
<path d="M707.84 324.071C708.224 323.106 708.611 322.143 709.015 321.185C711.194 316.009 713.32 310.77 714.3 305.262C715.493 298.555 714.534 291.894 712.741 285.403L697.124 313.47C701.402 316.028 704.929 319.72 707.84 324.071Z" fill="#DD2C1F"/>
<path d="M717.883 229.044C717.668 284.454 707.201 329.333 694.51 329.29C681.82 329.247 671.704 284.298 671.92 228.89C671.984 212.505 672.95 197.05 674.587 183.402C678.518 150.872 686.355 128.613 695.293 128.644C704.23 128.673 711.893 150.985 715.572 183.54C717.101 197.199 717.947 212.66 717.883 229.044Z" fill="#3689A3"/>
<path d="M715.57 183.538C717.099 197.2 717.946 212.663 717.882 229.049C717.668 283.868 704.104 328.87 691.58 329.758L698.582 129.689C706.088 134.431 712.35 155.07 715.57 183.538Z" fill="#266A7A"/>
<path d="M717.306 249.821C717.656 243.117 717.856 236.17 717.883 229.045C717.947 212.661 717.101 197.2 715.571 183.541C715.426 182.264 715.274 181.009 715.118 179.764L675.07 179.629C674.904 180.873 674.741 182.127 674.587 183.403C672.951 197.051 671.984 212.506 671.92 228.89C671.892 236.016 672.038 242.963 672.335 249.669L717.306 249.821Z" fill="#FFFAF3"/>
<path opacity="0.38" d="M696.928 179.771C696.589 180.365 695.162 249.095 694.185 249.998L717.305 249.821C717.655 243.117 717.855 236.17 717.882 229.045C717.946 212.661 717.1 197.199 715.57 183.541C715.426 182.264 715.273 181.009 715.117 179.764L696.928 179.771Z" fill="#64DDD7"/>
<path d="M673.284 264.513C673.451 266.52 673.628 268.507 673.823 270.451L715.656 270.592C715.866 268.65 716.059 266.664 716.241 264.658L673.284 264.513Z" fill="#08374E"/>
<path d="M708.343 309.351C711.213 300.094 713.588 288.057 715.251 274.152L674.2 274.014C675.754 287.929 678.036 299.982 680.832 309.258L708.343 309.351Z" fill="#08374E"/>
<path d="M681.98 312.824C685.556 323.211 689.859 329.274 694.509 329.29C699.161 329.306 703.51 323.272 707.168 312.909L681.98 312.824Z" fill="#08374E"/>
<path d="M712.716 164.322C708.582 142.526 702.333 128.668 695.293 128.644C688.252 128.621 681.896 142.436 677.592 164.203L712.716 164.322Z" fill="#FF4B35"/>
<path opacity="0.49" d="M707.514 223.606C714.845 216.838 714.888 205.825 707.61 199.008C700.332 192.19 688.488 192.15 681.157 198.919C673.826 205.687 673.783 216.7 681.061 223.517C688.34 230.334 700.183 230.374 707.514 223.606Z" fill="#18668E"/>
<path d="M705.784 211.251C705.782 205.364 700.649 200.594 694.319 200.596C687.989 200.598 682.859 205.371 682.861 211.258C682.863 217.144 687.996 221.914 694.326 221.912C700.657 221.91 705.786 217.137 705.784 211.251Z" fill="#0F314A"/>
<path d="M700.606 211.282C700.593 214.502 697.776 217.103 694.314 217.091C690.851 217.08 688.055 214.46 688.067 211.24C688.08 208.02 690.897 205.42 694.359 205.431C697.822 205.444 700.619 208.064 700.606 211.282Z" fill="#FFC931"/>
<path d="M695.272 217.032C697.792 216.827 700.593 214.462 700.606 211.284C700.617 208.505 698.533 206.183 695.737 205.59C695.616 208.134 695.422 215.727 695.272 217.032Z" fill="#FF7C33"/>
<path d="M706.637 366.34C706.69 352.466 701.341 341.202 694.688 341.179C688.035 341.157 682.355 352.394 682.544 366.258C682.689 376.897 694.147 430.677 694.147 430.677L694.314 431.513L694.488 430.678L705.104 379.599C705.838 376.068 706.343 372.344 706.559 368.529C706.605 367.734 706.634 366.98 706.637 366.34Z" fill="url(#paint0_linear_366_9)"/>
<path d="M704.52 359.088C704.564 347.786 700.614 338.611 695.696 338.594C690.778 338.578 686.576 347.733 686.712 359.028C686.816 367.695 695.27 411.504 695.27 411.504L695.394 412.185L695.522 411.504L703.385 369.891C703.928 367.014 704.303 363.98 704.464 360.871C704.496 360.225 704.517 359.612 704.52 359.088Z" fill="#DD2C1F"/>
<path d="M702.54 355.104C702.575 345.999 699.064 338.606 694.697 338.591C690.331 338.576 686.603 345.951 686.726 355.051C686.821 362.033 694.342 397.33 694.342 397.33L694.452 397.879L694.565 397.331L701.533 363.807C702.015 361.49 702.347 359.046 702.488 356.541C702.519 356.019 702.538 355.525 702.54 355.104Z" fill="#FCB302"/>
<path d="M694.31 135.171C693.784 135.169 693.355 134.767 693.356 134.277L693.454 109.345C693.456 108.855 693.888 108.456 694.415 108.457C694.941 108.459 695.37 108.861 695.369 109.351L695.271 134.284C695.269 134.773 694.837 135.173 694.31 135.171Z" fill="#FF4B35"/>
<path d="M696.98 109.406C698.495 108.008 698.504 105.732 697 104.323C695.496 102.914 693.048 102.906 691.533 104.305C690.018 105.703 690.009 107.979 691.513 109.388C693.017 110.797 695.465 110.805 696.98 109.406Z" fill="#FF4B35"/>
<path d="M697.447 164.269L712.715 164.322C708.755 143.44 702.853 129.853 696.173 128.729C696.259 140.575 697.678 152.436 697.447 164.269Z" fill="#DD2C1F"/>
<path d="M686.443 143.873C684.939 148.29 682.899 155.09 682.35 159.703" stroke="#FFFAF3" stroke-width="1.247" stroke-miterlimit="10" stroke-linecap="round" stroke-linejoin="round"/>
<path d="M690.237 134.768C689.655 136.002 689.11 137.251 688.584 138.506" stroke="#FFFAF3" stroke-width="1.247" stroke-miterlimit="10" stroke-linecap="round" stroke-linejoin="round"/>
<path opacity="0.6" d="M694.338 327.212L695.609 283.262C695.609 283.262 712.987 301.848 701.632 324.298C701.632 324.298 696.658 331.18 695.285 330.92C693.912 330.66 694.338 327.212 694.338 327.212Z" fill="#051E28"/>
<path d="M693.875 333.78C691.784 333.773 690.08 332.177 690.088 330.233L690.267 284.144C690.275 282.2 691.992 280.615 694.082 280.622C696.173 280.629 697.878 282.226 697.87 284.17L697.69 330.258C697.683 332.202 695.966 333.787 693.875 333.78Z" fill="#DB3C27"/>
<path d="M779.517 191.86L781.478 305.396L761.654 305.33L761.04 191.798L779.517 191.86Z" fill="#153049"/>
<path d="M747.547 194.423L793.455 193.064L770.287 162.402L747.547 194.423Z" fill="#153049"/>
<path d="M624.43 195.733L626.391 309.269L606.568 309.202L605.954 195.671L624.43 195.733Z" fill="#153049"/>
<path d="M592.46 198.296L638.368 196.937L615.201 166.275L592.46 198.296Z" fill="#153049"/>
<path d="M805.54 216.04L804.857 287.767L792.479 287.941L794.003 216.201L805.54 216.04Z" fill="#0768A3"/>
<path d="M785.544 217.985L814.228 216.638L800.147 197.749L785.544 217.985Z" fill="#0768A3"/>
<path d="M585.752 218.971L585.069 290.699L572.691 290.873L574.215 219.133L585.752 218.971Z" fill="#0768A3"/>
<path d="M565.757 220.918L594.441 219.57L580.359 200.681L565.757 220.918Z" fill="#0768A3"/>
<g clip-path="url(#clip0_366_9)">
<g filter="url(#filter1_d_366_9)">
<path d="M981.678 637.772C930.023 605.522 858.441 616.213 821.783 661.656C802.394 685.674 796.672 714.607 803.202 741.305L803.135 741.275C804.161 745.673 803.185 750.426 799.987 754.394C793.878 761.976 781.928 763.752 773.31 758.377C772.486 757.874 771.762 757.296 771.055 756.704C768.463 754.187 765.703 751.759 762.791 749.449V749.508C742.459 733.398 715.546 723.58 686.042 723.58C652.733 723.58 622.74 736.092 601.786 756.038V755.979C601.651 756.097 601.533 756.216 601.415 756.319C597.931 759.473 593.084 761.428 587.698 761.428C577.128 761.428 568.561 753.891 568.561 744.592C568.561 743.304 568.73 742.06 569.033 740.86C568.999 740.875 568.965 740.89 568.932 740.905C570.514 734.227 571.355 727.312 571.355 720.234C571.372 664.499 520.021 619.337 456.686 619.337C393.351 619.337 342 664.499 342 720.234C342 775.968 393.351 821.131 456.686 821.131C490.179 821.131 520.29 808.5 541.261 788.362V788.421C544.762 785.134 549.727 783.091 555.248 783.091C565.818 783.091 574.385 790.628 574.385 799.927C574.385 800.815 574.284 801.674 574.132 802.518C572.348 809.596 571.372 816.94 571.372 824.492C571.372 880.212 622.723 925.389 686.058 925.389C749.393 925.389 800.745 880.212 800.745 824.492C800.745 816.999 799.785 809.699 798.018 802.666C797.244 798.461 798.254 793.989 801.283 790.228C807.393 782.647 819.343 780.87 827.96 786.245C829.155 786.985 830.216 787.829 831.141 788.747C831.141 788.718 831.141 788.673 831.141 788.644C836.41 793.634 842.334 798.239 848.898 802.34C900.552 834.59 972.135 823.9 1008.79 778.456C1045.45 733.013 1033.3 670.037 981.644 637.787L981.678 637.772Z" fill="url(#paint1_linear_366_9)"/>
<path d="M456.686 793.041C502.392 793.041 539.444 760.444 539.444 720.234C539.444 680.023 502.392 647.426 456.686 647.426C410.98 647.426 373.928 680.023 373.928 720.234C373.928 760.444 410.98 793.041 456.686 793.041Z" fill="url(#paint2_linear_366_9)"/>
<path d="M456.198 940.255V769.231H451.805V940.24C449.835 940.981 448.472 942.698 448.472 944.697C448.472 947.377 450.946 949.554 453.993 949.554C457.039 949.554 459.513 947.377 459.513 944.697C459.513 942.698 458.133 940.981 456.181 940.24L456.198 940.255Z" fill="url(#paint3_linear_366_9)"/>
<path d="M455.104 773.732C489.776 773.732 517.883 749.005 517.883 718.501C517.883 687.998 489.776 663.27 455.104 663.27C420.432 663.27 392.324 687.998 392.324 718.501C392.324 749.005 420.432 773.732 455.104 773.732Z" fill="white"/>
<path d="M455.104 777.597C489.776 777.597 517.883 752.869 517.883 722.366C517.883 691.863 489.776 667.135 455.104 667.135C420.432 667.135 392.324 691.863 392.324 722.366C392.324 752.869 420.432 777.597 455.104 777.597Z" fill="#D7DBFF"/>
<path d="M455.104 775.465C489.776 775.465 517.883 750.737 517.883 720.234C517.883 689.73 489.776 665.002 455.104 665.002C420.432 665.002 392.324 689.73 392.324 720.234C392.324 750.737 420.432 775.465 455.104 775.465Z" fill="#F8F8FF"/>
<path d="M686.058 897.27C731.764 897.27 768.816 864.673 768.816 824.462C768.816 784.252 731.764 751.655 686.058 751.655C640.352 751.655 603.3 784.252 603.3 824.462C603.3 864.673 640.352 897.27 686.058 897.27Z" fill="url(#paint4_linear_366_9)"/>
<path d="M686.664 940.255V876.125H682.271V940.255C680.302 940.995 678.939 942.713 678.939 944.712C678.939 947.392 681.413 949.569 684.46 949.569C687.506 949.569 689.98 947.392 689.98 944.712C689.98 942.713 688.6 940.995 686.648 940.255H686.664Z" fill="url(#paint5_linear_366_9)"/>
<path d="M684.476 877.976C719.149 877.976 747.256 853.248 747.256 822.745C747.256 792.241 719.149 767.513 684.476 767.513C649.804 767.513 621.697 792.241 621.697 822.745C621.697 853.248 649.804 877.976 684.476 877.976Z" fill="white"/>
<path d="M684.476 879.693C719.149 879.693 747.256 854.965 747.256 824.462C747.256 793.959 719.149 769.231 684.476 769.231C649.804 769.231 621.697 793.959 621.697 824.462C621.697 854.965 649.804 879.693 684.476 879.693Z" fill="#F8F8FF"/>
<path d="M915.431 793.041C961.137 793.041 998.189 760.444 998.189 720.234C998.189 680.023 961.137 647.426 915.431 647.426C869.725 647.426 832.673 680.023 832.673 720.234C832.673 760.444 869.725 793.041 915.431 793.041Z" fill="url(#paint6_linear_366_9)"/>
<path d="M917.131 940.255V772.252H912.738V940.24C910.769 940.981 909.405 942.698 909.405 944.697C909.405 947.378 911.879 949.554 914.926 949.554C917.972 949.554 920.446 947.378 920.446 944.697C920.446 942.698 919.066 940.981 917.114 940.24L917.131 940.255Z" fill="url(#paint7_linear_366_9)"/>
<path d="M913.849 773.732C948.521 773.732 976.628 749.005 976.628 718.501C976.628 687.998 948.521 663.27 913.849 663.27C879.177 663.27 851.069 687.998 851.069 718.501C851.069 749.005 879.177 773.732 913.849 773.732Z" fill="white"/>
<path d="M913.849 777.597C948.521 777.597 976.628 752.869 976.628 722.366C976.628 691.863 948.521 667.135 913.849 667.135C879.177 667.135 851.069 691.863 851.069 722.366C851.069 752.869 879.177 777.597 913.849 777.597Z" fill="#D7DBFF"/>
<path d="M913.849 775.465C948.521 775.465 976.628 750.737 976.628 720.234C976.628 689.73 948.521 665.002 913.849 665.002C879.177 665.002 851.069 689.73 851.069 720.234C851.069 750.737 879.177 775.465 913.849 775.465Z" fill="#F8F8FF"/>
<path d="M941.065 740.331L928.324 720.201C928.123 719.872 927.722 719.698 927.277 719.678C926.854 719.678 926.453 719.91 926.274 720.24L921.864 728.175L908.788 707.329V703.555H921.53C921.998 703.555 922.421 703.303 922.599 702.935C922.777 702.568 922.688 702.122 922.354 701.832L918.545 698.522L922.354 695.212C922.688 694.922 922.777 694.496 922.599 694.109C922.421 693.741 921.998 693.49 921.53 693.49H907.63C906.984 693.49 906.472 693.935 906.472 694.496V707.329L885.755 740.312C885.555 740.621 885.577 741.008 885.755 741.299C885.934 741.589 886.335 741.783 886.758 741.783H940.041C940.442 741.783 940.82 741.589 941.043 741.279C941.244 740.97 941.266 740.602 941.043 740.292L941.065 740.331ZM907.608 709.71L913.533 719.156L911.216 721.169L908.543 718.072C908.098 717.568 907.118 717.568 906.694 718.072L904.021 721.169L901.705 719.156L907.63 709.71H907.608Z" fill="#000054"/>
<path d="M442.241 742.047V735.164C441.425 727.991 431.79 724.151 431.79 713.135C431.79 702.125 439.254 693.726 454.186 693.86C464.936 693.962 475.088 699.368 475.088 710.384L481.061 718.643C481.061 724.151 475.088 724.151 475.088 724.151C475.088 724.151 476.583 737.918 463.143 737.918V742.047" stroke="#000054" stroke-width="6" stroke-linecap="round" stroke-linejoin="round"/>
<path d="M453.688 717.954C455.14 717.954 456.532 717.446 457.559 716.543C458.586 715.639 459.163 714.413 459.163 713.135C459.163 711.857 458.586 710.632 457.559 709.728C456.532 708.824 455.14 708.317 453.688 708.317C452.236 708.317 450.844 708.824 449.817 709.728C448.79 710.632 448.213 711.857 448.213 713.135C448.213 714.413 448.79 715.639 449.817 716.543C450.844 717.446 452.236 717.954 453.688 717.954Z" stroke="#000054" stroke-width="6" stroke-linecap="round" stroke-linejoin="round"/>
<path d="M453.688 720.363C455.866 720.363 457.955 719.602 459.495 718.246C461.035 716.891 461.9 715.052 461.9 713.135C461.9 711.218 461.035 709.38 459.495 708.024C457.955 706.669 455.866 705.907 453.688 705.907C451.51 705.907 449.421 706.669 447.881 708.024C446.341 709.38 445.476 711.218 445.476 713.135C445.476 715.052 446.341 716.891 447.881 718.246C449.421 719.602 451.51 720.363 453.688 720.363Z" stroke="#000054" stroke-width="6" stroke-linecap="round" stroke-linejoin="round"/>
</g>
<path d="M679.805 789.955L675.743 792.935L679.805 795.915C679.94 796.012 680.052 796.131 680.134 796.267C680.215 796.402 680.266 796.55 680.283 796.703C680.299 796.856 680.281 797.01 680.23 797.156C680.178 797.303 680.094 797.439 679.983 797.557C679.871 797.674 679.734 797.772 679.58 797.843C679.426 797.914 679.257 797.957 679.083 797.97C678.91 797.984 678.735 797.967 678.569 797.92C678.403 797.874 678.249 797.799 678.116 797.7L672.837 793.827C672.688 793.718 672.569 793.582 672.486 793.428C672.404 793.274 672.362 793.105 672.362 792.935C672.362 792.765 672.404 792.596 672.486 792.442C672.569 792.288 672.688 792.151 672.837 792.042L678.116 788.17C678.385 787.976 678.731 787.883 679.078 787.912C679.424 787.941 679.744 788.09 679.967 788.325C680.189 788.561 680.298 788.864 680.267 789.17C680.237 789.475 680.071 789.757 679.805 789.955ZM699.162 792.042L693.883 788.17C693.75 788.071 693.596 787.996 693.43 787.95C693.264 787.903 693.089 787.886 692.916 787.9C692.742 787.913 692.573 787.956 692.419 788.027C692.265 788.098 692.128 788.196 692.016 788.313C691.905 788.431 691.821 788.567 691.769 788.714C691.718 788.86 691.7 789.014 691.716 789.167C691.733 789.32 691.784 789.468 691.865 789.603C691.947 789.738 692.059 789.858 692.194 789.955L696.256 792.935L692.194 795.915C692.059 796.012 691.947 796.131 691.865 796.267C691.784 796.402 691.733 796.55 691.716 796.703C691.7 796.856 691.718 797.01 691.769 797.156C691.821 797.303 691.905 797.439 692.016 797.557C692.128 797.674 692.265 797.772 692.419 797.843C692.573 797.914 692.742 797.957 692.916 797.97C693.089 797.984 693.264 797.967 693.43 797.92C693.596 797.874 693.75 797.799 693.883 797.7L699.162 793.827C699.311 793.718 699.43 793.582 699.512 793.428C699.595 793.274 699.637 793.105 699.637 792.935C699.637 792.765 699.595 792.596 699.512 792.442C699.43 792.288 699.311 792.151 699.162 792.042ZM689.97 783.324C689.807 783.272 689.634 783.249 689.461 783.255C689.288 783.262 689.118 783.299 688.96 783.363C688.803 783.428 688.662 783.519 688.545 783.632C688.428 783.744 688.337 783.876 688.278 784.019L681.239 801.057C681.12 801.346 681.136 801.666 681.284 801.945C681.432 802.224 681.7 802.439 682.029 802.545C682.173 802.592 682.326 802.616 682.48 802.615C682.751 802.615 683.015 802.542 683.237 802.405C683.459 802.268 683.628 802.075 683.721 801.851L690.759 784.813C690.819 784.67 690.845 784.517 690.838 784.365C690.83 784.213 690.788 784.063 690.715 783.925C690.642 783.786 690.538 783.662 690.41 783.559C690.282 783.456 690.133 783.376 689.97 783.324Z" fill="#000054"/>
<g clip-path="url(#clip1_366_9)">
<path d="M681.966 856.187C681.836 856.646 681.534 857.055 681.11 857.346C680.686 857.638 680.163 857.796 679.625 857.796C679.421 857.797 679.219 857.776 679.021 857.733L669.365 855.608C669.097 855.548 668.841 855.449 668.611 855.313L661.369 851.064C660.837 850.751 660.467 850.265 660.342 849.712C660.216 849.159 660.345 848.586 660.701 848.117C661.056 847.648 661.608 847.323 662.236 847.212C662.864 847.102 663.516 847.216 664.049 847.529L670.94 851.574L680.192 853.611C680.501 853.677 680.792 853.796 681.049 853.961C681.306 854.126 681.523 854.335 681.687 854.574C681.852 854.813 681.962 855.079 682.01 855.356C682.058 855.633 682.043 855.915 681.966 856.187ZM722.005 830.568C721.807 831.097 721.491 831.587 721.077 832.009C720.663 832.431 720.157 832.776 719.591 833.025L712.445 836.169L695.825 850.801C695.53 851.06 695.164 851.248 694.762 851.345C694.36 851.443 693.936 851.448 693.532 851.358L674.22 847.109C673.927 847.044 673.649 846.931 673.403 846.777L656.65 836.249L649.323 833.025C648.178 832.521 647.308 831.637 646.902 830.569C646.497 829.5 646.591 828.333 647.163 827.325L654.661 814.128C655.234 813.12 656.237 812.354 657.452 811.997C658.666 811.64 659.992 811.723 661.137 812.226L667.793 815.148L683.786 811.127C684.22 811.017 684.68 811.017 685.113 811.127L701.106 815.148L707.762 812.226C708.908 811.723 710.233 811.64 711.447 811.997C712.662 812.354 713.665 813.12 714.238 814.128L721.736 827.325C722.022 827.823 722.193 828.366 722.239 828.923C722.285 829.479 722.206 830.039 722.005 830.568ZM708.07 834.005L699.86 819.551H690.258L677.211 830.706C681.031 832.855 687.02 833.447 692.394 828.68C692.814 828.307 693.376 828.085 693.971 828.055C694.565 828.025 695.152 828.19 695.617 828.518L706 835.84L708.07 834.005ZM651.481 829.224L656.819 831.575L664.317 818.377L658.979 816.027L651.481 829.224ZM702.557 838.849L694.196 832.956C688.3 837.205 680.814 837.765 674.61 834.284C673.999 833.942 673.484 833.484 673.102 832.943C672.72 832.403 672.481 831.794 672.402 831.161C672.323 830.528 672.407 829.888 672.647 829.287C672.887 828.687 673.277 828.142 673.789 827.692C673.796 827.684 673.804 827.677 673.813 827.67L687.349 816.115L684.453 815.387L669.239 819.214L660.98 833.75L675.826 843.085L693.369 846.944L702.557 838.849ZM717.415 829.224L709.926 816.027L704.588 818.377L712.086 831.575L717.415 829.224Z" fill="#000054"/>
</g>
</g>
<g clip-path="url(#clip2_366_9)">
<g filter="url(#filter2_d_366_9)">
<path d="M981.678 637.772C930.023 605.522 858.441 616.213 821.783 661.656C802.394 685.674 796.672 714.607 803.202 741.305L803.135 741.275C804.161 745.673 803.185 750.426 799.987 754.394C793.878 761.976 781.928 763.752 773.31 758.377C772.486 757.874 771.762 757.296 771.055 756.704C768.463 754.187 765.703 751.759 762.791 749.449V749.508C742.459 733.398 715.546 723.58 686.042 723.58C652.733 723.58 622.74 736.092 601.786 756.038V755.979C601.651 756.097 601.533 756.216 601.415 756.319C597.931 759.473 593.084 761.428 587.698 761.428C577.128 761.428 568.561 753.891 568.561 744.592C568.561 743.304 568.73 742.06 569.033 740.86C568.999 740.875 568.965 740.89 568.932 740.905C570.514 734.227 571.355 727.312 571.355 720.234C571.372 664.499 520.021 619.337 456.686 619.337C393.351 619.337 342 664.499 342 720.234C342 775.968 393.351 821.131 456.686 821.131C490.179 821.131 520.29 808.5 541.261 788.362V788.421C544.762 785.134 549.727 783.091 555.248 783.091C565.818 783.091 574.385 790.628 574.385 799.927C574.385 800.815 574.284 801.674 574.132 802.518C572.348 809.596 571.372 816.94 571.372 824.492C571.372 880.212 622.723 925.389 686.058 925.389C749.393 925.389 800.745 880.212 800.745 824.492C800.745 816.999 799.785 809.699 798.018 802.666C797.244 798.461 798.254 793.989 801.283 790.228C807.393 782.647 819.343 780.87 827.96 786.245C829.155 786.985 830.216 787.829 831.141 788.747C831.141 788.718 831.141 788.673 831.141 788.644C836.41 793.634 842.334 798.239 848.898 802.34C900.552 834.591 972.135 823.9 1008.79 778.456C1045.45 733.013 1033.3 670.037 981.644 637.787L981.678 637.772Z" fill="url(#paint8_linear_366_9)"/>
<path d="M456.686 793.041C502.392 793.041 539.444 760.444 539.444 720.234C539.444 680.023 502.392 647.426 456.686 647.426C410.98 647.426 373.928 680.023 373.928 720.234C373.928 760.444 410.98 793.041 456.686 793.041Z" fill="url(#paint9_linear_366_9)"/>
<path d="M456.198 940.255V769.231H451.805V940.24C449.835 940.981 448.472 942.698 448.472 944.697C448.472 947.377 450.946 949.554 453.993 949.554C457.039 949.554 459.513 947.377 459.513 944.697C459.513 942.698 458.133 940.981 456.181 940.24L456.198 940.255Z" fill="url(#paint10_linear_366_9)"/>
<path d="M455.104 773.732C489.776 773.732 517.883 749.005 517.883 718.501C517.883 687.998 489.776 663.27 455.104 663.27C420.432 663.27 392.324 687.998 392.324 718.501C392.324 749.005 420.432 773.732 455.104 773.732Z" fill="white"/>
<path d="M455.104 777.597C489.776 777.597 517.883 752.869 517.883 722.366C517.883 691.863 489.776 667.135 455.104 667.135C420.432 667.135 392.324 691.863 392.324 722.366C392.324 752.869 420.432 777.597 455.104 777.597Z" fill="#D7DBFF"/>
<path d="M455.104 775.465C489.776 775.465 517.883 750.737 517.883 720.234C517.883 689.73 489.776 665.002 455.104 665.002C420.432 665.002 392.324 689.73 392.324 720.234C392.324 750.737 420.432 775.465 455.104 775.465Z" fill="#F8F8FF"/>
<path d="M686.058 897.27C731.764 897.27 768.816 864.673 768.816 824.462C768.816 784.252 731.764 751.655 686.058 751.655C640.352 751.655 603.3 784.252 603.3 824.462C603.3 864.673 640.352 897.27 686.058 897.27Z" fill="url(#paint11_linear_366_9)"/>
<path d="M686.664 940.255V876.125H682.271V940.255C680.302 940.995 678.939 942.713 678.939 944.712C678.939 947.392 681.413 949.569 684.46 949.569C687.506 949.569 689.98 947.392 689.98 944.712C689.98 942.713 688.6 940.995 686.648 940.255H686.664Z" fill="url(#paint12_linear_366_9)"/>
<path d="M684.476 877.976C719.149 877.976 747.256 853.248 747.256 822.745C747.256 792.241 719.149 767.513 684.476 767.513C649.804 767.513 621.697 792.241 621.697 822.745C621.697 853.248 649.804 877.976 684.476 877.976Z" fill="white"/>
<path d="M684.476 879.693C719.149 879.693 747.256 854.965 747.256 824.462C747.256 793.959 719.149 769.231 684.476 769.231C649.804 769.231 621.697 793.959 621.697 824.462C621.697 854.965 649.804 879.693 684.476 879.693Z" fill="#F8F8FF"/>
<path d="M915.431 793.041C961.137 793.041 998.189 760.444 998.189 720.234C998.189 680.023 961.137 647.426 915.431 647.426C869.725 647.426 832.673 680.023 832.673 720.234C832.673 760.444 869.725 793.041 915.431 793.041Z" fill="url(#paint13_linear_366_9)"/>
<path d="M917.131 940.255V772.252H912.738V940.24C910.769 940.981 909.405 942.698 909.405 944.697C909.405 947.377 911.879 949.554 914.926 949.554C917.972 949.554 920.446 947.377 920.446 944.697C920.446 942.698 919.066 940.981 917.114 940.24L917.131 940.255Z" fill="url(#paint14_linear_366_9)"/>
<path d="M913.849 773.732C948.521 773.732 976.628 749.005 976.628 718.501C976.628 687.998 948.521 663.27 913.849 663.27C879.177 663.27 851.069 687.998 851.069 718.501C851.069 749.005 879.177 773.732 913.849 773.732Z" fill="white"/>
<path d="M913.849 777.597C948.521 777.597 976.628 752.869 976.628 722.366C976.628 691.863 948.521 667.135 913.849 667.135C879.177 667.135 851.069 691.863 851.069 722.366C851.069 752.869 879.177 777.597 913.849 777.597Z" fill="#D7DBFF"/>
<path d="M913.849 775.465C948.521 775.465 976.628 750.737 976.628 720.234C976.628 689.73 948.521 665.002 913.849 665.002C879.177 665.002 851.069 689.73 851.069 720.234C851.069 750.737 879.177 775.465 913.849 775.465Z" fill="#F8F8FF"/>
<path d="M941.065 740.331L928.324 720.201C928.123 719.872 927.722 719.698 927.277 719.678C926.854 719.678 926.453 719.91 926.274 720.24L921.864 728.175L908.788 707.329V703.555H921.53C921.998 703.555 922.421 703.303 922.599 702.935C922.777 702.568 922.688 702.122 922.354 701.832L918.545 698.522L922.354 695.212C922.688 694.922 922.777 694.496 922.599 694.109C922.421 693.741 921.998 693.49 921.53 693.49H907.63C906.984 693.49 906.472 693.935 906.472 694.496V707.329L885.755 740.312C885.555 740.621 885.577 741.008 885.755 741.299C885.934 741.589 886.335 741.783 886.758 741.783H940.041C940.442 741.783 940.82 741.589 941.043 741.279C941.244 740.97 941.266 740.602 941.043 740.292L941.065 740.331ZM907.608 709.71L913.533 719.156L911.216 721.169L908.543 718.072C908.098 717.568 907.118 717.568 906.694 718.072L904.021 721.169L901.705 719.156L907.63 709.71H907.608Z" fill="#000054"/>
<path d="M442.241 742.047V735.164C441.425 727.991 431.79 724.151 431.79 713.135C431.79 702.125 439.254 693.726 454.186 693.86C464.936 693.962 475.088 699.368 475.088 710.384L481.061 718.643C481.061 724.151 475.088 724.151 475.088 724.151C475.088 724.151 476.583 737.918 463.143 737.918V742.047" stroke="#000054" stroke-width="6" stroke-linecap="round" stroke-linejoin="round"/>
<path d="M453.688 717.954C455.14 717.954 456.532 717.446 457.559 716.543C458.586 715.639 459.163 714.413 459.163 713.135C459.163 711.857 458.586 710.632 457.559 709.728C456.532 708.824 455.14 708.317 453.688 708.317C452.236 708.317 450.844 708.824 449.817 709.728C448.79 710.632 448.213 711.857 448.213 713.135C448.213 714.413 448.79 715.639 449.817 716.543C450.844 717.446 452.236 717.954 453.688 717.954Z" stroke="#000054" stroke-width="6" stroke-linecap="round" stroke-linejoin="round"/>
<path d="M453.688 720.363C455.866 720.363 457.955 719.602 459.495 718.246C461.035 716.891 461.9 715.052 461.9 713.135C461.9 711.218 461.035 709.38 459.495 708.024C457.955 706.669 455.866 705.907 453.688 705.907C451.51 705.907 449.421 706.669 447.881 708.024C446.341 709.38 445.476 711.218 445.476 713.135C445.476 715.052 446.341 716.891 447.881 718.246C449.421 719.602 451.51 720.363 453.688 720.363Z" stroke="#000054" stroke-width="6" stroke-linecap="round" stroke-linejoin="round"/>
</g>
<path d="M679.805 789.955L675.743 792.935L679.805 795.915C679.94 796.012 680.052 796.131 680.134 796.267C680.215 796.402 680.266 796.55 680.283 796.703C680.299 796.856 680.281 797.01 680.23 797.156C680.178 797.303 680.094 797.439 679.983 797.557C679.871 797.674 679.734 797.772 679.58 797.843C679.426 797.914 679.257 797.957 679.083 797.97C678.91 797.984 678.735 797.967 678.569 797.92C678.403 797.874 678.249 797.799 678.116 797.7L672.837 793.827C672.688 793.718 672.569 793.582 672.486 793.428C672.404 793.274 672.362 793.105 672.362 792.935C672.362 792.765 672.404 792.596 672.486 792.442C672.569 792.288 672.688 792.151 672.837 792.042L678.116 788.17C678.385 787.976 678.731 787.883 679.078 787.912C679.424 787.941 679.744 788.09 679.967 788.325C680.189 788.561 680.298 788.864 680.267 789.17C680.237 789.475 680.071 789.757 679.805 789.955ZM699.162 792.042L693.883 788.17C693.75 788.071 693.596 787.996 693.43 787.95C693.264 787.903 693.089 787.886 692.916 787.9C692.742 787.913 692.573 787.956 692.419 788.027C692.265 788.098 692.128 788.196 692.016 788.313C691.905 788.431 691.821 788.567 691.769 788.714C691.718 788.86 691.7 789.014 691.716 789.167C691.733 789.32 691.784 789.468 691.865 789.603C691.947 789.738 692.059 789.858 692.194 789.955L696.256 792.935L692.194 795.915C692.059 796.012 691.947 796.131 691.865 796.267C691.784 796.402 691.733 796.55 691.716 796.703C691.7 796.856 691.718 797.01 691.769 797.156C691.821 797.303 691.905 797.439 692.016 797.557C692.128 797.674 692.265 797.772 692.419 797.843C692.573 797.914 692.742 797.957 692.916 797.97C693.089 797.984 693.264 797.967 693.43 797.92C693.596 797.874 693.75 797.799 693.883 797.7L699.162 793.827C699.311 793.718 699.43 793.582 699.512 793.428C699.595 793.274 699.637 793.105 699.637 792.935C699.637 792.765 699.595 792.596 699.512 792.442C699.43 792.288 699.311 792.151 699.162 792.042ZM689.97 783.324C689.807 783.272 689.634 783.249 689.461 783.255C689.288 783.262 689.118 783.299 688.96 783.363C688.803 783.428 688.662 783.519 688.545 783.632C688.428 783.744 688.337 783.876 688.278 784.019L681.239 801.057C681.12 801.346 681.136 801.666 681.284 801.945C681.432 802.224 681.7 802.439 682.029 802.545C682.173 802.592 682.326 802.616 682.48 802.615C682.751 802.615 683.015 802.542 683.237 802.405C683.459 802.268 683.628 802.075 683.721 801.851L690.759 784.813C690.819 784.67 690.845 784.517 690.838 784.365C690.83 784.213 690.788 784.063 690.715 783.925C690.642 783.786 690.538 783.662 690.41 783.559C690.282 783.456 690.133 783.376 689.97 783.324Z" fill="#000054"/>
<g clip-path="url(#clip3_366_9)">
<path d="M681.966 856.187C681.836 856.646 681.534 857.055 681.11 857.346C680.686 857.638 680.163 857.796 679.625 857.796C679.421 857.797 679.219 857.776 679.021 857.733L669.365 855.608C669.097 855.548 668.841 855.449 668.611 855.313L661.369 851.064C660.837 850.751 660.467 850.265 660.342 849.712C660.216 849.159 660.345 848.586 660.701 848.117C661.056 847.648 661.608 847.323 662.236 847.212C662.864 847.102 663.516 847.216 664.049 847.529L670.94 851.574L680.192 853.611C680.501 853.677 680.792 853.796 681.049 853.961C681.306 854.126 681.523 854.335 681.687 854.574C681.852 854.813 681.962 855.079 682.01 855.356C682.058 855.633 682.043 855.915 681.966 856.187ZM722.005 830.568C721.807 831.097 721.491 831.587 721.077 832.009C720.663 832.431 720.157 832.776 719.591 833.025L712.445 836.169L695.825 850.801C695.53 851.06 695.164 851.248 694.762 851.345C694.36 851.443 693.936 851.448 693.532 851.358L674.22 847.109C673.927 847.044 673.649 846.931 673.403 846.777L656.65 836.249L649.323 833.025C648.178 832.521 647.308 831.637 646.902 830.569C646.497 829.5 646.591 828.333 647.163 827.325L654.661 814.128C655.234 813.12 656.237 812.354 657.452 811.997C658.666 811.64 659.992 811.723 661.137 812.226L667.793 815.148L683.786 811.127C684.22 811.017 684.68 811.017 685.113 811.127L701.106 815.148L707.762 812.226C708.908 811.723 710.233 811.64 711.447 811.997C712.662 812.354 713.665 813.12 714.238 814.128L721.736 827.325C722.022 827.823 722.193 828.366 722.239 828.923C722.285 829.479 722.206 830.039 722.005 830.568ZM708.07 834.005L699.86 819.551H690.258L677.211 830.706C681.031 832.855 687.02 833.447 692.394 828.68C692.814 828.307 693.376 828.085 693.97 828.055C694.565 828.025 695.152 828.19 695.617 828.518L706 835.84L708.07 834.005ZM651.481 829.224L656.819 831.575L664.317 818.377L658.979 816.027L651.481 829.224ZM702.557 838.849L694.196 832.956C688.3 837.205 680.814 837.765 674.61 834.284C673.999 833.942 673.484 833.484 673.102 832.943C672.72 832.403 672.481 831.794 672.402 831.161C672.323 830.528 672.407 829.888 672.647 829.287C672.887 828.687 673.277 828.142 673.789 827.692C673.796 827.684 673.804 827.677 673.813 827.67L687.349 816.115L684.453 815.387L669.239 819.214L660.98 833.75L675.826 843.085L693.369 846.944L702.557 838.849ZM717.415 829.224L709.926 816.027L704.588 818.377L712.086 831.575L717.415 829.224Z" fill="#000054"/>
</g>
</g>
<mask id="mask0_366_9" style="mask-type:alpha" maskUnits="userSpaceOnUse" x="-85" y="1058" width="1451" height="239">
<rect x="-84.0005" y="1058.06" width="1450" height="238.054" fill="#D9D9D9"/>
</mask>
<g mask="url(#mask0_366_9)">
<path d="M-281.562 1074.87C1742.16 1257.72 2956.88 602.562 3981.4 752.878C3197.29 856.548 2828.36 1124.25 1736.66 1251.39C832.03 1349.45 8.38806 1230.78 -281.688 1074.88L-281.562 1074.87Z" fill="#0078C1"/>
<path d="M1736.81 1251.43C2828.49 1124.25 3197.44 856.587 3981.55 752.916C3083.56 809.948 2603.77 1106.68 1589 1174.05C228.51 1264.37 -281.416 1074.91 -281.416 1074.91C8.66042 1230.81 832.176 1349.49 1736.93 1251.42L1736.81 1251.43Z" fill="#0170B3"/>
</g>
<defs>
<filter id="filter0_d_366_9" x="525.639" y="389.352" width="304.185" height="52.8702" filterUnits="userSpaceOnUse" color-interpolation-filters="sRGB">
<feFlood flood-opacity="0" result="BackgroundImageFix"/>
<feColorMatrix in="SourceAlpha" type="matrix" values="0 0 0 0 0 0 0 0 0 0 0 0 0 0 0 0 0 0 127 0" result="hardAlpha"/>
<feOffset dx="-6" dy="4"/>
<feGaussianBlur stdDeviation="2"/>
<feComposite in2="hardAlpha" operator="out"/>
<feColorMatrix type="matrix" values="0 0 0 0 0 0 0 0 0 0 0 0 0 0 0 0 0 0 0.25 0"/>
<feBlend mode="normal" in2="BackgroundImageFix" result="effect1_dropShadow_366_9"/>
<feBlend mode="normal" in="SourceGraphic" in2="effect1_dropShadow_366_9" result="shape"/>
</filter>
<filter id="filter1_d_366_9" x="332" y="619.148" width="697.963" height="338.421" filterUnits="userSpaceOnUse" color-interpolation-filters="sRGB">
<feFlood flood-opacity="0" result="BackgroundImageFix"/>
<feColorMatrix in="SourceAlpha" type="matrix" values="0 0 0 0 0 0 0 0 0 0 0 0 0 0 0 0 0 0 127 0" result="hardAlpha"/>
<feOffset dx="-6" dy="4"/>
<feGaussianBlur stdDeviation="2"/>
<feComposite in2="hardAlpha" operator="out"/>
<feColorMatrix type="matrix" values="0 0 0 0 0 0 0 0 0 0 0 0 0 0 0 0 0 0 0.25 0"/>
<feBlend mode="normal" in2="BackgroundImageFix" result="effect1_dropShadow_366_9"/>
<feBlend mode="normal" in="SourceGraphic" in2="effect1_dropShadow_366_9" result="shape"/>
</filter>
<filter id="filter2_d_366_9" x="332" y="619.148" width="697.963" height="338.421" filterUnits="userSpaceOnUse" color-interpolation-filters="sRGB">
<feFlood flood-opacity="0" result="BackgroundImageFix"/>
<feColorMatrix in="SourceAlpha" type="matrix" values="0 0 0 0 0 0 0 0 0 0 0 0 0 0 0 0 0 0 127 0" result="hardAlpha"/>
<feOffset dx="-6" dy="4"/>
<feGaussianBlur stdDeviation="2"/>
<feComposite in2="hardAlpha" operator="out"/>
<feColorMatrix type="matrix" values="0 0 0 0 0 0 0 0 0 0 0 0 0 0 0 0 0 0 0.25 0"/>
<feBlend mode="normal" in2="BackgroundImageFix" result="effect1_dropShadow_366_9"/>
<feBlend mode="normal" in="SourceGraphic" in2="effect1_dropShadow_366_9" result="shape"/>
</filter>
<linearGradient id="paint0_linear_366_9" x1="682.458" y1="386.305" x2="706.559" y2="386.399" gradientUnits="userSpaceOnUse">
<stop stop-color="#FE6C00"/>
<stop offset="1" stop-color="#FF3F01"/>
</linearGradient>
<linearGradient id="paint1_linear_366_9" x1="201.377" y1="884.387" x2="929.271" y2="599.608" gradientUnits="userSpaceOnUse">
<stop stop-color="#000054"/>
<stop offset="1" stop-color="#0078C1"/>
</linearGradient>
<linearGradient id="paint2_linear_366_9" x1="457.073" y1="798.579" x2="456.461" y2="639.474" gradientUnits="userSpaceOnUse">
<stop offset="0.02" stop-color="#7BB3FF"/>
<stop offset="1" stop-color="#002D50"/>
</linearGradient>
<linearGradient id="paint3_linear_366_9" x1="453.993" y1="769.231" x2="453.993" y2="949.554" gradientUnits="userSpaceOnUse">
<stop stop-color="#002B7B"/>
<stop offset="1" stop-color="#0071BB"/>
</linearGradient>
<linearGradient id="paint4_linear_366_9" x1="686.445" y1="902.822" x2="685.833" y2="743.717" gradientUnits="userSpaceOnUse">
<stop offset="0.02" stop-color="#0087FF"/>
<stop offset="1"/>
</linearGradient>
<linearGradient id="paint5_linear_366_9" x1="684.46" y1="876.125" x2="684.46" y2="949.569" gradientUnits="userSpaceOnUse">
<stop stop-color="#004593"/>
<stop offset="1" stop-color="#0071BB"/>
</linearGradient>
<linearGradient id="paint6_linear_366_9" x1="915.818" y1="798.579" x2="915.206" y2="639.474" gradientUnits="userSpaceOnUse">
<stop offset="0.02" stop-color="#0355A0"/>
<stop offset="1" stop-color="#000204"/>
</linearGradient>
<linearGradient id="paint7_linear_366_9" x1="914.926" y1="772.252" x2="914.926" y2="949.554" gradientUnits="userSpaceOnUse">
<stop stop-color="#0068B3"/>
<stop offset="1" stop-color="#0071BB"/>
</linearGradient>
<linearGradient id="paint8_linear_366_9" x1="201.377" y1="884.387" x2="929.271" y2="599.608" gradientUnits="userSpaceOnUse">
<stop stop-color="#000054"/>
<stop offset="1" stop-color="#0078C1"/>
</linearGradient>
<linearGradient id="paint9_linear_366_9" x1="457.073" y1="798.579" x2="456.461" y2="639.474" gradientUnits="userSpaceOnUse">
<stop offset="0.02" stop-color="#7BB3FF"/>
<stop offset="1" stop-color="#002D50"/>
</linearGradient>
<linearGradient id="paint10_linear_366_9" x1="453.993" y1="769.231" x2="453.993" y2="949.554" gradientUnits="userSpaceOnUse">
<stop stop-color="#002B7B"/>
<stop offset="1" stop-color="#0071BB"/>
</linearGradient>
<linearGradient id="paint11_linear_366_9" x1="686.445" y1="902.822" x2="685.833" y2="743.717" gradientUnits="userSpaceOnUse">
<stop offset="0.02" stop-color="#0087FF"/>
<stop offset="1"/>
</linearGradient>
<linearGradient id="paint12_linear_366_9" x1="684.46" y1="876.125" x2="684.46" y2="949.569" gradientUnits="userSpaceOnUse">
<stop stop-color="#004593"/>
<stop offset="1" stop-color="#0071BB"/>
</linearGradient>
<linearGradient id="paint13_linear_366_9" x1="915.818" y1="798.579" x2="915.206" y2="639.474" gradientUnits="userSpaceOnUse">
<stop offset="0.02" stop-color="#0355A0"/>
<stop offset="1" stop-color="#000204"/>
</linearGradient>
<linearGradient id="paint14_linear_366_9" x1="914.926" y1="772.252" x2="914.926" y2="949.554" gradientUnits="userSpaceOnUse">
<stop stop-color="#0068B3"/>
<stop offset="1" stop-color="#0071BB"/>
</linearGradient>
<clipPath id="clip0_366_9">
<rect width="688" height="330.425" fill="white" transform="translate(342 619.144)"/>
</clipPath>
<clipPath id="clip1_366_9">
<rect width="77.2466" height="67.9912" fill="white" transform="translate(645.21 800.242)"/>
</clipPath>
<clipPath id="clip2_366_9">
<rect width="688" height="330.425" fill="white" transform="translate(342 619.144)"/>
</clipPath>
<clipPath id="clip3_366_9">
<rect width="77.2466" height="67.9912" fill="white" transform="translate(645.21 800.242)"/>
</clipPath>
</defs>
</svg>
