<svg width="1366" height="1297" viewBox="0 0 1366 1297" fill="none" xmlns="http://www.w3.org/2000/svg">
<rect x="-8.00049" y="607.985" width="1396" height="539.342" fill="#F4F0F0"/>
<path d="M725.743 71.9792C734.984 56.6386 729.103 37.236 712.606 28.6422C696.109 20.0484 675.244 25.5177 666.002 40.8583C656.76 56.1988 662.642 75.6014 679.139 84.1952C695.636 92.789 716.501 87.3197 725.743 71.9792Z" fill="#FF4B35"/>
<path d="M716.258 40.6258C706.876 30.1482 690.136 28.7272 678.869 37.4518C667.602 46.1764 666.073 61.7428 675.456 72.2203C684.838 82.6978 701.578 84.1188 712.845 75.3943C724.113 66.6697 725.641 51.1033 716.258 40.6258Z" fill="white"/>
<path d="M712.752 57.2284C713.224 48.5647 706.053 41.1858 696.737 40.7471C687.42 40.3083 679.485 46.976 679.013 55.6396C678.541 64.3033 685.711 71.6822 695.028 72.1209C704.345 72.5597 712.28 65.892 712.752 57.2284Z" fill="#FF4B35"/>
<path d="M702.623 62.7399C706.377 59.2744 706.399 53.6354 702.672 50.1447C698.945 46.654 692.881 46.6336 689.127 50.099C685.374 53.5645 685.352 59.2035 689.078 62.6942C692.805 66.1849 698.869 66.2053 702.623 62.7399Z" fill="white"/>
<path d="M699.913 56.8002C699.688 58.8739 697.697 60.3846 695.467 60.1752C693.237 59.9658 691.612 58.1148 691.838 56.041C692.063 53.9673 694.053 52.4566 696.283 52.666C698.513 52.8754 700.139 54.7269 699.913 56.8002Z" fill="#FF4B35"/>
<g filter="url(#filter0_d_366_9)">
<path d="M535.639 433.359L535.639 390.215L546.443 390.215L565.664 419.553L559.964 419.553L578.655 390.215L589.459 390.215L589.592 433.359L577.529 433.359L577.396 407.288L579.451 407.288L565.466 429.107L559.633 429.107L545.25 407.288L547.769 407.288L547.769 433.359L535.639 433.359ZM598.878 433.359L598.878 390.215L612.001 390.215L612.001 433.359L598.878 433.359ZM637.643 434.222C633.843 434.222 630.176 433.791 626.641 432.928C623.15 432.024 620.3 430.873 618.09 429.476L622.399 420.478C624.475 421.71 626.862 422.738 629.557 423.559C632.297 424.34 635.014 424.731 637.71 424.731C639.521 424.731 640.979 424.587 642.084 424.299C643.189 423.97 643.984 423.559 644.47 423.066C645 422.532 645.266 421.916 645.266 421.217C645.266 420.231 644.779 419.45 643.807 418.875C642.835 418.3 641.576 417.827 640.029 417.458C638.483 417.088 636.76 416.718 634.859 416.348C633.004 415.978 631.126 415.506 629.226 414.931C627.37 414.355 625.669 413.616 624.122 412.712C622.575 411.767 621.316 410.554 620.344 409.075C619.372 407.555 618.886 405.644 618.886 403.343C618.886 400.755 619.637 398.412 621.139 396.317C622.686 394.221 624.984 392.537 628.033 391.263C631.081 389.989 634.882 389.352 639.433 389.352C642.482 389.352 645.464 389.681 648.381 390.338C651.341 390.955 653.97 391.879 656.268 393.112L652.225 402.172C650.016 401.063 647.828 400.241 645.663 399.707C643.498 399.132 641.399 398.844 639.367 398.844C637.555 398.844 636.097 399.029 634.992 399.399C633.887 399.727 633.092 400.179 632.606 400.755C632.12 401.33 631.877 401.987 631.877 402.727C631.877 403.672 632.341 404.432 633.269 405.007C634.241 405.542 635.5 405.994 637.047 406.363C638.637 406.692 640.361 407.041 642.217 407.411C644.117 407.781 645.995 408.253 647.85 408.829C649.751 409.363 651.474 410.103 653.02 411.048C654.567 411.952 655.804 413.164 656.732 414.684C657.704 416.163 658.19 418.033 658.19 420.293C658.19 422.799 657.417 425.121 655.87 427.258C654.368 429.353 652.092 431.038 649.044 432.312C646.039 433.585 642.239 434.222 637.643 434.222ZM680.557 434.222C676.757 434.222 673.09 433.791 669.555 432.928C666.064 432.024 663.214 430.873 661.005 429.476L665.313 420.478C667.39 421.71 669.776 422.738 672.471 423.559C675.211 424.34 677.928 424.731 680.624 424.731C682.435 424.731 683.894 424.587 684.998 424.299C686.103 423.97 686.898 423.559 687.384 423.066C687.915 422.532 688.18 421.916 688.18 421.217C688.18 420.231 687.694 419.45 686.722 418.875C685.749 418.3 684.49 417.827 682.944 417.458C681.397 417.088 679.674 416.718 677.774 416.348C675.918 415.978 674.04 415.506 672.14 414.931C670.284 414.355 668.583 413.616 667.036 412.712C665.49 411.767 664.23 410.554 663.258 409.075C662.286 407.555 661.8 405.644 661.8 403.343C661.8 400.755 662.551 398.412 664.054 396.317C665.6 394.221 667.898 392.537 670.947 391.263C673.996 389.989 677.796 389.352 682.347 389.352C685.396 389.352 688.379 389.681 691.295 390.338C694.255 390.955 696.885 391.879 699.182 393.112L695.139 402.172C692.93 401.063 690.743 400.241 688.577 399.707C686.412 399.132 684.313 398.844 682.281 398.844C680.469 398.844 679.011 399.029 677.906 399.399C676.802 399.727 676.006 400.179 675.52 400.755C675.034 401.33 674.791 401.987 674.791 402.727C674.791 403.672 675.255 404.432 676.183 405.007C677.155 405.542 678.414 405.994 679.961 406.363C681.552 406.692 683.275 407.041 685.131 407.411C687.031 407.781 688.909 408.253 690.765 408.829C692.665 409.363 694.388 410.103 695.935 411.048C697.481 411.952 698.718 413.164 699.646 414.684C700.618 416.163 701.105 418.033 701.105 420.293C701.105 422.799 700.331 425.121 698.785 427.258C697.282 429.353 695.007 431.038 691.958 432.312C688.953 433.585 685.153 434.222 680.557 434.222ZM707.167 433.359L707.167 390.215L720.29 390.215L720.29 433.359L707.167 433.359ZM753.024 434.222C749.312 434.222 745.888 433.668 742.751 432.558C739.613 431.449 736.874 429.887 734.532 427.874C732.234 425.819 730.444 423.436 729.163 420.724C727.882 418.012 727.241 415.033 727.241 411.787C727.241 408.541 727.882 405.562 729.163 402.85C730.444 400.138 732.234 397.776 734.532 395.762C736.874 393.708 739.613 392.126 742.751 391.016C745.888 389.907 749.312 389.352 753.024 389.352C756.78 389.352 760.205 389.907 763.298 391.016C766.435 392.126 769.152 393.708 771.45 395.762C773.748 397.776 775.537 400.138 776.819 402.85C778.145 405.562 778.807 408.541 778.807 411.787C778.807 415.033 778.145 418.033 776.819 420.786C775.538 423.498 773.748 425.86 771.45 427.874C769.152 429.887 766.435 431.449 763.298 432.558C760.205 433.668 756.78 434.222 753.024 434.222ZM753.024 424.114C754.792 424.114 756.427 423.827 757.929 423.251C759.475 422.676 760.801 421.854 761.906 420.786C763.055 419.676 763.938 418.362 764.557 416.841C765.22 415.321 765.551 413.636 765.551 411.787C765.551 409.897 765.22 408.212 764.557 406.733C763.938 405.213 763.055 403.918 761.906 402.85C760.801 401.741 759.475 400.898 757.929 400.323C756.427 399.748 754.792 399.46 753.024 399.46C751.257 399.46 749.6 399.748 748.053 400.323C746.551 400.898 745.225 401.741 744.076 402.85C742.972 403.918 742.088 405.213 741.425 406.733C740.806 408.212 740.497 409.897 740.497 411.787C740.497 413.636 740.806 415.321 741.425 416.841C742.088 418.362 742.972 419.676 744.076 420.786C745.225 421.854 746.551 422.676 748.053 423.251C749.6 423.827 751.257 424.114 753.024 424.114ZM785.681 433.359L785.681 390.215L796.485 390.215L822.069 418.937L816.965 418.937L816.965 390.215L829.824 390.215L829.824 433.359L819.02 433.359L793.436 404.638L798.539 404.638L798.539 433.359L785.681 433.359Z" fill="white" fill-opacity="0.66" shape-rendering="crispEdges"/>
</g>
<path d="M666.445 479.765L683.405 384.997L699.305 353.408C701.425 356.195 707.997 385.369 717.325 479.765C726.865 459.325 744.885 487.197 754.426 479.765C763.966 472.332 784.106 460.254 810.606 472.332C827.566 439.814 842.407 442.601 869.967 465.828C882.687 444.459 914.487 442.601 962.188 465.828C1005.65 437.955 1009.89 460.254 1028.97 472.332C1037.45 450.034 1078.79 454.679 1105.29 460.254C1105.29 419.374 1143.45 414.109 1162.53 416.586C1168.18 402.65 1185.21 369.389 1208.11 347.834C1236.73 320.89 1292.91 345.046 1311.99 361.77C1360.75 320.89 1383.01 355.266 1401.03 369.203C1646.11 146.964 1523.64 413.489 1431.77 574.532L-19.3831 601.475C-67.0836 565.86 -143.192 469.544 -66.0237 369.203C30.4373 243.775 105.698 371.061 133.258 393.359C185.199 344.117 196.859 418.444 239.26 435.168C275.3 405.437 283.78 430.523 304.98 418.444C326.181 406.366 360.1 461.183 392.961 442.601C425.821 424.019 448.082 450.963 469.282 472.332C500.022 441.672 537.123 466.757 548.783 479.765C567.863 461.183 599.663 478.835 612.383 487.197C642.063 450.034 655.138 464.28 666.445 479.765Z" fill="#D9D9D9"/>
<path d="M661.184 533.718L678.138 438.965L694.033 407.381C696.152 410.168 702.722 439.337 712.047 533.718C721.584 513.281 739.598 541.149 749.134 533.718C758.671 526.286 778.805 514.21 805.296 526.286C822.25 493.773 837.085 496.56 864.636 519.783C877.352 498.418 909.142 496.56 956.826 519.783C1000.27 491.915 1004.51 514.21 1023.58 526.286C1032.06 503.991 1073.39 508.636 1099.88 514.21C1099.88 473.336 1138.03 468.072 1157.1 470.549C1162.75 456.615 1179.78 423.359 1202.66 401.808C1231.28 374.868 1287.44 399.021 1306.51 415.742C1355.25 374.868 1377.51 409.239 1395.52 423.173C1640.51 200.97 1535.97 467.177 1444.13 628.194L-24.4103 655.409C-72.0945 619.8 -148.177 523.499 -71.0349 423.173C25.3931 297.766 100.628 425.031 128.179 447.326C180.102 398.092 191.758 472.407 234.144 489.128C270.172 459.402 278.65 484.483 299.843 472.407C321.035 460.331 354.944 515.139 387.793 496.56C420.642 477.981 442.895 504.92 464.088 526.286C494.818 495.631 531.906 520.712 543.562 533.718C562.636 515.139 594.425 532.789 607.14 541.149C636.811 503.991 649.88 518.235 661.184 533.718Z" fill="#F4F0F0"/>
<path d="M676.218 280.718L649.312 304.769L668.177 378.443C668.177 378.443 668.38 326.204 693.121 311.644L676.218 280.718Z" fill="#FF4B35"/>
<path d="M714.269 282.658L740.986 306.89L721.548 380.435C721.548 380.435 721.752 328.196 697.125 313.47L714.269 282.658Z" fill="#FF4B35"/>
<path d="M675.99 302.293C677.005 309.098 679.891 315.13 683.046 321.143C685.845 317.26 689.169 313.97 693.122 311.644L676.803 281.787C674.607 288.58 674.92 295.126 675.99 302.293Z" fill="#DD2C1F"/>
<path d="M707.84 324.071C708.224 323.106 708.611 322.143 709.015 321.185C711.194 316.009 713.32 310.77 714.3 305.262C715.493 298.555 714.534 291.894 712.741 285.403L697.124 313.47C701.402 316.028 704.929 319.72 707.84 324.071Z" fill="#DD2C1F"/>
<path d="M717.883 229.044C717.668 284.454 707.201 329.333 694.51 329.29C681.82 329.247 671.704 284.298 671.92 228.89C671.984 212.505 672.95 197.05 674.587 183.402C678.518 150.872 686.355 128.613 695.293 128.644C704.23 128.673 711.893 150.985 715.572 183.54C717.101 197.199 717.947 212.66 717.883 229.044Z" fill="#3689A3"/>
<path d="M715.57 183.538C717.099 197.2 717.946 212.663 717.882 229.049C717.668 283.868 704.104 328.87 691.58 329.758L698.582 129.689C706.088 134.431 712.35 155.07 715.57 183.538Z" fill="#266A7A"/>
<path d="M717.306 249.821C717.656 243.117 717.856 236.17 717.883 229.045C717.947 212.661 717.101 197.2 715.571 183.541C715.426 182.264 715.274 181.009 715.118 179.764L675.07 179.629C674.904 180.873 674.741 182.127 674.587 183.403C672.951 197.051 671.984 212.506 671.92 228.89C671.892 236.016 672.038 242.963 672.335 249.669L717.306 249.821Z" fill="#FFFAF3"/>
<path opacity="0.38" d="M696.928 179.771C696.589 180.365 695.162 249.095 694.185 249.998L717.305 249.821C717.655 243.117 717.855 236.17 717.882 229.045C717.946 212.661 717.1 197.199 715.57 183.541C715.426 182.264 715.273 181.009 715.117 179.764L696.928 179.771Z" fill="#64DDD7"/>
<path d="M673.284 264.513C673.451 266.52 673.628 268.507 673.823 270.451L715.656 270.592C715.866 268.65 716.059 266.664 716.241 264.658L673.284 264.513Z" fill="#08374E"/>
<path d="M708.343 309.351C711.213 300.094 713.588 288.057 715.251 274.152L674.2 274.014C675.754 287.929 678.036 299.982 680.832 309.258L708.343 309.351Z" fill="#08374E"/>
<path d="M681.98 312.824C685.556 323.211 689.859 329.274 694.509 329.29C699.161 329.306 703.51 323.272 707.168 312.909L681.98 312.824Z" fill="#08374E"/>
<path d="M712.716 164.322C708.582 142.526 702.333 128.668 695.293 128.644C688.252 128.621 681.896 142.436 677.592 164.203L712.716 164.322Z" fill="#FF4B35"/>
<path opacity="0.49" d="M707.514 223.606C714.845 216.838 714.888 205.825 707.61 199.008C700.332 192.19 688.488 192.15 681.157 198.919C673.826 205.687 673.783 216.7 681.061 223.517C688.34 230.334 700.183 230.374 707.514 223.606Z" fill="#18668E"/>
<path d="M705.784 211.251C705.782 205.364 700.649 200.594 694.319 200.596C687.989 200.598 682.859 205.371 682.861 211.258C682.863 217.144 687.996 221.914 694.326 221.912C700.657 221.91 705.786 217.137 705.784 211.251Z" fill="#0F314A"/>
<path d="M700.606 211.282C700.593 214.502 697.776 217.103 694.314 217.091C690.851 217.08 688.055 214.46 688.067 211.24C688.08 208.02 690.897 205.42 694.359 205.431C697.822 205.444 700.619 208.064 700.606 211.282Z" fill="#FFC931"/>
<path d="M695.272 217.032C697.792 216.827 700.593 214.462 700.606 211.284C700.617 208.505 698.533 206.183 695.737 205.59C695.616 208.134 695.422 215.727 695.272 217.032Z" fill="#FF7C33"/>
<path d="M706.637 366.34C706.69 352.466 701.341 341.202 694.688 341.179C688.035 341.157 682.355 352.394 682.544 366.258C682.689 376.897 694.147 430.677 694.147 430.677L694.314 431.513L694.488 430.678L705.104 379.599C705.838 376.068 706.343 372.344 706.559 368.529C706.605 367.734 706.634 366.98 706.637 366.34Z" fill="url(#paint0_linear_366_9)"/>
<path d="M704.52 359.088C704.564 347.786 700.614 338.611 695.696 338.594C690.778 338.578 686.576 347.733 686.712 359.028C686.816 367.695 695.27 411.504 695.27 411.504L695.394 412.185L695.522 411.504L703.385 369.891C703.928 367.014 704.303 363.98 704.464 360.871C704.496 360.225 704.517 359.612 704.52 359.088Z" fill="#DD2C1F"/>
<path d="M702.54 355.104C702.575 345.999 699.064 338.606 694.697 338.591C690.331 338.576 686.603 345.951 686.726 355.051C686.821 362.033 694.342 397.33 694.342 397.33L694.452 397.879L694.565 397.331L701.533 363.807C702.015 361.49 702.347 359.046 702.488 356.541C702.519 356.019 702.538 355.525 702.54 355.104Z" fill="#FCB302"/>
<path d="M694.31 135.171C693.784 135.169 693.355 134.767 693.356 134.277L693.454 109.345C693.456 108.855 693.888 108.456 694.415 108.457C694.941 108.459 695.37 108.861 695.369 109.351L695.271 134.284C695.269 134.773 694.837 135.173 694.31 135.171Z" fill="#FF4B35"/>
<path d="M696.98 109.406C698.495 108.008 698.504 105.732 697 104.323C695.496 102.914 693.048 102.906 691.533 104.305C690.018 105.703 690.009 107.979 691.513 109.388C693.017 110.797 695.465 110.805 696.98 109.406Z" fill="#FF4B35"/>
<path d="M697.447 164.269L712.715 164.322C708.755 143.44 702.853 129.853 696.173 128.729C696.259 140.575 697.678 152.436 697.447 164.269Z" fill="#DD2C1F"/>
<path d="M686.443 143.873C684.939 148.29 682.899 155.09 682.35 159.703" stroke="#FFFAF3" stroke-width="1.247" stroke-miterlimit="10" stroke-linecap="round" stroke-linejoin="round"/>
<path d="M690.237 134.768C689.655 136.002 689.11 137.251 688.584 138.506" stroke="#FFFAF3" stroke-width="1.247" stroke-miterlimit="10" stroke-linecap="round" stroke-linejoin="round"/>
<path opacity="0.6" d="M694.338 327.212L695.609 283.262C695.609 283.262 712.987 301.848 701.632 324.298C701.632 324.298 696.658 331.18 695.285 330.92C693.912 330.66 694.338 327.212 694.338 327.212Z" fill="#051E28"/>
<path d="M693.875 333.78C691.784 333.773 690.08 332.177 690.088 330.233L690.267 284.144C690.275 282.2 691.992 280.615 694.082 280.622C696.173 280.629 697.878 282.226 697.87 284.17L697.69 330.258C697.683 332.202 695.966 333.787 693.875 333.78Z" fill="#DB3C27"/>
<path d="M779.517 191.86L781.478 305.396L761.654 305.33L761.04 191.798L779.517 191.86Z" fill="#153049"/>
<path d="M747.547 194.423L793.455 193.064L770.287 162.402L747.547 194.423Z" fill="#153049"/>
<path d="M624.43 195.733L626.391 309.269L606.568 309.202L605.954 195.671L624.43 195.733Z" fill="#153049"/>
<path d="M592.46 198.296L638.368 196.937L615.201 166.275L592.46 198.296Z" fill="#153049"/>
<path d="M805.54 216.04L804.857 287.767L792.479 287.941L794.003 216.201L805.54 216.04Z" fill="#0768A3"/>
<path d="M785.544 217.985L814.228 216.638L800.147 197.749L785.544 217.985Z" fill="#0768A3"/>
<path d="M585.752 218.971L585.069 290.699L572.691 290.873L574.215 219.133L585.752 218.971Z" fill="#0768A3"/>
<path d="M565.757 220.918L594.441 219.57L580.359 200.681L565.757 220.918Z" fill="#0768A3"/>
<g clip-path="url(#clip0_366_9)">
<g filter="url(#filter1_d_366_9)">
<path d="M981.678 637.772C930.023 605.522 858.441 616.213 821.783 661.656C802.394 685.674 796.672 714.607 803.202 741.305L803.135 741.275C804.161 745.673 803.185 750.426 799.987 754.394C793.878 761.976 781.928 763.752 773.31 758.377C772.486 757.874 771.762 757.296 771.055 756.704C768.463 754.187 765.703 751.759 762.791 749.449V749.508C742.459 733.398 715.546 723.58 686.042 723.58C652.733 723.58 622.74 736.092 601.786 756.038V755.979C601.651 756.097 601.533 756.216 601.415 756.319C597.931 759.473 593.084 761.428 587.698 761.428C577.128 761.428 568.561 753.891 568.561 744.592C568.561 743.304 568.73 742.06 569.033 740.86C568.999 740.875 568.965 740.89 568.932 740.905C570.514 734.227 571.355 727.312 571.355 720.234C571.372 664.499 520.021 619.337 456.686 619.337C393.351 619.337 342 664.499 342 720.234C342 775.968 393.351 821.131 456.686 821.131C490.179 821.131 520.29 808.5 541.261 788.362V788.421C544.762 785.134 549.727 783.091 555.248 783.091C565.818 783.091 574.385 790.628 574.385 799.927C574.385 800.815 574.284 801.674 574.132 802.518C572.348 809.596 571.372 816.94 571.372 824.492C571.372 880.212 622.723 925.389 686.058 925.389C749.393 925.389 800.745 880.212 800.745 824.492C800.745 816.999 799.785 809.699 798.018 802.666C797.244 798.461 798.254 793.989 801.283 790.228C807.393 782.647 819.343 780.87 827.96 786.245C829.155 786.985 830.216 787.829 831.141 788.747C831.141 788.718 831.141 788.673 831.141 788.644C836.41 793.634 842.334 798.239 848.898 802.34C900.552 834.59 972.135 823.9 1008.79 778.456C1045.45 733.013 1033.3 670.037 981.644 637.787L981.678 637.772Z" fill="url(#paint1_linear_366_9)"/>
<path d="M456.686 793.041C502.392 793.041 539.444 760.444 539.444 720.234C539.444 680.023 502.392 647.426 456.686 647.426C410.98 647.426 373.928 680.023 373.928 720.234C373.928 760.444 410.98 793.041 456.686 793.041Z" fill="url(#paint2_linear_366_9)"/>
<path d="M456.198 940.255V769.231H451.805V940.24C449.835 940.981 448.472 942.698 448.472 944.697C448.472 947.377 450.946 949.554 453.993 949.554C457.039 949.554 459.513 947.377 459.513 944.697C459.513 942.698 458.133 940.981 456.181 940.24L456.198 940.255Z" fill="url(#paint3_linear_366_9)"/>
<path d="M455.104 773.732C489.776 773.732 517.883 749.005 517.883 718.501C517.883 687.998 489.776 663.27 455.104 663.27C420.432 663.27 392.324 687.998 392.324 718.501C392.324 749.005 420.432 773.732 455.104 773.732Z" fill="white"/>
<path d="M455.104 777.597C489.776 777.597 517.883 752.869 517.883 722.366C517.883 691.863 489.776 667.135 455.104 667.135C420.432 667.135 392.324 691.863 392.324 722.366C392.324 752.869 420.432 777.597 455.104 777.597Z" fill="#D7DBFF"/>
<path d="M455.104 775.465C489.776 775.465 517.883 750.737 517.883 720.234C517.883 689.73 489.776 665.002 455.104 665.002C420.432 665.002 392.324 689.73 392.324 720.234C392.324 750.737 420.432 775.465 455.104 775.465Z" fill="#F8F8FF"/>
<path d="M686.058 897.27C731.764 897.27 768.816 864.673 768.816 824.462C768.816 784.252 731.764 751.655 686.058 751.655C640.352 751.655 603.3 784.252 603.3 824.462C603.3 864.673 640.352 897.27 686.058 897.27Z" fill="url(#paint4_linear_366_9)"/>
<path d="M686.664 940.255V876.125H682.271V940.255C680.302 940.995 678.939 942.713 678.939 944.712C678.939 947.392 681.413 949.569 684.46 949.569C687.506 949.569 689.98 947.392 689.98 944.712C689.98 942.713 688.6 940.995 686.648 940.255H686.664Z" fill="url(#paint5_linear_366_9)"/>
<path d="M684.476 877.976C719.149 877.976 747.256 853.248 747.256 822.745C747.256 792.241 719.149 767.513 684.476 767.513C649.804 767.513 621.697 792.241 621.697 822.745C621.697 853.248 649.804 877.976 684.476 877.976Z" fill="white"/>
<path d="M684.476 879.693C719.149 879.693 747.256 854.965 747.256 824.462C747.256 793.959 719.149 769.231 684.476 769.231C649.804 769.231 621.697 793.959 621.697 824.462C621.697 854.965 649.804 879.693 684.476 879.693Z" fill="#F8F8FF"/>
<path d="M915.431 793.041C961.137 793.041 998.189 760.444 998.189 720.234C998.189 680.023 961.137 647.426 915.431 647.426C869.725 647.426 832.673 680.023 832.673 720.234C832.673 760.444 869.725 793.041 915.431 793.041Z" fill="url(#paint6_linear_366_9)"/>
<path d="M917.131 940.255V772.252H912.738V940.24C910.769 940.981 909.405 942.698 909.405 944.697C909.405 947.378 911.879 949.554 914.926 949.554C917.972 949.554 920.446 947.378 920.446 944.697C920.446 942.698 919.066 940.981 917.114 940.24L917.131 940.255Z" fill="url(#paint7_linear_366_9)"/>
<path d="M913.849 773.732C948.521 773.732 976.628 749.005 976.628 718.501C976.628 687.998 948.521 663.27 913.849 663.27C879.177 663.27 851.069 687.998 851.069 718.501C851.069 749.005 879.177 773.732 913.849 773.732Z" fill="white"/>
<path d="M913.849 777.597C948.521 777.597 976.628 752.869 976.628 722.366C976.628 691.863 948.521 667.135 913.849 667.135C879.177 667.135 851.069 691.863 851.069 722.366C851.069 752.869 879.177 777.597 913.849 777.597Z" fill="#D7DBFF"/>
<path d="M913.849 775.465C948.521 775.465 976.628 750.737 976.628 720.234C976.628 689.73 948.521 665.002 913.849 665.002C879.177 665.002 851.069 689.73 851.069 720.234C851.069 750.737 879.177 775.465 913.849 775.465Z" fill="#F8F8FF"/>
<path d="M941.065 740.331L928.324 720.201C928.123 719.872 927.722 719.698 927.277 719.678C926.854 719.678 926.453 719.91 926.274 720.24L921.864 728.175L908.788 707.329V703.555H921.53C921.998 703.555 922.421 703.303 922.599 702.935C922.777 702.568 922.688 702.122 922.354 701.832L918.545 698.522L922.354 695.212C922.688 694.922 922.777 694.496 922.599 694.109C922.421 693.741 921.998 693.49 921.53 693.49H907.63C906.984 693.49 906.472 693.935 906.472 694.496V707.329L885.755 740.312C885.555 740.621 885.577 741.008 885.755 741.299C885.934 741.589 886.335 741.783 886.758 741.783H940.041C940.442 741.783 940.82 741.589 941.043 741.279C941.244 740.97 941.266 740.602 941.043 740.292L941.065 740.331ZM907.608 709.71L913.533 719.156L911.216 721.169L908.543 718.072C908.098 717.568 907.118 717.568 906.694 718.072L904.021 721.169L901.705 719.156L907.63 709.71H907.608Z" fill="#000054"/>
<path d="M442.241 742.047V735.164C441.425 727.991 431.79 724.151 431.79 713.135C431.79 702.125 439.254 693.726 454.186 693.86C464.936 693.962 475.088 699.368 475.088 710.384L481.061 718.643C481.061 724.151 475.088 724.151 475.088 724.151C475.088 724.151 476.583 737.918 463.143 737.918V742.047" stroke="#000054" stroke-width="6" stroke-linecap="round" stroke-linejoin="round"/>
<path d="M453.688 717.954C455.14 717.954 456.532 717.446 457.559 716.543C458.586 715.639 459.163 714.413 459.163 713.135C459.163 711.857 458.586 710.632 457.559 709.728C456.532 708.824 455.14 708.317 453.688 708.317C452.236 708.317 450.844 708.824 449.817 709.728C448.79 710.632 448.213 711.857 448.213 713.135C448.213 714.413 448.79 715.639 449.817 716.543C450.844 717.446 452.236 717.954 453.688 717.954Z" stroke="#000054" stroke-width="6" stroke-linecap="round" stroke-linejoin="round"/>
<path d="M453.688 720.363C455.866 720.363 457.955 719.602 459.495 718.246C461.035 716.891 461.9 715.052 461.9 713.135C461.9 711.218 461.035 709.38 459.495 708.024C457.955 706.669 455.866 705.907 453.688 705.907C451.51 705.907 449.421 706.669 447.881 708.024C446.341 709.38 445.476 711.218 445.476 713.135C445.476 715.052 446.341 716.891 447.881 718.246C449.421 719.602 451.51 720.363 453.688 720.363Z" stroke="#000054" stroke-width="6" stroke-linecap="round" stroke-linejoin="round"/>
</g>
<path d="M679.805 789.955L675.743 792.935L679.805 795.915C679.94 796.012 680.052 796.131 680.134 796.267C680.215 796.402 680.266 796.55 680.283 796.703C680.299 796.856 680.281 797.01 680.23 797.156C680.178 797.303 680.094 797.439 679.983 797.557C679.871 797.674 679.734 797.772 679.58 797.843C679.426 797.914 679.257 797.957 679.083 797.97C678.91 797.984 678.735 797.967 678.569 797.92C678.403 797.874 678.249 797.799 678.116 797.7L672.837 793.827C672.688 793.718 672.569 793.582 672.486 793.428C672.404 793.274 672.362 793.105 672.362 792.935C672.362 792.765 672.404 792.596 672.486 792.442C672.569 792.288 672.688 792.151 672.837 792.042L678.116 788.17C678.385 787.976 678.731 787.883 679.078 787.912C679.424 787.941 679.744 788.09 679.967 788.325C680.189 788.561 680.298 788.864 680.267 789.17C680.237 789.475 680.071 789.757 679.805 789.955ZM699.162 792.042L693.883 788.17C693.75 788.071 693.596 787.996 693.43 787.95C693.264 787.903 693.089 787.886 692.916 787.9C692.742 787.913 692.573 787.956 692.419 788.027C692.265 788.098 692.128 788.196 692.016 788.313C691.905 788.431 691.821 788.567 691.769 788.714C691.718 788.86 691.7 789.014 691.716 789.167C691.733 789.32 691.784 789.468 691.865 789.603C691.947 789.738 692.059 789.858 692.194 789.955L696.256 792.935L692.194 795.915C692.059 796.012 691.947 796.131 691.865 796.267C691.784 796.402 691.733 796.55 691.716 796.703C691.7 796.856 691.718 797.01 691.769 797.156C691.821 797.303 691.905 797.439 692.016 797.557C692.128 797.674 692.265 797.772 692.419 797.843C692.573 797.914 692.742 797.957 692.916 797.97C693.089 797.984 693.264 797.967 693.43 797.92C693.596 797.874 693.75 797.799 693.883 797.7L699.162 793.827C699.311 793.718 699.43 793.582 699.512 793.428C699.595 793.274 699.637 793.105 699.637 792.935C699.637 792.765 699.595 792.596 699.512 792.442C699.43 792.288 699.311 792.151 699.162 792.042ZM689.97 783.324C689.807 783.272 689.634 783.249 689.461 783.255C689.288 783.262 689.118 783.299 688.96 783.363C688.803 783.428 688.662 783.519 688.545 783.632C688.428 783.744 688.337 783.876 688.278 784.019L681.239 801.057C681.12 801.346 681.136 801.666 681.284 801.945C681.432 802.224 681.7 802.439 682.029 802.545C682.173 802.592 682.326 802.616 682.48 802.615C682.751 802.615 683.015 802.542 683.237 802.405C683.459 802.268 683.628 802.075 683.721 801.851L690.759 784.813C690.819 784.67 690.845 784.517 690.838 784.365C690.83 784.213 690.788 784.063 690.715 783.925C690.642 783.786 690.538 783.662 690.41 783.559C690.282 783.456 690.133 783.376 689.97 783.324Z" fill="#000054"/>
<g clip-path="url(#clip1_366_9)">
<path d="M681.966 856.187C681.836 856.646 681.534 857.055 681.11 857.346C680.686 857.638 680.163 857.796 679.625 857.796C679.421 857.797 679.219 857.776 679.021 857.733L669.365 855.608C669.097 855.548 668.841 855.449 668.611 855.313L661.369 851.064C660.837 850.751 660.467 850.265 660.342 849.712C660.216 849.159 660.345 848.586 660.701 848.117C661.056 847.648 661.608 847.323 662.236 847.212C662.864 847.102 663.516 847.216 664.049 847.529L670.94 851.574L680.192 853.611C680.501 853.677 680.792 853.796 681.049 853.961C681.306 854.126 681.523 854.335 681.687 854.574C681.852 854.813 681.962 855.079 682.01 855.356C682.058 855.633 682.043 855.915 681.966 856.187ZM722.005 830.568C721.807 831.097 721.491 831.587 721.077 832.009C720.663 832.431 720.157 832.776 719.591 833.025L712.445 836.169L695.825 850.801C695.53 851.06 695.164 851.248 694.762 851.345C694.36 851.443 693.936 851.448 693.532 851.358L674.22 847.109C673.927 847.044 673.649 846.931 673.403 846.777L656.65 836.249L649.323 833.025C648.178 832.521 647.308 831.637 646.902 830.569C646.497 829.5 646.591 828.333 647.163 827.325L654.661 814.128C655.234 813.12 656.237 812.354 657.452 811.997C658.666 811.64 659.992 811.723 661.137 812.226L667.793 815.148L683.786 811.127C684.22 811.017 684.68 811.017 685.113 811.127L701.106 815.148L707.762 812.226C708.908 811.723 710.233 811.64 711.447 811.997C712.662 812.354 713.665 813.12 714.238 814.128L721.736 827.325C722.022 827.823 722.193 828.366 722.239 828.923C722.285 829.479 722.206 830.039 722.005 830.568ZM708.07 834.005L699.86 819.551H690.258L677.211 830.706C681.031 832.855 687.02 833.447 692.394 828.68C692.814 828.307 693.376 828.085 693.971 828.055C694.565 828.025 695.152 828.19 695.617 828.518L706 835.84L708.07 834.005ZM651.481 829.224L656.819 831.575L664.317 818.377L658.979 816.027L651.481 829.224ZM702.557 838.849L694.196 832.956C688.3 837.205 680.814 837.765 674.61 834.284C673.999 833.942 673.484 833.484 673.102 832.943C672.72 832.403 672.481 831.794 672.402 831.161C672.323 830.528 672.407 829.888 672.647 829.287C672.887 828.687 673.277 828.142 673.789 827.692C673.796 827.684 673.804 827.677 673.813 827.67L687.349 816.115L684.453 815.387L669.239 819.214L660.98 833.75L675.826 843.085L693.369 846.944L702.557 838.849ZM717.415 829.224L709.926 816.027L704.588 818.377L712.086 831.575L717.415 829.224Z" fill="#000054"/>
</g>
</g>
<g clip-path="url(#clip2_366_9)">
<g filter="url(#filter2_d_366_9)">
<path d="M981.678 637.772C930.023 605.522 858.441 616.213 821.783 661.656C802.394 685.674 796.672 714.607 803.202 741.305L803.135 741.275C804.161 745.673 803.185 750.426 799.987 754.394C793.878 761.976 781.928 763.752 773.31 758.377C772.486 757.874 771.762 757.296 771.055 756.704C768.463 754.187 765.703 751.759 762.791 749.449V749.508C742.459 733.398 715.546 723.58 686.042 723.58C652.733 723.58 622.74 736.092 601.786 756.038V755.979C601.651 756.097 601.533 756.216 601.415 756.319C597.931 759.473 593.084 761.428 587.698 761.428C577.128 761.428 568.561 753.891 568.561 744.592C568.561 743.304 568.73 742.06 569.033 740.86C568.999 740.875 568.965 740.89 568.932 740.905C570.514 734.227 571.355 727.312 571.355 720.234C571.372 664.499 520.021 619.337 456.686 619.337C393.351 619.337 342 664.499 342 720.234C342 775.968 393.351 821.131 456.686 821.131C490.179 821.131 520.29 808.5 541.261 788.362V788.421C544.762 785.134 549.727 783.091 555.248 783.091C565.818 783.091 574.385 790.628 574.385 799.927C574.385 800.815 574.284 801.674 574.132 802.518C572.348 809.596 571.372 816.94 571.372 824.492C571.372 880.212 622.723 925.389 686.058 925.389C749.393 925.389 800.745 880.212 800.745 824.492C800.745 816.999 799.785 809.699 798.018 802.666C797.244 798.461 798.254 793.989 801.283 790.228C807.393 782.647 819.343 780.87 827.96 786.245C829.155 786.985 830.216 787.829 831.141 788.747C831.141 788.718 831.141 788.673 831.141 788.644C836.41 793.634 842.334 798.239 848.898 802.34C900.552 834.59 972.135 823.9 1008.79 778.456C1045.45 733.013 1033.3 670.037 981.644 637.787L981.678 637.772Z" fill="url(#paint8_linear_366_9)"/>
<path d="M456.686 793.041C502.392 793.041 539.444 760.444 539.444 720.234C539.444 680.023 502.392 647.426 456.686 647.426C410.98 647.426 373.928 680.023 373.928 720.234C373.928 760.444 410.98 793.041 456.686 793.041Z" fill="url(#paint9_linear_366_9)"/>
<path d="M456.198 940.255V769.231H451.805V940.24C449.835 940.981 448.472 942.698 448.472 944.697C448.472 947.377 450.946 949.554 453.993 949.554C457.039 949.554 459.513 947.377 459.513 944.697C459.513 942.698 458.133 940.981 456.181 940.24L456.198 940.255Z" fill="url(#paint10_linear_366_9)"/>
<path d="M455.104 773.732C489.776 773.732 517.883 749.005 517.883 718.501C517.883 687.998 489.776 663.27 455.104 663.27C420.432 663.27 392.324 687.998 392.324 718.501C392.324 749.005 420.432 773.732 455.104 773.732Z" fill="white"/>
<path d="M455.104 777.597C489.776 777.597 517.883 752.869 517.883 722.366C517.883 691.863 489.776 667.135 455.104 667.135C420.432 667.135 392.324 691.863 392.324 722.366C392.324 752.869 420.432 777.597 455.104 777.597Z" fill="#D7DBFF"/>
<path d="M455.104 775.465C489.776 775.465 517.883 750.737 517.883 720.234C517.883 689.73 489.776 665.002 455.104 665.002C420.432 665.002 392.324 689.73 392.324 720.234C392.324 750.737 420.432 775.465 455.104 775.465Z" fill="#F8F8FF"/>
<path d="M686.058 897.27C731.764 897.27 768.816 864.673 768.816 824.462C768.816 784.252 731.764 751.655 686.058 751.655C640.352 751.655 603.3 784.252 603.3 824.462C603.3 864.673 640.352 897.27 686.058 897.27Z" fill="url(#paint11_linear_366_9)"/>
<path d="M686.664 940.255V876.125H682.271V940.255C680.302 940.995 678.939 942.713 678.939 944.712C678.939 947.392 681.413 949.569 684.46 949.569C687.506 949.569 689.98 947.392 689.98 944.712C689.98 942.713 688.6 940.995 686.648 940.255H686.664Z" fill="url(#paint12_linear_366_9)"/>
<path d="M684.476 877.976C719.149 877.976 747.256 853.248 747.256 822.745C747.256 792.241 719.149 767.513 684.476 767.513C649.804 767.513 621.697 792.241 621.697 822.745C621.697 853.248 649.804 877.976 684.476 877.976Z" fill="white"/>
<path d="M684.476 879.693C719.149 879.693 747.256 854.965 747.256 824.462C747.256 793.959 719.149 769.231 684.476 769.231C649.804 769.231 621.697 793.959 621.697 824.462C621.697 854.965 649.804 879.693 684.476 879.693Z" fill="#F8F8FF"/>
<path d="M915.431 793.041C961.137 793.041 998.189 760.444 998.189 720.234C998.189 680.023 961.137 647.426 915.431 647.426C869.725 647.426 832.673 680.023 832.673 720.234C832.673 760.444 869.725 793.041 915.431 793.041Z" fill="url(#paint13_linear_366_9)"/>
<path d="M917.131 940.255V772.252H912.738V940.24C910.769 940.981 909.405 942.698 909.405 944.697C909.405 947.378 911.879 949.554 914.926 949.554C917.972 949.554 920.446 947.378 920.446 944.697C920.446 942.698 919.066 940.981 917.114 940.24L917.131 940.255Z" fill="url(#paint14_linear_366_9)"/>
<path d="M913.849 773.732C948.521 773.732 976.628 749.005 976.628 718.501C976.628 687.998 948.521 663.27 913.849 663.27C879.177 663.27 851.069 687.998 851.069 718.501C851.069 749.005 879.177 773.732 913.849 773.732Z" fill="white"/>
<path d="M913.849 777.597C948.521 777.597 976.628 752.869 976.628 722.366C976.628 691.863 948.521 667.135 913.849 667.135C879.177 667.135 851.069 691.863 851.069 722.366C851.069 752.869 879.177 777.597 913.849 777.597Z" fill="#D7DBFF"/>
<path d="M913.849 775.465C948.521 775.465 976.628 750.737 976.628 720.234C976.628 689.73 948.521 665.002 913.849 665.002C879.177 665.002 851.069 689.73 851.069 720.234C851.069 750.737 879.177 775.465 913.849 775.465Z" fill="#F8F8FF"/>
<path d="M941.065 740.331L928.324 720.201C928.123 719.872 927.722 719.698 927.277 719.678C926.854 719.678 926.453 719.91 926.274 720.24L921.864 728.175L908.788 707.329V703.555H921.53C921.998 703.555 922.421 703.303 922.599 702.935C922.777 702.568 922.688 702.122 922.354 701.832L918.545 698.522L922.354 695.212C922.688 694.922 922.777 694.496 922.599 694.109C922.421 693.741 921.998 693.49 921.53 693.49H907.63C906.984 693.49 906.472 693.935 906.472 694.496V707.329L885.755 740.312C885.555 740.621 885.577 741.008 885.755 741.299C885.934 741.589 886.335 741.783 886.758 741.783H940.041C940.442 741.783 940.82 741.589 941.043 741.279C941.244 740.97 941.266 740.602 941.043 740.292L941.065 740.331ZM907.608 709.71L913.533 719.156L911.216 721.169L908.543 718.072C908.098 717.568 907.118 717.568 906.694 718.072L904.021 721.169L901.705 719.156L907.63 709.71H907.608Z" fill="#000054"/>
<path d="M442.241 742.047V735.164C441.425 727.991 431.79 724.151 431.79 713.135C431.79 702.125 439.254 693.726 454.186 693.86C464.936 693.962 475.088 699.368 475.088 710.384L481.061 718.643C481.061 724.151 475.088 724.151 475.088 724.151C475.088 724.151 476.583 737.918 463.143 737.918V742.047" stroke="#000054" stroke-width="6" stroke-linecap="round" stroke-linejoin="round"/>
<path d="M453.688 717.954C455.14 717.954 456.532 717.446 457.559 716.543C458.586 715.639 459.163 714.413 459.163 713.135C459.163 711.857 458.586 710.632 457.559 709.728C456.532 708.824 455.14 708.317 453.688 708.317C452.236 708.317 450.844 708.824 449.817 709.728C448.79 710.632 448.213 711.857 448.213 713.135C448.213 714.413 448.79 715.639 449.817 716.543C450.844 717.446 452.236 717.954 453.688 717.954Z" stroke="#000054" stroke-width="6" stroke-linecap="round" stroke-linejoin="round"/>
<path d="M453.688 720.363C455.866 720.363 457.955 719.602 459.495 718.246C461.035 716.891 461.9 715.052 461.9 713.135C461.9 711.218 461.035 709.38 459.495 708.024C457.955 706.669 455.866 705.907 453.688 705.907C451.51 705.907 449.421 706.669 447.881 708.024C446.341 709.38 445.476 711.218 445.476 713.135C445.476 715.052 446.341 716.891 447.881 718.246C449.421 719.602 451.51 720.363 453.688 720.363Z" stroke="#000054" stroke-width="6" stroke-linecap="round" stroke-linejoin="round"/>
</g>
<path d="M679.805 789.955L675.743 792.935L679.805 795.915C679.94 796.012 680.052 796.131 680.134 796.267C680.215 796.402 680.266 796.55 680.283 796.703C680.299 796.856 680.281 797.01 680.23 797.156C680.178 797.303 680.094 797.439 679.983 797.557C679.871 797.674 679.734 797.772 679.58 797.843C679.426 797.914 679.257 797.957 679.083 797.97C678.91 797.984 678.735 797.967 678.569 797.92C678.403 797.874 678.249 797.799 678.116 797.7L672.837 793.827C672.688 793.718 672.569 793.582 672.486 793.428C672.404 793.274 672.362 793.105 672.362 792.935C672.362 792.765 672.404 792.596 672.486 792.442C672.569 792.288 672.688 792.151 672.837 792.042L678.116 788.17C678.385 787.976 678.731 787.883 679.078 787.912C679.424 787.941 679.744 788.09 679.967 788.325C680.189 788.561 680.298 788.864 680.267 789.17C680.237 789.475 680.071 789.757 679.805 789.955ZM699.162 792.042L693.883 788.17C693.75 788.071 693.596 787.996 693.43 787.95C693.264 787.903 693.089 787.886 692.916 787.9C692.742 787.913 692.573 787.956 692.419 788.027C692.265 788.098 692.128 788.196 692.016 788.313C691.905 788.431 691.821 788.567 691.769 788.714C691.718 788.86 691.7 789.014 691.716 789.167C691.733 789.32 691.784 789.468 691.865 789.603C691.947 789.738 692.059 789.858 692.194 789.955L696.256 792.935L692.194 795.915C692.059 796.012 691.947 796.131 691.865 796.267C691.784 796.402 691.733 796.55 691.716 796.703C691.7 796.856 691.718 797.01 691.769 797.156C691.821 797.303 691.905 797.439 692.016 797.557C692.128 797.674 692.265 797.772 692.419 797.843C692.573 797.914 692.742 797.957 692.916 797.97C693.089 797.984 693.264 797.967 693.43 797.92C693.596 797.874 693.75 797.799 693.883 797.7L699.162 793.827C699.311 793.718 699.43 793.582 699.512 793.428C699.595 793.274 699.637 793.105 699.637 792.935C699.637 792.765 699.595 792.596 699.512 792.442C699.43 792.288 699.311 792.151 699.162 792.042ZM689.97 783.324C689.807 783.272 689.634 783.249 689.461 783.255C689.288 783.262 689.118 783.299 688.96 783.363C688.803 783.428 688.662 783.519 688.545 783.632C688.428 783.744 688.337 783.876 688.278 784.019L681.239 801.057C681.12 801.346 681.136 801.666 681.284 801.945C681.432 802.224 681.7 802.439 682.029 802.545C682.173 802.592 682.326 802.616 682.48 802.615C682.751 802.615 683.015 802.542 683.237 802.405C683.459 802.268 683.628 802.075 683.721 801.851L690.759 784.813C690.819 784.67 690.845 784.517 690.838 784.365C690.83 784.213 690.788 784.063 690.715 783.925C690.642 783.786 690.538 783.662 690.41 783.559C690.282 783.456 690.133 783.376 689.97 783.324Z" fill="#000054"/>
<g clip-path="url(#clip3_366_9)">
<path d="M681.966 856.187C681.836 856.646 681.534 857.055 681.11 857.346C680.686 857.638 680.163 857.796 679.625 857.796C679.421 857.797 679.219 857.776 679.021 857.733L669.365 855.608C669.097 855.548 668.841 855.449 668.611 855.313L661.369 851.064C660.837 850.751 660.467 850.265 660.342 849.712C660.216 849.159 660.345 848.586 660.701 848.117C661.056 847.648 661.608 847.323 662.236 847.212C662.864 847.102 663.516 847.216 664.049 847.529L670.94 851.574L680.192 853.611C680.501 853.677 680.792 853.796 681.049 853.961C681.306 854.126 681.523 854.335 681.687 854.574C681.852 854.813 681.962 855.079 682.01 855.356C682.058 855.633 682.043 855.915 681.966 856.187ZM722.005 830.568C721.807 831.097 721.491 831.587 721.077 832.009C720.663 832.431 720.157 832.776 719.591 833.025L712.445 836.169L695.825 850.801C695.53 851.06 695.164 851.248 694.762 851.345C694.36 851.443 693.936 851.448 693.532 851.358L674.22 847.109C673.927 847.044 673.649 846.931 673.403 846.777L656.65 836.249L649.323 833.025C648.178 832.521 647.308 831.637 646.902 830.569C646.497 829.5 646.591 828.333 647.163 827.325L654.661 814.128C655.234 813.12 656.237 812.354 657.452 811.997C658.666 811.64 659.992 811.723 661.137 812.226L667.793 815.148L683.786 811.127C684.22 811.017 684.68 811.017 685.113 811.127L701.106 815.148L707.762 812.226C708.908 811.723 710.233 811.64 711.447 811.997C712.662 812.354 713.665 813.12 714.238 814.128L721.736 827.325C722.022 827.823 722.193 828.366 722.239 828.923C722.285 829.479 722.206 830.039 722.005 830.568ZM708.07 834.005L699.86 819.551H690.258L677.211 830.706C681.031 832.855 687.02 833.447 692.394 828.68C692.814 828.307 693.376 828.085 693.971 828.055C694.565 828.025 695.152 828.19 695.617 828.518L706 835.84L708.07 834.005ZM651.481 829.224L656.819 831.575L664.317 818.377L658.979 816.027L651.481 829.224ZM702.557 838.849L694.196 832.956C688.3 837.205 680.814 837.765 674.61 834.284C673.999 833.942 673.484 833.484 673.102 832.943C672.72 832.403 672.481 831.794 672.402 831.161C672.323 830.528 672.407 829.888 672.647 829.287C672.887 828.687 673.277 828.142 673.789 827.692C673.796 827.684 673.804 827.677 673.813 827.67L687.349 816.115L684.453 815.387L669.239 819.214L660.98 833.75L675.826 843.085L693.369 846.944L702.557 838.849ZM717.415 829.224L709.926 816.027L704.588 818.377L712.086 831.575L717.415 829.224Z" fill="#000054"/>
</g>
</g>
<mask id="mask0_366_9" style="mask-type:alpha" maskUnits="userSpaceOnUse" x="-85" y="1058" width="1451" height="239">
<rect x="-84.0005" y="1058.06" width="1450" height="238.054" fill="#D9D9D9"/>
</mask>
<g mask="url(#mask0_366_9)">
<path d="M-281.562 1074.87C1742.16 1257.72 2956.88 602.562 3981.4 752.878C3197.29 856.548 2828.36 1124.25 1736.66 1251.39C832.03 1349.45 8.38806 1230.78 -281.688 1074.88L-281.562 1074.87Z" fill="#0078C1"/>
<path d="M1736.81 1251.43C2828.49 1124.25 3197.44 856.587 3981.55 752.916C3083.56 809.948 2603.77 1106.68 1589 1174.05C228.51 1264.37 -281.416 1074.91 -281.416 1074.91C8.66042 1230.81 832.176 1349.49 1736.93 1251.42L1736.81 1251.43Z" fill="#0170B3"/>
</g>
<path d="M864.113 984V967.2H871.385C872.889 967.2 874.185 967.448 875.273 967.944C876.361 968.424 877.201 969.12 877.793 970.032C878.385 970.944 878.681 972.032 878.681 973.296C878.681 974.544 878.385 975.624 877.793 976.536C877.201 977.432 876.361 978.12 875.273 978.6C874.185 979.08 872.889 979.32 871.385 979.32H866.273L868.001 977.616V984H864.113ZM874.793 984L870.593 977.904H874.745L878.993 984H874.793ZM868.001 978.048L866.273 976.224H871.169C872.369 976.224 873.265 975.968 873.857 975.456C874.449 974.928 874.745 974.208 874.745 973.296C874.745 972.368 874.449 971.648 873.857 971.136C873.265 970.624 872.369 970.368 871.169 970.368H866.273L868.001 968.52V978.048ZM887.906 984.192C886.434 984.192 885.138 983.904 884.018 983.328C882.914 982.752 882.058 981.968 881.45 980.976C880.842 979.968 880.538 978.824 880.538 977.544C880.538 976.248 880.834 975.104 881.426 974.112C882.034 973.104 882.858 972.32 883.898 971.76C884.938 971.184 886.114 970.896 887.426 970.896C888.69 970.896 889.826 971.168 890.834 971.712C891.858 972.24 892.666 973.008 893.258 974.016C893.85 975.008 894.146 976.2 894.146 977.592C894.146 977.736 894.138 977.904 894.122 978.096C894.106 978.272 894.09 978.44 894.074 978.6H883.586V976.416H892.106L890.666 977.064C890.666 976.392 890.53 975.808 890.258 975.312C889.986 974.816 889.61 974.432 889.13 974.16C888.65 973.872 888.09 973.728 887.45 973.728C886.81 973.728 886.242 973.872 885.746 974.16C885.266 974.432 884.89 974.824 884.618 975.336C884.346 975.832 884.21 976.424 884.21 977.112V977.688C884.21 978.392 884.362 979.016 884.666 979.56C884.986 980.088 885.426 980.496 885.986 980.784C886.562 981.056 887.234 981.192 888.002 981.192C888.69 981.192 889.29 981.088 889.802 980.88C890.33 980.672 890.81 980.36 891.242 979.944L893.234 982.104C892.642 982.776 891.898 983.296 891.002 983.664C890.106 984.016 889.074 984.192 887.906 984.192ZM904.207 984V981.48L903.967 980.928V976.416C903.967 975.616 903.719 974.992 903.223 974.544C902.743 974.096 901.999 973.872 900.991 973.872C900.303 973.872 899.623 973.984 898.951 974.208C898.295 974.416 897.735 974.704 897.271 975.072L895.927 972.456C896.631 971.96 897.479 971.576 898.471 971.304C899.463 971.032 900.471 970.896 901.495 970.896C903.463 970.896 904.991 971.36 906.079 972.288C907.167 973.216 907.711 974.664 907.711 976.632V984H904.207ZM900.271 984.192C899.263 984.192 898.399 984.024 897.679 983.688C896.959 983.336 896.407 982.864 896.023 982.272C895.639 981.68 895.447 981.016 895.447 980.28C895.447 979.512 895.631 978.84 895.999 978.264C896.383 977.688 896.983 977.24 897.799 976.92C898.615 976.584 899.679 976.416 900.991 976.416H904.423V978.6H901.399C900.519 978.6 899.911 978.744 899.575 979.032C899.255 979.32 899.095 979.68 899.095 980.112C899.095 980.592 899.279 980.976 899.647 981.264C900.031 981.536 900.551 981.672 901.207 981.672C901.831 981.672 902.391 981.528 902.887 981.24C903.383 980.936 903.743 980.496 903.967 979.92L904.543 981.648C904.271 982.48 903.775 983.112 903.055 983.544C902.335 983.976 901.407 984.192 900.271 984.192ZM917.433 984.192C916.041 984.192 914.801 983.912 913.713 983.352C912.625 982.776 911.769 981.984 911.145 980.976C910.537 979.968 910.233 978.824 910.233 977.544C910.233 976.248 910.537 975.104 911.145 974.112C911.769 973.104 912.625 972.32 913.713 971.76C914.801 971.184 916.041 970.896 917.433 970.896C918.793 970.896 919.977 971.184 920.985 971.76C921.993 972.32 922.737 973.128 923.217 974.184L920.313 975.744C919.977 975.136 919.553 974.688 919.041 974.4C918.545 974.112 918.001 973.968 917.409 973.968C916.769 973.968 916.193 974.112 915.681 974.4C915.169 974.688 914.761 975.096 914.457 975.624C914.169 976.152 914.025 976.792 914.025 977.544C914.025 978.296 914.169 978.936 914.457 979.464C914.761 979.992 915.169 980.4 915.681 980.688C916.193 980.976 916.769 981.12 917.409 981.12C918.001 981.12 918.545 980.984 919.041 980.712C919.553 980.424 919.977 979.968 920.313 979.344L923.217 980.928C922.737 981.968 921.993 982.776 920.985 983.352C919.977 983.912 918.793 984.192 917.433 984.192ZM933.15 970.896C934.174 970.896 935.086 971.104 935.886 971.52C936.702 971.92 937.342 972.544 937.806 973.392C938.27 974.224 938.502 975.296 938.502 976.608V984H934.758V977.184C934.758 976.144 934.526 975.376 934.062 974.88C933.614 974.384 932.974 974.136 932.142 974.136C931.55 974.136 931.014 974.264 930.534 974.52C930.07 974.76 929.702 975.136 929.43 975.648C929.174 976.16 929.046 976.816 929.046 977.616V984H925.302V966.192H929.046V974.664L928.206 973.584C928.67 972.72 929.334 972.056 930.198 971.592C931.062 971.128 932.046 970.896 933.15 970.896ZM941.896 984V971.088H945.64V984H941.896ZM943.768 969.288C943.08 969.288 942.52 969.088 942.088 968.688C941.656 968.288 941.44 967.792 941.44 967.2C941.44 966.608 941.656 966.112 942.088 965.712C942.52 965.312 943.08 965.112 943.768 965.112C944.456 965.112 945.016 965.304 945.448 965.688C945.88 966.056 946.096 966.536 946.096 967.128C946.096 967.752 945.88 968.272 945.448 968.688C945.032 969.088 944.472 969.288 943.768 969.288ZM956.963 970.896C957.987 970.896 958.899 971.104 959.699 971.52C960.515 971.92 961.155 972.544 961.619 973.392C962.083 974.224 962.315 975.296 962.315 976.608V984H958.571V977.184C958.571 976.144 958.339 975.376 957.875 974.88C957.427 974.384 956.787 974.136 955.955 974.136C955.363 974.136 954.827 974.264 954.347 974.52C953.883 974.76 953.515 975.136 953.243 975.648C952.987 976.16 952.859 976.816 952.859 977.616V984H949.115V971.088H952.691V974.664L952.019 973.584C952.483 972.72 953.147 972.056 954.011 971.592C954.875 971.128 955.859 970.896 956.963 970.896ZM971.874 988.848C970.658 988.848 969.482 988.696 968.346 988.392C967.226 988.104 966.29 987.664 965.538 987.072L967.026 984.384C967.57 984.832 968.258 985.184 969.09 985.44C969.938 985.712 970.77 985.848 971.586 985.848C972.914 985.848 973.874 985.552 974.466 984.96C975.074 984.368 975.378 983.488 975.378 982.32V980.376L975.618 977.136L975.57 973.872V971.088H979.122V981.84C979.122 984.24 978.498 986.008 977.25 987.144C976.002 988.28 974.21 988.848 971.874 988.848ZM971.298 983.376C970.098 983.376 969.01 983.12 968.034 982.608C967.074 982.08 966.298 981.352 965.706 980.424C965.13 979.48 964.842 978.384 964.842 977.136C964.842 975.872 965.13 974.776 965.706 973.848C966.298 972.904 967.074 972.176 968.034 971.664C969.01 971.152 970.098 970.896 971.298 970.896C972.386 970.896 973.346 971.12 974.178 971.568C975.01 972 975.658 972.68 976.122 973.608C976.586 974.52 976.818 975.696 976.818 977.136C976.818 978.56 976.586 979.736 976.122 980.664C975.658 981.576 975.01 982.256 974.178 982.704C973.346 983.152 972.386 983.376 971.298 983.376ZM972.042 980.304C972.698 980.304 973.282 980.176 973.794 979.92C974.306 979.648 974.706 979.272 974.994 978.792C975.282 978.312 975.426 977.76 975.426 977.136C975.426 976.496 975.282 975.944 974.994 975.48C974.706 975 974.306 974.632 973.794 974.376C973.282 974.104 972.698 973.968 972.042 973.968C971.386 973.968 970.802 974.104 970.29 974.376C969.778 974.632 969.37 975 969.066 975.48C968.778 975.944 968.634 976.496 968.634 977.136C968.634 977.76 968.778 978.312 969.066 978.792C969.37 979.272 969.778 979.648 970.29 979.92C970.802 980.176 971.386 980.304 972.042 980.304ZM885.852 996.2H889.74V1013H885.852V996.2ZM878.22 1013H874.332V996.2H878.22V1013ZM886.14 1006.11H877.932V1002.82H886.14V1006.11ZM899.859 1013.19C898.387 1013.19 897.091 1012.9 895.971 1012.33C894.867 1011.75 894.011 1010.97 893.403 1009.98C892.795 1008.97 892.491 1007.82 892.491 1006.54C892.491 1005.25 892.787 1004.1 893.379 1003.11C893.987 1002.1 894.811 1001.32 895.851 1000.76C896.891 1000.18 898.067 999.896 899.379 999.896C900.643 999.896 901.779 1000.17 902.787 1000.71C903.811 1001.24 904.619 1002.01 905.211 1003.02C905.803 1004.01 906.099 1005.2 906.099 1006.59C906.099 1006.74 906.091 1006.9 906.075 1007.1C906.059 1007.27 906.043 1007.44 906.027 1007.6H895.539V1005.42H904.059L902.619 1006.06C902.619 1005.39 902.483 1004.81 902.211 1004.31C901.939 1003.82 901.563 1003.43 901.083 1003.16C900.603 1002.87 900.043 1002.73 899.403 1002.73C898.763 1002.73 898.195 1002.87 897.699 1003.16C897.219 1003.43 896.843 1003.82 896.571 1004.34C896.299 1004.83 896.163 1005.42 896.163 1006.11V1006.69C896.163 1007.39 896.315 1008.02 896.619 1008.56C896.939 1009.09 897.379 1009.5 897.939 1009.78C898.515 1010.06 899.187 1010.19 899.955 1010.19C900.643 1010.19 901.243 1010.09 901.755 1009.88C902.283 1009.67 902.763 1009.36 903.195 1008.94L905.187 1011.1C904.595 1011.78 903.851 1012.3 902.955 1012.66C902.059 1013.02 901.027 1013.19 899.859 1013.19ZM908.591 1013V1000.09H912.335V1013H908.591ZM910.463 998.288C909.775 998.288 909.215 998.088 908.783 997.688C908.351 997.288 908.135 996.792 908.135 996.2C908.135 995.608 908.351 995.112 908.783 994.712C909.215 994.312 909.775 994.112 910.463 994.112C911.151 994.112 911.711 994.304 912.143 994.688C912.575 995.056 912.791 995.536 912.791 996.128C912.791 996.752 912.575 997.272 912.143 997.688C911.727 998.088 911.167 998.288 910.463 998.288ZM921.882 1017.85C920.666 1017.85 919.49 1017.7 918.354 1017.39C917.234 1017.1 916.298 1016.66 915.546 1016.07L917.034 1013.38C917.578 1013.83 918.266 1014.18 919.098 1014.44C919.946 1014.71 920.778 1014.85 921.594 1014.85C922.922 1014.85 923.882 1014.55 924.474 1013.96C925.082 1013.37 925.386 1012.49 925.386 1011.32V1009.38L925.626 1006.14L925.578 1002.87V1000.09H929.13V1010.84C929.13 1013.24 928.506 1015.01 927.258 1016.14C926.01 1017.28 924.218 1017.85 921.882 1017.85ZM921.306 1012.38C920.106 1012.38 919.018 1012.12 918.042 1011.61C917.082 1011.08 916.306 1010.35 915.714 1009.42C915.138 1008.48 914.85 1007.38 914.85 1006.14C914.85 1004.87 915.138 1003.78 915.714 1002.85C916.306 1001.9 917.082 1001.18 918.042 1000.66C919.018 1000.15 920.106 999.896 921.306 999.896C922.394 999.896 923.354 1000.12 924.186 1000.57C925.018 1001 925.666 1001.68 926.13 1002.61C926.594 1003.52 926.826 1004.7 926.826 1006.14C926.826 1007.56 926.594 1008.74 926.13 1009.66C925.666 1010.58 925.018 1011.26 924.186 1011.7C923.354 1012.15 922.394 1012.38 921.306 1012.38ZM922.05 1009.3C922.706 1009.3 923.29 1009.18 923.802 1008.92C924.314 1008.65 924.714 1008.27 925.002 1007.79C925.29 1007.31 925.434 1006.76 925.434 1006.14C925.434 1005.5 925.29 1004.94 925.002 1004.48C924.714 1004 924.314 1003.63 923.802 1003.38C923.29 1003.1 922.706 1002.97 922.05 1002.97C921.394 1002.97 920.81 1003.1 920.298 1003.38C919.786 1003.63 919.378 1004 919.074 1004.48C918.786 1004.94 918.642 1005.5 918.642 1006.14C918.642 1006.76 918.786 1007.31 919.074 1007.79C919.378 1008.27 919.786 1008.65 920.298 1008.92C920.81 1009.18 921.394 1009.3 922.05 1009.3ZM940.463 999.896C941.487 999.896 942.399 1000.1 943.199 1000.52C944.015 1000.92 944.655 1001.54 945.119 1002.39C945.583 1003.22 945.815 1004.3 945.815 1005.61V1013H942.071V1006.18C942.071 1005.14 941.839 1004.38 941.375 1003.88C940.927 1003.38 940.287 1003.14 939.455 1003.14C938.863 1003.14 938.327 1003.26 937.847 1003.52C937.383 1003.76 937.015 1004.14 936.743 1004.65C936.487 1005.16 936.359 1005.82 936.359 1006.62V1013H932.615V995.192H936.359V1003.66L935.519 1002.58C935.983 1001.72 936.647 1001.06 937.511 1000.59C938.375 1000.13 939.359 999.896 940.463 999.896ZM954.488 1013.19C952.968 1013.19 951.784 1012.81 950.936 1012.04C950.088 1011.26 949.664 1010.1 949.664 1008.56V997.232H953.408V1008.51C953.408 1009.06 953.552 1009.48 953.84 1009.78C954.128 1010.07 954.52 1010.22 955.016 1010.22C955.608 1010.22 956.112 1010.06 956.528 1009.74L957.536 1012.38C957.152 1012.65 956.688 1012.86 956.144 1013C955.616 1013.13 955.064 1013.19 954.488 1013.19ZM947.672 1003.26V1000.38H956.624V1003.26H947.672ZM963.982 1013.19C962.878 1013.19 961.814 1013.06 960.79 1012.81C959.782 1012.54 958.982 1012.2 958.39 1011.8L959.638 1009.11C960.23 1009.48 960.926 1009.78 961.726 1010.02C962.542 1010.25 963.342 1010.36 964.126 1010.36C964.99 1010.36 965.598 1010.26 965.95 1010.05C966.318 1009.84 966.502 1009.55 966.502 1009.18C966.502 1008.88 966.358 1008.66 966.07 1008.51C965.798 1008.35 965.43 1008.23 964.966 1008.15C964.502 1008.07 963.99 1007.99 963.43 1007.91C962.886 1007.83 962.334 1007.73 961.774 1007.6C961.214 1007.46 960.702 1007.25 960.238 1006.98C959.774 1006.7 959.398 1006.34 959.11 1005.87C958.838 1005.41 958.702 1004.81 958.702 1004.07C958.702 1003.26 958.934 1002.54 959.398 1001.91C959.878 1001.29 960.566 1000.8 961.462 1000.45C962.358 1000.08 963.43 999.896 964.678 999.896C965.558 999.896 966.454 999.992 967.366 1000.18C968.278 1000.38 969.038 1000.66 969.646 1001.02L968.398 1003.69C967.774 1003.32 967.142 1003.07 966.502 1002.94C965.878 1002.8 965.27 1002.73 964.678 1002.73C963.846 1002.73 963.238 1002.84 962.854 1003.06C962.47 1003.29 962.278 1003.58 962.278 1003.93C962.278 1004.25 962.414 1004.49 962.686 1004.65C962.974 1004.81 963.35 1004.94 963.814 1005.03C964.278 1005.13 964.782 1005.22 965.326 1005.3C965.886 1005.36 966.446 1005.46 967.006 1005.61C967.566 1005.75 968.07 1005.96 968.518 1006.23C968.982 1006.49 969.358 1006.85 969.646 1007.31C969.934 1007.76 970.078 1008.35 970.078 1009.09C970.078 1009.89 969.838 1010.6 969.358 1011.22C968.878 1011.83 968.182 1012.31 967.27 1012.66C966.374 1013.02 965.278 1013.19 963.982 1013.19Z" fill="#003667"/>
<path d="M410.762 968.99H419.498V972.37H410.762V968.99ZM411.074 979H406.862V960.8H420.616V964.18H411.074V979ZM429.507 979.208C428.017 979.208 426.691 978.896 425.529 978.272C424.385 977.648 423.475 976.799 422.799 975.724C422.141 974.632 421.811 973.393 421.811 972.006C421.811 970.602 422.141 969.363 422.799 968.288C423.475 967.196 424.385 966.347 425.529 965.74C426.691 965.116 428.017 964.804 429.507 964.804C430.981 964.804 432.298 965.116 433.459 965.74C434.621 966.347 435.531 967.187 436.189 968.262C436.848 969.337 437.177 970.585 437.177 972.006C437.177 973.393 436.848 974.632 436.189 975.724C435.531 976.799 434.621 977.648 433.459 978.272C432.298 978.896 430.981 979.208 429.507 979.208ZM429.507 975.88C430.183 975.88 430.79 975.724 431.327 975.412C431.865 975.1 432.289 974.658 432.601 974.086C432.913 973.497 433.069 972.803 433.069 972.006C433.069 971.191 432.913 970.498 432.601 969.926C432.289 969.354 431.865 968.912 431.327 968.6C430.79 968.288 430.183 968.132 429.507 968.132C428.831 968.132 428.225 968.288 427.687 968.6C427.15 968.912 426.717 969.354 426.387 969.926C426.075 970.498 425.919 971.191 425.919 972.006C425.919 972.803 426.075 973.497 426.387 974.086C426.717 974.658 427.15 975.1 427.687 975.412C428.225 975.724 428.831 975.88 429.507 975.88ZM444.595 979.208C443.399 979.208 442.246 979.069 441.137 978.792C440.045 978.497 439.178 978.133 438.537 977.7L439.889 974.788C440.53 975.187 441.284 975.516 442.151 975.776C443.035 976.019 443.901 976.14 444.751 976.14C445.687 976.14 446.345 976.027 446.727 975.802C447.125 975.577 447.325 975.265 447.325 974.866C447.325 974.537 447.169 974.294 446.857 974.138C446.562 973.965 446.163 973.835 445.661 973.748C445.158 973.661 444.603 973.575 443.997 973.488C443.407 973.401 442.809 973.289 442.203 973.15C441.596 972.994 441.041 972.769 440.539 972.474C440.036 972.179 439.629 971.781 439.317 971.278C439.022 970.775 438.875 970.125 438.875 969.328C438.875 968.444 439.126 967.664 439.629 966.988C440.149 966.312 440.894 965.783 441.865 965.402C442.835 965.003 443.997 964.804 445.349 964.804C446.302 964.804 447.273 964.908 448.261 965.116C449.249 965.324 450.072 965.627 450.731 966.026L449.379 968.912C448.703 968.513 448.018 968.245 447.325 968.106C446.649 967.95 445.99 967.872 445.349 967.872C444.447 967.872 443.789 967.993 443.373 968.236C442.957 968.479 442.749 968.791 442.749 969.172C442.749 969.519 442.896 969.779 443.191 969.952C443.503 970.125 443.91 970.264 444.413 970.368C444.915 970.472 445.461 970.567 446.051 970.654C446.657 970.723 447.264 970.836 447.871 970.992C448.477 971.148 449.023 971.373 449.509 971.668C450.011 971.945 450.419 972.335 450.731 972.838C451.043 973.323 451.199 973.965 451.199 974.762C451.199 975.629 450.939 976.4 450.419 977.076C449.899 977.735 449.145 978.255 448.157 978.636C447.186 979.017 445.999 979.208 444.595 979.208ZM459.421 979.208C457.774 979.208 456.492 978.792 455.573 977.96C454.654 977.111 454.195 975.854 454.195 974.19V961.918H458.251V974.138C458.251 974.727 458.407 975.187 458.719 975.516C459.031 975.828 459.456 975.984 459.993 975.984C460.634 975.984 461.18 975.811 461.631 975.464L462.723 978.324C462.307 978.619 461.804 978.844 461.215 979C460.643 979.139 460.045 979.208 459.421 979.208ZM452.037 968.444V965.324H461.735V968.444H452.037ZM471.51 979.208C469.916 979.208 468.512 978.896 467.298 978.272C466.102 977.648 465.175 976.799 464.516 975.724C463.858 974.632 463.528 973.393 463.528 972.006C463.528 970.602 463.849 969.363 464.49 968.288C465.149 967.196 466.042 966.347 467.168 965.74C468.295 965.116 469.569 964.804 470.99 964.804C472.36 964.804 473.59 965.099 474.682 965.688C475.792 966.26 476.667 967.092 477.308 968.184C477.95 969.259 478.27 970.55 478.27 972.058C478.27 972.214 478.262 972.396 478.244 972.604C478.227 972.795 478.21 972.977 478.192 973.15H466.83V970.784H476.06L474.5 971.486C474.5 970.758 474.353 970.125 474.058 969.588C473.764 969.051 473.356 968.635 472.836 968.34C472.316 968.028 471.71 967.872 471.016 967.872C470.323 967.872 469.708 968.028 469.17 968.34C468.65 968.635 468.243 969.059 467.948 969.614C467.654 970.151 467.506 970.793 467.506 971.538V972.162C467.506 972.925 467.671 973.601 468 974.19C468.347 974.762 468.824 975.204 469.43 975.516C470.054 975.811 470.782 975.958 471.614 975.958C472.36 975.958 473.01 975.845 473.564 975.62C474.136 975.395 474.656 975.057 475.124 974.606L477.282 976.946C476.641 977.674 475.835 978.237 474.864 978.636C473.894 979.017 472.776 979.208 471.51 979.208ZM480.971 979V965.012H484.845V968.964L484.299 967.82C484.715 966.832 485.382 966.087 486.301 965.584C487.219 965.064 488.337 964.804 489.655 964.804V968.548C489.481 968.531 489.325 968.522 489.187 968.522C489.048 968.505 488.901 968.496 488.745 968.496C487.635 968.496 486.734 968.817 486.041 969.458C485.365 970.082 485.027 971.061 485.027 972.396V979H480.971ZM389.216 1011V992.8H393.428V1007.57H402.554V1011H389.216ZM411.487 1011.21C409.892 1011.21 408.488 1010.9 407.275 1010.27C406.079 1009.65 405.152 1008.8 404.493 1007.72C403.834 1006.63 403.505 1005.39 403.505 1004.01C403.505 1002.6 403.826 1001.36 404.467 1000.29C405.126 999.196 406.018 998.347 407.145 997.74C408.272 997.116 409.546 996.804 410.967 996.804C412.336 996.804 413.567 997.099 414.659 997.688C415.768 998.26 416.644 999.092 417.285 1000.18C417.926 1001.26 418.247 1002.55 418.247 1004.06C418.247 1004.21 418.238 1004.4 418.221 1004.6C418.204 1004.79 418.186 1004.98 418.169 1005.15H406.807V1002.78H416.037L414.477 1003.49C414.477 1002.76 414.33 1002.13 414.035 1001.59C413.74 1001.05 413.333 1000.63 412.813 1000.34C412.293 1000.03 411.686 999.872 410.993 999.872C410.3 999.872 409.684 1000.03 409.147 1000.34C408.627 1000.63 408.22 1001.06 407.925 1001.61C407.63 1002.15 407.483 1002.79 407.483 1003.54V1004.16C407.483 1004.92 407.648 1005.6 407.977 1006.19C408.324 1006.76 408.8 1007.2 409.407 1007.52C410.031 1007.81 410.759 1007.96 411.591 1007.96C412.336 1007.96 412.986 1007.85 413.541 1007.62C414.113 1007.39 414.633 1007.06 415.101 1006.61L417.259 1008.95C416.618 1009.67 415.812 1010.24 414.841 1010.64C413.87 1011.02 412.752 1011.21 411.487 1011.21ZM429.146 1011V1008.27L428.886 1007.67V1002.78C428.886 1001.92 428.618 1001.24 428.08 1000.76C427.56 1000.27 426.754 1000.03 425.662 1000.03C424.917 1000.03 424.18 1000.15 423.452 1000.39C422.742 1000.62 422.135 1000.93 421.632 1001.33L420.176 998.494C420.939 997.957 421.858 997.541 422.932 997.246C424.007 996.951 425.099 996.804 426.208 996.804C428.34 996.804 429.996 997.307 431.174 998.312C432.353 999.317 432.942 1000.89 432.942 1003.02V1011H429.146ZM424.882 1011.21C423.79 1011.21 422.854 1011.03 422.074 1010.66C421.294 1010.28 420.696 1009.77 420.28 1009.13C419.864 1008.49 419.656 1007.77 419.656 1006.97C419.656 1006.14 419.856 1005.41 420.254 1004.79C420.67 1004.16 421.32 1003.68 422.204 1003.33C423.088 1002.97 424.241 1002.78 425.662 1002.78H429.38V1005.15H426.104C425.151 1005.15 424.492 1005.31 424.128 1005.62C423.782 1005.93 423.608 1006.32 423.608 1006.79C423.608 1007.31 423.808 1007.72 424.206 1008.04C424.622 1008.33 425.186 1008.48 425.896 1008.48C426.572 1008.48 427.179 1008.32 427.716 1008.01C428.254 1007.68 428.644 1007.2 428.886 1006.58L429.51 1008.45C429.216 1009.35 428.678 1010.04 427.898 1010.51C427.118 1010.97 426.113 1011.21 424.882 1011.21ZM436.613 1011V997.012H440.487V1000.96L439.941 999.82C440.357 998.832 441.025 998.087 441.943 997.584C442.862 997.064 443.98 996.804 445.297 996.804V1000.55C445.124 1000.53 444.968 1000.52 444.829 1000.52C444.691 1000.5 444.543 1000.5 444.387 1000.5C443.278 1000.5 442.377 1000.82 441.683 1001.46C441.007 1002.08 440.669 1003.06 440.669 1004.4V1011H436.613ZM456.236 996.804C457.346 996.804 458.334 997.029 459.2 997.48C460.084 997.913 460.778 998.589 461.28 999.508C461.783 1000.41 462.034 1001.57 462.034 1002.99V1011H457.978V1003.62C457.978 1002.49 457.727 1001.66 457.224 1001.12C456.739 1000.58 456.046 1000.31 455.144 1000.31C454.503 1000.31 453.922 1000.45 453.402 1000.73C452.9 1000.99 452.501 1001.4 452.206 1001.95C451.929 1002.51 451.79 1003.22 451.79 1004.08V1011H447.734V997.012H451.608V1000.89L450.88 999.716C451.383 998.78 452.102 998.061 453.038 997.558C453.974 997.055 455.04 996.804 456.236 996.804ZM465.711 1011V997.012H469.767V1011H465.711ZM467.739 995.062C466.994 995.062 466.387 994.845 465.919 994.412C465.451 993.979 465.217 993.441 465.217 992.8C465.217 992.159 465.451 991.621 465.919 991.188C466.387 990.755 466.994 990.538 467.739 990.538C468.484 990.538 469.091 990.746 469.559 991.162C470.027 991.561 470.261 992.081 470.261 992.722C470.261 993.398 470.027 993.961 469.559 994.412C469.108 994.845 468.502 995.062 467.739 995.062ZM482.033 996.804C483.143 996.804 484.131 997.029 484.997 997.48C485.881 997.913 486.575 998.589 487.077 999.508C487.58 1000.41 487.831 1001.57 487.831 1002.99V1011H483.775V1003.62C483.775 1002.49 483.524 1001.66 483.021 1001.12C482.536 1000.58 481.843 1000.31 480.941 1000.31C480.3 1000.31 479.719 1000.45 479.199 1000.73C478.697 1000.99 478.298 1001.4 478.003 1001.95C477.726 1002.51 477.587 1003.22 477.587 1004.08V1011H473.531V997.012H477.405V1000.89L476.677 999.716C477.18 998.78 477.899 998.061 478.835 997.558C479.771 997.055 480.837 996.804 482.033 996.804ZM498.187 1016.25C496.87 1016.25 495.596 1016.09 494.365 1015.76C493.152 1015.45 492.138 1014.97 491.323 1014.33L492.935 1011.42C493.525 1011.9 494.27 1012.28 495.171 1012.56C496.09 1012.85 496.991 1013 497.875 1013C499.314 1013 500.354 1012.68 500.995 1012.04C501.654 1011.4 501.983 1010.45 501.983 1009.18V1007.07L502.243 1003.56L502.191 1000.03V997.012H506.039V1008.66C506.039 1011.26 505.363 1013.18 504.011 1014.41C502.659 1015.64 500.718 1016.25 498.187 1016.25ZM497.563 1010.32C496.263 1010.32 495.085 1010.05 494.027 1009.49C492.987 1008.92 492.147 1008.13 491.505 1007.13C490.881 1006.1 490.569 1004.92 490.569 1003.56C490.569 1002.19 490.881 1001.01 491.505 1000C492.147 998.979 492.987 998.191 494.027 997.636C495.085 997.081 496.263 996.804 497.563 996.804C498.742 996.804 499.782 997.047 500.683 997.532C501.585 998 502.287 998.737 502.789 999.742C503.292 1000.73 503.543 1002 503.543 1003.56C503.543 1005.11 503.292 1006.38 502.789 1007.39C502.287 1008.37 501.585 1009.11 500.683 1009.6C499.782 1010.08 498.742 1010.32 497.563 1010.32ZM498.369 1007C499.08 1007 499.713 1006.86 500.267 1006.58C500.822 1006.29 501.255 1005.88 501.567 1005.36C501.879 1004.84 502.035 1004.24 502.035 1003.56C502.035 1002.87 501.879 1002.27 501.567 1001.77C501.255 1001.25 500.822 1000.85 500.267 1000.57C499.713 1000.28 499.08 1000.13 498.369 1000.13C497.659 1000.13 497.026 1000.28 496.471 1000.57C495.917 1000.85 495.475 1001.25 495.145 1001.77C494.833 1002.27 494.677 1002.87 494.677 1003.56C494.677 1004.24 494.833 1004.84 495.145 1005.36C495.475 1005.88 495.917 1006.29 496.471 1006.58C497.026 1006.86 497.659 1007 498.369 1007Z" fill="#003667"/>
<path d="M614.264 988.312C612.86 988.312 611.552 988.087 610.338 987.636C609.142 987.168 608.102 986.509 607.218 985.66C606.334 984.811 605.641 983.814 605.138 982.67C604.653 981.526 604.41 980.269 604.41 978.9C604.41 977.531 604.653 976.274 605.138 975.13C605.641 973.986 606.334 972.989 607.218 972.14C608.12 971.291 609.168 970.641 610.364 970.19C611.56 969.722 612.869 969.488 614.29 969.488C615.868 969.488 617.289 969.765 618.554 970.32C619.837 970.857 620.912 971.655 621.778 972.712L619.074 975.208C618.45 974.497 617.757 973.969 616.994 973.622C616.232 973.258 615.4 973.076 614.498 973.076C613.649 973.076 612.869 973.215 612.158 973.492C611.448 973.769 610.832 974.168 610.312 974.688C609.792 975.208 609.385 975.823 609.09 976.534C608.813 977.245 608.674 978.033 608.674 978.9C608.674 979.767 608.813 980.555 609.09 981.266C609.385 981.977 609.792 982.592 610.312 983.112C610.832 983.632 611.448 984.031 612.158 984.308C612.869 984.585 613.649 984.724 614.498 984.724C615.4 984.724 616.232 984.551 616.994 984.204C617.757 983.84 618.45 983.294 619.074 982.566L621.778 985.062C620.912 986.119 619.837 986.925 618.554 987.48C617.289 988.035 615.859 988.312 614.264 988.312ZM630.51 988.208C629.02 988.208 627.694 987.896 626.532 987.272C625.388 986.648 624.478 985.799 623.802 984.724C623.144 983.632 622.814 982.393 622.814 981.006C622.814 979.602 623.144 978.363 623.802 977.288C624.478 976.196 625.388 975.347 626.532 974.74C627.694 974.116 629.02 973.804 630.51 973.804C631.984 973.804 633.301 974.116 634.462 974.74C635.624 975.347 636.534 976.187 637.192 977.262C637.851 978.337 638.18 979.585 638.18 981.006C638.18 982.393 637.851 983.632 637.192 984.724C636.534 985.799 635.624 986.648 634.462 987.272C633.301 987.896 631.984 988.208 630.51 988.208ZM630.51 984.88C631.186 984.88 631.793 984.724 632.33 984.412C632.868 984.1 633.292 983.658 633.604 983.086C633.916 982.497 634.072 981.803 634.072 981.006C634.072 980.191 633.916 979.498 633.604 978.926C633.292 978.354 632.868 977.912 632.33 977.6C631.793 977.288 631.186 977.132 630.51 977.132C629.834 977.132 629.228 977.288 628.69 977.6C628.153 977.912 627.72 978.354 627.39 978.926C627.078 979.498 626.922 980.191 626.922 981.006C626.922 981.803 627.078 982.497 627.39 983.086C627.72 983.658 628.153 984.1 628.69 984.412C629.228 984.724 629.834 984.88 630.51 984.88ZM640.892 988V968.708H644.948V988H640.892ZM648.712 988V968.708H652.768V988H648.712ZM665.112 988V985.27L664.852 984.672V979.784C664.852 978.917 664.583 978.241 664.046 977.756C663.526 977.271 662.72 977.028 661.628 977.028C660.883 977.028 660.146 977.149 659.418 977.392C658.707 977.617 658.101 977.929 657.598 978.328L656.142 975.494C656.905 974.957 657.823 974.541 658.898 974.246C659.973 973.951 661.065 973.804 662.174 973.804C664.306 973.804 665.961 974.307 667.14 975.312C668.319 976.317 668.908 977.886 668.908 980.018V988H665.112ZM660.848 988.208C659.756 988.208 658.82 988.026 658.04 987.662C657.26 987.281 656.662 986.769 656.246 986.128C655.83 985.487 655.622 984.767 655.622 983.97C655.622 983.138 655.821 982.41 656.22 981.786C656.636 981.162 657.286 980.677 658.17 980.33C659.054 979.966 660.207 979.784 661.628 979.784H665.346V982.15H662.07C661.117 982.15 660.458 982.306 660.094 982.618C659.747 982.93 659.574 983.32 659.574 983.788C659.574 984.308 659.773 984.724 660.172 985.036C660.588 985.331 661.151 985.478 661.862 985.478C662.538 985.478 663.145 985.322 663.682 985.01C664.219 984.681 664.609 984.204 664.852 983.58L665.476 985.452C665.181 986.353 664.644 987.038 663.864 987.506C663.084 987.974 662.079 988.208 660.848 988.208ZM680.847 988.208C679.616 988.208 678.559 987.948 677.675 987.428C676.791 986.908 676.115 986.119 675.647 985.062C675.179 983.987 674.945 982.635 674.945 981.006C674.945 979.359 675.188 978.007 675.673 976.95C676.176 975.893 676.869 975.104 677.753 974.584C678.637 974.064 679.668 973.804 680.847 973.804C682.164 973.804 683.343 974.099 684.383 974.688C685.44 975.277 686.272 976.109 686.879 977.184C687.503 978.259 687.815 979.533 687.815 981.006C687.815 982.462 687.503 983.727 686.879 984.802C686.272 985.877 685.44 986.717 684.383 987.324C683.343 987.913 682.164 988.208 680.847 988.208ZM672.579 988V968.708H676.635V976.846L676.375 980.98L676.453 985.14V988H672.579ZM680.145 984.88C680.821 984.88 681.419 984.724 681.939 984.412C682.476 984.1 682.901 983.658 683.213 983.086C683.542 982.497 683.707 981.803 683.707 981.006C683.707 980.191 683.542 979.498 683.213 978.926C682.901 978.354 682.476 977.912 681.939 977.6C681.419 977.288 680.821 977.132 680.145 977.132C679.469 977.132 678.862 977.288 678.325 977.6C677.788 977.912 677.363 978.354 677.051 978.926C676.739 979.498 676.583 980.191 676.583 981.006C676.583 981.803 676.739 982.497 677.051 983.086C677.363 983.658 677.788 984.1 678.325 984.412C678.862 984.724 679.469 984.88 680.145 984.88ZM697.186 988.208C695.696 988.208 694.37 987.896 693.208 987.272C692.064 986.648 691.154 985.799 690.478 984.724C689.82 983.632 689.49 982.393 689.49 981.006C689.49 979.602 689.82 978.363 690.478 977.288C691.154 976.196 692.064 975.347 693.208 974.74C694.37 974.116 695.696 973.804 697.186 973.804C698.66 973.804 699.977 974.116 701.138 974.74C702.3 975.347 703.21 976.187 703.868 977.262C704.527 978.337 704.856 979.585 704.856 981.006C704.856 982.393 704.527 983.632 703.868 984.724C703.21 985.799 702.3 986.648 701.138 987.272C699.977 987.896 698.66 988.208 697.186 988.208ZM697.186 984.88C697.862 984.88 698.469 984.724 699.006 984.412C699.544 984.1 699.968 983.658 700.28 983.086C700.592 982.497 700.748 981.803 700.748 981.006C700.748 980.191 700.592 979.498 700.28 978.926C699.968 978.354 699.544 977.912 699.006 977.6C698.469 977.288 697.862 977.132 697.186 977.132C696.51 977.132 695.904 977.288 695.366 977.6C694.829 977.912 694.396 978.354 694.066 978.926C693.754 979.498 693.598 980.191 693.598 981.006C693.598 981.803 693.754 982.497 694.066 983.086C694.396 983.658 694.829 984.1 695.366 984.412C695.904 984.724 696.51 984.88 697.186 984.88ZM707.567 988V974.012H711.441V977.964L710.895 976.82C711.311 975.832 711.979 975.087 712.897 974.584C713.816 974.064 714.934 973.804 716.251 973.804V977.548C716.078 977.531 715.922 977.522 715.783 977.522C715.645 977.505 715.497 977.496 715.341 977.496C714.232 977.496 713.331 977.817 712.637 978.458C711.961 979.082 711.623 980.061 711.623 981.396V988H707.567ZM726.329 988V985.27L726.069 984.672V979.784C726.069 978.917 725.8 978.241 725.263 977.756C724.743 977.271 723.937 977.028 722.845 977.028C722.1 977.028 721.363 977.149 720.635 977.392C719.924 977.617 719.318 977.929 718.815 978.328L717.359 975.494C718.122 974.957 719.04 974.541 720.115 974.246C721.19 973.951 722.282 973.804 723.391 973.804C725.523 973.804 727.178 974.307 728.357 975.312C729.536 976.317 730.125 977.886 730.125 980.018V988H726.329ZM722.065 988.208C720.973 988.208 720.037 988.026 719.257 987.662C718.477 987.281 717.879 986.769 717.463 986.128C717.047 985.487 716.839 984.767 716.839 983.97C716.839 983.138 717.038 982.41 717.437 981.786C717.853 981.162 718.503 980.677 719.387 980.33C720.271 979.966 721.424 979.784 722.845 979.784H726.563V982.15H723.287C722.334 982.15 721.675 982.306 721.311 982.618C720.964 982.93 720.791 983.32 720.791 983.788C720.791 984.308 720.99 984.724 721.389 985.036C721.805 985.331 722.368 985.478 723.079 985.478C723.755 985.478 724.362 985.322 724.899 985.01C725.436 984.681 725.826 984.204 726.069 983.58L726.693 985.452C726.398 986.353 725.861 987.038 725.081 987.506C724.301 987.974 723.296 988.208 722.065 988.208ZM739.516 988.208C737.869 988.208 736.586 987.792 735.668 986.96C734.749 986.111 734.29 984.854 734.29 983.19V970.918H738.346V983.138C738.346 983.727 738.502 984.187 738.814 984.516C739.126 984.828 739.55 984.984 740.088 984.984C740.729 984.984 741.275 984.811 741.726 984.464L742.818 987.324C742.402 987.619 741.899 987.844 741.31 988C740.738 988.139 740.14 988.208 739.516 988.208ZM732.132 977.444V974.324H741.83V977.444H732.132ZM745.095 988V974.012H749.151V988H745.095ZM747.123 972.062C746.377 972.062 745.771 971.845 745.303 971.412C744.835 970.979 744.601 970.441 744.601 969.8C744.601 969.159 744.835 968.621 745.303 968.188C745.771 967.755 746.377 967.538 747.123 967.538C747.868 967.538 748.475 967.746 748.943 968.162C749.411 968.561 749.645 969.081 749.645 969.722C749.645 970.398 749.411 970.961 748.943 971.412C748.492 971.845 747.885 972.062 747.123 972.062ZM756.711 988L750.835 974.012H755.021L759.909 986.05H757.829L762.899 974.012H766.799L760.897 988H756.711ZM775.015 988.208C773.421 988.208 772.017 987.896 770.803 987.272C769.607 986.648 768.68 985.799 768.021 984.724C767.363 983.632 767.033 982.393 767.033 981.006C767.033 979.602 767.354 978.363 767.995 977.288C768.654 976.196 769.547 975.347 770.673 974.74C771.8 974.116 773.074 973.804 774.495 973.804C775.865 973.804 777.095 974.099 778.187 974.688C779.297 975.26 780.172 976.092 780.813 977.184C781.455 978.259 781.775 979.55 781.775 981.058C781.775 981.214 781.767 981.396 781.749 981.604C781.732 981.795 781.715 981.977 781.697 982.15H770.335V979.784H779.565L778.005 980.486C778.005 979.758 777.858 979.125 777.563 978.588C777.269 978.051 776.861 977.635 776.341 977.34C775.821 977.028 775.215 976.872 774.521 976.872C773.828 976.872 773.213 977.028 772.675 977.34C772.155 977.635 771.748 978.059 771.453 978.614C771.159 979.151 771.011 979.793 771.011 980.538V981.162C771.011 981.925 771.176 982.601 771.505 983.19C771.852 983.762 772.329 984.204 772.935 984.516C773.559 984.811 774.287 984.958 775.119 984.958C775.865 984.958 776.515 984.845 777.069 984.62C777.641 984.395 778.161 984.057 778.629 983.606L780.787 985.946C780.146 986.674 779.34 987.237 778.369 987.636C777.399 988.017 776.281 988.208 775.015 988.208ZM655.004 1020.31C653.6 1020.31 652.291 1020.09 651.078 1019.64C649.882 1019.17 648.842 1018.51 647.958 1017.66C647.074 1016.81 646.38 1015.81 645.878 1014.67C645.392 1013.53 645.15 1012.27 645.15 1010.9C645.15 1009.53 645.392 1008.27 645.878 1007.13C646.38 1005.99 647.074 1004.99 647.958 1004.14C648.859 1003.29 649.908 1002.64 651.104 1002.19C652.3 1001.72 653.608 1001.49 655.03 1001.49C656.607 1001.49 658.028 1001.77 659.294 1002.32C660.576 1002.86 661.651 1003.65 662.518 1004.71L659.814 1007.21C659.19 1006.5 658.496 1005.97 657.734 1005.62C656.971 1005.26 656.139 1005.08 655.238 1005.08C654.388 1005.08 653.608 1005.21 652.898 1005.49C652.187 1005.77 651.572 1006.17 651.052 1006.69C650.532 1007.21 650.124 1007.82 649.83 1008.53C649.552 1009.24 649.414 1010.03 649.414 1010.9C649.414 1011.77 649.552 1012.56 649.83 1013.27C650.124 1013.98 650.532 1014.59 651.052 1015.11C651.572 1015.63 652.187 1016.03 652.898 1016.31C653.608 1016.59 654.388 1016.72 655.238 1016.72C656.139 1016.72 656.971 1016.55 657.734 1016.2C658.496 1015.84 659.19 1015.29 659.814 1014.57L662.518 1017.06C661.651 1018.12 660.576 1018.93 659.294 1019.48C658.028 1020.03 656.598 1020.31 655.004 1020.31ZM671.25 1020.21C669.759 1020.21 668.433 1019.9 667.272 1019.27C666.128 1018.65 665.218 1017.8 664.542 1016.72C663.883 1015.63 663.554 1014.39 663.554 1013.01C663.554 1011.6 663.883 1010.36 664.542 1009.29C665.218 1008.2 666.128 1007.35 667.272 1006.74C668.433 1006.12 669.759 1005.8 671.25 1005.8C672.723 1005.8 674.04 1006.12 675.202 1006.74C676.363 1007.35 677.273 1008.19 677.932 1009.26C678.59 1010.34 678.92 1011.58 678.92 1013.01C678.92 1014.39 678.59 1015.63 677.932 1016.72C677.273 1017.8 676.363 1018.65 675.202 1019.27C674.04 1019.9 672.723 1020.21 671.25 1020.21ZM671.25 1016.88C671.926 1016.88 672.532 1016.72 673.07 1016.41C673.607 1016.1 674.032 1015.66 674.344 1015.09C674.656 1014.5 674.812 1013.8 674.812 1013.01C674.812 1012.19 674.656 1011.5 674.344 1010.93C674.032 1010.35 673.607 1009.91 673.07 1009.6C672.532 1009.29 671.926 1009.13 671.25 1009.13C670.574 1009.13 669.967 1009.29 669.43 1009.6C668.892 1009.91 668.459 1010.35 668.13 1010.93C667.818 1011.5 667.662 1012.19 667.662 1013.01C667.662 1013.8 667.818 1014.5 668.13 1015.09C668.459 1015.66 668.892 1016.1 669.43 1016.41C669.967 1016.72 670.574 1016.88 671.25 1016.88ZM687.637 1020.21C686.319 1020.21 685.132 1019.91 684.075 1019.32C683.017 1018.72 682.177 1017.88 681.553 1016.8C680.946 1015.73 680.643 1014.46 680.643 1013.01C680.643 1011.53 680.946 1010.26 681.553 1009.18C682.177 1008.11 683.017 1007.28 684.075 1006.69C685.132 1006.1 686.319 1005.8 687.637 1005.8C688.815 1005.8 689.847 1006.06 690.731 1006.58C691.615 1007.1 692.299 1007.89 692.785 1008.95C693.27 1010.01 693.513 1011.36 693.513 1013.01C693.513 1014.64 693.279 1015.99 692.811 1017.06C692.343 1018.12 691.667 1018.91 690.783 1019.43C689.916 1019.95 688.867 1020.21 687.637 1020.21ZM688.339 1016.88C688.997 1016.88 689.595 1016.72 690.133 1016.41C690.67 1016.1 691.095 1015.66 691.407 1015.09C691.736 1014.5 691.901 1013.8 691.901 1013.01C691.901 1012.19 691.736 1011.5 691.407 1010.93C691.095 1010.35 690.67 1009.91 690.133 1009.6C689.595 1009.29 688.997 1009.13 688.339 1009.13C687.663 1009.13 687.056 1009.29 686.519 1009.6C685.981 1009.91 685.548 1010.35 685.219 1010.93C684.907 1011.5 684.751 1012.19 684.751 1013.01C684.751 1013.8 684.907 1014.5 685.219 1015.09C685.548 1015.66 685.981 1016.1 686.519 1016.41C687.056 1016.72 687.663 1016.88 688.339 1016.88ZM692.005 1020V1017.14L692.083 1012.98L691.823 1008.85V1000.71H695.879V1020H692.005ZM699.633 1020V1006.01H703.689V1020H699.633ZM701.661 1004.06C700.915 1004.06 700.309 1003.85 699.841 1003.41C699.373 1002.98 699.139 1002.44 699.139 1001.8C699.139 1001.16 699.373 1000.62 699.841 1000.19C700.309 999.755 700.915 999.538 701.661 999.538C702.406 999.538 703.013 999.746 703.481 1000.16C703.949 1000.56 704.183 1001.08 704.183 1001.72C704.183 1002.4 703.949 1002.96 703.481 1003.41C703.03 1003.85 702.423 1004.06 701.661 1004.06ZM715.955 1005.8C717.064 1005.8 718.052 1006.03 718.919 1006.48C719.803 1006.91 720.496 1007.59 720.999 1008.51C721.502 1009.41 721.753 1010.57 721.753 1011.99V1020H717.697V1012.62C717.697 1011.49 717.446 1010.66 716.943 1010.12C716.458 1009.58 715.764 1009.31 714.863 1009.31C714.222 1009.31 713.641 1009.45 713.121 1009.73C712.618 1009.99 712.22 1010.4 711.925 1010.95C711.648 1011.51 711.509 1012.22 711.509 1013.08V1020H707.453V1006.01H711.327V1009.89L710.599 1008.72C711.102 1007.78 711.821 1007.06 712.757 1006.56C713.693 1006.06 714.759 1005.8 715.955 1005.8ZM732.109 1025.25C730.792 1025.25 729.518 1025.09 728.287 1024.76C727.074 1024.45 726.06 1023.97 725.245 1023.33L726.857 1020.42C727.447 1020.9 728.192 1021.28 729.093 1021.56C730.012 1021.85 730.913 1022 731.797 1022C733.236 1022 734.276 1021.68 734.917 1021.04C735.576 1020.4 735.905 1019.45 735.905 1018.18V1016.07L736.165 1012.56L736.113 1009.03V1006.01H739.961V1017.66C739.961 1020.26 739.285 1022.18 737.933 1023.41C736.581 1024.64 734.64 1025.25 732.109 1025.25ZM731.485 1019.32C730.185 1019.32 729.007 1019.05 727.949 1018.49C726.909 1017.92 726.069 1017.13 725.427 1016.13C724.803 1015.1 724.491 1013.92 724.491 1012.56C724.491 1011.19 724.803 1010.01 725.427 1009C726.069 1007.98 726.909 1007.19 727.949 1006.64C729.007 1006.08 730.185 1005.8 731.485 1005.8C732.664 1005.8 733.704 1006.05 734.605 1006.53C735.507 1007 736.209 1007.74 736.711 1008.74C737.214 1009.73 737.465 1011 737.465 1012.56C737.465 1014.11 737.214 1015.38 736.711 1016.39C736.209 1017.37 735.507 1018.11 734.605 1018.6C733.704 1019.08 732.664 1019.32 731.485 1019.32ZM732.291 1016C733.002 1016 733.635 1015.86 734.189 1015.58C734.744 1015.29 735.177 1014.88 735.489 1014.36C735.801 1013.84 735.957 1013.24 735.957 1012.56C735.957 1011.87 735.801 1011.27 735.489 1010.77C735.177 1010.25 734.744 1009.85 734.189 1009.57C733.635 1009.28 733.002 1009.13 732.291 1009.13C731.581 1009.13 730.948 1009.28 730.393 1009.57C729.839 1009.85 729.397 1010.25 729.067 1010.77C728.755 1011.27 728.599 1011.87 728.599 1012.56C728.599 1013.24 728.755 1013.84 729.067 1014.36C729.397 1014.88 729.839 1015.29 730.393 1015.58C730.948 1015.86 731.581 1016 732.291 1016Z" fill="#003667"/>
<defs>
<filter id="filter0_d_366_9" x="525.639" y="389.352" width="304.185" height="52.8702" filterUnits="userSpaceOnUse" color-interpolation-filters="sRGB">
<feFlood flood-opacity="0" result="BackgroundImageFix"/>
<feColorMatrix in="SourceAlpha" type="matrix" values="0 0 0 0 0 0 0 0 0 0 0 0 0 0 0 0 0 0 127 0" result="hardAlpha"/>
<feOffset dx="-6" dy="4"/>
<feGaussianBlur stdDeviation="2"/>
<feComposite in2="hardAlpha" operator="out"/>
<feColorMatrix type="matrix" values="0 0 0 0 0 0 0 0 0 0 0 0 0 0 0 0 0 0 0.25 0"/>
<feBlend mode="normal" in2="BackgroundImageFix" result="effect1_dropShadow_366_9"/>
<feBlend mode="normal" in="SourceGraphic" in2="effect1_dropShadow_366_9" result="shape"/>
</filter>
<filter id="filter1_d_366_9" x="332" y="619.148" width="697.963" height="338.421" filterUnits="userSpaceOnUse" color-interpolation-filters="sRGB">
<feFlood flood-opacity="0" result="BackgroundImageFix"/>
<feColorMatrix in="SourceAlpha" type="matrix" values="0 0 0 0 0 0 0 0 0 0 0 0 0 0 0 0 0 0 127 0" result="hardAlpha"/>
<feOffset dx="-6" dy="4"/>
<feGaussianBlur stdDeviation="2"/>
<feComposite in2="hardAlpha" operator="out"/>
<feColorMatrix type="matrix" values="0 0 0 0 0 0 0 0 0 0 0 0 0 0 0 0 0 0 0.25 0"/>
<feBlend mode="normal" in2="BackgroundImageFix" result="effect1_dropShadow_366_9"/>
<feBlend mode="normal" in="SourceGraphic" in2="effect1_dropShadow_366_9" result="shape"/>
</filter>
<filter id="filter2_d_366_9" x="332" y="619.148" width="697.963" height="338.421" filterUnits="userSpaceOnUse" color-interpolation-filters="sRGB">
<feFlood flood-opacity="0" result="BackgroundImageFix"/>
<feColorMatrix in="SourceAlpha" type="matrix" values="0 0 0 0 0 0 0 0 0 0 0 0 0 0 0 0 0 0 127 0" result="hardAlpha"/>
<feOffset dx="-6" dy="4"/>
<feGaussianBlur stdDeviation="2"/>
<feComposite in2="hardAlpha" operator="out"/>
<feColorMatrix type="matrix" values="0 0 0 0 0 0 0 0 0 0 0 0 0 0 0 0 0 0 0.25 0"/>
<feBlend mode="normal" in2="BackgroundImageFix" result="effect1_dropShadow_366_9"/>
<feBlend mode="normal" in="SourceGraphic" in2="effect1_dropShadow_366_9" result="shape"/>
</filter>
<linearGradient id="paint0_linear_366_9" x1="682.458" y1="386.305" x2="706.559" y2="386.399" gradientUnits="userSpaceOnUse">
<stop stop-color="#FE6C00"/>
<stop offset="1" stop-color="#FF3F01"/>
</linearGradient>
<linearGradient id="paint1_linear_366_9" x1="201.377" y1="884.387" x2="929.271" y2="599.608" gradientUnits="userSpaceOnUse">
<stop stop-color="#000054"/>
<stop offset="1" stop-color="#0078C1"/>
</linearGradient>
<linearGradient id="paint2_linear_366_9" x1="457.073" y1="798.579" x2="456.461" y2="639.474" gradientUnits="userSpaceOnUse">
<stop offset="0.02" stop-color="#7BB3FF"/>
<stop offset="1" stop-color="#002D50"/>
</linearGradient>
<linearGradient id="paint3_linear_366_9" x1="453.993" y1="769.231" x2="453.993" y2="949.554" gradientUnits="userSpaceOnUse">
<stop stop-color="#002B7B"/>
<stop offset="1" stop-color="#0071BB"/>
</linearGradient>
<linearGradient id="paint4_linear_366_9" x1="686.445" y1="902.822" x2="685.833" y2="743.717" gradientUnits="userSpaceOnUse">
<stop offset="0.02" stop-color="#0087FF"/>
<stop offset="1"/>
</linearGradient>
<linearGradient id="paint5_linear_366_9" x1="684.46" y1="876.125" x2="684.46" y2="949.569" gradientUnits="userSpaceOnUse">
<stop stop-color="#004593"/>
<stop offset="1" stop-color="#0071BB"/>
</linearGradient>
<linearGradient id="paint6_linear_366_9" x1="915.818" y1="798.579" x2="915.206" y2="639.474" gradientUnits="userSpaceOnUse">
<stop offset="0.02" stop-color="#0355A0"/>
<stop offset="1" stop-color="#000204"/>
</linearGradient>
<linearGradient id="paint7_linear_366_9" x1="914.926" y1="772.252" x2="914.926" y2="949.554" gradientUnits="userSpaceOnUse">
<stop stop-color="#0068B3"/>
<stop offset="1" stop-color="#0071BB"/>
</linearGradient>
<linearGradient id="paint8_linear_366_9" x1="201.377" y1="884.387" x2="929.271" y2="599.608" gradientUnits="userSpaceOnUse">
<stop stop-color="#000054"/>
<stop offset="1" stop-color="#0078C1"/>
</linearGradient>
<linearGradient id="paint9_linear_366_9" x1="457.073" y1="798.579" x2="456.461" y2="639.474" gradientUnits="userSpaceOnUse">
<stop offset="0.02" stop-color="#7BB3FF"/>
<stop offset="1" stop-color="#002D50"/>
</linearGradient>
<linearGradient id="paint10_linear_366_9" x1="453.993" y1="769.231" x2="453.993" y2="949.554" gradientUnits="userSpaceOnUse">
<stop stop-color="#002B7B"/>
<stop offset="1" stop-color="#0071BB"/>
</linearGradient>
<linearGradient id="paint11_linear_366_9" x1="686.445" y1="902.822" x2="685.833" y2="743.717" gradientUnits="userSpaceOnUse">
<stop offset="0.02" stop-color="#0087FF"/>
<stop offset="1"/>
</linearGradient>
<linearGradient id="paint12_linear_366_9" x1="684.46" y1="876.125" x2="684.46" y2="949.569" gradientUnits="userSpaceOnUse">
<stop stop-color="#004593"/>
<stop offset="1" stop-color="#0071BB"/>
</linearGradient>
<linearGradient id="paint13_linear_366_9" x1="915.818" y1="798.579" x2="915.206" y2="639.474" gradientUnits="userSpaceOnUse">
<stop offset="0.02" stop-color="#0355A0"/>
<stop offset="1" stop-color="#000204"/>
</linearGradient>
<linearGradient id="paint14_linear_366_9" x1="914.926" y1="772.252" x2="914.926" y2="949.554" gradientUnits="userSpaceOnUse">
<stop stop-color="#0068B3"/>
<stop offset="1" stop-color="#0071BB"/>
</linearGradient>
<clipPath id="clip0_366_9">
<rect width="688" height="330.425" fill="white" transform="translate(342 619.144)"/>
</clipPath>
<clipPath id="clip1_366_9">
<rect width="77.2466" height="67.9912" fill="white" transform="translate(645.21 800.242)"/>
</clipPath>
<clipPath id="clip2_366_9">
<rect width="688" height="330.425" fill="white" transform="translate(342 619.144)"/>
</clipPath>
<clipPath id="clip3_366_9">
<rect width="77.2466" height="67.9912" fill="white" transform="translate(645.21 800.242)"/>
</clipPath>
</defs>
</svg>
