<svg width="1366" height="442" viewBox="0 0 1366 442" fill="none" xmlns="http://www.w3.org/2000/svg">
<mask id="mask0_178_1195" style="mask-type:alpha" maskUnits="userSpaceOnUse" x="0" y="0" width="1367" height="442">
<rect y="-6.10352e-05" width="1367" height="442" fill="#D9D9D9"/>
</mask>
<g mask="url(#mask0_178_1195)">
<path d="M-1013.02 -66.2689C913.006 333.142 2069.08 -1097.97 3044.14 -769.624C2297.89 -543.169 1946.77 41.5986 907.767 319.306C46.8085 533.515 -737.072 274.3 -1013.14 -66.2472L-1013.02 -66.2689Z" fill="#0078C1"/>
<path d="M907.907 319.384C1946.89 41.5769 2298.03 -543.09 3044.28 -769.546C2189.65 -644.967 1733.02 3.21537 767.235 150.362C-527.576 347.669 -1012.88 -66.1907 -1012.88 -66.1907C-736.812 274.357 46.9479 533.593 908.027 319.362L907.907 319.384Z" fill="#0170B3"/>
</g>
</svg>
