<svg width="515" height="78" viewBox="0 0 515 78" fill="none" xmlns="http://www.w3.org/2000/svg">
<g filter="url(#filter0_d_174_404)">
<path d="M33.968 1.89599C44.272 1.89599 51.76 3.91199 56.432 7.944C61.168 11.912 63.536 18.056 63.536 26.376C63.536 34.632 61.104 40.68 56.24 44.52C51.44 48.36 44.08 50.28 34.16 50.28H25.232V69H10.256V1.89599H33.968ZM35.312 37.32C40.304 37.32 43.696 36.328 45.488 34.344C47.28 32.296 48.176 29.352 48.176 25.512C48.176 21.608 46.992 18.856 44.624 17.256C42.32 15.592 38.704 14.76 33.776 14.76H25.232V37.32H35.312ZM129.657 24.168C129.657 34.92 125.401 41.864 116.889 45L133.881 69H115.449L100.569 47.592H90.2008V69H75.2248V1.89599H100.665C111.097 1.89599 118.521 3.65599 122.937 7.17599C127.417 10.696 129.657 16.36 129.657 24.168ZM101.145 34.632C106.265 34.632 109.753 33.8 111.609 32.136C113.465 30.472 114.393 27.848 114.393 24.264C114.393 20.616 113.433 18.12 111.513 16.776C109.593 15.432 106.233 14.76 101.433 14.76H90.2008V34.632H101.145ZM195.679 35.112C195.679 29.096 193.759 23.976 189.919 19.752C186.079 15.528 181.343 13.416 175.711 13.416C170.143 13.416 165.439 15.528 161.599 19.752C157.759 23.976 155.839 29.096 155.839 35.112C155.839 41.064 157.759 46.152 161.599 50.376C165.439 54.536 170.143 56.616 175.711 56.616C181.343 56.616 186.079 54.536 189.919 50.376C193.759 46.152 195.679 41.064 195.679 35.112ZM200.767 59.784C193.983 66.376 185.631 69.672 175.711 69.672C165.791 69.672 157.439 66.376 150.655 59.784C143.871 53.128 140.479 44.872 140.479 35.016C140.479 25.16 143.871 16.936 150.655 10.344C157.439 3.688 165.791 0.359997 175.711 0.359997C185.631 0.359997 193.983 3.688 200.767 10.344C207.551 16.936 210.943 25.16 210.943 35.016C210.943 44.872 207.551 53.128 200.767 59.784ZM223.971 14.76V1.89599H258.915V45.672C258.915 53.672 256.835 59.656 252.675 63.624C248.579 67.592 243.299 69.576 236.835 69.576C228.771 69.576 221.731 66.472 215.715 60.264L223.491 49.512C227.523 53.864 231.747 56.04 236.163 56.04C238.275 56.04 240.067 55.24 241.539 53.64C243.075 51.976 243.843 49.512 243.843 46.248V14.76H223.971ZM323.203 1.89599V15.24H289.795V29.064H319.843V41.832H289.795V55.752H324.259V69H274.819V1.89599H323.203ZM368.447 55.752C375.807 55.752 381.823 52.84 386.495 47.016L396.095 56.904C388.479 65.48 379.487 69.768 369.119 69.768C358.815 69.768 350.303 66.504 343.583 59.976C336.927 53.448 333.599 45.224 333.599 35.304C333.599 25.32 336.991 17 343.775 10.344C350.623 3.688 358.975 0.359997 368.831 0.359997C379.839 0.359997 389.055 4.552 396.479 12.936L387.167 23.496C382.431 17.608 376.543 14.664 369.503 14.664C363.871 14.664 359.039 16.52 355.007 20.232C351.039 23.88 349.055 28.84 349.055 35.112C349.055 41.32 350.943 46.312 354.719 50.088C358.495 53.864 363.071 55.752 368.447 55.752ZM436.36 14.856V69H421.384V14.856H402.376V1.89599H455.368V14.856H436.36ZM487.387 13.512C484.891 13.512 482.907 14.12 481.435 15.336C480.027 16.488 479.323 18.056 479.323 20.04C479.323 21.96 480.187 23.496 481.915 24.648C483.707 25.8 487.771 27.176 494.107 28.776C500.507 30.312 505.467 32.648 508.987 35.784C512.507 38.92 514.267 43.496 514.267 49.512C514.267 55.528 511.995 60.424 507.451 64.2C502.971 67.912 497.051 69.768 489.691 69.768C479.067 69.768 469.499 65.832 460.987 57.96L469.915 47.016C477.147 53.352 483.835 56.52 489.979 56.52C492.731 56.52 494.875 55.944 496.411 54.792C498.011 53.576 498.811 51.976 498.811 49.992C498.811 47.944 497.979 46.344 496.315 45.192C494.651 43.976 491.355 42.76 486.427 41.544C478.619 39.688 472.891 37.288 469.243 34.344C465.659 31.336 463.867 26.664 463.867 20.328C463.867 13.928 466.139 9 470.683 5.544C475.291 2.088 481.019 0.359997 487.867 0.359997C492.347 0.359997 496.827 1.128 501.307 2.664C505.787 4.2 509.691 6.376 513.019 9.192L505.435 20.136C499.611 15.72 493.595 13.512 487.387 13.512Z" fill="white"/>
</g>
<defs>
<filter id="filter0_d_174_404" x="0.255859" y="0.359985" width="514.012" height="77.408" filterUnits="userSpaceOnUse" color-interpolation-filters="sRGB">
<feFlood flood-opacity="0" result="BackgroundImageFix"/>
<feColorMatrix in="SourceAlpha" type="matrix" values="0 0 0 0 0 0 0 0 0 0 0 0 0 0 0 0 0 0 127 0" result="hardAlpha"/>
<feOffset dx="-6" dy="4"/>
<feGaussianBlur stdDeviation="2"/>
<feComposite in2="hardAlpha" operator="out"/>
<feColorMatrix type="matrix" values="0 0 0 0 0 0 0 0 0 0 0 0 0 0 0 0 0 0 0.25 0"/>
<feBlend mode="normal" in2="BackgroundImageFix" result="effect1_dropShadow_174_404"/>
<feBlend mode="normal" in="SourceGraphic" in2="effect1_dropShadow_174_404" result="shape"/>
</filter>
</defs>
</svg>
