<svg width="242" height="70" viewBox="0 0 242 70" fill="none" xmlns="http://www.w3.org/2000/svg">
<g filter="url(#filter0_d_178_929)">
<rect x="10.5498" y="0.767578" width="231" height="59" rx="29.5" fill="#EFECEC"/>
<path d="M28.5418 37.7676V20.9676H32.4298V34.5996H40.8538V37.7676H28.5418ZM46.6022 27.7356H54.6902V30.7596H46.6022V27.7356ZM46.8902 34.6476H56.0342V37.7676H43.0262V20.9676H55.7222V24.0876H46.8902V34.6476ZM56.9197 37.7676L64.4077 20.9676H68.2477L75.7597 37.7676H71.6797L65.5357 22.9356H67.0717L60.9037 37.7676H56.9197ZM60.6637 34.1676L61.6957 31.2156H70.3357L71.3917 34.1676H60.6637ZM77.5027 37.7676V20.9676H84.7747C86.2787 20.9676 87.5747 21.2156 88.6627 21.7116C89.7507 22.1916 90.5907 22.8876 91.1827 23.7996C91.7747 24.7116 92.0707 25.7996 92.0707 27.0636C92.0707 28.3116 91.7747 29.3916 91.1827 30.3036C90.5907 31.1996 89.7507 31.8876 88.6627 32.3676C87.5747 32.8476 86.2787 33.0876 84.7747 33.0876H79.6627L81.3907 31.3836V37.7676H77.5027ZM88.1827 37.7676L83.9827 31.6716H88.1347L92.3827 37.7676H88.1827ZM81.3907 31.8156L79.6627 29.9916H84.5587C85.7587 29.9916 86.6547 29.7356 87.2467 29.2236C87.8387 28.6956 88.1347 27.9756 88.1347 27.0636C88.1347 26.1356 87.8387 25.4156 87.2467 24.9036C86.6547 24.3916 85.7587 24.1356 84.5587 24.1356H79.6627L81.3907 22.2876V31.8156ZM95.1512 37.7676V20.9676H98.3672L108.279 33.0636H106.719V20.9676H110.559V37.7676H107.367L97.4312 25.6716H98.9912V37.7676H95.1512ZM121.331 37.7676V20.9676H124.547L131.699 32.8236H129.995L137.027 20.9676H140.219L140.267 37.7676H136.619L136.595 26.5596H137.267L131.651 35.9916H129.899L124.163 26.5596H124.979V37.7676H121.331ZM152.413 38.0556C151.085 38.0556 149.853 37.8396 148.717 37.4076C147.597 36.9756 146.621 36.3676 145.789 35.5836C144.973 34.7996 144.333 33.8796 143.869 32.8236C143.421 31.7676 143.197 30.6156 143.197 29.3676C143.197 28.1196 143.421 26.9676 143.869 25.9116C144.333 24.8556 144.981 23.9356 145.813 23.1516C146.645 22.3676 147.621 21.7596 148.741 21.3276C149.861 20.8956 151.077 20.6796 152.389 20.6796C153.717 20.6796 154.933 20.8956 156.037 21.3276C157.157 21.7596 158.125 22.3676 158.941 23.1516C159.773 23.9356 160.421 24.8556 160.885 25.9116C161.349 26.9516 161.581 28.1036 161.581 29.3676C161.581 30.6156 161.349 31.7756 160.885 32.8476C160.421 33.9036 159.773 34.8236 158.941 35.6076C158.125 36.3756 157.157 36.9756 156.037 37.4076C154.933 37.8396 153.725 38.0556 152.413 38.0556ZM152.389 34.7436C153.141 34.7436 153.829 34.6156 154.453 34.3596C155.093 34.1036 155.653 33.7356 156.133 33.2556C156.613 32.7756 156.981 32.2076 157.237 31.5516C157.509 30.8956 157.645 30.1676 157.645 29.3676C157.645 28.5676 157.509 27.8396 157.237 27.1836C156.981 26.5276 156.613 25.9596 156.133 25.4796C155.669 24.9996 155.117 24.6316 154.477 24.3756C153.837 24.1196 153.141 23.9916 152.389 23.9916C151.637 23.9916 150.941 24.1196 150.301 24.3756C149.677 24.6316 149.125 24.9996 148.645 25.4796C148.165 25.9596 147.789 26.5276 147.517 27.1836C147.261 27.8396 147.133 28.5676 147.133 29.3676C147.133 30.1516 147.261 30.8796 147.517 31.5516C147.789 32.2076 148.157 32.7756 148.621 33.2556C149.101 33.7356 149.661 34.1036 150.301 34.3596C150.941 34.6156 151.637 34.7436 152.389 34.7436ZM164.503 37.7676V20.9676H171.775C173.279 20.9676 174.575 21.2156 175.663 21.7116C176.751 22.1916 177.591 22.8876 178.183 23.7996C178.775 24.7116 179.071 25.7996 179.071 27.0636C179.071 28.3116 178.775 29.3916 178.183 30.3036C177.591 31.1996 176.751 31.8876 175.663 32.3676C174.575 32.8476 173.279 33.0876 171.775 33.0876H166.663L168.391 31.3836V37.7676H164.503ZM175.183 37.7676L170.983 31.6716H175.135L179.383 37.7676H175.183ZM168.391 31.8156L166.663 29.9916H171.559C172.759 29.9916 173.655 29.7356 174.247 29.2236C174.839 28.6956 175.135 27.9756 175.135 27.0636C175.135 26.1356 174.839 25.4156 174.247 24.9036C173.655 24.3916 172.759 24.1356 171.559 24.1356H166.663L168.391 22.2876V31.8156ZM185.727 27.7356H193.815V30.7596H185.727V27.7356ZM186.015 34.6476H195.159V37.7676H182.151V20.9676H194.847V24.0876H186.015V34.6476Z" fill="#0C1B2A"/>
<path d="M206.8 41.2259L229.008 19.0176M229.008 19.0176V40.3376M229.008 19.0176H207.688" stroke="#0C1B2A" stroke-width="8" stroke-linecap="round" stroke-linejoin="round"/>
</g>
<defs>
<filter id="filter0_d_178_929" x="0.549805" y="0.767578" width="241" height="69" filterUnits="userSpaceOnUse" color-interpolation-filters="sRGB">
<feFlood flood-opacity="0" result="BackgroundImageFix"/>
<feColorMatrix in="SourceAlpha" type="matrix" values="0 0 0 0 0 0 0 0 0 0 0 0 0 0 0 0 0 0 127 0" result="hardAlpha"/>
<feOffset dx="-6" dy="6"/>
<feGaussianBlur stdDeviation="2"/>
<feComposite in2="hardAlpha" operator="out"/>
<feColorMatrix type="matrix" values="0 0 0 0 0 0 0 0 0 0 0 0 0 0 0 0 0 0 0.25 0"/>
<feBlend mode="normal" in2="BackgroundImageFix" result="effect1_dropShadow_178_929"/>
<feBlend mode="normal" in="SourceGraphic" in2="effect1_dropShadow_178_929" result="shape"/>
</filter>
</defs>
</svg>
